<svg width="71" height="71" viewBox="0 0 71 71" fill="none" xmlns="http://www.w3.org/2000/svg">
<path d="M35.5 69C54.0015 69 69 54.0015 69 35.5C69 16.9985 54.0015 2 35.5 2C16.9985 2 2 16.9985 2 35.5C2 54.0015 16.9985 69 35.5 69Z" fill="white" stroke="white" stroke-width="4"/>
<path d="M35.5002 32.2134C32.3382 32.2134 29.7749 29.6501 29.7749 26.4882C29.7749 23.3262 32.3382 20.7629 35.5002 20.7629C38.6621 20.7629 41.2254 23.3262 41.2254 26.4882C41.2254 27.6593 42.1748 28.6086 43.3459 28.6086C44.5171 28.6086 45.4664 27.6593 45.4664 26.4882C45.4244 21.8348 42.1677 17.8298 37.6207 16.8399V14.2953C37.6207 13.1241 36.6713 12.1748 35.5002 12.1748C34.329 12.1748 33.3797 13.1241 33.3797 14.2953V16.8399C28.0477 18.2059 24.8326 23.6359 26.1988 28.9678C27.2958 33.25 31.0826 36.2977 35.5002 36.4544C38.6621 36.4544 41.2254 39.0177 41.2254 42.1796C41.2254 45.3416 38.6621 47.9049 35.5002 47.9049C32.3382 47.9049 29.7749 45.3416 29.7749 42.1796C29.7749 41.0085 28.8256 40.0592 27.6544 40.0592C26.4833 40.0592 25.5339 41.0085 25.5339 42.1796C25.536 46.8474 28.8106 50.8743 33.3797 51.8279V55.6447C33.3797 56.8159 34.329 57.7652 35.5002 57.7652C36.6713 57.7652 37.6207 56.8159 37.6207 55.6447V51.8279C42.9526 50.4619 46.1677 45.0319 44.8016 39.7C43.7045 35.4178 39.9177 32.3699 35.5002 32.2134Z" fill="#38ACE2"/>
</svg>
