<svg width="83" height="30" viewBox="0 0 83 30" fill="none" xmlns="http://www.w3.org/2000/svg">
<rect width="82.474" height="29.0533" rx="5" fill="white"/>
<rect x="0.5" y="0.5" width="81.474" height="28.0533" rx="4.5" stroke="#0697DB" stroke-opacity="0.8"/>
<path d="M29.2666 13.3372H30.4883C31.2559 13.3254 31.8594 13.1233 32.2988 12.7307C32.7383 12.3381 32.958 11.8079 32.958 11.1399C32.958 9.63989 32.2109 8.88989 30.7168 8.88989C30.0137 8.88989 29.4512 9.09204 29.0293 9.49634C28.6133 9.89478 28.4053 10.425 28.4053 11.0872H26.7793C26.7793 10.0735 27.1484 9.23267 27.8867 8.5647C28.6309 7.89087 29.5742 7.55396 30.7168 7.55396C31.9238 7.55396 32.8701 7.87329 33.5557 8.51196C34.2412 9.15063 34.584 10.0383 34.584 11.175C34.584 11.7317 34.4023 12.2708 34.0391 12.7922C33.6816 13.3137 33.1924 13.7034 32.5713 13.9612C33.2744 14.1838 33.8164 14.553 34.1973 15.0686C34.584 15.5842 34.7773 16.2141 34.7773 16.9583C34.7773 18.1067 34.4023 19.0178 33.6523 19.6917C32.9023 20.3655 31.9268 20.7024 30.7256 20.7024C29.5244 20.7024 28.5459 20.3772 27.79 19.7268C27.04 19.0764 26.665 18.218 26.665 17.1516H28.2998C28.2998 17.8254 28.5195 18.3645 28.959 18.7688C29.3984 19.1731 29.9873 19.3752 30.7256 19.3752C31.5107 19.3752 32.1113 19.1702 32.5273 18.76C32.9434 18.3499 33.1514 17.761 33.1514 16.9934C33.1514 16.2493 32.9229 15.678 32.4658 15.2795C32.0088 14.8811 31.3496 14.676 30.4883 14.6643H29.2666V13.3372ZM45.0342 15.0686C45.0342 16.9729 44.709 18.3879 44.0586 19.3137C43.4082 20.2395 42.3916 20.7024 41.0088 20.7024C39.6436 20.7024 38.6328 20.2512 37.9766 19.3489C37.3203 18.4407 36.9805 17.0872 36.957 15.2883V13.1174C36.957 11.2366 37.2822 9.83911 37.9326 8.92505C38.583 8.01099 39.6025 7.55396 40.9912 7.55396C42.3682 7.55396 43.3818 7.99634 44.0322 8.8811C44.6826 9.76001 45.0166 11.1194 45.0342 12.9592V15.0686ZM43.4082 12.845C43.4082 11.468 43.2148 10.4661 42.8281 9.83911C42.4414 9.2063 41.8291 8.88989 40.9912 8.88989C40.1592 8.88989 39.5527 9.20337 39.1719 9.83032C38.791 10.4573 38.5947 11.4211 38.583 12.7219V15.3235C38.583 16.7063 38.7822 17.7288 39.1807 18.3909C39.585 19.0471 40.1943 19.3752 41.0088 19.3752C41.8115 19.3752 42.4062 19.0647 42.793 18.4436C43.1855 17.8225 43.3906 16.844 43.4082 15.5081V12.845ZM55.1416 15.0686C55.1416 16.9729 54.8164 18.3879 54.166 19.3137C53.5156 20.2395 52.499 20.7024 51.1162 20.7024C49.751 20.7024 48.7402 20.2512 48.084 19.3489C47.4277 18.4407 47.0879 17.0872 47.0645 15.2883V13.1174C47.0645 11.2366 47.3896 9.83911 48.04 8.92505C48.6904 8.01099 49.71 7.55396 51.0986 7.55396C52.4756 7.55396 53.4893 7.99634 54.1396 8.8811C54.79 9.76001 55.124 11.1194 55.1416 12.9592V15.0686ZM53.5156 12.845C53.5156 11.468 53.3223 10.4661 52.9355 9.83911C52.5488 9.2063 51.9365 8.88989 51.0986 8.88989C50.2666 8.88989 49.6602 9.20337 49.2793 9.83032C48.8984 10.4573 48.7021 11.4211 48.6904 12.7219V15.3235C48.6904 16.7063 48.8896 17.7288 49.2881 18.3909C49.6924 19.0471 50.3018 19.3752 51.1162 19.3752C51.9189 19.3752 52.5137 19.0647 52.9004 18.4436C53.293 17.8225 53.498 16.844 53.5156 15.5081V12.845Z" fill="#0697DB" fill-opacity="0.8"/>
</svg>
