<svg width="84" height="30" viewBox="0 0 84 30" fill="none" xmlns="http://www.w3.org/2000/svg">
<rect x="0.762939" width="82.474" height="29.0533" rx="5" fill="white"/>
<rect x="1.26294" y="0.5" width="81.474" height="28.0533" rx="4.5" stroke="#0697DB" stroke-opacity="0.8"/>
<path d="M30.6494 14.584L31.2998 8.20312H37.8564V9.70605H32.6797L32.293 13.1953C32.9199 12.8262 33.6318 12.6416 34.4287 12.6416C35.5947 12.6416 36.5205 13.0283 37.2061 13.8018C37.8916 14.5693 38.2344 15.6094 38.2344 16.9219C38.2344 18.2402 37.877 19.2803 37.1621 20.042C36.4531 20.7979 35.46 21.1758 34.1826 21.1758C33.0518 21.1758 32.1289 20.8623 31.4141 20.2354C30.6992 19.6084 30.292 18.7412 30.1924 17.6338H31.7305C31.8301 18.3662 32.0908 18.9199 32.5127 19.2949C32.9346 19.6641 33.4912 19.8486 34.1826 19.8486C34.9385 19.8486 35.5303 19.5908 35.958 19.0752C36.3916 18.5596 36.6084 17.8477 36.6084 16.9395C36.6084 16.084 36.374 15.3984 35.9053 14.8828C35.4424 14.3613 34.8242 14.1006 34.0508 14.1006C33.3418 14.1006 32.7852 14.2559 32.3809 14.5664L31.9502 14.918L30.6494 14.584ZM48.0342 15.542C48.0342 17.4463 47.709 18.8613 47.0586 19.7871C46.4082 20.7129 45.3916 21.1758 44.0088 21.1758C42.6436 21.1758 41.6328 20.7246 40.9766 19.8223C40.3203 18.9141 39.9805 17.5605 39.957 15.7617V13.5908C39.957 11.71 40.2822 10.3125 40.9326 9.39844C41.583 8.48438 42.6025 8.02734 43.9912 8.02734C45.3682 8.02734 46.3818 8.46973 47.0322 9.35449C47.6826 10.2334 48.0166 11.5928 48.0342 13.4326V15.542ZM46.4082 13.3184C46.4082 11.9414 46.2148 10.9395 45.8281 10.3125C45.4414 9.67969 44.8291 9.36328 43.9912 9.36328C43.1592 9.36328 42.5527 9.67676 42.1719 10.3037C41.791 10.9307 41.5947 11.8945 41.583 13.1953V15.7969C41.583 17.1797 41.7822 18.2021 42.1807 18.8643C42.585 19.5205 43.1943 19.8486 44.0088 19.8486C44.8115 19.8486 45.4062 19.5381 45.793 18.917C46.1855 18.2959 46.3906 17.3174 46.4082 15.9814V13.3184ZM58.1416 15.542C58.1416 17.4463 57.8164 18.8613 57.166 19.7871C56.5156 20.7129 55.499 21.1758 54.1162 21.1758C52.751 21.1758 51.7402 20.7246 51.084 19.8223C50.4277 18.9141 50.0879 17.5605 50.0645 15.7617V13.5908C50.0645 11.71 50.3896 10.3125 51.04 9.39844C51.6904 8.48438 52.71 8.02734 54.0986 8.02734C55.4756 8.02734 56.4893 8.46973 57.1396 9.35449C57.79 10.2334 58.124 11.5928 58.1416 13.4326V15.542ZM56.5156 13.3184C56.5156 11.9414 56.3223 10.9395 55.9355 10.3125C55.5488 9.67969 54.9365 9.36328 54.0986 9.36328C53.2666 9.36328 52.6602 9.67676 52.2793 10.3037C51.8984 10.9307 51.7021 11.8945 51.6904 13.1953V15.7969C51.6904 17.1797 51.8896 18.2021 52.2881 18.8643C52.6924 19.5205 53.3018 19.8486 54.1162 19.8486C54.9189 19.8486 55.5137 19.5381 55.9004 18.917C56.293 18.2959 56.498 17.3174 56.5156 15.9814V13.3184Z" fill="#0697DB" fill-opacity="0.8"/>
</svg>
