<svg width="83" height="30" viewBox="0 0 83 30" fill="none" xmlns="http://www.w3.org/2000/svg">
<rect x="0.525879" width="82.474" height="29.0533" rx="5" fill="white"/>
<rect x="1.02588" y="0.5" width="81.474" height="28.0533" rx="4.5" stroke="#0697DB" stroke-opacity="0.8"/>
<path d="M28.1924 21H26.5576V10.1631L23.2793 11.3672V9.89062L27.9375 8.1416H28.1924V21ZM40.9805 15.542C40.9805 17.4463 40.6553 18.8613 40.0049 19.7871C39.3545 20.7129 38.3379 21.1758 36.9551 21.1758C35.5898 21.1758 34.5791 20.7246 33.9229 19.8223C33.2666 18.9141 32.9268 17.5605 32.9033 15.7617V13.5908C32.9033 11.71 33.2285 10.3125 33.8789 9.39844C34.5293 8.48438 35.5488 8.02734 36.9375 8.02734C38.3145 8.02734 39.3281 8.46973 39.9785 9.35449C40.6289 10.2334 40.9629 11.5928 40.9805 13.4326V15.542ZM39.3545 13.3184C39.3545 11.9414 39.1611 10.9395 38.7744 10.3125C38.3877 9.67969 37.7754 9.36328 36.9375 9.36328C36.1055 9.36328 35.499 9.67676 35.1182 10.3037C34.7373 10.9307 34.541 11.8945 34.5293 13.1953V15.7969C34.5293 17.1797 34.7285 18.2021 35.127 18.8643C35.5312 19.5205 36.1406 19.8486 36.9551 19.8486C37.7578 19.8486 38.3525 19.5381 38.7393 18.917C39.1318 18.2959 39.3369 17.3174 39.3545 15.9814V13.3184ZM51.0879 15.542C51.0879 17.4463 50.7627 18.8613 50.1123 19.7871C49.4619 20.7129 48.4453 21.1758 47.0625 21.1758C45.6973 21.1758 44.6865 20.7246 44.0303 19.8223C43.374 18.9141 43.0342 17.5605 43.0107 15.7617V13.5908C43.0107 11.71 43.3359 10.3125 43.9863 9.39844C44.6367 8.48438 45.6562 8.02734 47.0449 8.02734C48.4219 8.02734 49.4355 8.46973 50.0859 9.35449C50.7363 10.2334 51.0703 11.5928 51.0879 13.4326V15.542ZM49.4619 13.3184C49.4619 11.9414 49.2686 10.9395 48.8818 10.3125C48.4951 9.67969 47.8828 9.36328 47.0449 9.36328C46.2129 9.36328 45.6064 9.67676 45.2256 10.3037C44.8447 10.9307 44.6484 11.8945 44.6367 13.1953V15.7969C44.6367 17.1797 44.8359 18.2021 45.2344 18.8643C45.6387 19.5205 46.248 19.8486 47.0625 19.8486C47.8652 19.8486 48.46 19.5381 48.8467 18.917C49.2393 18.2959 49.4443 17.3174 49.4619 15.9814V13.3184ZM61.1953 15.542C61.1953 17.4463 60.8701 18.8613 60.2197 19.7871C59.5693 20.7129 58.5527 21.1758 57.1699 21.1758C55.8047 21.1758 54.7939 20.7246 54.1377 19.8223C53.4814 18.9141 53.1416 17.5605 53.1182 15.7617V13.5908C53.1182 11.71 53.4434 10.3125 54.0938 9.39844C54.7441 8.48438 55.7637 8.02734 57.1523 8.02734C58.5293 8.02734 59.543 8.46973 60.1934 9.35449C60.8438 10.2334 61.1777 11.5928 61.1953 13.4326V15.542ZM59.5693 13.3184C59.5693 11.9414 59.376 10.9395 58.9893 10.3125C58.6025 9.67969 57.9902 9.36328 57.1523 9.36328C56.3203 9.36328 55.7139 9.67676 55.333 10.3037C54.9521 10.9307 54.7559 11.8945 54.7441 13.1953V15.7969C54.7441 17.1797 54.9434 18.2021 55.3418 18.8643C55.7461 19.5205 56.3555 19.8486 57.1699 19.8486C57.9727 19.8486 58.5674 19.5381 58.9541 18.917C59.3467 18.2959 59.5518 17.3174 59.5693 15.9814V13.3184Z" fill="#0697DB" fill-opacity="0.8"/>
</svg>
