<svg width="325" height="31" viewBox="0 0 325 31" fill="none" xmlns="http://www.w3.org/2000/svg">
<rect width="325" height="31" rx="8" fill="url(#paint0_linear_1592_7148)"/>
<path d="M156.304 10.732V9.844H145.708V10.732H150.292V19.9H151.24V13.588C152.608 14.32 154.216 15.304 155.032 15.976L155.656 15.172C154.708 14.452 152.824 13.372 151.396 12.688L151.24 12.868V10.732H156.304ZM157.576 13.84V14.812H168.472V13.84H157.576ZM172.192 13.84C171.592 14.716 170.62 15.604 169.672 16.18C169.9 16.312 170.272 16.6 170.44 16.768C171.352 16.132 172.408 15.124 173.092 14.128L172.192 13.84ZM178.192 14.164C177.16 17.164 174.844 18.58 170.56 19.108C170.74 19.312 170.92 19.672 171.016 19.936C175.48 19.288 177.928 17.728 179.08 14.464L178.192 14.164ZM175.468 12.58V11.212H179.116V10.372H175.468V8.968H174.568V12.58H172.36V9.892H171.472V12.58H169.684V13.408H174.568V16.18C174.568 16.3 174.532 16.336 174.352 16.348C174.172 16.36 173.584 16.36 172.96 16.336C173.068 16.576 173.2 16.9 173.248 17.14C174.1 17.14 174.652 17.14 175 17.008C175.348 16.876 175.456 16.648 175.456 16.192V13.408H180.328V12.58H175.468Z" fill="white"/>
<defs>
<linearGradient id="paint0_linear_1592_7148" x1="325" y1="31" x2="4.84288e-06" y2="31" gradientUnits="userSpaceOnUse">
<stop stop-color="#0F92DE"/>
<stop offset="1" stop-color="#4FD1B9"/>
</linearGradient>
</defs>
</svg>
