<svg width="34" height="31" viewBox="0 0 34 31" fill="none" xmlns="http://www.w3.org/2000/svg">
<g clip-path="url(#clip0_1616_7197)">
<path d="M28.0025 13.0944C27.4575 13.0944 27.0161 12.6461 27.0161 12.0926V6.2918H21.3095C20.7645 6.2918 20.3231 5.84347 20.3231 5.28994C20.3231 4.73642 20.7645 4.28809 21.3095 4.28809H28.0025C28.5475 4.28809 28.9889 4.73642 28.9889 5.28994V12.0951C28.9889 12.6461 28.5475 13.0944 28.0025 13.0944Z" fill="white"/>
<path d="M5.99754 13.0944C5.45254 13.0944 5.01111 12.6461 5.01111 12.0926V5.28994C5.01111 4.73642 5.45254 4.28809 5.99754 4.28809H12.6905C13.2355 4.28809 13.677 4.73642 13.677 5.28994C13.677 5.84347 13.2355 6.2918 12.6905 6.2918H6.98398V12.0951C6.98398 12.6461 6.54255 13.0944 5.99754 13.0944Z" fill="white"/>
<path d="M28.0025 27.6541H21.3095C20.7645 27.6541 20.3231 27.2057 20.3231 26.6522C20.3231 26.0987 20.7645 25.6503 21.3095 25.6503H27.0161V19.8471C27.0161 19.2935 27.4575 18.8452 28.0025 18.8452C28.5475 18.8452 28.9889 19.2935 28.9889 19.8471V26.6522C28.9889 27.2057 28.5475 27.6541 28.0025 27.6541Z" fill="white"/>
<path d="M12.693 27.6541H5.99754C5.45254 27.6541 5.01111 27.2057 5.01111 26.6522V19.8471C5.01111 19.2935 5.45254 18.8452 5.99754 18.8452C6.54255 18.8452 6.98398 19.2935 6.98398 19.8471V25.6503H12.6905C13.2355 25.6503 13.677 26.0987 13.677 26.6522C13.677 27.2057 13.238 27.6541 12.693 27.6541Z" fill="white"/>
<path d="M24.6559 16.879H9.34398C8.79897 16.879 8.35754 16.4306 8.35754 15.8771C8.35754 15.3236 8.79897 14.8752 9.34398 14.8752H24.6535C25.1985 14.8752 25.6399 15.3236 25.6399 15.8771C25.6399 16.4306 25.2009 16.879 24.6559 16.879Z" fill="white"/>
</g>
<defs>
<clipPath id="clip0_1616_7197">
<rect width="34" height="31" fill="white"/>
</clipPath>
</defs>
</svg>
