<svg width="36" height="18" viewBox="0 0 36 18" fill="none" xmlns="http://www.w3.org/2000/svg">
<path d="M13.158 8.962H14.922L14.292 9.286C14.562 9.52 14.832 9.808 15.084 10.078L13.158 10.114V8.962ZM9.81 8.134V7.018H11.988V8.134H9.81ZM9.81 5.11H11.988V6.208H9.81V5.11ZM15.462 5.11V6.208H13.158V5.11H15.462ZM15.462 8.134H13.158V7.018H15.462V8.134ZM8.208 11.212C10.188 11.176 13.05 11.104 15.876 11.014C16.092 11.284 16.272 11.554 16.398 11.77L17.334 11.194C16.92 10.564 16.128 9.646 15.318 8.962H16.578V4.282H13.158V3.31H17.01V2.248H13.158V0.952H11.988V2.248H8.298V3.31H11.988V4.282H8.712V8.962H11.988V10.132C10.512 10.168 9.162 10.168 8.118 10.186L8.208 11.212ZM9.162 14.02C9.828 14.632 10.53 15.55 10.854 16.198L11.844 15.55C11.502 14.938 10.782 14.074 10.062 13.48L9.162 14.02ZM2.394 8.962H4.068V10.6H2.394V8.962ZM2.394 6.406H4.068V8.008H2.394V6.406ZM6.696 8.008H5.022V6.406H6.696V8.008ZM6.696 10.6H5.022V8.962H6.696V10.6ZM15.048 11.302H13.806V12.256H8.1V13.066H5.13V11.608H7.722V5.398H5.13V4.066H7.92V2.896H5.13V0.952H3.942V2.896H0.99V4.066H3.942V5.398H1.404V11.608H3.942V13.066H0.756V14.254H3.942V17.386H5.13V14.254H8.172V13.318H13.806V16.054C13.806 16.252 13.752 16.288 13.5 16.306C13.248 16.324 12.438 16.324 11.538 16.288C11.7 16.612 11.88 17.062 11.934 17.404C13.122 17.404 13.896 17.404 14.418 17.206C14.904 17.044 15.048 16.72 15.048 16.072V13.318H17.226V12.256H15.048V11.302ZM25.164 4.336H22.752V0.969999H21.6V4.336H19.26V13.678H20.304V5.542H21.6V17.368H22.752V5.542H24.138V12.184C24.138 12.346 24.102 12.382 23.976 12.4C23.85 12.4 23.508 12.4 23.076 12.382C23.238 12.706 23.418 13.21 23.436 13.534C24.048 13.534 24.462 13.516 24.786 13.3C25.092 13.084 25.164 12.724 25.164 12.22V4.336ZM34.2 10.672C33.552 11.32 32.526 12.112 31.644 12.724C31.248 11.986 30.942 11.14 30.726 10.24H35.136V9.124H27.99V7.72H33.75V6.676H27.99V5.254H33.75V4.21H27.99V2.842H34.362V1.708H26.748V9.124H25.38V10.24H26.73V15.694C26.082 15.784 25.506 15.874 25.002 15.946L25.308 17.17C26.964 16.864 29.214 16.468 31.41 16.072L31.32 14.956C30.186 15.154 29.034 15.334 27.972 15.496V10.24H29.574C30.33 13.66 31.878 16.18 34.596 17.368C34.776 17.026 35.19 16.486 35.46 16.234C34.074 15.73 33.012 14.83 32.202 13.66C33.12 13.066 34.254 12.256 35.1 11.482L34.2 10.672Z" fill="white"/>
</svg>
