<svg width="56" height="16" viewBox="0 0 56 16" fill="none" xmlns="http://www.w3.org/2000/svg">
<path d="M10.234 7.526H11.606L11.116 7.778C11.326 7.96 11.536 8.184 11.732 8.394L10.234 8.422V7.526ZM7.63 6.882V6.014H9.324V6.882H7.63ZM7.63 4.53H9.324V5.384H7.63V4.53ZM12.026 4.53V5.384H10.234V4.53H12.026ZM12.026 6.882H10.234V6.014H12.026V6.882ZM6.384 9.276C7.924 9.248 10.15 9.192 12.348 9.122C12.516 9.332 12.656 9.542 12.754 9.71L13.482 9.262C13.16 8.772 12.544 8.058 11.914 7.526H12.894V3.886H10.234V3.13H13.23V2.304H10.234V1.296H9.324V2.304H6.454V3.13H9.324V3.886H6.776V7.526H9.324V8.436C8.176 8.464 7.126 8.464 6.314 8.478L6.384 9.276ZM7.126 11.46C7.644 11.936 8.19 12.65 8.442 13.154L9.212 12.65C8.946 12.174 8.386 11.502 7.826 11.04L7.126 11.46ZM1.862 7.526H3.164V8.8H1.862V7.526ZM1.862 5.538H3.164V6.784H1.862V5.538ZM5.208 6.784H3.906V5.538H5.208V6.784ZM5.208 8.8H3.906V7.526H5.208V8.8ZM11.704 9.346H10.738V10.088H6.3V10.718H3.99V9.584H6.006V4.754H3.99V3.718H6.16V2.808H3.99V1.296H3.066V2.808H0.77V3.718H3.066V4.754H1.092V9.584H3.066V10.718H0.588V11.642H3.066V14.078H3.99V11.642H6.356V10.914H10.738V13.042C10.738 13.196 10.696 13.224 10.5 13.238C10.304 13.252 9.674 13.252 8.974 13.224C9.1 13.476 9.24 13.826 9.282 14.092C10.206 14.092 10.808 14.092 11.214 13.938C11.592 13.812 11.704 13.56 11.704 13.056V10.914H13.398V10.088H11.704V9.346ZM25.396 8.296V12.174H21.462V7.4H25.9V2.612H24.822V6.392H21.462V1.366H20.398V6.392H17.192V2.612H16.156V7.4H20.398V12.174H16.66V8.296H15.624V14.064H16.66V13.196H25.396V14.036H26.46V8.296H25.396ZM31.668 5.524C33.04 4.488 34.216 3.326 34.944 2.276C35.756 3.368 37.016 4.53 38.388 5.524H31.668ZM35.476 9.234H40.278V8.324H35.476V6.448H38.472V5.58C39.242 6.14 40.04 6.644 40.81 7.036C40.978 6.728 41.23 6.378 41.482 6.112C39.312 5.146 36.89 3.27 35.406 1.268H34.37C33.278 3.018 30.982 5.076 28.574 6.294C28.798 6.504 29.092 6.868 29.204 7.106C30.002 6.686 30.786 6.182 31.514 5.65V6.448H34.398V8.324H29.708V9.234H34.398V12.692H29.078V13.616H40.95V12.692H35.476V9.234ZM30.87 9.934C31.416 10.732 31.962 11.81 32.144 12.51L33.04 12.118C32.844 11.418 32.284 10.382 31.71 9.612L30.87 9.934ZM37.408 12.51C37.94 11.852 38.598 10.844 39.116 9.962L38.136 9.584C37.786 10.368 37.142 11.474 36.638 12.16L37.408 12.51ZM53.858 6.35H50.204V5.006H53.858V6.35ZM53.858 8.45H50.204V7.106H53.858V8.45ZM53.858 10.592H50.204V9.234H53.858V10.592ZM49.266 4.18V11.418H54.838V4.18H52.08C52.22 3.774 52.36 3.298 52.5 2.85H55.202V1.94H48.734V2.85H51.38C51.31 3.284 51.198 3.76 51.086 4.18H49.266ZM43.708 3.396H47.67V4.558H48.566V2.556H46.186V1.31H45.22V2.556H42.84V4.558H43.708V3.396ZM44.394 9.514C44.968 9.136 45.542 8.688 46.046 8.17C46.648 8.646 47.222 9.108 47.67 9.514H44.394ZM46.844 5.538C46.606 6.056 46.298 6.532 45.934 6.98C45.472 6.658 45.024 6.336 44.59 6.042C44.73 5.888 44.856 5.706 44.982 5.538H46.844ZM46.83 12.328H44.506V10.34H46.83V12.328ZM47.754 13.168V9.584C47.88 9.71 48.006 9.822 48.104 9.92L48.72 9.192C48.23 8.716 47.46 8.114 46.634 7.498C47.222 6.77 47.698 5.944 48.02 5.006L47.418 4.74L47.264 4.782H45.458C45.612 4.516 45.752 4.25 45.878 3.97L44.996 3.746C44.478 4.978 43.512 6.126 42.462 6.868C42.658 7.008 43.008 7.316 43.162 7.484C43.456 7.246 43.75 6.98 44.044 6.686C44.45 6.98 44.898 7.302 45.346 7.624C44.478 8.478 43.428 9.15 42.392 9.542C42.574 9.724 42.826 10.06 42.952 10.284C43.176 10.186 43.386 10.088 43.61 9.962V13.826H44.506V13.168H47.754ZM50.428 11.698C49.896 12.3 48.748 12.986 47.74 13.35C47.964 13.546 48.258 13.854 48.426 14.036C49.434 13.644 50.624 12.93 51.324 12.216L50.428 11.698ZM52.458 12.258C53.284 12.79 54.306 13.588 54.81 14.092L55.608 13.546C55.09 13.028 54.054 12.258 53.242 11.754L52.458 12.258Z" fill="#0697DB"/>
</svg>
