<svg width="49" height="34" viewBox="0 0 49 34" fill="none" xmlns="http://www.w3.org/2000/svg">
<g clip-path="url(#clip0_1422_7038)">
<path d="M42.6866 12.5485C42.484 12.7028 42.2556 12.8203 42.0119 12.8957C40.3461 13.4496 38.3138 12.069 37.5642 9.72964C36.8145 7.39023 37.5642 5.11695 39.28 4.57136C39.5217 4.49199 39.775 4.45289 40.0296 4.45563L38.5637 0L31.942 2.14102L32.4834 3.79431L31.4506 4.13324L30.9092 2.47994L0 12.4741L1.42427 16.814C3.13174 16.2602 5.12239 17.682 5.872 19.9801C6.62162 22.2781 5.83036 24.5928 4.16454 25.1466L5.58049 29.4782L44.1441 17.0041L42.6866 12.5485ZM33.1164 9.16752L32.2835 6.61318L33.3163 6.30732L34.1492 8.82859L33.1164 9.16752ZM34.7823 14.2101L33.9493 11.6888L34.9738 11.3581L35.8067 13.8381L34.7823 14.2101ZM36.4481 19.2526L35.6152 16.7313L36.6396 16.4007L37.4725 18.922L36.4481 19.2526Z" fill="url(#paint0_linear_1422_7038)"/>
<path d="M48.7918 29.5693C48.5705 29.6378 48.3405 29.674 48.1088 29.6767C46.4929 29.6767 45.1853 27.9077 45.1853 25.7336C45.1853 23.5596 46.4929 21.7823 48.1088 21.7823C48.3386 21.783 48.5667 21.8221 48.7834 21.898V17.6738H42.4783V19.2279H41.5288V17.6738H12.2188V21.8071C13.8346 21.8071 15.1423 23.5678 15.1423 25.7502C15.1423 27.9325 13.8346 29.6933 12.2188 29.7015V33.8348H48.7834L48.7918 29.5693ZM41.5288 24.0142V21.6252H42.4783V24.0225L41.5288 24.0142ZM41.5288 28.7922V26.4032H42.4783V28.8005L41.5288 28.7922ZM41.5288 33.5785V31.1895H42.4783V33.5785H41.5288Z" fill="url(#paint1_linear_1422_7038)" stroke="white" stroke-miterlimit="10"/>
<path d="M21.9579 26.1418H19.4247V28.8488H18.3242V22.4852H22.3272V23.3825H19.4247V25.2819H21.9579V26.1418ZM25.7466 28.8488C25.6896 28.7046 25.6499 28.554 25.6285 28.4001C25.4723 28.5728 25.2814 28.7095 25.0687 28.801C24.8559 28.8926 24.6262 28.937 24.3951 28.9311C23.9767 28.9487 23.5673 28.8043 23.2503 28.5273C23.1061 28.4033 22.9909 28.2484 22.913 28.0738C22.8351 27.8992 22.7964 27.7093 22.7998 27.5178C22.7885 27.293 22.8333 27.069 22.9301 26.8664C23.0269 26.6638 23.1726 26.4892 23.3537 26.3587C23.8297 26.0556 24.3878 25.9117 24.949 25.9474H25.5915V25.6408C25.602 25.4254 25.5306 25.214 25.3921 25.0501C25.3099 24.9709 25.2123 24.91 25.1054 24.8714C24.9986 24.8328 24.8849 24.8172 24.7718 24.8257C24.5592 24.8155 24.3499 24.8817 24.1809 25.0127C24.1089 25.064 24.0503 25.1324 24.0104 25.2119C23.9705 25.2914 23.9504 25.3797 23.952 25.4688H22.9032C22.8991 25.1977 22.9878 24.9335 23.1543 24.7211C23.3375 24.4873 23.5764 24.3046 23.8486 24.1901C24.1585 24.0548 24.4934 23.9885 24.8308 23.9957C25.3042 23.9733 25.77 24.1217 26.1455 24.4145C26.3097 24.5604 26.44 24.7413 26.5268 24.9444C26.6137 25.1474 26.6549 25.3674 26.6477 25.5885V27.7197C26.6335 28.0701 26.694 28.4195 26.8249 28.7441V28.8189L25.7466 28.8488ZM24.5945 28.101C24.7992 28.1014 25.0004 28.0473 25.178 27.944C25.3547 27.8537 25.4992 27.71 25.5915 27.5327V26.6204H25.0229C24.7267 26.6065 24.4326 26.6764 24.1735 26.8223C24.0811 26.8874 24.0063 26.9748 23.956 27.0768C23.9057 27.1787 23.8814 27.2917 23.8855 27.4056C23.8809 27.4976 23.8964 27.5896 23.9309 27.6749C23.9654 27.7601 24.0179 27.8367 24.0849 27.8991C24.2281 28.0188 24.4089 28.0825 24.5945 28.0786V28.101ZM28.7378 24.1303V24.6238C28.9012 24.4256 29.1074 24.2679 29.3404 24.163C29.5734 24.058 29.8271 24.0084 30.0819 24.0181C30.3469 23.9949 30.6126 24.054 30.8436 24.1876C31.0745 24.3212 31.2597 24.5229 31.3744 24.7659C31.5299 24.5274 31.7434 24.3334 31.9943 24.2024C32.2452 24.0715 32.5251 24.008 32.8072 24.0181C33.0187 24.0024 33.2311 24.0331 33.4299 24.1079C33.6287 24.1827 33.8093 24.3 33.9593 24.4519C34.2358 24.8174 34.3745 25.2708 34.3507 25.7306V28.8488H33.3242V25.7605C33.3434 25.5246 33.2749 25.2899 33.1321 25.1024C33.0455 25.0236 32.9437 24.9637 32.8331 24.9263C32.7226 24.889 32.6057 24.8752 32.4896 24.8856C32.2747 24.8761 32.064 24.9481 31.8988 25.0875C31.7454 25.2213 31.6348 25.3983 31.5812 25.596V28.8488H30.5324V25.7231C30.5475 25.6082 30.5359 25.4913 30.4986 25.3818C30.4614 25.2722 30.3995 25.1728 30.3179 25.0916C30.2362 25.0104 30.137 24.9495 30.0282 24.9138C29.9193 24.878 29.8037 24.8683 29.6905 24.8856C29.5071 24.8738 29.3244 24.9172 29.1654 25.0103C29.0064 25.1035 28.8781 25.2422 28.7969 25.409V28.8488H27.7407V24.1079L28.7378 24.1303ZM36.5738 28.8712H35.525V24.1079H36.5738V28.8712ZM35.4586 22.889C35.4544 22.7365 35.5102 22.5886 35.6137 22.4777C35.6721 22.4232 35.7409 22.3812 35.8157 22.3542C35.8906 22.3272 35.9701 22.3158 36.0494 22.3207C36.1299 22.3152 36.2107 22.3264 36.2868 22.3533C36.363 22.3803 36.433 22.4226 36.4925 22.4777C36.5927 22.5892 36.6482 22.7345 36.6482 22.8853C36.6482 23.036 36.5927 23.1813 36.4925 23.2928C36.433 23.3479 36.363 23.3902 36.2868 23.4172C36.2107 23.4442 36.1299 23.4553 36.0494 23.4498C35.9701 23.4547 35.8906 23.4433 35.8157 23.4163C35.7409 23.3893 35.6721 23.3473 35.6137 23.2928C35.5612 23.2372 35.5204 23.1715 35.4937 23.0995C35.4671 23.0275 35.4551 22.9508 35.4586 22.874V22.889Z" fill="white"/>
</g>
<defs>
<linearGradient id="paint0_linear_1422_7038" x1="38.7302" y1="7.43983" x2="6.26643" y2="17.2891" gradientUnits="userSpaceOnUse">
<stop stop-color="#179AD9"/>
<stop offset="1" stop-color="#51D3B8"/>
</linearGradient>
<linearGradient id="paint1_linear_1422_7038" x1="51.3321" y1="25.7336" x2="7.53781" y2="25.7336" gradientUnits="userSpaceOnUse">
<stop stop-color="#1093DD"/>
<stop offset="1" stop-color="#5ADCB3"/>
</linearGradient>
<clipPath id="clip0_1422_7038">
<rect width="49" height="34" fill="white"/>
</clipPath>
</defs>
</svg>
