<svg width="56" height="56" viewBox="0 0 56 56" fill="none" xmlns="http://www.w3.org/2000/svg">
<circle cx="28" cy="28" r="27.5" fill="white" stroke="#F1F1F1"/>
<path d="M27.5274 13C27.5274 13 27.0284 19.7188 22.3523 24.4865C18.1977 27.8692 17.5323 29.6671 17.2744 32.2182C17.0146 34.7806 17.2968 39.7332 21.9748 43.1123C21.9748 43.1123 20.2927 39.0006 24.4362 35.6234C28.3871 32.4033 27.8993 30.1157 27.8395 29.9045C27.8881 30.0839 28.8244 33.4461 30.8746 35.3581C32.9772 37.3186 32.6688 40.7854 30.6803 44C30.6803 44 37.1468 39.8192 37.7205 34.2143C38.6475 25.0883 30.5364 14.4821 27.5274 13Z" fill="#0697DB" fill-opacity="0.8"/>
</svg>
