<svg width="57" height="21" viewBox="0 0 57 21" fill="none" xmlns="http://www.w3.org/2000/svg">
<path d="M27.4248 10.6543L28.1191 4.20312H34.9922V6.04883H29.8945L29.543 9.10742C30.1348 8.76758 30.8027 8.59766 31.5469 8.59766C32.7656 8.59766 33.7119 8.9873 34.3857 9.7666C35.0654 10.5459 35.4053 11.5947 35.4053 12.9131C35.4053 14.2139 35.0303 15.251 34.2803 16.0244C33.5303 16.792 32.502 17.1758 31.1953 17.1758C30.0234 17.1758 29.0508 16.8447 28.2773 16.1826C27.5098 15.5146 27.0938 14.6357 27.0293 13.5459H29.0947C29.1768 14.167 29.3994 14.6445 29.7627 14.9785C30.126 15.3066 30.6006 15.4707 31.1865 15.4707C31.8428 15.4707 32.3525 15.2363 32.7158 14.7676C33.085 14.2988 33.2695 13.6602 33.2695 12.8516C33.2695 12.0723 33.0674 11.457 32.6631 11.0059C32.2588 10.5488 31.7021 10.3203 30.9932 10.3203C30.6064 10.3203 30.2783 10.373 30.0088 10.4785C29.7393 10.5781 29.4463 10.7773 29.1299 11.0762L27.4248 10.6543ZM45.4248 11.6123C45.4248 13.4521 45.0791 14.8408 44.3877 15.7783C43.7021 16.71 42.6562 17.1758 41.25 17.1758C39.8672 17.1758 38.8242 16.7217 38.1211 15.8135C37.4238 14.8994 37.0664 13.5488 37.0488 11.7617V9.54688C37.0488 7.70703 37.3916 6.32715 38.0771 5.40723C38.7686 4.4873 39.8203 4.02734 41.2324 4.02734C42.6328 4.02734 43.6758 4.47559 44.3613 5.37207C45.0527 6.26855 45.4072 7.61035 45.4248 9.39746V11.6123ZM43.2891 9.22168C43.2891 8.02051 43.125 7.1416 42.7969 6.58496C42.4688 6.02246 41.9473 5.74121 41.2324 5.74121C40.5352 5.74121 40.0225 6.00781 39.6943 6.54102C39.3662 7.06836 39.1934 7.89453 39.1758 9.01953V11.9199C39.1758 13.1152 39.3428 14.0059 39.6768 14.5918C40.0107 15.1777 40.5352 15.4707 41.25 15.4707C41.9355 15.4707 42.4424 15.2012 42.7705 14.6621C43.0986 14.1172 43.2715 13.2676 43.2891 12.1133V9.22168ZM55.6553 11.6123C55.6553 13.4521 55.3096 14.8408 54.6182 15.7783C53.9326 16.71 52.8867 17.1758 51.4805 17.1758C50.0977 17.1758 49.0547 16.7217 48.3516 15.8135C47.6543 14.8994 47.2969 13.5488 47.2793 11.7617V9.54688C47.2793 7.70703 47.6221 6.32715 48.3076 5.40723C48.999 4.4873 50.0508 4.02734 51.4629 4.02734C52.8633 4.02734 53.9062 4.47559 54.5918 5.37207C55.2832 6.26855 55.6377 7.61035 55.6553 9.39746V11.6123ZM53.5195 9.22168C53.5195 8.02051 53.3555 7.1416 53.0273 6.58496C52.6992 6.02246 52.1777 5.74121 51.4629 5.74121C50.7656 5.74121 50.2529 6.00781 49.9248 6.54102C49.5967 7.06836 49.4238 7.89453 49.4062 9.01953V11.9199C49.4062 13.1152 49.5732 14.0059 49.9072 14.5918C50.2412 15.1777 50.7656 15.4707 51.4805 15.4707C52.166 15.4707 52.6729 15.2012 53.001 14.6621C53.3291 14.1172 53.502 13.2676 53.5195 12.1133V9.22168Z" fill="white"/>
<path d="M11.4912 17H9.26758L3.56348 7.9209V17H1.33984V4.20312H3.56348L9.28516 13.3174V4.20312H11.4912V17ZM23.1016 5.99609H19.1113V17H16.9053V5.99609H12.9502V4.20312H23.1016V5.99609Z" fill="white" fill-opacity="0.8"/>
</svg>
