<svg width="56" height="56" viewBox="0 0 56 56" fill="none" xmlns="http://www.w3.org/2000/svg">
<circle cx="28" cy="28" r="27.5" fill="white" stroke="#F1F1F1"/>
<path d="M24.7273 32.0455H24.2273V32.5455V41.5H20.5V18.3636C20.5 17.8694 20.6963 17.3953 21.0458 17.0458C21.3953 16.6963 21.8694 16.5 22.3636 16.5H30.6364C32.6978 16.5 34.6748 17.3189 36.1325 18.7766C37.5902 20.2342 38.4091 22.2113 38.4091 24.2727C38.4091 26.3342 37.5902 28.3112 36.1325 29.7689C34.6748 31.2265 32.6978 32.0455 30.6364 32.0455H24.7273ZM24.2273 27.8182V28.3182H24.7273H30.6364C31.7093 28.3182 32.7383 27.892 33.4969 27.1333C34.2556 26.3746 34.6818 25.3456 34.6818 24.2727C34.6818 23.1998 34.2556 22.1708 33.4969 21.4122C32.7383 20.6535 31.7093 20.2273 30.6364 20.2273H24.7273H24.2273V20.7273V27.8182Z" fill="#0697DB" fill-opacity="0.8" stroke="#F1F1F1"/>
</svg>
