<svg width="48" height="13" viewBox="0 0 48 13" fill="none" xmlns="http://www.w3.org/2000/svg">
<path d="M1.884 2.744C2.052 3.284 2.172 3.956 2.196 4.412L2.832 4.22C2.796 3.752 2.64 3.044 2.448 2.492L1.884 2.66V2.156H2.892V4.76H1.884V2.744ZM4.788 2.684L4.212 2.48C4.128 2.96 3.924 3.656 3.756 4.136V2.156H4.788V2.684ZM3.756 4.76V4.244L4.248 4.424C4.404 4.076 4.596 3.56 4.788 3.056V4.76H3.756ZM0.588 9.164C2.04 9.104 4.092 8.996 6.036 8.876L6.06 7.772C5.364 7.796 4.644 7.832 3.948 7.856V7.328H5.868V6.248H3.948V5.72H5.892V1.196H0.816V5.72H2.688V6.248H0.84V7.328H2.688V7.904C1.884 7.928 1.152 7.952 0.552 7.964L0.588 9.164ZM1.212 12.044C1.716 11.492 1.92 10.58 2.064 9.728L1.104 9.44C0.996 10.232 0.72 11.06 0.288 11.564L1.212 12.044ZM2.148 9.512C2.28 10.184 2.376 11.048 2.352 11.612L3.276 11.504C3.264 10.928 3.168 10.076 3.024 9.404L2.148 9.512ZM3.348 9.464C3.576 10.1 3.78 10.928 3.828 11.468L4.716 11.288C4.644 10.736 4.428 9.932 4.2 9.296L3.348 9.464ZM4.512 9.356C4.884 9.956 5.244 10.748 5.388 11.276L6.288 10.904C6.132 10.376 5.748 9.608 5.364 9.044L4.512 9.356ZM9.828 10.28H7.608V7.772H9.828V10.28ZM11.592 4.628V3.308H9.276V0.848H7.884V6.476H6.312V12.032H7.608V11.564H9.828V11.984H11.196V6.476H9.276V4.628H11.592ZM18.996 8.984L19.032 7.976C17.916 7.988 16.764 8.012 15.684 8.024L15.924 7.58L15.816 7.556H18.48V6.668C18.732 6.92 18.996 7.196 19.116 7.376C19.284 7.136 19.44 6.872 19.584 6.584C19.776 7.424 20.016 8.216 20.304 8.912C19.788 9.74 19.104 10.412 18.192 10.904C17.904 10.736 17.556 10.556 17.184 10.364C17.496 9.992 17.724 9.548 17.892 9.008L18.996 8.984ZM15.084 9.068L16.608 9.044C16.464 9.356 16.284 9.632 16.068 9.86C15.672 9.692 15.276 9.536 14.88 9.404L15.084 9.068ZM14.088 6.2H15.036V6.704H14.088V6.2ZM17.244 6.2V6.704H16.248V6.2H17.244ZM21.636 4.34C21.516 5.42 21.336 6.38 21.072 7.232C20.784 6.368 20.58 5.408 20.424 4.412L20.448 4.34H21.636ZM14.328 4.064V3.62H15.036V4.064H14.328ZM15.036 2.324V2.756H14.328V2.324H15.036ZM17.004 2.324V2.756H16.248V2.324H17.004ZM16.248 4.064V3.62H17.004V4.064H16.248ZM23.604 4.34V3.02H20.784C20.916 2.372 21.036 1.7 21.12 1.016L19.764 0.835999C19.548 2.672 19.164 4.448 18.48 5.72V5.336H16.248V4.964H18.24V3.692H19.02V2.684H18.24V1.424H16.248V0.835999H15.036V1.424H13.152V2.684H12.396V3.692H13.152V4.964H15.036V5.336H12.912V7.556H14.616C14.532 7.712 14.448 7.868 14.352 8.036C13.644 8.048 12.984 8.048 12.432 8.048L12.48 9.104L13.764 9.092C13.524 9.488 13.296 9.86 13.092 10.16L14.232 10.436L14.328 10.28C14.544 10.364 14.76 10.46 14.976 10.544C14.388 10.784 13.632 10.916 12.708 11C12.912 11.276 13.128 11.72 13.212 12.092C14.496 11.876 15.492 11.588 16.248 11.144C16.74 11.408 17.184 11.672 17.508 11.912L18.336 11.096C18.564 11.408 18.852 11.852 18.948 12.092C19.776 11.588 20.448 10.976 20.988 10.256C21.456 10.988 22.032 11.6 22.74 12.068C22.944 11.708 23.352 11.192 23.664 10.928C22.884 10.46 22.272 9.776 21.792 8.924C22.392 7.664 22.74 6.14 22.968 4.34H23.604ZM28.596 5.876C28.188 5.984 27.78 6.092 27.372 6.188V4.412H28.584V3.092H27.372V0.848H25.968V3.092H24.48V4.412H25.968V6.536C25.344 6.692 24.756 6.824 24.276 6.92L24.624 8.288L25.968 7.94V10.508C25.968 10.676 25.908 10.724 25.752 10.736C25.596 10.736 25.104 10.736 24.648 10.712C24.804 11.084 24.996 11.66 25.032 12.02C25.872 12.02 26.448 11.984 26.856 11.768C27.252 11.552 27.372 11.204 27.372 10.496V7.568C27.84 7.448 28.308 7.316 28.764 7.184L28.596 5.876ZM35.58 4.844H30.768V3.092C32.292 2.852 33.996 2.492 35.292 2.024L34.212 0.883999C33.312 1.256 31.956 1.616 30.624 1.88L29.352 1.736V5.684C29.352 7.376 29.22 9.5 27.828 10.988C28.176 11.18 28.692 11.672 28.884 11.996C30.42 10.436 30.72 8.012 30.768 6.2H32.484V12.032H33.9V6.2H35.58V4.844ZM40.596 5.876C40.188 5.984 39.78 6.092 39.372 6.188V4.412H40.584V3.092H39.372V0.848H37.968V3.092H36.48V4.412H37.968V6.536C37.344 6.692 36.756 6.824 36.276 6.92L36.624 8.288L37.968 7.94V10.508C37.968 10.676 37.908 10.724 37.752 10.736C37.596 10.736 37.104 10.736 36.648 10.712C36.804 11.084 36.996 11.66 37.032 12.02C37.872 12.02 38.448 11.984 38.856 11.768C39.252 11.552 39.372 11.204 39.372 10.496V7.568C39.84 7.448 40.308 7.316 40.764 7.184L40.596 5.876ZM40.044 11.696H44.64V10.424H40.044V11.696ZM42.36 4.784V3.116C42.888 3.056 43.44 2.984 43.98 2.888C43.992 3.548 44.028 4.184 44.052 4.784H42.36ZM47.4 6.104V4.784H45.408C45.372 4.1 45.36 3.38 45.348 2.648C45.972 2.516 46.572 2.36 47.112 2.192L46.128 1.052C45.084 1.436 43.452 1.76 41.916 1.976L40.968 1.712V8.576C40.584 8.636 40.224 8.696 39.912 8.732L40.224 10.052C41.352 9.848 42.816 9.596 44.196 9.344L44.1 8.072C43.524 8.168 42.924 8.276 42.36 8.36V6.104H44.148C44.436 9.5 45.084 11.648 46.464 11.684C46.956 11.684 47.532 11.228 47.808 9.26C47.58 9.152 47.028 8.78 46.812 8.504C46.752 9.452 46.632 9.98 46.476 9.968C46.044 9.956 45.696 8.372 45.504 6.104H47.4Z" fill="white"/>
</svg>
