<svg width="34" height="31" viewBox="0 0 34 31" fill="none" xmlns="http://www.w3.org/2000/svg">
<g clip-path="url(#clip0_1422_7103)">
<path d="M28.0017 13.0944C27.4567 13.0944 27.0152 12.6461 27.0152 12.0926V6.2918H21.3087C20.7637 6.2918 20.3223 5.84347 20.3223 5.28994C20.3223 4.73642 20.7637 4.28809 21.3087 4.28809H28.0017C28.5467 4.28809 28.9881 4.73642 28.9881 5.28994V12.0951C28.9881 12.6461 28.5467 13.0944 28.0017 13.0944Z" fill="white"/>
<path d="M5.99718 13.0944C5.45217 13.0944 5.01074 12.6461 5.01074 12.0926V5.28994C5.01074 4.73642 5.45217 4.28809 5.99718 4.28809H12.6901C13.2352 4.28809 13.6766 4.73642 13.6766 5.28994C13.6766 5.84347 13.2352 6.2918 12.6901 6.2918H6.98362V12.0951C6.98362 12.6461 6.54218 13.0944 5.99718 13.0944Z" fill="white"/>
<path d="M28.0017 27.6536H21.3087C20.7637 27.6536 20.3223 27.2052 20.3223 26.6517C20.3223 26.0982 20.7637 25.6498 21.3087 25.6498H27.0152V19.8466C27.0152 19.2931 27.4567 18.8447 28.0017 18.8447C28.5467 18.8447 28.9881 19.2931 28.9881 19.8466V26.6517C28.9881 27.2052 28.5467 27.6536 28.0017 27.6536Z" fill="white"/>
<path d="M12.6926 27.6536H5.99718C5.45217 27.6536 5.01074 27.2052 5.01074 26.6517V19.8466C5.01074 19.2931 5.45217 18.8447 5.99718 18.8447C6.54218 18.8447 6.98362 19.2931 6.98362 19.8466V25.6498H12.6901C13.2352 25.6498 13.6766 26.0982 13.6766 26.6517C13.6766 27.2052 13.2376 27.6536 12.6926 27.6536Z" fill="white"/>
<path d="M24.6558 16.8787H9.34386C8.79885 16.8787 8.35742 16.4304 8.35742 15.8769C8.35742 15.3233 8.79885 14.875 9.34386 14.875H24.6534C25.1984 14.875 25.6398 15.3233 25.6398 15.8769C25.6398 16.4304 25.2008 16.8787 24.6558 16.8787Z" fill="white"/>
</g>
<defs>
<clipPath id="clip0_1422_7103">
<rect width="34" height="31" fill="white"/>
</clipPath>
</defs>
</svg>
