<svg width="41" height="14" viewBox="0 0 41 14" fill="none" xmlns="http://www.w3.org/2000/svg">
<path d="M5.454 6.498H6.462V3.306H10.928V5.266H11.894V2.55H6.462V1.696H11.082V0.884H0.918V1.696H5.454V2.55H0.12V5.266H1.058V3.306H5.454V6.498ZM7.204 6.134H10.536V5.476H7.204V6.134ZM7.204 4.062V4.706H10.2V4.062H7.204ZM4.74 4.062H1.786V4.706H4.74V4.062ZM1.52 6.134H4.74V5.476H1.52V6.134ZM2.304 10.348V9.396H5.412V10.348H2.304ZM5.412 7.73V8.696H2.304V7.73H5.412ZM9.738 8.696H6.406V7.73H9.738V8.696ZM6.406 10.348V9.396H9.738V10.348H6.406ZM7.456 12.112C6.574 12.112 6.406 12.028 6.406 11.552V11.104H10.746V6.974H1.31V11.832H2.304V11.104H5.412V11.552C5.412 12.672 5.846 12.938 7.414 12.938H10.634C11.95 12.938 12.272 12.518 12.426 10.824C12.132 10.768 11.754 10.628 11.516 10.474C11.446 11.874 11.306 12.112 10.564 12.112H7.456ZM25.096 0.954H18.684V1.808H25.096V0.954ZM16.906 0.323999C16.094 2.438 14.736 4.51 13.322 5.84C13.504 6.078 13.812 6.624 13.91 6.848C14.442 6.316 14.96 5.7 15.464 5V13.022H16.444V3.502C16.99 2.592 17.48 1.598 17.872 0.618L16.906 0.323999ZM24.438 9.494V11.552H19.37V9.494H24.438ZM18.362 13.064H19.37V12.406H24.438V13.022H25.474V8.654H18.362V13.064ZM18.516 7.576H25.32V6.736H18.516V7.576ZM25.348 4.804H18.516V5.658H25.348V4.804ZM17.368 2.872V3.74H26.412V2.872H17.368ZM29.926 3.236H31.942C31.928 3.502 31.872 3.754 31.76 3.992H29.66L29.926 3.236ZM32.922 1.752H35.078V2.55H32.922V1.752ZM38.228 1.752V2.55H36.058V1.752H38.228ZM35.078 3.992H32.796C32.852 3.754 32.894 3.502 32.908 3.236H35.078V3.992ZM39.012 4.678C38.956 5.042 38.9 5.238 38.83 5.322C38.746 5.378 38.662 5.392 38.494 5.392C38.354 5.392 37.962 5.378 37.528 5.35C37.584 5.462 37.64 5.616 37.682 5.756H31.466C31.97 5.434 32.306 5.07 32.516 4.678H35.078V5.728H36.058V4.678H39.012ZM37.584 7.296H30.584V6.428H37.584V7.296ZM37.584 8.794H30.584V7.94H37.584V8.794ZM37.584 10.32H30.584V9.452H37.584V10.32ZM29.576 10.992H38.62V6.064H38.956C39.236 6.05 39.46 5.98 39.628 5.812C39.852 5.588 39.936 5.182 40.034 4.328C40.048 4.202 40.062 3.992 40.062 3.992H36.058V3.236H39.166V1.066H36.058V0.296H35.078V1.066H32.922V0.296H31.97V1.066H28.554V1.752H31.97V2.55H29.184C28.946 3.292 28.652 4.174 28.358 4.804L29.324 4.86L29.394 4.678H31.298C30.724 5.252 29.688 5.714 27.84 6.064C28.022 6.246 28.232 6.638 28.33 6.862C28.792 6.764 29.198 6.666 29.576 6.568V10.992ZM31.928 11.132C30.92 11.622 29.24 12.07 27.798 12.336C28.036 12.518 28.386 12.91 28.554 13.106C29.954 12.77 31.718 12.182 32.866 11.552L31.928 11.132ZM35.12 11.678C36.688 12.14 38.214 12.672 39.11 13.078L40.216 12.532C39.18 12.126 37.5 11.552 35.96 11.132L35.12 11.678Z" fill="#666666"/>
</svg>
