<svg width="52" height="48" viewBox="0 0 52 48" fill="none" xmlns="http://www.w3.org/2000/svg">
<circle cx="28" cy="24" r="24" fill="url(#paint0_linear_1422_7047)"/>
<mask id="path-2-inside-1_1422_7047" fill="white">
<path d="M21.5979 15C21.9279 15 22.1957 14.7239 22.1957 14.3837C22.1957 10.992 24.8609 8.23267 28.1369 8.23267C29.5738 8.23267 30.9238 8.75716 31.9879 9.69923H31.44C31.11 9.69923 30.8421 9.97535 30.8421 10.3156C30.8421 10.6558 31.11 10.9319 31.44 10.9319H33.4021C33.7322 10.9319 34 10.6558 34 10.3156V8.28413C34 7.94391 33.7322 7.6678 33.4021 7.6678C33.0721 7.6678 32.8043 7.94391 32.8043 8.28413V8.79784C31.5201 7.64345 29.8823 7 28.1369 7C24.2015 7 21 10.3125 21 14.3837C21 14.7239 21.2678 15 21.5979 15Z"/>
</mask>
<path d="M21.5979 15C21.9279 15 22.1957 14.7239 22.1957 14.3837C22.1957 10.992 24.8609 8.23267 28.1369 8.23267C29.5738 8.23267 30.9238 8.75716 31.9879 9.69923H31.44C31.11 9.69923 30.8421 9.97535 30.8421 10.3156C30.8421 10.6558 31.11 10.9319 31.44 10.9319H33.4021C33.7322 10.9319 34 10.6558 34 10.3156V8.28413C34 7.94391 33.7322 7.6678 33.4021 7.6678C33.0721 7.6678 32.8043 7.94391 32.8043 8.28413V8.79784C31.5201 7.64345 29.8823 7 28.1369 7C24.2015 7 21 10.3125 21 14.3837C21 14.7239 21.2678 15 21.5979 15Z" fill="white"/>
<path d="M31.9879 9.69923V14.6992H45.1793L35.3021 5.95543L31.9879 9.69923ZM32.8043 8.79784L29.4617 12.5163L37.8043 20.0157V8.79784H32.8043ZM21.5979 20C24.8317 20 27.1957 17.3407 27.1957 14.3837H17.1957C17.1957 12.107 19.0241 10 21.5979 10V20ZM27.1957 14.3837C27.1957 13.5884 27.7845 13.2327 28.1369 13.2327V3.23267C21.9374 3.23267 17.1957 8.39555 17.1957 14.3837H27.1957ZM28.1369 13.2327C28.3293 13.2327 28.5061 13.2946 28.6737 13.443L35.3021 5.95543C33.3414 4.21969 30.8183 3.23267 28.1369 3.23267V13.2327ZM31.9879 4.69923H31.44V14.6992H31.9879V4.69923ZM31.44 4.69923C28.2062 4.69923 25.8421 7.3585 25.8421 10.3156H35.8421C35.8421 12.5922 34.0138 14.6992 31.44 14.6992V4.69923ZM25.8421 10.3156C25.8421 13.2726 28.2062 15.9319 31.44 15.9319V5.9319C34.0138 5.9319 35.8421 8.03893 35.8421 10.3156H25.8421ZM31.44 15.9319H33.4021V5.9319H31.44V15.9319ZM33.4021 15.9319C36.636 15.9319 39 13.2726 39 10.3156H29C29 8.03893 30.8283 5.9319 33.4021 5.9319V15.9319ZM39 10.3156V8.28413H29V10.3156H39ZM39 8.28413C39 5.32706 36.636 2.6678 33.4021 2.6678V12.6678C30.8283 12.6678 29 10.5608 29 8.28413H39ZM33.4021 2.6678C30.1683 2.6678 27.8043 5.32706 27.8043 8.28413H37.8043C37.8043 10.5608 35.9759 12.6678 33.4021 12.6678V2.6678ZM27.8043 8.28413V8.79784H37.8043V8.28413H27.8043ZM36.1469 5.07939C33.9625 3.11573 31.1399 2 28.1369 2V12C28.6247 12 29.0778 12.1712 29.4617 12.5163L36.1469 5.07939ZM28.1369 2C21.2811 2 16 7.71276 16 14.3837H26C26 12.9122 27.1219 12 28.1369 12V2ZM16 14.3837C16 17.3407 18.364 20 21.5979 20V10C24.1717 10 26 12.107 26 14.3837H16Z" fill="white" mask="url(#path-2-inside-1_1422_7047)"/>
<mask id="path-4-inside-2_1422_7047" fill="white">
<path d="M34.4454 14C34.1393 14 33.8909 14.2761 33.8909 14.6163C33.8909 18.008 31.4187 20.7673 28.38 20.7673C27.0627 20.7673 25.8238 20.2558 24.8422 19.3344H25.3749C25.681 19.3344 25.9294 19.0582 25.9294 18.718C25.9294 18.3778 25.681 18.1017 25.3749 18.1017H23.5546C23.5496 18.1017 23.5451 18.1032 23.5404 18.1032C23.5193 18.1039 23.4985 18.1069 23.4775 18.1103C23.4619 18.1128 23.4464 18.1143 23.4312 18.1183C23.4129 18.123 23.3948 18.1304 23.3768 18.1371C23.3602 18.1436 23.3433 18.1492 23.3272 18.1572C23.3119 18.1649 23.2975 18.1747 23.2828 18.184C23.2654 18.1951 23.2482 18.2059 23.2318 18.2188C23.2276 18.2222 23.2229 18.224 23.2188 18.2277C23.2093 18.2357 23.2021 18.2456 23.1933 18.2542C23.1786 18.2684 23.1639 18.2826 23.1506 18.2986C23.1381 18.3134 23.1273 18.3288 23.1165 18.3445C23.1056 18.3602 23.0951 18.376 23.0854 18.3926C23.0757 18.4099 23.0674 18.4277 23.0593 18.4456C23.0513 18.4632 23.0438 18.481 23.0374 18.4995C23.0311 18.5186 23.0261 18.5377 23.0214 18.5575C23.0169 18.5763 23.0122 18.5951 23.0094 18.6145C23.0061 18.6364 23.0047 18.6582 23.0033 18.6804C23.0025 18.6931 23 18.7054 23 18.7183V20.7498C23 21.09 23.2484 21.3661 23.5546 21.3661C23.8607 21.3661 24.1091 21.09 24.1091 20.7498V20.2598C25.2911 21.3781 26.7876 22 28.38 22C32.0304 22 35 18.6875 35 14.6163C35 14.2761 34.7516 14 34.4454 14Z"/>
</mask>
<path d="M34.4454 14C34.1393 14 33.8909 14.2761 33.8909 14.6163C33.8909 18.008 31.4187 20.7673 28.38 20.7673C27.0627 20.7673 25.8238 20.2558 24.8422 19.3344H25.3749C25.681 19.3344 25.9294 19.0582 25.9294 18.718C25.9294 18.3778 25.681 18.1017 25.3749 18.1017H23.5546C23.5496 18.1017 23.5451 18.1032 23.5404 18.1032C23.5193 18.1039 23.4985 18.1069 23.4775 18.1103C23.4619 18.1128 23.4464 18.1143 23.4312 18.1183C23.4129 18.123 23.3948 18.1304 23.3768 18.1371C23.3602 18.1436 23.3433 18.1492 23.3272 18.1572C23.3119 18.1649 23.2975 18.1747 23.2828 18.184C23.2654 18.1951 23.2482 18.2059 23.2318 18.2188C23.2276 18.2222 23.2229 18.224 23.2188 18.2277C23.2093 18.2357 23.2021 18.2456 23.1933 18.2542C23.1786 18.2684 23.1639 18.2826 23.1506 18.2986C23.1381 18.3134 23.1273 18.3288 23.1165 18.3445C23.1056 18.3602 23.0951 18.376 23.0854 18.3926C23.0757 18.4099 23.0674 18.4277 23.0593 18.4456C23.0513 18.4632 23.0438 18.481 23.0374 18.4995C23.0311 18.5186 23.0261 18.5377 23.0214 18.5575C23.0169 18.5763 23.0122 18.5951 23.0094 18.6145C23.0061 18.6364 23.0047 18.6582 23.0033 18.6804C23.0025 18.6931 23 18.7054 23 18.7183V20.7498C23 21.09 23.2484 21.3661 23.5546 21.3661C23.8607 21.3661 24.1091 21.09 24.1091 20.7498V20.2598C25.2911 21.3781 26.7876 22 28.38 22C32.0304 22 35 18.6875 35 14.6163C35 14.2761 34.7516 14 34.4454 14Z" fill="white"/>
<path d="M24.8422 19.3344V14.3344H12.2104L21.4201 22.9798L24.8422 19.3344ZM23.5404 18.1032V13.1032H23.4673L23.3942 13.1054L23.5404 18.1032ZM23.4775 18.1103L24.2615 23.0485L24.2716 23.0469L23.4775 18.1103ZM23.4312 18.1183L24.6557 22.9661L24.6786 22.9603L24.7015 22.9543L23.4312 18.1183ZM23.3768 18.1371L21.6164 13.4573L21.5902 13.4671L21.5642 13.4773L23.3768 18.1371ZM23.3272 18.1572L21.0975 13.6818L21.0851 13.688L21.0726 13.6943L23.3272 18.1572ZM23.2828 18.184L20.6204 13.9518L20.6113 13.9575L20.6023 13.9632L23.2828 18.184ZM23.2318 18.2188L20.1295 14.2976L20.1011 14.3201L20.0729 14.343L23.2318 18.2188ZM23.2188 18.2277L26.4568 22.0376L26.4993 22.0015L26.5411 21.9643L23.2188 18.2277ZM23.1933 18.2542L26.6646 21.8529L26.6719 21.8458L26.6791 21.8388L23.1933 18.2542ZM23.1506 18.2986L26.9724 21.5225L26.9847 21.5079L26.9969 21.4932L23.1506 18.2986ZM23.0854 18.3926L18.7662 15.8737L18.7465 15.9076L18.7272 15.9418L23.0854 18.3926ZM23.0593 18.4456L27.6056 20.5268L27.6124 20.5119L27.6191 20.497L23.0593 18.4456ZM23.0374 18.4995L18.3107 16.8692L18.3026 16.8928L18.2947 16.9165L23.0374 18.4995ZM23.0214 18.5575L18.1583 17.3952L18.1567 17.4021L18.155 17.409L23.0214 18.5575ZM23.0094 18.6145L27.9526 19.3662L27.956 19.3438L27.9592 19.3214L23.0094 18.6145ZM23.0033 18.6804L27.9925 19.0089L27.9931 19.0006L27.9936 18.9922L23.0033 18.6804ZM24.1091 20.2598L27.5454 16.6277L19.1091 8.64604L19.1091 20.2598H24.1091ZM34.4454 9C30.8942 9 28.8909 12.0245 28.8909 14.6163H38.8909C38.8909 16.5277 37.3844 19 34.4454 19V9ZM28.8909 14.6163C28.8909 15.0986 28.7154 15.4437 28.551 15.6273C28.4713 15.7162 28.4087 15.7522 28.3855 15.7631C28.3742 15.7685 28.3703 15.769 28.3731 15.7683C28.3743 15.768 28.376 15.7677 28.3778 15.7675C28.3796 15.7673 28.3805 15.7673 28.38 15.7673V25.7673C34.6826 25.7673 38.8909 20.2386 38.8909 14.6163H28.8909ZM28.38 15.7673C28.3751 15.7673 28.3742 15.7669 28.3753 15.7672C28.3764 15.7674 28.3751 15.7673 28.3704 15.7654C28.3632 15.7625 28.3249 15.7457 28.2643 15.6889L21.4201 22.9798C23.2774 24.7232 25.7225 25.7673 28.38 25.7673V15.7673ZM24.8422 24.3344H25.3749V14.3344H24.8422V24.3344ZM25.3749 24.3344C28.9261 24.3344 30.9294 21.3098 30.9294 18.718H20.9294C20.9294 16.8067 22.4359 14.3344 25.3749 14.3344V24.3344ZM30.9294 18.718C30.9294 16.1262 28.9261 13.1017 25.3749 13.1017V23.1017C22.4359 23.1017 20.9294 20.6294 20.9294 18.718H30.9294ZM25.3749 13.1017H23.5546V23.1017H25.3749V13.1017ZM23.5546 13.1017C23.4253 13.1017 23.3086 13.1067 23.2071 13.1137C23.106 13.1207 23.0186 13.1299 22.949 13.1383C22.914 13.1425 22.8828 13.1467 22.8561 13.1504C22.8295 13.1542 22.8065 13.1576 22.7883 13.1604C22.7702 13.1632 22.7554 13.1656 22.7458 13.1671C22.7409 13.1679 22.7369 13.1686 22.7342 13.169C22.7315 13.1695 22.7294 13.1698 22.729 13.1699C22.7278 13.1701 22.7293 13.1698 22.7303 13.1697C22.7317 13.1694 22.7346 13.169 22.7382 13.1684C22.7452 13.1672 22.7578 13.1652 22.7736 13.1627C22.7896 13.1602 22.8107 13.157 22.8356 13.1534C22.8605 13.1499 22.8904 13.1458 22.9242 13.1415C22.9914 13.1332 23.0788 13.1236 23.1812 13.1162C23.2841 13.1088 23.4049 13.1032 23.5404 13.1032V23.1032C23.6771 23.1032 23.7991 23.0977 23.9032 23.0901C24.0067 23.0826 24.0952 23.073 24.1636 23.0644C24.198 23.0601 24.2285 23.056 24.254 23.0523C24.2794 23.0487 24.3011 23.0454 24.3176 23.0428C24.334 23.0402 24.3472 23.0381 24.3548 23.0368C24.3587 23.0362 24.3619 23.0357 24.3636 23.0354C24.3649 23.0352 24.3666 23.0349 24.3658 23.035C24.3656 23.0351 24.3638 23.0354 24.3615 23.0357C24.359 23.0361 24.3553 23.0368 24.3507 23.0375C24.3417 23.039 24.3275 23.0413 24.31 23.044C24.2924 23.0467 24.2699 23.05 24.2439 23.0537C24.2178 23.0573 24.1872 23.0614 24.1528 23.0656C24.0844 23.0739 23.9982 23.0829 23.8983 23.0898C23.7981 23.0967 23.6826 23.1017 23.5546 23.1017V13.1017ZM23.3942 13.1054C23.0152 13.1165 22.7088 13.1697 22.6834 13.1738L24.2716 23.0469C24.2697 23.0472 24.2016 23.0584 24.1117 23.0693C24.0168 23.0808 23.8691 23.0958 23.6866 23.1011L23.3942 13.1054ZM22.6934 13.1722C22.7326 13.166 22.7641 13.1615 22.7589 13.1623C22.7585 13.1623 22.7588 13.1623 22.7577 13.1624C22.757 13.1625 22.7559 13.1627 22.7545 13.1629C22.7517 13.1633 22.7471 13.164 22.7416 13.1648C22.7307 13.1663 22.7127 13.169 22.6907 13.1724C22.611 13.1847 22.4101 13.2169 22.1608 13.2824L24.7015 22.9543C24.4675 23.0157 24.282 23.0452 24.2177 23.0551C24.187 23.0599 24.1587 23.0638 24.1727 23.0618C24.1753 23.0615 24.2146 23.0559 24.2615 23.0485L22.6934 13.1722ZM22.2067 13.2706C21.9709 13.3301 21.7883 13.3942 21.7021 13.4254C21.6571 13.4417 21.6211 13.4555 21.6096 13.4599C21.5853 13.4691 21.6076 13.4606 21.6164 13.4573L25.1372 22.817C25.155 22.8103 25.1864 22.7983 25.1711 22.8041C25.1686 22.8051 25.1416 22.8154 25.1056 22.8284C25.0376 22.8531 24.8731 22.9112 24.6557 22.9661L22.2067 13.2706ZM21.5642 13.4773C21.5978 13.4642 21.6246 13.4543 21.6195 13.4562C21.6191 13.4563 21.6192 13.4563 21.6182 13.4567C21.6175 13.4569 21.6163 13.4574 21.615 13.4578C21.6125 13.4588 21.6083 13.4604 21.6033 13.4622C21.5935 13.4659 21.5775 13.4719 21.558 13.4794C21.4874 13.5065 21.3114 13.5753 21.0975 13.6818L25.5569 22.6325C25.359 22.7311 25.1995 22.793 25.1456 22.8137C25.1198 22.8236 25.096 22.8324 25.1092 22.8275C25.1123 22.8264 25.1476 22.8133 25.1895 22.797L21.5642 13.4773ZM21.0726 13.6943C20.8733 13.795 20.7225 13.8877 20.6582 13.9279C20.6251 13.9485 20.5977 13.9662 20.5946 13.9681C20.5839 13.975 20.6014 13.9637 20.6204 13.9518L25.9453 22.4162C25.9604 22.4067 25.9727 22.3988 25.9803 22.3939C25.9842 22.3915 25.9874 22.3894 25.9894 22.3881C25.9904 22.3875 25.9913 22.3869 25.9919 22.3865C25.9926 22.386 25.9927 22.386 25.993 22.3858C25.9972 22.3831 25.9771 22.3961 25.9514 22.4121C25.9017 22.4431 25.7658 22.527 25.5817 22.62L21.0726 13.6943ZM20.6023 13.9632C20.6018 13.9635 20.6017 13.9636 20.6 13.9647C20.5987 13.9655 20.5964 13.967 20.5939 13.9686C20.5888 13.9718 20.5803 13.9772 20.5702 13.9837C20.5503 13.9964 20.5174 14.0177 20.4777 14.0442C20.3987 14.0971 20.2743 14.183 20.1295 14.2976L26.3341 22.14C26.2056 22.2416 26.0981 22.3157 26.0361 22.3572C25.9841 22.3919 25.9343 22.4232 25.9634 22.4047L20.6023 13.9632ZM20.0729 14.343C20.2561 14.1937 20.414 14.087 20.5087 14.0256C20.5559 13.995 20.5938 13.9716 20.6125 13.9601C20.6221 13.9543 20.6295 13.9498 20.6316 13.9485C20.6387 13.9442 20.6289 13.9502 20.6284 13.9504C20.621 13.9549 20.5922 13.9724 20.5558 13.9954C20.5181 14.0192 20.4641 14.0539 20.4003 14.0975C20.2717 14.1855 20.0937 14.3157 19.8965 14.4911L26.5411 21.9643C26.3459 22.1379 26.1701 22.2665 26.0436 22.353C25.981 22.3958 25.9281 22.4299 25.8914 22.453C25.8562 22.4752 25.8284 22.4921 25.8222 22.4959C25.8202 22.4971 25.8187 22.498 25.8186 22.4981C25.8179 22.4985 25.8194 22.4976 25.8206 22.4968C25.8233 22.4952 25.8313 22.4904 25.8414 22.4841C25.8612 22.472 25.9002 22.4479 25.9485 22.4166C26.0454 22.3538 26.2054 22.2455 26.3907 22.0946L20.0729 14.343ZM19.9808 14.4178C19.8336 14.5429 19.7184 14.6554 19.6392 14.7362C19.5629 14.8141 19.5055 14.878 19.4888 14.8965C19.4837 14.9022 19.4698 14.9177 19.4788 14.9077C19.4814 14.9048 19.4941 14.8906 19.5109 14.8722C19.5439 14.8362 19.6137 14.7608 19.7074 14.6697L26.6791 21.8388C26.7772 21.7433 26.8513 21.6635 26.8884 21.623C26.9073 21.6023 26.9221 21.5858 26.9267 21.5806C26.9377 21.5683 26.9259 21.5816 26.9228 21.585C26.9102 21.599 26.8569 21.6583 26.7849 21.7319C26.71 21.8084 26.5992 21.9166 26.4568 22.0376L19.9808 14.4178ZM19.722 14.6556C19.7204 14.6571 19.7041 14.6728 19.6859 14.6907C19.6662 14.7099 19.6363 14.7394 19.6009 14.7755C19.5306 14.8472 19.4243 14.9595 19.3042 15.104L26.9969 21.4932C26.8902 21.6217 26.7978 21.7189 26.7419 21.7759C26.692 21.8268 26.6489 21.868 26.6646 21.8529L19.722 14.6556ZM19.3287 15.0748C19.1435 15.2943 19.0123 15.4886 18.9973 15.5103L27.2356 21.1787C27.2346 21.1801 27.2269 21.1914 27.2161 21.2067C27.205 21.2226 27.188 21.2466 27.1666 21.2757C27.124 21.3339 27.0583 21.4207 26.9724 21.5225L19.3287 15.0748ZM18.9973 15.5103C18.971 15.5486 18.8736 15.6896 18.7662 15.8737L27.4046 20.9115C27.3166 21.0623 27.2403 21.1719 27.2356 21.1787L18.9973 15.5103ZM18.7272 15.9418C18.6017 16.1651 18.5177 16.3539 18.4995 16.3942L27.6191 20.497C27.6158 20.5043 27.5971 20.546 27.5704 20.6011C27.5428 20.658 27.5003 20.7426 27.4436 20.8434L18.7272 15.9418ZM18.5131 16.3644C18.461 16.4781 18.3855 16.6523 18.3107 16.8692L27.7642 20.1298C27.7021 20.3098 27.6416 20.4483 27.6056 20.5268L18.5131 16.3644ZM18.2947 16.9165C18.2212 17.1367 18.177 17.317 18.1583 17.3952L27.8844 19.7197C27.8751 19.7585 27.841 19.9006 27.7802 20.0826L18.2947 16.9165ZM18.155 17.409C18.1556 17.4066 18.1561 17.4045 18.1552 17.4081C18.1548 17.4102 18.1531 17.4173 18.1512 17.4254C18.1474 17.4414 18.1398 17.4738 18.131 17.514C18.1136 17.5931 18.0846 17.7328 18.0597 17.9076L27.9592 19.3214C27.937 19.4768 27.9117 19.5973 27.8986 19.6575C27.8918 19.6882 27.8864 19.7111 27.8848 19.7178C27.8841 19.7212 27.8835 19.7236 27.8841 19.7209C27.8844 19.7198 27.886 19.7131 27.8877 19.7059L18.155 17.409ZM18.0663 17.8628C18.0432 18.0144 18.0307 18.1403 18.0237 18.2227C18.0172 18.2988 18.0133 18.365 18.0131 18.3686L27.9936 18.9922C27.9948 18.9737 27.9922 19.0179 27.9876 19.072C27.9824 19.1324 27.9723 19.2365 27.9526 19.3662L18.0663 17.8628ZM18.0141 18.352C18.0209 18.2484 18.0297 18.168 18.0335 18.1336C18.0355 18.1161 18.0371 18.1026 18.0371 18.1025C18.0377 18.0974 18.036 18.1113 18.0346 18.1235C18.0315 18.1504 18.0229 18.2254 18.0155 18.3208C18.0078 18.4192 18 18.5557 18 18.7183H28C28 18.8746 27.9925 19.0046 27.9853 19.0967C27.9784 19.1858 27.9705 19.2544 27.9681 19.275C27.967 19.2841 27.9657 19.2949 27.9667 19.2866C27.9671 19.2834 27.9691 19.2668 27.9714 19.2461C27.976 19.2055 27.9853 19.1187 27.9925 19.0089L18.0141 18.352ZM18 18.7183V20.7498H28V18.7183H18ZM18 20.7498C18 23.3416 20.0034 26.3661 23.5546 26.3661V16.3661C26.4935 16.3661 28 18.8384 28 20.7498H18ZM23.5546 26.3661C27.1058 26.3661 29.1091 23.3416 29.1091 20.7498H19.1091C19.1091 18.8384 20.6156 16.3661 23.5546 16.3661V26.3661ZM29.1091 20.7498V20.2598H19.1091V20.7498H29.1091ZM20.6728 23.8918C22.7313 25.8394 25.4395 27 28.38 27V17C28.1357 17 27.851 16.9169 27.5454 16.6277L20.6728 23.8918ZM28.38 27C35.2913 27 40 20.9214 40 14.6163H30C30 15.4374 29.7009 16.0902 29.336 16.4971C28.9783 16.8961 28.6311 17 28.38 17V27ZM40 14.6163C40 12.0245 37.9966 9 34.4454 9V19C31.5065 19 30 16.5277 30 14.6163H40Z" fill="white" mask="url(#path-4-inside-2_1422_7047)"/>
<path fill-rule="evenodd" clip-rule="evenodd" d="M44.3419 33.8654C44.3466 33.8634 44.3512 33.8615 44.3559 33.8597C45.0291 33.5902 45.3575 32.7915 44.9604 32.0568C44.6955 31.5667 44.02 31.3521 43.4226 31.5678L35.3164 34.3543C34.9344 34.5579 34.5039 34.6665 34.0667 34.6665H27.2895C26.9212 34.6665 26.6228 34.3681 26.6228 34.0001C26.6228 33.6319 26.9212 33.3334 27.2895 33.3334H34.0667C34.8016 33.3334 35.4 32.7326 35.4 32.0001C35.4 31.2646 34.8019 30.6667 34.0667 30.6667H29.7494C29.4062 30.6667 29.0666 30.5777 28.7682 30.4094L25.246 28.4284C24.7483 28.1479 24.1832 28 23.6113 28H19V36.0564C19.9138 36.1658 20.9826 36.4387 21.729 36.8864L25.2157 38.9783C26.3293 39.6468 27.6043 40 28.9033 40C29.9335 40 30.932 39.7835 31.8708 39.3565L44.3348 33.8683C44.3372 33.8674 44.3395 33.8664 44.3419 33.8654Z" fill="white"/>
<path d="M18.4375 28.8594V34.8775C18.4362 35.351 18.0521 35.7342 17.5781 35.7342H15V28H17.5781C18.053 28 18.4375 28.3845 18.4375 28.8594Z" fill="white"/>
<defs>
<linearGradient id="paint0_linear_1422_7047" x1="28" y1="0" x2="28" y2="48" gradientUnits="userSpaceOnUse">
<stop stop-color="#FF835B"/>
<stop offset="1" stop-color="#F9D558"/>
</linearGradient>
</defs>
</svg>
