<svg width="48" height="48" viewBox="0 0 48 48" fill="none" xmlns="http://www.w3.org/2000/svg">
<g clip-path="url(#clip0_1422_6608)">
<rect x="6" width="36" height="48" rx="6" fill="white"/>
<path d="M42 5.5C42 2.462 39.538 0 36.5 0H11.5C8.462 0 6 2.462 6 5.5V42.5C6 45.538 8.462 48 11.5 48H36.5C39.538 48 42 45.538 42 42.5V5.5ZM17.76 18.5H16.24C13.902 18.5 12 16.598 12 14.26C12 12.158 13.516 10.428 15.5 10.076V8.5C15.5 7.672 16.172 7 17 7C17.828 7 18.5 7.672 18.5 8.5V10H20.5C21.328 10 22 10.672 22 11.5C22 12.328 21.328 13 20.5 13H16.24C15.556 13 15 13.556 15 14.24C15 14.944 15.556 15.5 16.24 15.5H17.76C20.098 15.5 22 17.402 22 19.74C22 21.842 20.484 23.572 18.5 23.924V25.498C18.5 26.326 17.828 26.998 17 26.998C16.172 26.998 15.5 26.326 15.5 25.498V24H13.5C12.672 24 12 23.328 12 22.5C12 21.672 12.672 21 13.5 21H17.76C18.444 21 19 20.444 19 19.76C19 19.056 18.444 18.5 17.76 18.5ZM34.5 42H13.5C12.672 42 12 41.328 12 40.5C12 39.672 12.672 39 13.5 39H34.5C35.328 39 36 39.672 36 40.5C36 41.328 35.328 42 34.5 42ZM34.5 34H13.5C12.672 34 12 33.328 12 32.5C12 31.672 12.672 31 13.5 31H34.5C35.328 31 36 31.672 36 32.5C36 33.328 35.328 34 34.5 34ZM34.5 26H27.5C26.672 26 26 25.328 26 24.5C26 23.672 26.672 23 27.5 23H34.5C35.328 23 36 23.672 36 24.5C36 25.328 35.328 26 34.5 26ZM34.5 18H27.5C26.672 18 26 17.328 26 16.5C26 15.672 26.672 15 27.5 15H34.5C35.328 15 36 15.672 36 16.5C36 17.328 35.328 18 34.5 18Z" fill="url(#paint0_linear_1422_6608)"/>
</g>
<defs>
<linearGradient id="paint0_linear_1422_6608" x1="24" y1="0" x2="24" y2="48" gradientUnits="userSpaceOnUse">
<stop stop-color="#C47AE1"/>
<stop offset="1" stop-color="#EFA1C2"/>
</linearGradient>
<clipPath id="clip0_1422_6608">
<rect width="48" height="48" fill="white"/>
</clipPath>
</defs>
</svg>
