<svg width="28" height="14" viewBox="0 0 28 14" fill="none" xmlns="http://www.w3.org/2000/svg">
<path d="M10.234 6.526H11.606L11.116 6.778C11.326 6.96 11.536 7.184 11.732 7.394L10.234 7.422V6.526ZM7.63 5.882V5.014H9.324V5.882H7.63ZM7.63 3.53H9.324V4.384H7.63V3.53ZM12.026 3.53V4.384H10.234V3.53H12.026ZM12.026 5.882H10.234V5.014H12.026V5.882ZM6.384 8.276C7.924 8.248 10.15 8.192 12.348 8.122C12.516 8.332 12.656 8.542 12.754 8.71L13.482 8.262C13.16 7.772 12.544 7.058 11.914 6.526H12.894V2.886H10.234V2.13H13.23V1.304H10.234V0.296H9.324V1.304H6.454V2.13H9.324V2.886H6.776V6.526H9.324V7.436C8.176 7.464 7.126 7.464 6.314 7.478L6.384 8.276ZM7.126 10.46C7.644 10.936 8.19 11.65 8.442 12.154L9.212 11.65C8.946 11.174 8.386 10.502 7.826 10.04L7.126 10.46ZM1.862 6.526H3.164V7.8H1.862V6.526ZM1.862 4.538H3.164V5.784H1.862V4.538ZM5.208 5.784H3.906V4.538H5.208V5.784ZM5.208 7.8H3.906V6.526H5.208V7.8ZM11.704 8.346H10.738V9.088H6.3V9.718H3.99V8.584H6.006V3.754H3.99V2.718H6.16V1.808H3.99V0.296H3.066V1.808H0.77V2.718H3.066V3.754H1.092V8.584H3.066V9.718H0.588V10.642H3.066V13.078H3.99V10.642H6.356V9.914H10.738V12.042C10.738 12.196 10.696 12.224 10.5 12.238C10.304 12.252 9.674 12.252 8.974 12.224C9.1 12.476 9.24 12.826 9.282 13.092C10.206 13.092 10.808 13.092 11.214 12.938C11.592 12.812 11.704 12.56 11.704 12.056V9.914H13.398V9.088H11.704V8.346ZM19.572 2.928H17.696V0.309999H16.8V2.928H14.98V10.194H15.792V3.866H16.8V13.064H17.696V3.866H18.774V9.032C18.774 9.158 18.746 9.186 18.648 9.2C18.55 9.2 18.284 9.2 17.948 9.186C18.074 9.438 18.214 9.83 18.228 10.082C18.704 10.082 19.026 10.068 19.278 9.9C19.516 9.732 19.572 9.452 19.572 9.06V2.928ZM26.6 7.856C26.096 8.36 25.298 8.976 24.612 9.452C24.304 8.878 24.066 8.22 23.898 7.52H27.328V6.652H21.77V5.56H26.25V4.748H21.77V3.642H26.25V2.83H21.77V1.766H26.726V0.884H20.804V6.652H19.74V7.52H20.79V11.762C20.286 11.832 19.838 11.902 19.446 11.958L19.684 12.91C20.972 12.672 22.722 12.364 24.43 12.056L24.36 11.188C23.478 11.342 22.582 11.482 21.756 11.608V7.52H23.002C23.59 10.18 24.794 12.14 26.908 13.064C27.048 12.798 27.37 12.378 27.58 12.182C26.502 11.79 25.676 11.09 25.046 10.18C25.76 9.718 26.642 9.088 27.3 8.486L26.6 7.856Z" fill="#666666"/>
</svg>
