<svg width="56" height="56" viewBox="0 0 56 56" fill="none" xmlns="http://www.w3.org/2000/svg">
<circle cx="28" cy="28" r="27.5" fill="white" stroke="#F1F1F1"/>
<path d="M37.0858 25.721L37.0466 25.6679L37.0389 25.6524L33.4786 20.3672L29.9183 25.6525L29.9108 25.6673L29.8713 25.7211C29.3 26.4948 28.998 27.414 28.998 28.3794C28.998 30.85 31.008 32.8598 33.4785 32.8598C35.949 32.8598 37.959 30.8499 37.959 28.3794C37.9591 27.4139 37.6571 26.4946 37.0858 25.721Z" fill="#0697DB" fill-opacity="0.8"/>
<path d="M33.4795 34.3868C30.1671 34.3868 27.4724 31.692 27.4724 28.3797C27.4724 27.0921 27.8735 25.8651 28.6325 24.8303L30.973 21.3559L27.3649 16L19.8475 27.1594C18.6656 28.7678 18.041 30.6748 18.041 32.676C18.041 37.8173 22.2237 42 27.365 42C32.2364 42 36.2466 38.2447 36.6542 33.477C35.7324 34.0532 34.6443 34.3868 33.4795 34.3868Z" fill="#0697DB" fill-opacity="0.8"/>
</svg>
