<svg width="227" height="13" viewBox="0 0 227 13" fill="none" xmlns="http://www.w3.org/2000/svg">
<path d="M0.972 7.76C0.864 8.804 0.708 9.884 0.384 10.616C0.552 10.676 0.888 10.82 1.02 10.916C1.344 10.148 1.56 8.996 1.668 7.892L0.972 7.76ZM3.552 6.788C3.636 7.052 3.708 7.292 3.744 7.496L4.416 7.22C4.284 6.584 3.864 5.576 3.42 4.832L2.784 5.06C2.964 5.372 3.132 5.732 3.276 6.092L1.884 6.164C2.592 5.132 3.396 3.764 3.984 2.648L3.264 2.348C3 2.948 2.64 3.668 2.256 4.364C2.1 4.136 1.908 3.884 1.704 3.632C2.076 2.984 2.484 2.024 2.82 1.232L2.052 0.968C1.872 1.592 1.548 2.444 1.236 3.116C1.128 2.996 1.02 2.888 0.912 2.78L0.504 3.38C0.984 3.872 1.524 4.544 1.848 5.072C1.608 5.48 1.368 5.864 1.14 6.188L0.396 6.224L0.468 7.028C0.948 7.004 1.5 6.956 2.076 6.92V11.912H2.82V6.86L3.552 6.788ZM3.144 7.916C3.396 8.636 3.66 9.56 3.732 10.172L4.404 9.968C4.308 9.368 4.044 8.444 3.768 7.724L3.144 7.916ZM6.588 1.064H5.796V2.672H4.38V3.476H5.796V4.964H4.524V5.756H5.796V6.176C5.796 6.572 5.784 6.968 5.772 7.34H4.368V8.144H5.688C5.52 9.404 5.088 10.508 4.02 11.42C4.224 11.54 4.536 11.792 4.68 11.96C5.856 10.928 6.324 9.62 6.492 8.144H7.98V7.34H6.564C6.576 6.956 6.588 6.572 6.588 6.176V5.756H7.824V4.964H6.588V3.476H7.98V2.672H6.588V1.064ZM10.836 1.676L10.704 1.712H8.232V11.888H9.036V2.456H10.44C10.224 3.392 9.924 4.496 9.588 5.636C10.356 6.812 10.68 7.58 10.68 8.3C10.68 8.732 10.608 9.164 10.428 9.308C10.356 9.38 10.236 9.404 10.104 9.416C9.936 9.428 9.696 9.428 9.456 9.392C9.6 9.608 9.672 9.944 9.672 10.16C9.924 10.172 10.2 10.172 10.404 10.148C10.632 10.112 10.836 10.04 10.98 9.92C11.304 9.644 11.46 9.02 11.46 8.324C11.46 7.556 11.1 6.704 10.344 5.528C10.752 4.256 11.112 3.008 11.412 1.976L10.836 1.676ZM13.896 3.176H22.068V4.928H22.98V2.336H18.444V0.968H17.52V2.336H13.02V4.928H13.896V3.176ZM18.444 8.276H21.996V7.448H18.444V5.456H21.504V4.616H14.556V5.456H17.532V10.484C16.548 10.112 15.78 9.428 15.324 8.168C15.444 7.664 15.54 7.136 15.612 6.572L14.7 6.488C14.436 8.636 13.788 10.34 12.456 11.372C12.672 11.504 13.044 11.816 13.188 11.972C13.968 11.288 14.556 10.4 14.976 9.296C16.068 11.324 17.856 11.756 20.34 11.756H23.124C23.16 11.492 23.316 11.072 23.46 10.856C22.884 10.868 20.82 10.868 20.388 10.868C19.692 10.868 19.032 10.832 18.444 10.724V8.276ZM31.104 2.504C30.816 3.596 30.096 4.196 28.14 4.544C28.284 4.7 28.488 4.988 28.56 5.18C30.264 4.844 31.152 4.28 31.62 3.392C32.064 4.256 32.94 5.024 34.98 5.384C35.064 5.168 35.268 4.832 35.436 4.664C32.976 4.304 32.304 3.428 32.04 2.504H33.96C33.744 2.852 33.48 3.188 33.228 3.428L33.936 3.68C34.368 3.26 34.812 2.588 35.148 1.976L34.548 1.796L34.404 1.832H30.3C30.456 1.58 30.588 1.34 30.708 1.088L29.904 0.956C29.592 1.676 28.992 2.48 28.092 3.104C28.308 3.188 28.596 3.38 28.764 3.548C29.184 3.224 29.532 2.876 29.832 2.504H31.104ZM27.06 8.576H33.072V9.416H27.06V8.576ZM27.06 7.172H33.072V8H27.06V7.172ZM27.06 5.792H33.072V6.596H27.06V5.792ZM26.196 10.004H33.96V5.192H26.196V10.004ZM28.092 2.144C27.516 1.844 26.412 1.448 25.584 1.22L25.188 1.832C26.04 2.096 27.144 2.516 27.696 2.84L28.092 2.144ZM27.948 3.452C26.724 3.788 25.464 4.148 24.6 4.352L24.948 5.132C25.848 4.844 26.976 4.496 28.056 4.148L27.948 3.452ZM28.2 10.124C27.348 10.604 25.908 11.024 24.684 11.276C24.888 11.432 25.188 11.78 25.344 11.948C26.532 11.624 28.032 11.072 29.004 10.508L28.2 10.124ZM30.996 10.616C32.304 11.048 33.6 11.552 34.344 11.936L35.328 11.492C34.452 11.096 33.024 10.58 31.728 10.16L30.996 10.616ZM44.532 3.272C44.148 2.828 43.32 2.216 42.648 1.808L42.192 2.408C42.876 2.852 43.692 3.5 44.076 3.956L44.532 3.272ZM44.016 6.14C43.596 5.708 42.708 5.168 42 4.796L41.58 5.42C42.3 5.804 43.152 6.416 43.572 6.86L44.016 6.14ZM40.548 1.676C40.368 2.48 40.032 3.668 39.756 4.376L40.332 4.568C40.656 3.896 41.028 2.768 41.316 1.868L40.548 1.676ZM38.052 4.352C37.968 3.632 37.692 2.552 37.344 1.724L36.696 1.88C37.008 2.72 37.284 3.824 37.344 4.544L38.052 4.352ZM39.36 5.804H41.316V4.964H39.36V1.004H38.532V4.964H36.612V5.804H38.292C37.872 7.148 37.116 8.696 36.42 9.536C36.564 9.752 36.78 10.148 36.876 10.4C37.476 9.596 38.088 8.264 38.532 6.98V11.912H39.36V6.992C39.792 7.664 40.356 8.588 40.572 9.032L41.16 8.336C40.896 7.928 39.696 6.344 39.36 5.972V5.804ZM47.544 8.264L47.412 7.448L45.996 7.7V0.968H45.156V7.856L41.292 8.54L41.436 9.368L45.156 8.696V11.912H45.996V8.54L47.544 8.264ZM49.884 12.284C51.144 11.84 51.96 10.856 51.96 9.56C51.96 8.72 51.6 8.18 50.94 8.18C50.448 8.18 50.028 8.48 50.028 9.044C50.028 9.608 50.436 9.896 50.928 9.896C51 9.896 51.06 9.896 51.132 9.884C51.072 10.7 50.544 11.264 49.62 11.648L49.884 12.284ZM67.08 5.312C66.744 4.496 65.976 3.32 65.184 2.444L64.392 2.84C65.148 3.716 65.916 4.94 66.24 5.768L67.08 5.312ZM65.376 7.64C64.584 7.976 63.78 8.324 63.012 8.648L62.832 1.568L61.92 1.604L62.124 9.02C61.5 9.284 60.936 9.512 60.468 9.692L60.792 10.616C62.112 10.04 63.924 9.248 65.58 8.492L65.376 7.64ZM71.604 11.192C70.992 10.304 69.72 8.972 68.652 7.892C69.492 6.284 69.948 4.244 70.236 1.676L69.264 1.58C68.736 6.764 67.464 9.668 63.348 11.18C63.564 11.36 63.936 11.768 64.056 11.948C65.928 11.168 67.236 10.124 68.172 8.708C69.192 9.788 70.308 11.048 70.86 11.876L71.604 11.192ZM75.108 1.004C74.52 2.816 73.536 4.604 72.48 5.768C72.636 5.972 72.9 6.428 72.996 6.644C73.32 6.26 73.656 5.828 73.956 5.36V11.9H74.808V3.908C75.252 3.068 75.636 2.156 75.948 1.256L75.108 1.004ZM77.112 7.28V6.044H79.212V6.644C79.212 6.848 79.212 7.076 79.2 7.28H77.112ZM77.112 4.148H79.212V5.384H77.112V4.148ZM82.032 4.148V5.384H80.088V4.148H82.032ZM82.032 7.28H80.064C80.088 7.076 80.088 6.848 80.088 6.644V6.044H82.032V7.28ZM82.908 7.976V3.452H80.088V2.456H83.316V1.652H75.96V2.456H79.212V3.452H76.272V7.976H79.128C79.02 8.6 78.792 9.188 78.312 9.716C77.64 9.332 77.1 8.864 76.704 8.276L75.948 8.564C76.38 9.248 76.968 9.812 77.664 10.256C77.1 10.652 76.308 10.976 75.24 11.228C75.42 11.408 75.66 11.756 75.78 11.96C76.956 11.624 77.82 11.204 78.444 10.712C79.704 11.324 81.276 11.684 83.064 11.852C83.184 11.588 83.4 11.228 83.592 11.024C81.84 10.904 80.316 10.616 79.08 10.1C79.62 9.452 79.872 8.732 79.992 7.976H82.908ZM87.06 10.124V6.776H93.012V10.124H87.06ZM93.012 2.66V5.9H87.06V2.66H93.012ZM86.16 1.784V11.78H87.06V11H93.012V11.732H93.948V1.784H86.16ZM98.952 0.968C98.424 1.808 97.368 2.84 96.432 3.464C96.588 3.62 96.816 3.932 96.936 4.112C97.944 3.392 99.06 2.288 99.768 1.268L98.952 0.968ZM99.24 3.392C98.532 4.652 97.392 5.9 96.3 6.716C96.444 6.896 96.72 7.316 96.804 7.496C97.26 7.136 97.716 6.692 98.16 6.212V11.948H98.988V5.24C99.384 4.724 99.732 4.196 100.032 3.668L99.24 3.392ZM102.168 7.844H105.192C104.808 8.48 104.268 9.02 103.632 9.488C103.008 9.032 102.492 8.504 102.108 7.916L102.168 7.844ZM105.816 7.1L105.672 7.148H102.792C103.044 6.836 103.272 6.512 103.464 6.176L106.356 6.068C106.572 6.392 106.764 6.692 106.884 6.944L107.628 6.512C107.256 5.792 106.404 4.712 105.648 3.92L104.952 4.292C105.252 4.616 105.564 4.988 105.84 5.36C104.748 5.384 103.644 5.408 102.624 5.432C103.74 4.496 104.964 3.308 105.9 2.312L105.108 1.868C104.556 2.564 103.776 3.392 102.96 4.16C102.684 3.872 102.3 3.548 101.892 3.236C102.432 2.708 103.056 2 103.584 1.364L102.804 0.956C102.432 1.52 101.82 2.252 101.292 2.804C101.052 2.624 100.812 2.468 100.584 2.324L100.044 2.888C100.848 3.416 101.76 4.16 102.324 4.736C102.048 5 101.76 5.228 101.496 5.456L99.648 5.48L99.72 6.296C100.5 6.272 101.46 6.248 102.492 6.212C101.772 7.268 100.644 8.216 99.504 8.84C99.696 8.972 99.984 9.32 100.104 9.488C100.596 9.188 101.088 8.828 101.556 8.42C101.94 8.984 102.408 9.488 102.936 9.932C101.892 10.532 100.68 10.952 99.468 11.192C99.636 11.36 99.84 11.72 99.924 11.948C101.232 11.648 102.528 11.168 103.644 10.46C104.64 11.132 105.804 11.636 107.088 11.924C107.208 11.696 107.448 11.36 107.628 11.18C106.428 10.94 105.3 10.52 104.352 9.956C105.216 9.284 105.936 8.432 106.392 7.388L105.816 7.1ZM109.08 6.572C109.392 5.696 109.608 4.328 109.68 3.356L108.996 3.272C108.912 4.232 108.696 5.54 108.384 6.32L109.08 6.572ZM110.076 11.912H110.952V0.956H110.076V11.912ZM112.536 5.06C112.392 4.508 111.984 3.584 111.612 2.876L110.988 3.164C111.336 3.872 111.732 4.808 111.864 5.384L112.536 5.06ZM115.848 3.704H117.636V6.44H115.788C115.836 5.924 115.848 5.42 115.848 4.94V3.704ZM119.544 7.292V6.44H118.512V2.864H115.848V0.956H114.96V2.864H112.62V3.704H114.96V4.94C114.96 5.42 114.948 5.924 114.9 6.44H111.972V7.292H114.78C114.48 8.756 113.688 10.232 111.588 11.276C111.792 11.444 112.08 11.78 112.212 11.972C114.216 10.868 115.14 9.38 115.536 7.88C116.22 9.752 117.336 11.228 119.004 11.96C119.148 11.696 119.424 11.324 119.64 11.132C117.972 10.52 116.82 9.068 116.184 7.292H119.544ZM125.148 4.676H127.032V6.2H125.148V4.676ZM129.888 4.676V6.2H127.908V4.676H129.888ZM127.032 10.388H127.908V7.532C128.688 8.516 129.78 9.476 130.752 10.004C130.896 9.776 131.16 9.464 131.364 9.308C130.296 8.84 129.06 7.868 128.304 6.92H130.752V3.968H127.908V2.972H131.292V2.204H127.908V0.98H127.032V2.204H123.84V2.972H127.032V3.968H124.332V6.92H126.564C125.868 7.928 124.692 8.888 123.612 9.356C123.804 9.512 124.056 9.824 124.188 10.028C125.208 9.5 126.288 8.528 127.032 7.484V10.388ZM123.504 3.104C123.084 2.528 122.184 1.76 121.416 1.256L120.756 1.796C121.536 2.324 122.424 3.116 122.796 3.692L123.504 3.104ZM123.168 5.66H120.624V6.5H122.292V9.536C121.692 10.04 121.02 10.544 120.468 10.904L120.948 11.804C121.584 11.288 122.184 10.772 122.76 10.268C123.528 11.192 124.596 11.624 126.156 11.684C127.476 11.732 129.936 11.708 131.244 11.66C131.28 11.384 131.436 10.964 131.532 10.748C130.128 10.844 127.464 10.88 126.156 10.832C124.776 10.772 123.732 10.364 123.168 9.488V5.66ZM135.504 9.176C134.856 9.932 133.704 10.616 132.624 11.048C132.816 11.192 133.104 11.528 133.236 11.696C134.316 11.18 135.552 10.352 136.308 9.452L135.504 9.176ZM139.56 9.728C140.616 10.304 141.948 11.168 142.632 11.696L143.244 11.096C142.524 10.556 141.18 9.74 140.136 9.2L139.56 9.728ZM135.3 6.404C134.988 6.092 134.496 5.696 134.04 5.384C134.232 5.252 134.412 5.108 134.58 4.952C135.024 5.24 135.528 5.6 135.84 5.9C135.672 6.08 135.48 6.248 135.3 6.404ZM136.944 4.316C136.764 4.7 136.536 5.072 136.26 5.408C135.924 5.132 135.444 4.796 135 4.544C135.072 4.472 135.144 4.388 135.216 4.316H136.944ZM142.26 3.788H143.088V1.892H138.42V0.968H137.544V1.892H132.9V3.788H133.704V2.636H142.248V3.788L142.044 3.656L141.888 3.692H139.344V4.4H141.396C141.108 4.868 140.724 5.36 140.328 5.744C139.524 5 138.912 4.064 138.528 2.972L137.832 3.164C138.288 4.472 138.984 5.576 139.92 6.428H136.344C137.016 5.732 137.58 4.904 137.928 3.92L137.436 3.668L137.292 3.704H135.696C135.84 3.5 135.972 3.284 136.092 3.08L135.324 2.948C134.856 3.812 133.944 4.796 132.564 5.492C132.732 5.6 132.96 5.852 133.056 6.008C133.212 5.924 133.356 5.84 133.5 5.756C133.956 6.08 134.448 6.476 134.76 6.812C134.064 7.304 133.296 7.676 132.528 7.916C132.684 8.072 132.888 8.36 132.984 8.552C133.296 8.444 133.608 8.312 133.92 8.156V8.876H137.568V11C137.568 11.144 137.52 11.18 137.34 11.192C137.172 11.192 136.596 11.192 135.936 11.18C136.044 11.396 136.164 11.696 136.212 11.924C137.064 11.924 137.628 11.936 137.976 11.804C138.324 11.696 138.42 11.468 138.42 11.024V8.876H142.056V8.132H133.968C134.7 7.772 135.408 7.304 136.032 6.728V7.148H140.112V6.596C140.904 7.28 141.864 7.784 142.992 8.108C143.1 7.88 143.328 7.568 143.52 7.388C142.512 7.148 141.636 6.74 140.892 6.2C141.516 5.6 142.14 4.76 142.56 3.98L142.26 3.788ZM148.38 1.376H145.092V2.096H148.38V1.376ZM148.728 2.948H144.504V3.68H148.728V2.948ZM148.416 6.152H145.032V6.872H148.416V6.152ZM147.66 8.492V10.508H145.776V8.492H147.66ZM148.428 7.76H145.02V11.78H145.776V11.228H148.428V7.76ZM152.292 5.684V6.812H150.312V5.684H152.292ZM150.312 8.696V7.484H152.292V8.696H150.312ZM155.196 2.876H150.696C150.924 2.324 151.128 1.748 151.296 1.16L150.396 0.943999C149.988 2.468 149.292 3.98 148.416 4.964V4.568H145.032V5.276H148.416V5.132C148.632 5.288 148.932 5.528 149.076 5.66C149.244 5.468 149.4 5.252 149.556 5.024V10.1H150.312V9.404H153.06V4.976H149.592C149.856 4.58 150.108 4.148 150.336 3.68H154.344C154.248 8.66 154.116 10.52 153.78 10.904C153.66 11.06 153.528 11.096 153.3 11.096C153.024 11.096 152.34 11.084 151.572 11.036C151.728 11.252 151.836 11.624 151.86 11.864C152.52 11.9 153.228 11.924 153.636 11.876C154.044 11.84 154.308 11.744 154.548 11.396C154.992 10.832 155.076 8.972 155.196 3.344V2.876ZM167.172 3.14C166.764 2.6 165.912 1.784 165.192 1.22L164.544 1.652C165.252 2.24 166.092 3.08 166.476 3.62L167.172 3.14ZM159.768 1.1C158.988 2.984 157.668 4.808 156.3 5.972C156.456 6.176 156.72 6.62 156.816 6.836C157.368 6.332 157.908 5.744 158.424 5.072V11.9H159.324V3.788C159.816 3.008 160.26 2.204 160.608 1.364L159.768 1.1ZM167.4 4.964L167.28 4.124L163.692 4.58C163.572 3.524 163.5 2.36 163.464 1.148H162.576C162.624 2.396 162.708 3.584 162.804 4.7L159.9 5.06L160.02 5.9L162.9 5.54C163.356 9.284 164.316 11.768 166.284 11.912C166.908 11.948 167.388 11.324 167.652 9.272C167.472 9.188 167.088 8.972 166.908 8.804C166.788 10.184 166.596 10.892 166.248 10.868C164.964 10.748 164.184 8.6 163.776 5.42L167.4 4.964ZM169.032 7.784C168.924 8.816 168.732 9.884 168.396 10.616C168.576 10.676 168.9 10.82 169.032 10.916C169.368 10.16 169.596 9.008 169.74 7.904L169.032 7.784ZM177.06 4.232H178.32C178.188 5.504 177.972 6.68 177.672 7.712C177.372 6.716 177.156 5.6 177 4.436L177.06 4.232ZM175.02 3.596H173.112V2.612H175.02V3.596ZM175.02 5.216H173.112V4.22H175.02V5.216ZM179.52 4.232V3.44H177.24C177.396 2.684 177.516 1.88 177.612 1.064L176.844 0.968C176.664 2.72 176.364 4.4 175.776 5.624V1.964H174.24C174.324 1.676 174.42 1.352 174.516 1.04L173.664 0.943999C173.628 1.232 173.556 1.616 173.472 1.964H172.38V5.876H173.676V6.908H172.368C172.236 6.308 171.948 5.528 171.636 4.904L171.012 5.132C171.168 5.468 171.312 5.84 171.432 6.212L169.968 6.248C170.7 5.228 171.516 3.836 172.128 2.696L171.408 2.384C171.132 3.008 170.76 3.74 170.34 4.46C170.172 4.208 169.956 3.944 169.704 3.692C170.112 3.032 170.592 2.072 170.964 1.268L170.22 0.991999C169.992 1.652 169.608 2.552 169.248 3.224C169.14 3.116 169.032 3.008 168.924 2.912L168.468 3.476C168.996 3.968 169.572 4.628 169.932 5.156C169.68 5.564 169.428 5.948 169.176 6.272L168.468 6.296L168.516 7.088C169.008 7.064 169.548 7.028 170.136 7.004V11.912H170.868V6.956L171.636 6.908C171.696 7.124 171.732 7.328 171.756 7.508L172.176 7.34V7.628H173.184C173.112 9.464 172.872 10.664 171.672 11.36C171.852 11.492 172.068 11.756 172.152 11.924C173.172 11.324 173.604 10.412 173.796 9.14H174.984C174.888 10.46 174.78 10.988 174.648 11.144C174.564 11.228 174.468 11.24 174.336 11.24C174.204 11.24 173.88 11.228 173.508 11.204C173.616 11.384 173.688 11.672 173.7 11.876C174.084 11.9 174.468 11.9 174.672 11.876C174.924 11.864 175.104 11.792 175.26 11.624C175.5 11.348 175.632 10.628 175.764 8.792C175.776 8.672 175.776 8.456 175.776 8.456H173.88C173.904 8.192 173.916 7.916 173.928 7.628H176.076V6.908H174.444V5.876H175.644C175.596 5.96 175.548 6.044 175.5 6.128C175.68 6.26 175.98 6.548 176.088 6.692C176.268 6.404 176.424 6.08 176.568 5.732C176.748 6.836 176.976 7.88 177.288 8.792C176.844 9.872 176.244 10.736 175.464 11.288C175.668 11.444 175.932 11.732 176.052 11.912C176.712 11.396 177.24 10.676 177.672 9.8C178.044 10.64 178.488 11.348 179.052 11.876C179.196 11.66 179.472 11.36 179.664 11.204C179.004 10.652 178.476 9.836 178.068 8.84C178.548 7.52 178.848 5.936 179.016 4.232H179.52ZM172.356 10.004C172.26 9.392 171.984 8.444 171.696 7.736L171.084 7.928C171.348 8.648 171.624 9.596 171.708 10.22L172.356 10.004ZM185.532 6.284H186.396V3.548H190.224V5.228H191.052V2.9H186.396V2.168H190.356V1.472H181.644V2.168H185.532V2.9H180.96V5.228H181.764V3.548H185.532V6.284ZM187.032 5.972H189.888V5.408H187.032V5.972ZM187.032 4.196V4.748H189.6V4.196H187.032ZM184.92 4.196H182.388V4.748H184.92V4.196ZM182.16 5.972H184.92V5.408H182.16V5.972ZM182.832 9.584V8.768H185.496V9.584H182.832ZM185.496 7.34V8.168H182.832V7.34H185.496ZM189.204 8.168H186.348V7.34H189.204V8.168ZM186.348 9.584V8.768H189.204V9.584H186.348ZM187.248 11.096C186.492 11.096 186.348 11.024 186.348 10.616V10.232H190.068V6.692H181.98V10.856H182.832V10.232H185.496V10.616C185.496 11.576 185.868 11.804 187.212 11.804H189.972C191.1 11.804 191.376 11.444 191.508 9.992C191.256 9.944 190.932 9.824 190.728 9.692C190.668 10.892 190.548 11.096 189.912 11.096H187.248ZM194.508 3.488H196.236C196.224 3.716 196.176 3.932 196.08 4.136H194.28L194.508 3.488ZM197.076 2.216H198.924V2.9H197.076V2.216ZM201.624 2.216V2.9H199.764V2.216H201.624ZM198.924 4.136H196.968C197.016 3.932 197.052 3.716 197.064 3.488H198.924V4.136ZM202.296 4.724C202.248 5.036 202.2 5.204 202.14 5.276C202.068 5.324 201.996 5.336 201.852 5.336C201.732 5.336 201.396 5.324 201.024 5.3C201.072 5.396 201.12 5.528 201.156 5.648H195.828C196.26 5.372 196.548 5.06 196.728 4.724H198.924V5.624H199.764V4.724H202.296ZM201.072 6.968H195.072V6.224H201.072V6.968ZM201.072 8.252H195.072V7.52H201.072V8.252ZM201.072 9.56H195.072V8.816H201.072V9.56ZM194.208 10.136H201.96V5.912H202.248C202.488 5.9 202.68 5.84 202.824 5.696C203.016 5.504 203.088 5.156 203.172 4.424C203.184 4.316 203.196 4.136 203.196 4.136H199.764V3.488H202.428V1.628H199.764V0.968H198.924V1.628H197.076V0.968H196.26V1.628H193.332V2.216H196.26V2.9H193.872C193.668 3.536 193.416 4.292 193.164 4.832L193.992 4.88L194.052 4.724H195.684C195.192 5.216 194.304 5.612 192.72 5.912C192.876 6.068 193.056 6.404 193.14 6.596C193.536 6.512 193.884 6.428 194.208 6.344V10.136ZM196.224 10.256C195.36 10.676 193.92 11.06 192.684 11.288C192.888 11.444 193.188 11.78 193.332 11.948C194.532 11.66 196.044 11.156 197.028 10.616L196.224 10.256ZM198.96 10.724C200.304 11.12 201.612 11.576 202.38 11.924L203.328 11.456C202.44 11.108 201 10.616 199.68 10.256L198.96 10.724ZM206.508 3.488H208.236C208.224 3.716 208.176 3.932 208.08 4.136H206.28L206.508 3.488ZM209.076 2.216H210.924V2.9H209.076V2.216ZM213.624 2.216V2.9H211.764V2.216H213.624ZM210.924 4.136H208.968C209.016 3.932 209.052 3.716 209.064 3.488H210.924V4.136ZM214.296 4.724C214.248 5.036 214.2 5.204 214.14 5.276C214.068 5.324 213.996 5.336 213.852 5.336C213.732 5.336 213.396 5.324 213.024 5.3C213.072 5.396 213.12 5.528 213.156 5.648H207.828C208.26 5.372 208.548 5.06 208.728 4.724H210.924V5.624H211.764V4.724H214.296ZM213.072 6.968H207.072V6.224H213.072V6.968ZM213.072 8.252H207.072V7.52H213.072V8.252ZM213.072 9.56H207.072V8.816H213.072V9.56ZM206.208 10.136H213.96V5.912H214.248C214.488 5.9 214.68 5.84 214.824 5.696C215.016 5.504 215.088 5.156 215.172 4.424C215.184 4.316 215.196 4.136 215.196 4.136H211.764V3.488H214.428V1.628H211.764V0.968H210.924V1.628H209.076V0.968H208.26V1.628H205.332V2.216H208.26V2.9H205.872C205.668 3.536 205.416 4.292 205.164 4.832L205.992 4.88L206.052 4.724H207.684C207.192 5.216 206.304 5.612 204.72 5.912C204.876 6.068 205.056 6.404 205.14 6.596C205.536 6.512 205.884 6.428 206.208 6.344V10.136ZM208.224 10.256C207.36 10.676 205.92 11.06 204.684 11.288C204.888 11.444 205.188 11.78 205.332 11.948C206.532 11.66 208.044 11.156 209.028 10.616L208.224 10.256ZM210.96 10.724C212.304 11.12 213.612 11.576 214.38 11.924L215.328 11.456C214.44 11.108 213 10.616 211.68 10.256L210.96 10.724ZM222.504 7.412V5.42H225.732V7.412H222.504ZM218.7 7.412C218.736 6.968 218.748 6.524 218.748 6.128V5.42H221.616V7.412H218.7ZM221.616 2.66V4.58H218.748V2.66H221.616ZM225.732 4.58H222.504V2.66H225.732V4.58ZM226.608 1.808H217.872V6.128C217.872 7.796 217.752 9.908 216.432 11.396C216.624 11.504 216.984 11.804 217.116 11.984C218.028 10.964 218.436 9.596 218.616 8.264H221.616V11.804H222.504V8.264H225.732V10.7C225.732 10.928 225.648 11 225.408 11.012C225.192 11.012 224.376 11.024 223.536 10.988C223.656 11.228 223.8 11.612 223.836 11.852C224.964 11.864 225.66 11.852 226.068 11.708C226.452 11.552 226.608 11.288 226.608 10.712V1.808Z" fill="#A4A4A4"/>
</svg>
