<svg width="83" height="14" viewBox="0 0 83 14" fill="none" xmlns="http://www.w3.org/2000/svg">
<path d="M1.764 6.54H3.01V7.814H1.764V6.54ZM1.764 4.538H3.01V5.798H1.764V4.538ZM4.97 5.798H3.71V4.538H4.97V5.798ZM4.97 7.814H3.71V6.54H4.97V7.814ZM3.822 8.598H5.768V3.754H3.822V2.69H6.062V1.794H3.822V0.282H2.898V1.794H0.77V2.69H2.898V3.754H0.98V8.598H2.898V9.718H0.602V10.642H2.898V13.078H3.822V10.642H6.02V9.718H3.822V8.598ZM7.182 9.536V8.374H8.764V9.536H7.182ZM8.764 6.554V7.632H7.182V6.554H8.764ZM9.534 5.77H6.412V13.022H7.182V10.32H8.764V12.168C8.764 12.266 8.736 12.308 8.638 12.308H7.938C8.022 12.518 8.134 12.854 8.148 13.05C8.666 13.05 9.002 13.05 9.24 12.91C9.464 12.77 9.534 12.546 9.534 12.168V5.77ZM11.62 3.852H7.77V4.692H11.62V3.852ZM11.088 6.064H10.318V10.964H11.088V6.064ZM12.194 12.042C12.194 12.196 12.138 12.224 11.984 12.238C11.83 12.252 11.312 12.252 10.738 12.238C10.85 12.462 10.962 12.812 11.004 13.022C11.816 13.022 12.306 13.008 12.642 12.896C12.95 12.742 13.048 12.504 13.048 12.056V5.546H12.194V12.042ZM9.198 0.337999C8.54 1.654 7.21 3.18 5.796 4.006C5.964 4.244 6.202 4.608 6.314 4.86C7.728 3.964 9.002 2.536 9.702 1.304C10.486 2.55 11.844 3.936 13.132 4.748C13.286 4.468 13.51 4.076 13.692 3.852C12.39 3.138 10.99 1.752 10.122 0.337999H9.198ZM17.22 1.136V2.172H20.664C20.692 2.704 20.748 3.32 20.846 3.964L20.23 3.866C19.376 7.786 17.654 10.6 14.56 12.21C14.84 12.392 15.302 12.826 15.498 13.036C18.284 11.398 20.048 8.85 21.084 5.224C21.714 7.87 23.198 10.936 26.642 13.022C26.824 12.77 27.244 12.322 27.482 12.154C21.994 8.892 21.672 3.614 21.672 1.136H17.22ZM33.054 3.81L32.9 3.852H28.812V4.888H32.452C31.78 7.674 30.296 9.76 28.476 10.894C28.714 11.062 29.134 11.468 29.302 11.72C31.346 10.334 33.04 7.744 33.74 4.076L33.054 3.81ZM40.054 2.55C39.228 3.642 37.856 5.042 36.736 6.022C36.246 5.028 35.854 3.964 35.56 2.858V0.323999H34.482V11.594C34.482 11.874 34.384 11.958 34.104 11.972C33.824 11.972 32.928 11.986 31.92 11.944C32.088 12.252 32.298 12.77 32.34 13.078C33.628 13.078 34.44 13.05 34.902 12.868C35.364 12.672 35.56 12.336 35.56 11.594V5.588C36.666 8.458 38.346 10.81 40.768 12C40.936 11.692 41.3 11.272 41.552 11.062C39.704 10.264 38.248 8.738 37.17 6.848C38.374 5.91 39.886 4.44 40.992 3.222L40.054 2.55ZM46.284 3.81H44.184V1.682H46.284V3.81ZM47.25 0.814H43.26V4.678H47.25V0.814ZM44.492 7.814C44.59 7.408 44.688 6.988 44.772 6.582H47.852V5.658H42.616V6.582H43.82C43.624 7.548 43.344 8.654 43.12 9.41L44.044 9.578C44.114 9.326 44.198 9.018 44.282 8.696H46.186C46.018 10.922 45.836 11.818 45.57 12.07C45.458 12.196 45.318 12.224 45.122 12.21C44.898 12.21 44.366 12.21 43.778 12.154C43.918 12.392 44.03 12.798 44.044 13.05C44.632 13.092 45.206 13.092 45.5 13.064C45.878 13.036 46.13 12.952 46.354 12.7C46.732 12.28 46.942 11.146 47.166 8.234C47.18 8.108 47.194 7.814 47.194 7.814H44.492ZM49.182 3.908H54.404C54.32 4.468 54.208 5.042 54.124 5.448L54.908 5.644C55.09 5.014 55.314 4.006 55.482 3.166L54.824 2.998L54.67 3.04H51.968V2.102H54.782V1.262H51.968V0.282H50.974V3.04H48.23V6.61C48.23 8.402 48.104 10.824 46.9 12.574C47.124 12.672 47.516 12.952 47.684 13.148C48.972 11.286 49.182 8.542 49.182 6.61V3.908ZM50.302 8.192C50.204 10.236 49.91 11.594 48.384 12.364C48.608 12.532 48.874 12.882 48.986 13.12C50.708 12.182 51.1 10.572 51.212 8.192H50.302ZM52.388 6.82C52.01 6.82 51.954 6.764 51.954 6.484V5.84L53.718 5.658L53.62 4.93L51.954 5.098V3.992H51.016V5.196L49.49 5.35L49.588 6.078L51.016 5.938V6.498C51.016 7.38 51.268 7.59 52.276 7.59H53.802C54.558 7.59 54.81 7.324 54.894 6.246C54.642 6.176 54.278 6.064 54.096 5.938C54.068 6.722 53.998 6.82 53.676 6.82H52.388ZM53.662 11.916C53.522 11.916 53.424 11.888 53.34 11.846C53.27 11.804 53.242 11.706 53.242 11.608V8.192H52.332V11.594C52.332 12.224 52.388 12.434 52.626 12.63C52.822 12.798 53.158 12.854 53.452 12.854H54.236C54.502 12.854 54.824 12.798 54.978 12.714C55.188 12.588 55.342 12.434 55.426 12.182C55.496 11.93 55.552 11.244 55.566 10.586C55.314 10.502 54.964 10.32 54.796 10.166C54.796 10.796 54.782 11.328 54.74 11.552C54.712 11.692 54.628 11.804 54.544 11.846C54.474 11.888 54.306 11.916 54.152 11.916H53.662ZM59.5 7.66C59.542 7.1 59.556 6.582 59.556 6.092V4.86H66.654V7.66H59.5ZM59.556 3.908V2.648C62.244 2.298 65.254 1.766 67.284 1.094L66.416 0.323999C64.792 0.911999 61.908 1.444 59.304 1.808L58.52 1.584V6.078C58.52 8.052 58.338 10.544 56.588 12.35C56.854 12.476 57.232 12.84 57.386 13.064C58.59 11.804 59.136 10.18 59.388 8.64H66.654V9.382H67.69V3.908H59.556ZM75.586 11.552V8.108H81.326V11.552H75.586ZM79.058 2.62C78.456 3.838 77.574 4.944 76.538 5.896C75.894 5.196 74.83 4.3 73.892 3.642C74.256 3.32 74.578 2.97 74.886 2.62H79.058ZM82.376 7.156H76.65C78.274 5.784 79.646 4.062 80.472 1.99L79.786 1.626L79.59 1.682H75.642C75.936 1.276 76.202 0.87 76.44 0.478L75.278 0.24C74.466 1.752 72.87 3.544 70.574 4.79C70.812 4.972 71.162 5.35 71.302 5.588C71.974 5.196 72.576 4.762 73.136 4.314C74.06 5 75.082 5.896 75.698 6.61C74.116 7.856 72.282 8.78 70.504 9.298C70.728 9.494 70.994 9.928 71.12 10.208C72.282 9.83 73.444 9.298 74.564 8.64V13.064H75.586V12.504H81.326V13.092H82.376V7.156Z" fill="#0697DB"/>
</svg>
