<svg width="324" height="30" viewBox="0 0 324 30" fill="none" xmlns="http://www.w3.org/2000/svg">
<path d="M2.76 2.636C2.976 3.02 3.18 3.464 3.276 3.752L4.056 3.536C3.972 3.284 3.816 2.948 3.636 2.636H5.82C5.568 2.912 5.304 3.152 5.028 3.356C5.232 3.464 5.628 3.668 5.796 3.8C6.168 3.488 6.54 3.092 6.876 2.636H7.824C8.148 3.056 8.484 3.548 8.628 3.884L9.42 3.62C9.288 3.344 9.048 2.972 8.784 2.636H11.4V1.88H7.38C7.512 1.628 7.644 1.376 7.752 1.112L6.9 0.908C6.66 1.508 6.288 2.108 5.844 2.6V1.88H2.688C2.82 1.628 2.94 1.376 3.048 1.124L2.22 0.908C1.848 1.844 1.2 2.792 0.468 3.416C0.684 3.524 1.044 3.764 1.2 3.908C1.548 3.56 1.908 3.128 2.232 2.636H2.76ZM1.788 8.516V7.712H3.036V8.516H1.788ZM1.788 6.356H3.036V7.136H1.788V6.356ZM5.052 6.356V7.136H3.804V6.356H5.052ZM5.052 8.516H3.804V7.712H5.052V8.516ZM3.804 9.116H5.808V5.768H3.804V5.084H6.084V4.4H3.804V3.788H3.036V4.4H0.768V5.084H3.036V5.768H1.056V9.116H3.036V9.836H0.588V10.532H3.036V11.912H3.804V10.532H6.24V9.836H3.804V9.116ZM8.1 10.976C7.524 10.976 7.44 10.88 7.44 10.412V5.036H10.08V7.796C10.08 7.94 10.032 7.976 9.864 7.988C9.696 8 9.156 8 8.508 7.976C8.628 8.216 8.76 8.564 8.808 8.816C9.624 8.816 10.164 8.804 10.5 8.66C10.836 8.504 10.932 8.264 10.932 7.808V4.256H6.588V10.412C6.588 11.516 6.912 11.78 8.04 11.78H10.176C11.184 11.78 11.436 11.324 11.556 9.728C11.304 9.68 10.968 9.536 10.764 9.392C10.704 10.7 10.62 10.976 10.116 10.976H8.1ZM14.82 1.004C14.244 2.84 13.296 4.664 12.264 5.852C12.408 6.068 12.648 6.536 12.732 6.752C13.128 6.284 13.5 5.744 13.86 5.156V11.912H14.688V3.608C15.06 2.84 15.384 2.036 15.648 1.232L14.82 1.004ZM18.72 4.844C18.588 5.756 18.396 6.584 18.144 7.316C17.76 6.944 17.16 6.488 16.632 6.14C16.8 5.72 16.956 5.288 17.088 4.844H18.72ZM15.696 2.372H16.776C16.524 4.112 16.008 6.176 14.952 7.436C15.12 7.58 15.372 7.868 15.492 8.048C15.792 7.688 16.068 7.292 16.296 6.848C16.848 7.232 17.46 7.748 17.832 8.144C17.232 9.536 16.416 10.58 15.432 11.264C15.612 11.396 15.9 11.744 16.008 11.948C17.844 10.616 19.164 8.072 19.632 4.196L19.116 4.04L18.96 4.064H17.304C17.436 3.488 17.544 2.924 17.64 2.372H20.028V1.568H15.696V2.372ZM20.88 2.312H20.088V9.188H20.88V2.312ZM22.272 1.148V10.796C22.272 11 22.2 11.06 21.996 11.072C21.804 11.072 21.168 11.084 20.448 11.06C20.58 11.3 20.688 11.696 20.736 11.924C21.684 11.924 22.272 11.9 22.608 11.756C22.968 11.612 23.088 11.348 23.088 10.796V1.148H22.272ZM24.7852 10.4316C24.7852 10.2441 24.8398 10.0879 24.9492 9.96289C25.0625 9.83789 25.2305 9.77539 25.4531 9.77539C25.6758 9.77539 25.8438 9.83789 25.957 9.96289C26.0742 10.0879 26.1328 10.2441 26.1328 10.4316C26.1328 10.6113 26.0742 10.7617 25.957 10.8828C25.8438 11.0039 25.6758 11.0645 25.4531 11.0645C25.2305 11.0645 25.0625 11.0039 24.9492 10.8828C24.8398 10.7617 24.7852 10.6113 24.7852 10.4316ZM24.791 5.25781C24.791 5.07031 24.8457 4.91406 24.9551 4.78906C25.0684 4.66406 25.2363 4.60156 25.459 4.60156C25.6816 4.60156 25.8496 4.66406 25.9629 4.78906C26.0801 4.91406 26.1387 5.07031 26.1387 5.25781C26.1387 5.4375 26.0801 5.58789 25.9629 5.70898C25.8496 5.83008 25.6816 5.89062 25.459 5.89062C25.2363 5.89062 25.0684 5.83008 24.9551 5.70898C24.8457 5.58789 24.791 5.4375 24.791 5.25781ZM34.1543 11H33.0645V3.77539L30.8789 4.57812V3.59375L33.9844 2.42773H34.1543V11ZM42.9199 11H37.3301V10.2207L40.2832 6.93945C40.7207 6.44336 41.0215 6.04102 41.1855 5.73242C41.3535 5.41992 41.4375 5.09766 41.4375 4.76562C41.4375 4.32031 41.3027 3.95508 41.0332 3.66992C40.7637 3.38477 40.4043 3.24219 39.9551 3.24219C39.416 3.24219 38.9961 3.39648 38.6953 3.70508C38.3984 4.00977 38.25 4.43555 38.25 4.98242H37.166C37.166 4.19727 37.418 3.5625 37.9219 3.07812C38.4297 2.59375 39.1074 2.35156 39.9551 2.35156C40.748 2.35156 41.375 2.56055 41.8359 2.97852C42.2969 3.39258 42.5273 3.94531 42.5273 4.63672C42.5273 5.47656 41.9922 6.47656 40.9219 7.63672L38.6367 10.1152H42.9199V11ZM46.4355 7.81836H43.5762V6.93359H46.4355V7.81836ZM50.9473 11H49.8574V3.77539L47.6719 4.57812V3.59375L50.7773 2.42773H50.9473V11ZM59.7129 11H54.123V10.2207L57.0762 6.93945C57.5137 6.44336 57.8145 6.04102 57.9785 5.73242C58.1465 5.41992 58.2305 5.09766 58.2305 4.76562C58.2305 4.32031 58.0957 3.95508 57.8262 3.66992C57.5566 3.38477 57.1973 3.24219 56.748 3.24219C56.209 3.24219 55.7891 3.39648 55.4883 3.70508C55.1914 4.00977 55.043 4.43555 55.043 4.98242H53.959C53.959 4.19727 54.2109 3.5625 54.7148 3.07812C55.2227 2.59375 55.9004 2.35156 56.748 2.35156C57.541 2.35156 58.168 2.56055 58.6289 2.97852C59.0898 3.39258 59.3203 3.94531 59.3203 4.63672C59.3203 5.47656 58.7852 6.47656 57.7148 7.63672L55.4297 10.1152H59.7129V11ZM64.4238 11H63.334V3.77539L61.1484 4.57812V3.59375L64.2539 2.42773H64.4238V11ZM73.1895 11H67.5996V10.2207L70.5527 6.93945C70.9902 6.44336 71.291 6.04102 71.4551 5.73242C71.623 5.41992 71.707 5.09766 71.707 4.76562C71.707 4.32031 71.5723 3.95508 71.3027 3.66992C71.0332 3.38477 70.6738 3.24219 70.2246 3.24219C69.6855 3.24219 69.2656 3.39648 68.9648 3.70508C68.668 4.00977 68.5195 4.43555 68.5195 4.98242H67.4355C67.4355 4.19727 67.6875 3.5625 68.1914 3.07812C68.6992 2.59375 69.377 2.35156 70.2246 2.35156C71.0176 2.35156 71.6445 2.56055 72.1055 2.97852C72.5664 3.39258 72.7969 3.94531 72.7969 4.63672C72.7969 5.47656 72.2617 6.47656 71.1914 7.63672L68.9062 10.1152H73.1895V11ZM75.9141 6.20703H76.7285C77.2402 6.19922 77.6426 6.06445 77.9355 5.80273C78.2285 5.54102 78.375 5.1875 78.375 4.74219C78.375 3.74219 77.877 3.24219 76.8809 3.24219C76.4121 3.24219 76.0371 3.37695 75.7559 3.64648C75.4785 3.91211 75.3398 4.26562 75.3398 4.70703H74.2559C74.2559 4.03125 74.502 3.4707 74.9941 3.02539C75.4902 2.57617 76.1191 2.35156 76.8809 2.35156C77.6855 2.35156 78.3164 2.56445 78.7734 2.99023C79.2305 3.41602 79.459 4.00781 79.459 4.76562C79.459 5.13672 79.3379 5.49609 79.0957 5.84375C78.8574 6.19141 78.5312 6.45117 78.1172 6.62305C78.5859 6.77148 78.9473 7.01758 79.2012 7.36133C79.459 7.70508 79.5879 8.125 79.5879 8.62109C79.5879 9.38672 79.3379 9.99414 78.8379 10.4434C78.3379 10.8926 77.6875 11.1172 76.8867 11.1172C76.0859 11.1172 75.4336 10.9004 74.9297 10.4668C74.4297 10.0332 74.1797 9.46094 74.1797 8.75H75.2695C75.2695 9.19922 75.416 9.55859 75.709 9.82812C76.002 10.0977 76.3945 10.2324 76.8867 10.2324C77.4102 10.2324 77.8105 10.0957 78.0879 9.82227C78.3652 9.54883 78.5039 9.15625 78.5039 8.64453C78.5039 8.14844 78.3516 7.76758 78.0469 7.50195C77.7422 7.23633 77.3027 7.09961 76.7285 7.0918H75.9141V6.20703ZM85.6523 8.13477H86.8359V9.01953H85.6523V11H84.5625V9.01953H80.6777V8.38086L84.498 2.46875H85.6523V8.13477ZM81.9082 8.13477H84.5625V3.95117L84.4336 4.18555L81.9082 8.13477ZM88.3125 6.72266L88.7461 2.46875H93.1172V3.4707H89.666L89.4082 5.79688C89.8262 5.55078 90.3008 5.42773 90.832 5.42773C91.6094 5.42773 92.2266 5.68555 92.6836 6.20117C93.1406 6.71289 93.3691 7.40625 93.3691 8.28125C93.3691 9.16016 93.1309 9.85352 92.6543 10.3613C92.1816 10.8652 91.5195 11.1172 90.668 11.1172C89.9141 11.1172 89.2988 10.9082 88.8223 10.4902C88.3457 10.0723 88.0742 9.49414 88.0078 8.75586H89.0332C89.0996 9.24414 89.2734 9.61328 89.5547 9.86328C89.8359 10.1094 90.207 10.2324 90.668 10.2324C91.1719 10.2324 91.5664 10.0605 91.8516 9.7168C92.1406 9.37305 92.2852 8.89844 92.2852 8.29297C92.2852 7.72266 92.1289 7.26562 91.8164 6.92188C91.5078 6.57422 91.0957 6.40039 90.5801 6.40039C90.1074 6.40039 89.7363 6.50391 89.4668 6.71094L89.1797 6.94531L88.3125 6.72266ZM98.8066 2.46289V3.38281H98.6074C97.7637 3.39844 97.0918 3.64844 96.5918 4.13281C96.0918 4.61719 95.8027 5.29883 95.7246 6.17773C96.1738 5.66211 96.7871 5.4043 97.5645 5.4043C98.3066 5.4043 98.8984 5.66602 99.3398 6.18945C99.7852 6.71289 100.008 7.38867 100.008 8.2168C100.008 9.0957 99.7676 9.79883 99.2871 10.3262C98.8105 10.8535 98.1699 11.1172 97.3652 11.1172C96.5488 11.1172 95.8867 10.8047 95.3789 10.1797C94.8711 9.55078 94.6172 8.74219 94.6172 7.75391V7.33789C94.6172 5.76758 94.9512 4.56836 95.6191 3.74023C96.291 2.9082 97.2891 2.48242 98.6133 2.46289H98.8066ZM97.3828 6.30664C97.0117 6.30664 96.6699 6.41797 96.3574 6.64062C96.0449 6.86328 95.8281 7.14258 95.707 7.47852V7.87695C95.707 8.58008 95.8652 9.14648 96.1816 9.57617C96.498 10.0059 96.8926 10.2207 97.3652 10.2207C97.8535 10.2207 98.2363 10.041 98.5137 9.68164C98.7949 9.32227 98.9355 8.85156 98.9355 8.26953C98.9355 7.68359 98.793 7.21094 98.5078 6.85156C98.2266 6.48828 97.8516 6.30664 97.3828 6.30664ZM103.658 7.81836H100.799V6.93359H103.658V7.81836ZM108.17 11H107.08V3.77539L104.895 4.57812V3.59375L108 2.42773H108.17V11ZM112.521 12.284C113.781 11.84 114.597 10.856 114.597 9.56C114.597 8.72 114.237 8.18 113.577 8.18C113.085 8.18 112.665 8.48 112.665 9.044C112.665 9.608 113.073 9.896 113.565 9.896C113.637 9.896 113.697 9.896 113.769 9.884C113.709 10.7 113.181 11.264 112.257 11.648L112.521 12.284ZM125.397 2.72C125.625 3.188 125.853 3.752 125.937 4.124L126.705 3.812C126.633 3.524 126.465 3.104 126.273 2.72H128.469V2H125.325C125.469 1.712 125.601 1.424 125.709 1.124L124.869 0.908C124.485 1.964 123.825 3.02 123.069 3.716C123.285 3.824 123.645 4.076 123.801 4.196C124.185 3.8 124.581 3.284 124.929 2.72H125.397ZM128.205 6.944V8.048H125.253C125.337 7.688 125.433 7.316 125.517 6.944H128.205ZM129.057 4.976H132.057V6.188H129.057V4.976ZM129.057 8.048V6.944H132.933V4.22H124.221V4.976H128.205V6.188H124.809C124.617 7.124 124.305 8.324 124.065 9.092L124.929 9.224C124.965 9.104 125.001 8.96 125.049 8.816H127.413C126.321 9.764 124.677 10.604 123.201 11.012C123.393 11.192 123.633 11.504 123.765 11.72C125.313 11.216 127.053 10.244 128.205 9.092V11.912H129.057V8.816H132.669C132.549 9.884 132.417 10.364 132.249 10.532C132.153 10.616 132.033 10.616 131.829 10.616C131.613 10.616 131.049 10.616 130.461 10.568C130.605 10.784 130.689 11.132 130.701 11.384C131.325 11.408 131.901 11.408 132.213 11.384C132.549 11.372 132.765 11.3 132.969 11.096C133.269 10.796 133.437 10.064 133.605 8.408C133.617 8.276 133.629 8.048 133.629 8.048H129.057ZM130.005 2C130.161 1.712 130.293 1.424 130.413 1.124L129.561 0.908C129.177 1.976 128.445 2.972 127.617 3.632C127.821 3.74 128.181 4.004 128.337 4.148C128.769 3.764 129.201 3.272 129.573 2.72H130.425C130.785 3.188 131.133 3.752 131.277 4.148L132.057 3.836C131.925 3.524 131.661 3.104 131.373 2.72H134.037V2H130.005ZM135.213 5.84V6.812H146.109V5.84H135.213ZM149.613 4.364H150.837V3.548H149.613V0.956H148.809V3.548H147.297V4.364H148.725C148.401 5.984 147.729 7.88 147.045 8.876C147.189 9.068 147.393 9.404 147.489 9.62C147.981 8.852 148.449 7.628 148.809 6.356V11.9H149.613V6.272C149.949 6.872 150.345 7.64 150.513 8.024L150.969 7.376C150.777 7.052 149.925 5.72 149.613 5.276V4.364ZM153.345 2.048V2.852H151.785V2.048H153.345ZM151.785 4.304V3.464H153.345V4.304H151.785ZM154.053 4.988V1.364H151.017V11.924H151.785V4.988H154.053ZM155.373 4.304V3.464H156.969V4.304H155.373ZM156.969 2.048V2.852H155.373V2.048H156.969ZM153.117 8.288H154.101V8.828H153.117V8.288ZM153.117 7.292H154.101V7.808H153.117V7.292ZM155.685 7.808H154.665V7.292H155.685V7.808ZM155.685 8.828H154.665V8.288H155.685V8.828ZM157.761 1.364H154.665V4.988H156.969V11C156.969 11.144 156.921 11.18 156.789 11.192C156.705 11.192 156.513 11.192 156.261 11.192C156.381 11.048 156.537 10.88 156.669 10.784C156.093 10.484 155.445 9.896 155.025 9.332H156.273V6.788H154.689V6.32H156.537V5.78H154.689V5.192H154.053V5.78H152.277V6.32H154.053V6.788H152.541V9.332H153.777C153.309 9.944 152.613 10.544 151.965 10.844C152.121 10.964 152.337 11.192 152.433 11.348C152.985 11.036 153.585 10.496 154.041 9.92V11.636H154.713V9.824C155.085 10.34 155.589 10.844 156.045 11.18H155.877C155.985 11.384 156.093 11.732 156.129 11.936C156.777 11.936 157.149 11.912 157.425 11.78C157.677 11.66 157.761 11.42 157.761 11.012V1.364ZM160.149 6.32H161.217V7.412H160.149V6.32ZM160.149 4.604H161.217V5.684H160.149V4.604ZM162.897 5.684H161.817V4.604H162.897V5.684ZM162.897 7.412H161.817V6.32H162.897V7.412ZM161.913 8.084H163.581V3.932H161.913V3.02H163.833V2.252H161.913V0.956H161.121V2.252H159.297V3.02H161.121V3.932H159.477V8.084H161.121V9.044H159.153V9.836H161.121V11.924H161.913V9.836H163.797V9.044H161.913V8.084ZM164.793 8.888V7.892H166.149V8.888H164.793ZM166.149 6.332V7.256H164.793V6.332H166.149ZM166.809 5.66H164.133V11.876H164.793V9.56H166.149V11.144C166.149 11.228 166.125 11.264 166.041 11.264H165.441C165.513 11.444 165.609 11.732 165.621 11.9C166.065 11.9 166.353 11.9 166.557 11.78C166.749 11.66 166.809 11.468 166.809 11.144V5.66ZM168.597 4.016H165.297V4.736H168.597V4.016ZM168.141 5.912H167.481V10.112H168.141V5.912ZM169.089 11.036C169.089 11.168 169.041 11.192 168.909 11.204C168.777 11.216 168.333 11.216 167.841 11.204C167.937 11.396 168.033 11.696 168.069 11.876C168.765 11.876 169.185 11.864 169.473 11.768C169.737 11.636 169.821 11.432 169.821 11.048V5.468H169.089V11.036ZM166.521 1.004C165.957 2.132 164.817 3.44 163.605 4.148C163.749 4.352 163.953 4.664 164.049 4.88C165.261 4.112 166.353 2.888 166.953 1.832C167.625 2.9 168.789 4.088 169.893 4.784C170.025 4.544 170.217 4.208 170.373 4.016C169.257 3.404 168.057 2.216 167.313 1.004H166.521ZM173.397 1.688V2.576H176.349C176.373 3.032 176.421 3.56 176.505 4.112L175.977 4.028C175.245 7.388 173.769 9.8 171.117 11.18C171.357 11.336 171.753 11.708 171.921 11.888C174.309 10.484 175.821 8.3 176.709 5.192C177.249 7.46 178.521 10.088 181.473 11.876C181.629 11.66 181.989 11.276 182.193 11.132C177.489 8.336 177.213 3.812 177.213 1.688H173.397ZM184.917 8.576V7.376H187.569V8.576H184.917ZM187.569 5.504V6.68H184.917V5.504H187.569ZM188.433 4.736H184.065V11.864H184.917V9.284H187.569V10.88C187.569 11.036 187.521 11.084 187.341 11.096C187.185 11.108 186.645 11.108 186.045 11.084C186.165 11.3 186.285 11.636 186.333 11.864C187.149 11.864 187.665 11.864 188.001 11.72C188.325 11.576 188.433 11.348 188.433 10.892V4.736ZM192.297 10.796C192.297 10.976 192.237 11.024 192.033 11.036C191.853 11.048 191.205 11.048 190.473 11.024C190.605 11.264 190.749 11.636 190.797 11.876C191.709 11.888 192.309 11.864 192.693 11.72C193.053 11.576 193.173 11.336 193.173 10.796V4.496H192.297V10.796ZM190.713 4.856H189.885V9.728H190.713V4.856ZM191.169 2.852C191.517 2.36 191.913 1.772 192.237 1.22L191.301 0.908C191.037 1.484 190.581 2.276 190.173 2.852H186.597L187.185 2.624C186.957 2.156 186.453 1.448 185.985 0.943999L185.169 1.256C185.577 1.736 186.045 2.384 186.261 2.852H183.321V3.668H193.965V2.852H191.169ZM200.936 11H195.346V10.2207L198.299 6.93945C198.736 6.44336 199.037 6.04102 199.201 5.73242C199.369 5.41992 199.453 5.09766 199.453 4.76562C199.453 4.32031 199.318 3.95508 199.049 3.66992C198.779 3.38477 198.42 3.24219 197.971 3.24219C197.432 3.24219 197.012 3.39648 196.711 3.70508C196.414 4.00977 196.266 4.43555 196.266 4.98242H195.182C195.182 4.19727 195.434 3.5625 195.938 3.07812C196.445 2.59375 197.123 2.35156 197.971 2.35156C198.764 2.35156 199.391 2.56055 199.852 2.97852C200.312 3.39258 200.543 3.94531 200.543 4.63672C200.543 5.47656 200.008 6.47656 198.938 7.63672L196.652 10.1152H200.936V11ZM205.143 9.608H203.607V6.02H205.143V9.608ZM205.923 10.388V5.252H203.643C203.895 4.34 204.087 3.356 204.243 2.348H206.379V1.532H201.999V2.348H203.391C203.091 4.424 202.587 6.38 201.711 7.664C201.879 7.844 202.155 8.264 202.239 8.444C202.455 8.132 202.659 7.784 202.839 7.412V11.372H203.607V10.388H205.923ZM206.475 11.372C207.051 10.724 207.267 9.608 207.387 8.576L206.715 8.408C206.607 9.392 206.367 10.424 205.851 11.012L206.475 11.372ZM207.867 8.78C207.999 9.476 208.071 10.388 208.047 10.988L208.707 10.88C208.719 10.292 208.623 9.392 208.479 8.684L207.867 8.78ZM209.139 8.684C209.379 9.272 209.595 10.028 209.667 10.532L210.279 10.352C210.195 9.86 209.967 9.092 209.715 8.528L209.139 8.684ZM207.699 5.9H209.355V7.04H207.699V5.9ZM209.355 2.252V3.344H207.699V2.252H209.355ZM209.355 5.18H207.699V4.064H209.355V5.18ZM210.147 7.04V5.9H212.151V5.18H210.147V4.064H212.151V3.344H210.147V2.252H212.427V1.472H206.883V7.82H211.827C211.719 9.992 211.575 10.832 211.383 11.06C211.275 11.168 211.191 11.192 210.999 11.192C210.819 11.192 210.339 11.18 209.835 11.132C209.955 11.348 210.039 11.672 210.051 11.9C210.591 11.936 211.095 11.936 211.371 11.912C211.695 11.888 211.887 11.804 212.079 11.576C212.379 11.228 212.523 10.196 212.655 7.412C212.667 7.292 212.667 7.04 212.667 7.04H210.147ZM211.647 9.608C211.491 9.236 211.155 8.648 210.819 8.216L210.327 8.42C210.639 8.864 210.987 9.464 211.131 9.86L211.647 9.608ZM215.259 12.284C216.519 11.84 217.335 10.856 217.335 9.56C217.335 8.72 216.975 8.18 216.315 8.18C215.823 8.18 215.403 8.48 215.403 9.044C215.403 9.608 215.811 9.896 216.303 9.896C216.375 9.896 216.435 9.896 216.507 9.884C216.447 10.7 215.919 11.264 214.995 11.648L215.259 12.284ZM228.135 2.72C228.363 3.188 228.591 3.752 228.675 4.124L229.443 3.812C229.371 3.524 229.203 3.104 229.011 2.72H231.207V2H228.063C228.207 1.712 228.339 1.424 228.447 1.124L227.607 0.908C227.223 1.964 226.563 3.02 225.807 3.716C226.023 3.824 226.383 4.076 226.539 4.196C226.923 3.8 227.319 3.284 227.667 2.72H228.135ZM230.943 6.944V8.048H227.991C228.075 7.688 228.171 7.316 228.255 6.944H230.943ZM231.795 4.976H234.795V6.188H231.795V4.976ZM231.795 8.048V6.944H235.671V4.22H226.959V4.976H230.943V6.188H227.547C227.355 7.124 227.043 8.324 226.803 9.092L227.667 9.224C227.703 9.104 227.739 8.96 227.787 8.816H230.151C229.059 9.764 227.415 10.604 225.939 11.012C226.131 11.192 226.371 11.504 226.503 11.72C228.051 11.216 229.791 10.244 230.943 9.092V11.912H231.795V8.816H235.407C235.287 9.884 235.155 10.364 234.987 10.532C234.891 10.616 234.771 10.616 234.567 10.616C234.351 10.616 233.787 10.616 233.199 10.568C233.343 10.784 233.427 11.132 233.439 11.384C234.063 11.408 234.639 11.408 234.951 11.384C235.287 11.372 235.503 11.3 235.707 11.096C236.007 10.796 236.175 10.064 236.343 8.408C236.355 8.276 236.367 8.048 236.367 8.048H231.795ZM232.743 2C232.899 1.712 233.031 1.424 233.151 1.124L232.299 0.908C231.915 1.976 231.183 2.972 230.355 3.632C230.559 3.74 230.919 4.004 231.075 4.148C231.507 3.764 231.939 3.272 232.311 2.72H233.163C233.523 3.188 233.871 3.752 234.015 4.148L234.795 3.836C234.663 3.524 234.399 3.104 234.111 2.72H236.775V2H232.743ZM239.103 2.684V3.632H247.659V2.684H239.103ZM238.095 9.752V10.724H248.667V9.752H238.095ZM252.351 4.364H253.575V3.548H252.351V0.956H251.547V3.548H250.035V4.364H251.463C251.139 5.984 250.467 7.88 249.783 8.876C249.927 9.068 250.131 9.404 250.227 9.62C250.719 8.852 251.187 7.628 251.547 6.356V11.9H252.351V6.272C252.687 6.872 253.083 7.64 253.251 8.024L253.707 7.376C253.515 7.052 252.663 5.72 252.351 5.276V4.364ZM256.083 2.048V2.852H254.523V2.048H256.083ZM254.523 4.304V3.464H256.083V4.304H254.523ZM256.791 4.988V1.364H253.755V11.924H254.523V4.988H256.791ZM258.111 4.304V3.464H259.707V4.304H258.111ZM259.707 2.048V2.852H258.111V2.048H259.707ZM255.855 8.288H256.839V8.828H255.855V8.288ZM255.855 7.292H256.839V7.808H255.855V7.292ZM258.423 7.808H257.403V7.292H258.423V7.808ZM258.423 8.828H257.403V8.288H258.423V8.828ZM260.499 1.364H257.403V4.988H259.707V11C259.707 11.144 259.659 11.18 259.527 11.192C259.443 11.192 259.251 11.192 258.999 11.192C259.119 11.048 259.275 10.88 259.407 10.784C258.831 10.484 258.183 9.896 257.763 9.332H259.011V6.788H257.427V6.32H259.275V5.78H257.427V5.192H256.791V5.78H255.015V6.32H256.791V6.788H255.279V9.332H256.515C256.047 9.944 255.351 10.544 254.703 10.844C254.859 10.964 255.075 11.192 255.171 11.348C255.723 11.036 256.323 10.496 256.779 9.92V11.636H257.451V9.824C257.823 10.34 258.327 10.844 258.783 11.18H258.615C258.723 11.384 258.831 11.732 258.867 11.936C259.515 11.936 259.887 11.912 260.163 11.78C260.415 11.66 260.499 11.42 260.499 11.012V1.364ZM262.887 6.32H263.955V7.412H262.887V6.32ZM262.887 4.604H263.955V5.684H262.887V4.604ZM265.635 5.684H264.555V4.604H265.635V5.684ZM265.635 7.412H264.555V6.32H265.635V7.412ZM264.651 8.084H266.319V3.932H264.651V3.02H266.571V2.252H264.651V0.956H263.859V2.252H262.035V3.02H263.859V3.932H262.215V8.084H263.859V9.044H261.891V9.836H263.859V11.924H264.651V9.836H266.535V9.044H264.651V8.084ZM267.531 8.888V7.892H268.887V8.888H267.531ZM268.887 6.332V7.256H267.531V6.332H268.887ZM269.547 5.66H266.871V11.876H267.531V9.56H268.887V11.144C268.887 11.228 268.863 11.264 268.779 11.264H268.179C268.251 11.444 268.347 11.732 268.359 11.9C268.803 11.9 269.091 11.9 269.295 11.78C269.487 11.66 269.547 11.468 269.547 11.144V5.66ZM271.335 4.016H268.035V4.736H271.335V4.016ZM270.879 5.912H270.219V10.112H270.879V5.912ZM271.827 11.036C271.827 11.168 271.779 11.192 271.647 11.204C271.515 11.216 271.071 11.216 270.579 11.204C270.675 11.396 270.771 11.696 270.807 11.876C271.503 11.876 271.923 11.864 272.211 11.768C272.475 11.636 272.559 11.432 272.559 11.048V5.468H271.827V11.036ZM269.259 1.004C268.695 2.132 267.555 3.44 266.343 4.148C266.487 4.352 266.691 4.664 266.787 4.88C267.999 4.112 269.091 2.888 269.691 1.832C270.363 2.9 271.527 4.088 272.631 4.784C272.763 4.544 272.955 4.208 273.111 4.016C271.995 3.404 270.795 2.216 270.051 1.004H269.259ZM276.135 1.688V2.576H279.087C279.111 3.032 279.159 3.56 279.243 4.112L278.715 4.028C277.983 7.388 276.507 9.8 273.855 11.18C274.095 11.336 274.491 11.708 274.659 11.888C277.047 10.484 278.559 8.3 279.447 5.192C279.987 7.46 281.259 10.088 284.211 11.876C284.367 11.66 284.727 11.276 284.931 11.132C280.227 8.336 279.951 3.812 279.951 1.688H276.135ZM287.66 6.20703H288.475C288.986 6.19922 289.389 6.06445 289.682 5.80273C289.975 5.54102 290.121 5.1875 290.121 4.74219C290.121 3.74219 289.623 3.24219 288.627 3.24219C288.158 3.24219 287.783 3.37695 287.502 3.64648C287.225 3.91211 287.086 4.26562 287.086 4.70703H286.002C286.002 4.03125 286.248 3.4707 286.74 3.02539C287.236 2.57617 287.865 2.35156 288.627 2.35156C289.432 2.35156 290.062 2.56445 290.52 2.99023C290.977 3.41602 291.205 4.00781 291.205 4.76562C291.205 5.13672 291.084 5.49609 290.842 5.84375C290.604 6.19141 290.277 6.45117 289.863 6.62305C290.332 6.77148 290.693 7.01758 290.947 7.36133C291.205 7.70508 291.334 8.125 291.334 8.62109C291.334 9.38672 291.084 9.99414 290.584 10.4434C290.084 10.8926 289.434 11.1172 288.633 11.1172C287.832 11.1172 287.18 10.9004 286.676 10.4668C286.176 10.0332 285.926 9.46094 285.926 8.75H287.016C287.016 9.19922 287.162 9.55859 287.455 9.82812C287.748 10.0977 288.141 10.2324 288.633 10.2324C289.156 10.2324 289.557 10.0957 289.834 9.82227C290.111 9.54883 290.25 9.15625 290.25 8.64453C290.25 8.14844 290.098 7.76758 289.793 7.50195C289.488 7.23633 289.049 7.09961 288.475 7.0918H287.66V6.20703ZM295.189 7.81836H292.33V6.93359H295.189V7.81836ZM299.701 11H298.611V3.77539L296.426 4.57812V3.59375L299.531 2.42773H299.701V11ZM308.227 7.36133C308.227 8.63086 308.01 9.57422 307.576 10.1914C307.143 10.8086 306.465 11.1172 305.543 11.1172C304.633 11.1172 303.959 10.8164 303.521 10.2148C303.084 9.60938 302.857 8.70703 302.842 7.50781V6.06055C302.842 4.80664 303.059 3.875 303.492 3.26562C303.926 2.65625 304.605 2.35156 305.531 2.35156C306.449 2.35156 307.125 2.64648 307.559 3.23633C307.992 3.82227 308.215 4.72852 308.227 5.95508V7.36133ZM307.143 5.87891C307.143 4.96094 307.014 4.29297 306.756 3.875C306.498 3.45312 306.09 3.24219 305.531 3.24219C304.977 3.24219 304.572 3.45117 304.318 3.86914C304.064 4.28711 303.934 4.92969 303.926 5.79688V7.53125C303.926 8.45312 304.059 9.13477 304.324 9.57617C304.594 10.0137 305 10.2324 305.543 10.2324C306.078 10.2324 306.475 10.0254 306.732 9.61133C306.994 9.19727 307.131 8.54492 307.143 7.6543V5.87891ZM312.674 9.608H311.138V6.02H312.674V9.608ZM313.454 10.388V5.252H311.174C311.426 4.34 311.618 3.356 311.774 2.348H313.91V1.532H309.53V2.348H310.922C310.622 4.424 310.118 6.38 309.242 7.664C309.41 7.844 309.686 8.264 309.77 8.444C309.986 8.132 310.19 7.784 310.37 7.412V11.372H311.138V10.388H313.454ZM314.006 11.372C314.582 10.724 314.798 9.608 314.918 8.576L314.246 8.408C314.138 9.392 313.898 10.424 313.382 11.012L314.006 11.372ZM315.398 8.78C315.53 9.476 315.602 10.388 315.578 10.988L316.238 10.88C316.25 10.292 316.154 9.392 316.01 8.684L315.398 8.78ZM316.67 8.684C316.91 9.272 317.126 10.028 317.198 10.532L317.81 10.352C317.726 9.86 317.498 9.092 317.246 8.528L316.67 8.684ZM315.23 5.9H316.886V7.04H315.23V5.9ZM316.886 2.252V3.344H315.23V2.252H316.886ZM316.886 5.18H315.23V4.064H316.886V5.18ZM317.678 7.04V5.9H319.682V5.18H317.678V4.064H319.682V3.344H317.678V2.252H319.958V1.472H314.414V7.82H319.358C319.25 9.992 319.106 10.832 318.914 11.06C318.806 11.168 318.722 11.192 318.53 11.192C318.35 11.192 317.87 11.18 317.366 11.132C317.486 11.348 317.57 11.672 317.582 11.9C318.122 11.936 318.626 11.936 318.902 11.912C319.226 11.888 319.418 11.804 319.61 11.576C319.91 11.228 320.054 10.196 320.186 7.412C320.198 7.292 320.198 7.04 320.198 7.04H317.678ZM319.178 9.608C319.022 9.236 318.686 8.648 318.35 8.216L317.858 8.42C318.17 8.864 318.518 9.464 318.662 9.86L319.178 9.608ZM2.76 16.72C2.988 17.188 3.216 17.752 3.3 18.124L4.068 17.812C3.996 17.524 3.828 17.104 3.636 16.72H5.832V16H2.688C2.832 15.712 2.964 15.424 3.072 15.124L2.232 14.908C1.848 15.964 1.188 17.02 0.432 17.716C0.648 17.824 1.008 18.076 1.164 18.196C1.548 17.8 1.944 17.284 2.292 16.72H2.76ZM5.568 20.944V22.048H2.616C2.7 21.688 2.796 21.316 2.88 20.944H5.568ZM6.42 18.976H9.42V20.188H6.42V18.976ZM6.42 22.048V20.944H10.296V18.22H1.584V18.976H5.568V20.188H2.172C1.98 21.124 1.668 22.324 1.428 23.092L2.292 23.224C2.328 23.104 2.364 22.96 2.412 22.816H4.776C3.684 23.764 2.04 24.604 0.564 25.012C0.756 25.192 0.996 25.504 1.128 25.72C2.676 25.216 4.416 24.244 5.568 23.092V25.912H6.42V22.816H10.032C9.912 23.884 9.78 24.364 9.612 24.532C9.516 24.616 9.396 24.616 9.192 24.616C8.976 24.616 8.412 24.616 7.824 24.568C7.968 24.784 8.052 25.132 8.064 25.384C8.688 25.408 9.264 25.408 9.576 25.384C9.912 25.372 10.128 25.3 10.332 25.096C10.632 24.796 10.8 24.064 10.968 22.408C10.98 22.276 10.992 22.048 10.992 22.048H6.42ZM7.368 16C7.524 15.712 7.656 15.424 7.776 15.124L6.924 14.908C6.54 15.976 5.808 16.972 4.98 17.632C5.184 17.74 5.544 18.004 5.7 18.148C6.132 17.764 6.564 17.272 6.936 16.72H7.788C8.148 17.188 8.496 17.752 8.64 18.148L9.42 17.836C9.288 17.524 9.024 17.104 8.736 16.72H11.4V16H7.368ZM13.512 16.12V17.008H22.512V16.12H13.512ZM14.28 20.008V20.908H21.576V20.008H14.28ZM12.828 24.148V25.048H23.16V24.148H12.828ZM26.976 18.364H28.2V17.548H26.976V14.956H26.172V17.548H24.66V18.364H26.088C25.764 19.984 25.092 21.88 24.408 22.876C24.552 23.068 24.756 23.404 24.852 23.62C25.344 22.852 25.812 21.628 26.172 20.356V25.9H26.976V20.272C27.312 20.872 27.708 21.64 27.876 22.024L28.332 21.376C28.14 21.052 27.288 19.72 26.976 19.276V18.364ZM30.708 16.048V16.852H29.148V16.048H30.708ZM29.148 18.304V17.464H30.708V18.304H29.148ZM31.416 18.988V15.364H28.38V25.924H29.148V18.988H31.416ZM32.736 18.304V17.464H34.332V18.304H32.736ZM34.332 16.048V16.852H32.736V16.048H34.332ZM30.48 22.288H31.464V22.828H30.48V22.288ZM30.48 21.292H31.464V21.808H30.48V21.292ZM33.048 21.808H32.028V21.292H33.048V21.808ZM33.048 22.828H32.028V22.288H33.048V22.828ZM35.124 15.364H32.028V18.988H34.332V25C34.332 25.144 34.284 25.18 34.152 25.192C34.068 25.192 33.876 25.192 33.624 25.192C33.744 25.048 33.9 24.88 34.032 24.784C33.456 24.484 32.808 23.896 32.388 23.332H33.636V20.788H32.052V20.32H33.9V19.78H32.052V19.192H31.416V19.78H29.64V20.32H31.416V20.788H29.904V23.332H31.14C30.672 23.944 29.976 24.544 29.328 24.844C29.484 24.964 29.7 25.192 29.796 25.348C30.348 25.036 30.948 24.496 31.404 23.92V25.636H32.076V23.824C32.448 24.34 32.952 24.844 33.408 25.18H33.24C33.348 25.384 33.456 25.732 33.492 25.936C34.14 25.936 34.512 25.912 34.788 25.78C35.04 25.66 35.124 25.42 35.124 25.012V15.364ZM37.512 20.32H38.58V21.412H37.512V20.32ZM37.512 18.604H38.58V19.684H37.512V18.604ZM40.26 19.684H39.18V18.604H40.26V19.684ZM40.26 21.412H39.18V20.32H40.26V21.412ZM39.276 22.084H40.944V17.932H39.276V17.02H41.196V16.252H39.276V14.956H38.484V16.252H36.66V17.02H38.484V17.932H36.84V22.084H38.484V23.044H36.516V23.836H38.484V25.924H39.276V23.836H41.16V23.044H39.276V22.084ZM42.156 22.888V21.892H43.512V22.888H42.156ZM43.512 20.332V21.256H42.156V20.332H43.512ZM44.172 19.66H41.496V25.876H42.156V23.56H43.512V25.144C43.512 25.228 43.488 25.264 43.404 25.264H42.804C42.876 25.444 42.972 25.732 42.984 25.9C43.428 25.9 43.716 25.9 43.92 25.78C44.112 25.66 44.172 25.468 44.172 25.144V19.66ZM45.96 18.016H42.66V18.736H45.96V18.016ZM45.504 19.912H44.844V24.112H45.504V19.912ZM46.452 25.036C46.452 25.168 46.404 25.192 46.272 25.204C46.14 25.216 45.696 25.216 45.204 25.204C45.3 25.396 45.396 25.696 45.432 25.876C46.128 25.876 46.548 25.864 46.836 25.768C47.1 25.636 47.184 25.432 47.184 25.048V19.468H46.452V25.036ZM43.884 15.004C43.32 16.132 42.18 17.44 40.968 18.148C41.112 18.352 41.316 18.664 41.412 18.88C42.624 18.112 43.716 16.888 44.316 15.832C44.988 16.9 46.152 18.088 47.256 18.784C47.388 18.544 47.58 18.208 47.736 18.016C46.62 17.404 45.42 16.216 44.676 15.004H43.884ZM50.76 15.688V16.576H53.712C53.736 17.032 53.784 17.56 53.868 18.112L53.34 18.028C52.608 21.388 51.132 23.8 48.48 25.18C48.72 25.336 49.116 25.708 49.284 25.888C51.672 24.484 53.184 22.3 54.072 19.192C54.612 21.46 55.884 24.088 58.836 25.876C58.992 25.66 59.352 25.276 59.556 25.132C54.852 22.336 54.576 17.812 54.576 15.688H50.76ZM62.952 14.968C62.424 15.808 61.368 16.84 60.432 17.464C60.588 17.62 60.816 17.932 60.936 18.112C61.944 17.392 63.06 16.288 63.768 15.268L62.952 14.968ZM63.24 17.392C62.532 18.652 61.392 19.9 60.3 20.716C60.444 20.896 60.72 21.316 60.804 21.496C61.26 21.136 61.716 20.692 62.16 20.212V25.948H62.988V19.24C63.384 18.724 63.732 18.196 64.032 17.668L63.24 17.392ZM66.168 21.844H69.192C68.808 22.48 68.268 23.02 67.632 23.488C67.008 23.032 66.492 22.504 66.108 21.916L66.168 21.844ZM69.816 21.1L69.672 21.148H66.792C67.044 20.836 67.272 20.512 67.464 20.176L70.356 20.068C70.572 20.392 70.764 20.692 70.884 20.944L71.628 20.512C71.256 19.792 70.404 18.712 69.648 17.92L68.952 18.292C69.252 18.616 69.564 18.988 69.84 19.36C68.748 19.384 67.644 19.408 66.624 19.432C67.74 18.496 68.964 17.308 69.9 16.312L69.108 15.868C68.556 16.564 67.776 17.392 66.96 18.16C66.684 17.872 66.3 17.548 65.892 17.236C66.432 16.708 67.056 16 67.584 15.364L66.804 14.956C66.432 15.52 65.82 16.252 65.292 16.804C65.052 16.624 64.812 16.468 64.584 16.324L64.044 16.888C64.848 17.416 65.76 18.16 66.324 18.736C66.048 19 65.76 19.228 65.496 19.456L63.648 19.48L63.72 20.296C64.5 20.272 65.46 20.248 66.492 20.212C65.772 21.268 64.644 22.216 63.504 22.84C63.696 22.972 63.984 23.32 64.104 23.488C64.596 23.188 65.088 22.828 65.556 22.42C65.94 22.984 66.408 23.488 66.936 23.932C65.892 24.532 64.68 24.952 63.468 25.192C63.636 25.36 63.84 25.72 63.924 25.948C65.232 25.648 66.528 25.168 67.644 24.46C68.64 25.132 69.804 25.636 71.088 25.924C71.208 25.696 71.448 25.36 71.628 25.18C70.428 24.94 69.3 24.52 68.352 23.956C69.216 23.284 69.936 22.432 70.392 21.388L69.816 21.1ZM76.2715 25H75.1816V17.7754L72.9961 18.5781V17.5938L76.1016 16.4277H76.2715V25ZM82.5063 23.608H80.9703V20.02H82.5063V23.608ZM83.2863 24.388V19.252H81.0063C81.2583 18.34 81.4503 17.356 81.6063 16.348H83.7423V15.532H79.3623V16.348H80.7543C80.4543 18.424 79.9503 20.38 79.0743 21.664C79.2423 21.844 79.5183 22.264 79.6023 22.444C79.8183 22.132 80.0223 21.784 80.2023 21.412V25.372H80.9703V24.388H83.2863ZM83.8383 25.372C84.4143 24.724 84.6303 23.608 84.7503 22.576L84.0783 22.408C83.9703 23.392 83.7303 24.424 83.2143 25.012L83.8383 25.372ZM85.2303 22.78C85.3623 23.476 85.4343 24.388 85.4103 24.988L86.0703 24.88C86.0823 24.292 85.9863 23.392 85.8423 22.684L85.2303 22.78ZM86.5023 22.684C86.7423 23.272 86.9583 24.028 87.0303 24.532L87.6423 24.352C87.5583 23.86 87.3303 23.092 87.0783 22.528L86.5023 22.684ZM85.0623 19.9H86.7183V21.04H85.0623V19.9ZM86.7183 16.252V17.344H85.0623V16.252H86.7183ZM86.7183 19.18H85.0623V18.064H86.7183V19.18ZM87.5103 21.04V19.9H89.5143V19.18H87.5103V18.064H89.5143V17.344H87.5103V16.252H89.7903V15.472H84.2463V21.82H89.1903C89.0823 23.992 88.9383 24.832 88.7463 25.06C88.6383 25.168 88.5543 25.192 88.3623 25.192C88.1823 25.192 87.7023 25.18 87.1983 25.132C87.3183 25.348 87.4023 25.672 87.4143 25.9C87.9543 25.936 88.4583 25.936 88.7343 25.912C89.0583 25.888 89.2503 25.804 89.4423 25.576C89.7423 25.228 89.8863 24.196 90.0183 21.412C90.0303 21.292 90.0303 21.04 90.0303 21.04H87.5103ZM89.0103 23.608C88.8543 23.236 88.5183 22.648 88.1823 22.216L87.6903 22.42C88.0023 22.864 88.3503 23.464 88.4943 23.86L89.0103 23.608ZM91.5176 21.5371C91.5176 20.6543 91.6348 19.8066 91.8691 18.9941C92.1074 18.1816 92.4609 17.4434 92.9297 16.7793C93.3984 16.1152 93.8848 15.6465 94.3887 15.373L94.6113 16.0879C94.041 16.5254 93.5723 17.1934 93.2051 18.0918C92.8418 18.9902 92.6426 19.9961 92.6074 21.1094L92.6016 21.6074C92.6016 23.1152 92.877 24.4238 93.4277 25.5332C93.7598 26.1973 94.1543 26.7168 94.6113 27.0918L94.3887 27.7539C93.8691 27.4648 93.373 26.9805 92.9004 26.3008C91.9785 24.9727 91.5176 23.3848 91.5176 21.5371ZM99.1113 25H98.0215V17.7754L95.8359 18.5781V17.5938L98.9414 16.4277H99.1113V25ZM105.85 25H104.76V17.7754L102.574 18.5781V17.5938L105.68 16.4277H105.85V25ZM112.084 23.608H110.548V20.02H112.084V23.608ZM112.864 24.388V19.252H110.584C110.836 18.34 111.028 17.356 111.184 16.348H113.32V15.532H108.94V16.348H110.332C110.032 18.424 109.528 20.38 108.652 21.664C108.82 21.844 109.096 22.264 109.18 22.444C109.396 22.132 109.6 21.784 109.78 21.412V25.372H110.548V24.388H112.864ZM113.416 25.372C113.992 24.724 114.208 23.608 114.328 22.576L113.656 22.408C113.548 23.392 113.308 24.424 112.792 25.012L113.416 25.372ZM114.808 22.78C114.94 23.476 115.012 24.388 114.988 24.988L115.648 24.88C115.66 24.292 115.564 23.392 115.42 22.684L114.808 22.78ZM116.08 22.684C116.32 23.272 116.536 24.028 116.608 24.532L117.22 24.352C117.136 23.86 116.908 23.092 116.656 22.528L116.08 22.684ZM114.64 19.9H116.296V21.04H114.64V19.9ZM116.296 16.252V17.344H114.64V16.252H116.296ZM116.296 19.18H114.64V18.064H116.296V19.18ZM117.088 21.04V19.9H119.092V19.18H117.088V18.064H119.092V17.344H117.088V16.252H119.368V15.472H113.824V21.82H118.768C118.66 23.992 118.516 24.832 118.324 25.06C118.216 25.168 118.132 25.192 117.94 25.192C117.76 25.192 117.28 25.18 116.776 25.132C116.896 25.348 116.98 25.672 116.992 25.9C117.532 25.936 118.036 25.936 118.312 25.912C118.636 25.888 118.828 25.804 119.02 25.576C119.32 25.228 119.464 24.196 119.596 21.412C119.608 21.292 119.608 21.04 119.608 21.04H117.088ZM118.588 23.608C118.432 23.236 118.096 22.648 117.76 22.216L117.268 22.42C117.58 22.864 117.928 23.464 118.072 23.86L118.588 23.608ZM123.639 21.5957C123.639 22.4668 123.523 23.3027 123.293 24.1035C123.066 24.9004 122.717 25.6367 122.244 26.3125C121.775 26.9883 121.283 27.4688 120.768 27.7539L120.539 27.0918C121.141 26.6309 121.623 25.916 121.986 24.9473C122.354 23.9746 122.541 22.8965 122.549 21.7129V21.5254C122.549 20.7051 122.463 19.9434 122.291 19.2402C122.119 18.5332 121.879 17.9004 121.57 17.3418C121.266 16.7832 120.922 16.3477 120.539 16.0352L120.768 15.373C121.283 15.6582 121.773 16.1348 122.238 16.8027C122.707 17.4707 123.057 18.207 123.287 19.0117C123.521 19.8164 123.639 20.6777 123.639 21.5957ZM126.816 22.072C125.82 22.072 124.992 22.888 124.992 23.896C124.992 24.916 125.82 25.732 126.816 25.732C127.836 25.732 128.652 24.916 128.652 23.896C128.652 22.888 127.836 22.072 126.816 22.072ZM126.816 25.12C126.156 25.12 125.604 24.58 125.604 23.896C125.604 23.236 126.156 22.684 126.816 22.684C127.5 22.684 128.04 23.236 128.04 23.896C128.04 24.58 127.5 25.12 126.816 25.12Z" fill="#A4A4A4"/>
</svg>
