<svg width="328" height="15" viewBox="0 0 328 15" fill="none" xmlns="http://www.w3.org/2000/svg">
<rect x="266" y="9.72729" width="1.85714" height="3.27273" rx="0.928571" fill="#666666"/>
<rect x="269.714" y="8.09094" width="1.85714" height="4.90909" rx="0.928571" fill="#666666"/>
<rect x="273.429" y="6.45453" width="1.85714" height="6.54545" rx="0.928571" fill="#666666"/>
<rect x="277.143" y="4" width="1.85714" height="9" rx="0.928572" fill="#666666"/>
<path d="M288.726 9.896H290.008V10.8545H288.726V13H287.545V10.8545H283.336V10.1626L287.475 3.75781H288.726V9.896ZM284.669 9.896H287.545V5.36377L287.405 5.61768L284.669 9.896ZM298.196 11.7876C297.883 12.2362 297.445 12.5726 296.882 12.7969C296.324 13.0169 295.672 13.127 294.927 13.127C294.174 13.127 293.505 12.9513 292.921 12.6001C292.337 12.2446 291.885 11.741 291.563 11.0894C291.246 10.4377 291.083 9.68229 291.074 8.82324V8.01709C291.074 6.62484 291.398 5.54574 292.045 4.77979C292.697 4.01383 293.611 3.63086 294.788 3.63086C295.752 3.63086 296.529 3.87842 297.117 4.37354C297.705 4.86442 298.065 5.56266 298.196 6.46826H296.978C296.749 5.24528 296.021 4.63379 294.794 4.63379C293.977 4.63379 293.357 4.92155 292.934 5.49707C292.515 6.06836 292.304 6.89779 292.299 7.98535V8.74072C292.299 9.77751 292.536 10.6027 293.01 11.2163C293.484 11.8257 294.125 12.1304 294.934 12.1304C295.391 12.1304 295.791 12.0796 296.133 11.978C296.476 11.8765 296.76 11.7051 296.984 11.4639V9.38818H294.845V8.39795H298.196V11.7876Z" fill="#666666"/>
<rect x="302.876" y="4.04999" width="20.1747" height="8.83333" rx="1.75" stroke="#666666" stroke-width="0.5"/>
<rect x="303.566" y="4.6485" width="14.0964" height="7.63636" rx="1" fill="#666666"/>
<line x1="325.431" y1="6.34546" x2="325.431" y2="10.5879" stroke="#666666" stroke-width="0.5"/>
<path d="M4.62744 12H3.44678V4.17334L1.0791 5.04297V3.97656L4.44336 2.71338H4.62744V12ZM8.60742 7.36621L9.07715 2.75781H13.8125V3.84326H10.0737L9.79443 6.36328C10.2472 6.09668 10.7614 5.96338 11.3369 5.96338C12.179 5.96338 12.8477 6.24268 13.3428 6.80127C13.8379 7.35563 14.0854 8.10677 14.0854 9.05469C14.0854 10.0068 13.8273 10.758 13.311 11.3081C12.799 11.854 12.0817 12.127 11.1592 12.127C10.3424 12.127 9.67594 11.9006 9.15967 11.4478C8.64339 10.995 8.34928 10.3687 8.27734 9.56885H9.38818C9.46012 10.0978 9.64844 10.4977 9.95312 10.7686C10.2578 11.0352 10.6598 11.1685 11.1592 11.1685C11.7051 11.1685 12.1325 10.9823 12.4414 10.6099C12.7546 10.2375 12.9111 9.72331 12.9111 9.06738C12.9111 8.44954 12.7419 7.95443 12.4033 7.58203C12.069 7.2054 11.6226 7.01709 11.064 7.01709C10.5519 7.01709 10.1499 7.12923 9.85791 7.35352L9.54688 7.60742L8.60742 7.36621ZM15.4502 11.3843C15.4502 11.1812 15.5094 11.0119 15.6279 10.8765C15.7507 10.741 15.9326 10.6733 16.1738 10.6733C16.415 10.6733 16.597 10.741 16.7197 10.8765C16.8467 11.0119 16.9102 11.1812 16.9102 11.3843C16.9102 11.5789 16.8467 11.7419 16.7197 11.873C16.597 12.0042 16.415 12.0698 16.1738 12.0698C15.9326 12.0698 15.7507 12.0042 15.6279 11.873C15.5094 11.7419 15.4502 11.5789 15.4502 11.3843ZM15.4565 5.7793C15.4565 5.57617 15.5158 5.4069 15.6343 5.27148C15.757 5.13607 15.939 5.06836 16.1802 5.06836C16.4214 5.06836 16.6034 5.13607 16.7261 5.27148C16.853 5.4069 16.9165 5.57617 16.9165 5.7793C16.9165 5.97396 16.853 6.13688 16.7261 6.26807C16.6034 6.39925 16.4214 6.46484 16.1802 6.46484C15.939 6.46484 15.757 6.39925 15.6343 6.26807C15.5158 6.13688 15.4565 5.97396 15.4565 5.7793ZM22.3755 12H21.1948V4.17334L18.8271 5.04297V3.97656L22.1914 2.71338H22.3755V12ZM31.6113 8.05811C31.6113 9.43343 31.3765 10.4554 30.9067 11.124C30.437 11.7926 29.7028 12.127 28.7041 12.127C27.7181 12.127 26.9881 11.8011 26.5142 11.1494C26.0402 10.4935 25.7948 9.51595 25.7778 8.2168V6.64893C25.7778 5.29053 26.0127 4.28125 26.4824 3.62109C26.9521 2.96094 27.6885 2.63086 28.6914 2.63086C29.6859 2.63086 30.418 2.95036 30.8877 3.58936C31.3574 4.22412 31.5986 5.20589 31.6113 6.53467V8.05811ZM30.437 6.45215C30.437 5.45768 30.2974 4.73405 30.0181 4.28125C29.7388 3.82422 29.2965 3.5957 28.6914 3.5957C28.0905 3.5957 27.6525 3.8221 27.3774 4.2749C27.1024 4.7277 26.9606 5.42383 26.9521 6.36328V8.24219C26.9521 9.24089 27.096 9.97933 27.3838 10.4575C27.6758 10.9315 28.1159 11.1685 28.7041 11.1685C29.2839 11.1685 29.7134 10.9442 29.9927 10.4956C30.2762 10.047 30.4243 9.34033 30.437 8.37549V6.45215Z" fill="#666666"/>
</svg>
