<svg width="102" height="14" viewBox="0 0 102 14" fill="none" xmlns="http://www.w3.org/2000/svg">
<path d="M4.512 1.376H1.104V2.096H4.512V1.376ZM4.944 2.948H0.504V3.68H4.944V2.948ZM4.536 4.568H1.056V5.276H4.536V4.568ZM1.056 6.872H4.536V6.152H1.056V6.872ZM3.78 8.492V10.508H1.824V8.492H3.78ZM4.548 7.76H1.044V11.78H1.824V11.228H4.548V7.76ZM6.636 9.032V8.168H9.888V9.032H6.636ZM9.888 6.68V7.532H6.636V6.68H9.888ZM10.728 5.996H5.808V11.888H6.636V9.668H9.888V10.964C9.888 11.108 9.852 11.144 9.708 11.156C9.552 11.156 9.06 11.168 8.52 11.144C8.64 11.348 8.748 11.66 8.772 11.876C9.516 11.876 10.02 11.876 10.332 11.756C10.644 11.624 10.728 11.408 10.728 10.976V5.996ZM8.592 4.616V3.824H11.016V3.164H8.592V2.444H11.196V1.772H8.592V0.956H7.74V1.772H5.208V2.444H7.74V3.164H5.52V3.824H7.74V4.616H4.908V5.3H11.46V4.616H8.592ZM13.512 6.32H14.58V7.412H13.512V6.32ZM13.512 4.604H14.58V5.684H13.512V4.604ZM16.26 5.684H15.18V4.604H16.26V5.684ZM16.26 7.412H15.18V6.32H16.26V7.412ZM15.276 8.084H16.944V3.932H15.276V3.02H17.196V2.252H15.276V0.956H14.484V2.252H12.66V3.02H14.484V3.932H12.84V8.084H14.484V9.044H12.516V9.836H14.484V11.924H15.276V9.836H17.16V9.044H15.276V8.084ZM18.156 8.888V7.892H19.512V8.888H18.156ZM19.512 6.332V7.256H18.156V6.332H19.512ZM20.172 5.66H17.496V11.876H18.156V9.56H19.512V11.144C19.512 11.228 19.488 11.264 19.404 11.264H18.804C18.876 11.444 18.972 11.732 18.984 11.9C19.428 11.9 19.716 11.9 19.92 11.78C20.112 11.66 20.172 11.468 20.172 11.144V5.66ZM21.96 4.016H18.66V4.736H21.96V4.016ZM21.504 5.912H20.844V10.112H21.504V5.912ZM22.452 11.036C22.452 11.168 22.404 11.192 22.272 11.204C22.14 11.216 21.696 11.216 21.204 11.204C21.3 11.396 21.396 11.696 21.432 11.876C22.128 11.876 22.548 11.864 22.836 11.768C23.1 11.636 23.184 11.432 23.184 11.048V5.468H22.452V11.036ZM19.884 1.004C19.32 2.132 18.18 3.44 16.968 4.148C17.112 4.352 17.316 4.664 17.412 4.88C18.624 4.112 19.716 2.888 20.316 1.832C20.988 2.9 22.152 4.088 23.256 4.784C23.388 4.544 23.58 4.208 23.736 4.016C22.62 3.404 21.42 2.216 20.676 1.004H19.884ZM26.76 1.688V2.576H29.712C29.736 3.032 29.784 3.56 29.868 4.112L29.34 4.028C28.608 7.388 27.132 9.8 24.48 11.18C24.72 11.336 25.116 11.708 25.284 11.888C27.672 10.484 29.184 8.3 30.072 5.192C30.612 7.46 31.884 10.088 34.836 11.876C34.992 11.66 35.352 11.276 35.556 11.132C30.852 8.336 30.576 3.812 30.576 1.688H26.76ZM39 7.28C39.036 6.8 39.048 6.356 39.048 5.936V4.88H45.132V7.28H39ZM39.048 4.064V2.984C41.352 2.684 43.932 2.228 45.672 1.652L44.928 0.991999C43.536 1.496 41.064 1.952 38.832 2.264L38.16 2.072V5.924C38.16 7.616 38.004 9.752 36.504 11.3C36.732 11.408 37.056 11.72 37.188 11.912C38.22 10.832 38.688 9.44 38.904 8.12H45.132V8.756H46.02V4.064H39.048ZM52.788 10.616V7.664H57.708V10.616H52.788ZM55.764 2.96C55.248 4.004 54.492 4.952 53.604 5.768C53.052 5.168 52.14 4.4 51.336 3.836C51.648 3.56 51.924 3.26 52.188 2.96H55.764ZM58.608 6.848H53.7C55.092 5.672 56.268 4.196 56.976 2.42L56.388 2.108L56.22 2.156H52.836C53.088 1.808 53.316 1.46 53.52 1.124L52.524 0.92C51.828 2.216 50.46 3.752 48.492 4.82C48.696 4.976 48.996 5.3 49.116 5.504C49.692 5.168 50.208 4.796 50.688 4.412C51.48 5 52.356 5.768 52.884 6.38C51.528 7.448 49.956 8.24 48.432 8.684C48.624 8.852 48.852 9.224 48.96 9.464C49.956 9.14 50.952 8.684 51.912 8.12V11.912H52.788V11.432H57.708V11.936H58.608V6.848Z" fill="#A4A4A4"/>
</svg>
