<svg width="10" height="18" viewBox="0 0 10 18" fill="none" xmlns="http://www.w3.org/2000/svg">
<path d="M0.802813 9.77916L0.802356 9.77866C0.605652 9.56617 0.501871 9.28601 0.500011 9.0027L0.499989 8.99941C0.5 8.71389 0.604536 8.43213 0.803345 8.2191C0.803584 8.21884 0.803824 8.21859 0.804063 8.21833L7.65328 0.840348L7.65609 0.83732L7.6561 0.837332C7.8609 0.620349 8.13782 0.5 8.42556 0.5C8.71463 0.5 8.99342 0.62069 9.19941 0.843216L9.20023 0.844101C9.59966 1.2777 9.60098 1.9661 9.19784 2.39989L0.802813 9.77916ZM0.802813 9.77916L7.65325 17.1596L7.65361 17.16C8.07686 17.615 8.77773 17.6123 9.19832 17.158L9.19914 17.1571C9.59857 16.7235 9.5999 16.0351 9.19678 15.6013C9.19675 15.6013 9.19672 15.6012 9.19669 15.6012C9.1966 15.6011 9.19651 15.601 9.19641 15.6009L3.0701 9.00062L9.1975 2.40025L0.802813 9.77916Z" fill="#A4A4A4" stroke="#A4A4A4"/>
</svg>
