<svg width="35" height="18" viewBox="0 0 35 18" fill="none" xmlns="http://www.w3.org/2000/svg">
<path d="M6.498 5.47L6.3 5.524H1.044V6.856H5.724C4.86 10.438 2.952 13.12 0.612 14.578C0.918 14.794 1.458 15.316 1.674 15.64C4.302 13.858 6.48 10.528 7.38 5.812L6.498 5.47ZM15.498 3.85C14.436 5.254 12.672 7.054 11.232 8.314C10.602 7.036 10.098 5.668 9.72 4.246V0.987999H8.334V15.478C8.334 15.838 8.208 15.946 7.848 15.964C7.488 15.964 6.336 15.982 5.04 15.928C5.256 16.324 5.526 16.99 5.58 17.386C7.236 17.386 8.28 17.35 8.874 17.116C9.468 16.864 9.72 16.432 9.72 15.478V7.756C11.142 11.446 13.302 14.47 16.416 16C16.632 15.604 17.1 15.064 17.424 14.794C15.048 13.768 13.176 11.806 11.79 9.376C13.338 8.17 15.282 6.28 16.704 4.714L15.498 3.85ZM21.762 4.732H24.354C24.336 5.074 24.264 5.398 24.12 5.704H21.42L21.762 4.732ZM25.614 2.824H28.386V3.85H25.614V2.824ZM32.436 2.824V3.85H29.646V2.824H32.436ZM28.386 5.704H25.452C25.524 5.398 25.578 5.074 25.596 4.732H28.386V5.704ZM33.444 6.586C33.372 7.054 33.3 7.306 33.21 7.414C33.102 7.486 32.994 7.504 32.778 7.504C32.598 7.504 32.094 7.486 31.536 7.45C31.608 7.594 31.68 7.792 31.734 7.972H23.742C24.39 7.558 24.822 7.09 25.092 6.586H28.386V7.936H29.646V6.586H33.444ZM31.608 9.952H22.608V8.836H31.608V9.952ZM31.608 11.878H22.608V10.78H31.608V11.878ZM31.608 13.84H22.608V12.724H31.608V13.84ZM21.312 14.704H32.94V8.368H33.372C33.732 8.35 34.02 8.26 34.236 8.044C34.524 7.756 34.632 7.234 34.758 6.136C34.776 5.974 34.794 5.704 34.794 5.704H29.646V4.732H33.642V1.942H29.646V0.952H28.386V1.942H25.614V0.952H24.39V1.942H19.998V2.824H24.39V3.85H20.808C20.502 4.804 20.124 5.938 19.746 6.748L20.988 6.82L21.078 6.586H23.526C22.788 7.324 21.456 7.918 19.08 8.368C19.314 8.602 19.584 9.106 19.71 9.394C20.304 9.268 20.826 9.142 21.312 9.016V14.704ZM24.336 14.884C23.04 15.514 20.88 16.09 19.026 16.432C19.332 16.666 19.782 17.17 19.998 17.422C21.798 16.99 24.066 16.234 25.542 15.424L24.336 14.884ZM28.44 15.586C30.456 16.18 32.418 16.864 33.57 17.386L34.992 16.684C33.66 16.162 31.5 15.424 29.52 14.884L28.44 15.586Z" fill="#666666"/>
</svg>
