<svg width="98" height="16" viewBox="0 0 98 16" fill="none" xmlns="http://www.w3.org/2000/svg">
<path d="M5.054 4.81L4.9 4.852H0.812V5.888H4.452C3.78 8.674 2.296 10.76 0.476 11.894C0.714 12.062 1.134 12.468 1.302 12.72C3.346 11.334 5.04 8.744 5.74 5.076L5.054 4.81ZM12.054 3.55C11.228 4.642 9.856 6.042 8.736 7.022C8.246 6.028 7.854 4.964 7.56 3.858V1.324H6.482V12.594C6.482 12.874 6.384 12.958 6.104 12.972C5.824 12.972 4.928 12.986 3.92 12.944C4.088 13.252 4.298 13.77 4.34 14.078C5.628 14.078 6.44 14.05 6.902 13.868C7.364 13.672 7.56 13.336 7.56 12.594V6.588C8.666 9.458 10.346 11.81 12.768 13C12.936 12.692 13.3 12.272 13.552 12.062C11.704 11.264 10.248 9.738 9.17 7.848C10.374 6.91 11.886 5.44 12.992 4.222L12.054 3.55ZM16.926 4.236H18.942C18.928 4.502 18.872 4.754 18.76 4.992H16.66L16.926 4.236ZM19.922 2.752H22.078V3.55H19.922V2.752ZM25.228 2.752V3.55H23.058V2.752H25.228ZM22.078 4.992H19.796C19.852 4.754 19.894 4.502 19.908 4.236H22.078V4.992ZM26.012 5.678C25.956 6.042 25.9 6.238 25.83 6.322C25.746 6.378 25.662 6.392 25.494 6.392C25.354 6.392 24.962 6.378 24.528 6.35C24.584 6.462 24.64 6.616 24.682 6.756H18.466C18.97 6.434 19.306 6.07 19.516 5.678H22.078V6.728H23.058V5.678H26.012ZM24.584 8.296H17.584V7.428H24.584V8.296ZM24.584 9.794H17.584V8.94H24.584V9.794ZM24.584 11.32H17.584V10.452H24.584V11.32ZM16.576 11.992H25.62V7.064H25.956C26.236 7.05 26.46 6.98 26.628 6.812C26.852 6.588 26.936 6.182 27.034 5.328C27.048 5.202 27.062 4.992 27.062 4.992H23.058V4.236H26.166V2.066H23.058V1.296H22.078V2.066H19.922V1.296H18.97V2.066H15.554V2.752H18.97V3.55H16.184C15.946 4.292 15.652 5.174 15.358 5.804L16.324 5.86L16.394 5.678H18.298C17.724 6.252 16.688 6.714 14.84 7.064C15.022 7.246 15.232 7.638 15.33 7.862C15.792 7.764 16.198 7.666 16.576 7.568V11.992ZM18.928 12.132C17.92 12.622 16.24 13.07 14.798 13.336C15.036 13.518 15.386 13.91 15.554 14.106C16.954 13.77 18.718 13.182 19.866 12.552L18.928 12.132ZM22.12 12.678C23.688 13.14 25.214 13.672 26.11 14.078L27.216 13.532C26.18 13.126 24.5 12.552 22.96 12.132L22.12 12.678ZM31.038 6.462H31.976V4.67C32.578 5.16 33.32 5.804 33.628 6.126L34.146 5.412C33.824 5.146 32.536 4.222 31.976 3.858V3.62H34.286V2.738H31.976V1.324H31.038V2.738H28.742V3.62H30.73C30.17 4.488 29.344 5.286 28.56 5.72C28.714 5.944 28.91 6.308 28.994 6.546C29.736 6.098 30.464 5.328 31.038 4.46V6.462ZM29.204 7.736H33.88V6.868H29.204V7.736ZM29.47 9.99C29.288 10.928 28.98 11.88 28.49 12.552C28.714 12.65 29.092 12.846 29.26 12.972C29.75 12.258 30.114 11.194 30.338 10.144L29.47 9.99ZM34.412 9.542V8.66H28.602V9.542H31.024V13.056C31.024 13.196 30.982 13.224 30.842 13.224H29.708C29.834 13.476 29.946 13.84 29.988 14.078C30.758 14.078 31.248 14.078 31.57 13.924C31.906 13.784 31.976 13.532 31.976 13.07V9.542H34.412ZM32.592 10.242C32.97 10.9 33.32 11.782 33.46 12.342L34.258 11.978C34.118 11.446 33.74 10.592 33.348 9.948L32.592 10.242ZM36.624 10.76C35.63 11.348 34.622 11.936 33.936 12.3L34.454 13.14C35.21 12.664 36.078 12.076 36.918 11.53L36.624 10.76ZM34.58 8.534C35.028 9.094 35.462 9.85 35.644 10.34L36.428 9.906C36.246 9.416 35.784 8.688 35.322 8.156L34.58 8.534ZM38.08 5.622H39.606V6.952H38.08V5.622ZM38.08 3.522H39.606V4.768H38.08V3.522ZM38.08 7.82H40.53V5.622H41.412V4.768H40.53V2.64H38.08V1.282H37.142V2.64H34.972V3.522H37.142V4.768H34.384V5.622H37.142V6.952H34.93V7.82H37.142V12.958C37.142 13.14 37.086 13.196 36.918 13.196C36.778 13.21 36.316 13.21 35.77 13.196C35.896 13.434 36.022 13.826 36.05 14.05C36.848 14.05 37.352 14.022 37.66 13.882C37.982 13.728 38.08 13.476 38.08 12.958V10.2C38.71 11.53 39.634 12.58 40.894 13.084C41.048 12.818 41.342 12.44 41.538 12.244C39.76 11.684 38.598 9.99 38.08 8.114V7.82ZM39.648 10.354C40.124 9.864 40.684 9.122 41.16 8.45L40.32 8.03C39.998 8.604 39.41 9.458 38.962 9.976L39.648 10.354ZM53.452 2.724V3.62H44.94V2.724H53.452ZM44.94 4.348H54.446V1.996H43.932V6.042C43.932 8.254 43.82 11.334 42.476 13.518C42.728 13.616 43.162 13.868 43.358 14.022C44.744 11.754 44.94 8.38 44.94 6.042V4.348ZM51.142 6.42H54.306V5.888H51.142V6.42ZM51.17 4.81V5.356H54.25V4.81H51.17ZM50.414 6.658V4.586H49.448V6.658H50.414ZM45.682 6.42H48.678V5.888H45.682V6.42ZM45.71 4.81V5.356H48.65V4.81H45.71ZM52.136 12.132V10.438H49.56V9.892H53.718C53.592 12.104 53.438 12.944 53.256 13.182C53.172 13.294 53.074 13.308 52.906 13.308C52.836 13.308 52.724 13.308 52.584 13.308C52.318 12.958 51.814 12.482 51.352 12.132H52.136ZM49.56 12.132H51.128L50.638 12.384C50.75 12.468 50.862 12.566 50.974 12.664L49.56 12.72V12.132ZM51.31 11.6H49.56V10.956H51.31V11.6ZM46.97 11.6V10.956H48.664V11.6H46.97ZM48.664 9.892V10.438H46.662C46.872 10.256 47.054 10.074 47.236 9.892H48.664ZM46.438 7.512H48.174V8.212H46.438V7.512ZM49.014 7.512H50.834V8.212H49.014V7.512ZM51.66 7.512H53.508V8.212H51.66V7.512ZM47.796 9.234C47.922 9.066 48.034 8.912 48.146 8.744H54.39V6.98H45.57V8.744H47.082C46.536 9.472 45.696 10.27 44.576 10.886C44.786 11.012 45.108 11.278 45.248 11.488C45.584 11.278 45.892 11.068 46.172 10.844V12.132H48.664V12.762C47.418 12.804 46.27 12.832 45.374 12.86L45.444 13.602C47.082 13.532 49.364 13.42 51.604 13.294C51.744 13.448 51.87 13.588 51.954 13.714L52.094 13.63C52.122 13.784 52.15 13.924 52.164 14.05C52.626 14.064 53.074 14.064 53.34 14.036C53.648 14.022 53.872 13.938 54.068 13.714C54.376 13.35 54.53 12.37 54.67 9.64C54.684 9.5 54.698 9.234 54.698 9.234H47.796ZM66.836 11.152H63.476V10.102H66.836V11.152ZM63.476 8.296H66.836V9.276H63.476V8.296ZM59.43 5.818V4.81H62.44V5.818H59.43ZM66.612 4.81V5.818H63.476V4.81H66.612ZM69.314 9.276H67.872V7.526H63.476V6.546H67.648V4.082H63.476V3.27H69.048V2.416H63.476V1.296H62.44V2.416H56.98V3.27H62.44V4.082H58.436V6.546H62.44V7.526H58.044V8.296H62.44V9.276H56.714V10.102H62.44V11.152H57.918V11.95H62.44V12.916C62.44 13.154 62.356 13.238 62.09 13.252C61.852 13.252 61.012 13.266 60.172 13.238C60.312 13.476 60.48 13.854 60.536 14.12C61.698 14.12 62.426 14.106 62.86 13.952C63.28 13.798 63.476 13.56 63.476 12.916V11.95H66.836V12.58H67.872V10.102H69.314V9.276ZM79.086 4.656C78.89 5.132 78.61 5.706 78.372 6.112L78.512 6.154H75.222L75.67 6.056C75.558 5.678 75.264 5.09 74.97 4.656H79.086ZM83.104 10.746V9.864H77.49V8.828H81.872V8.03H77.49V7.008H82.558V6.154H79.38C79.66 5.734 79.968 5.188 80.248 4.656H83.048V3.76H80.878C81.27 3.228 81.718 2.458 82.11 1.744L81.046 1.464C80.794 2.094 80.346 3.004 79.982 3.592L80.5 3.76H78.806V1.282H77.826V3.76H76.16V1.282H75.194V3.76H73.472L74.186 3.494C73.976 2.934 73.472 2.066 72.996 1.436L72.114 1.73C72.534 2.36 73.024 3.2 73.22 3.76H70.994V4.656H74.41L73.92 4.754C74.2 5.174 74.48 5.734 74.606 6.154H71.554V7.008H76.468V8.03H72.254V8.828H76.468V9.864H70.938V10.746H75.516C74.256 11.726 72.31 12.566 70.574 12.958C70.798 13.182 71.106 13.574 71.246 13.84C73.08 13.308 75.124 12.3 76.468 11.082V14.064H77.49V11.012C78.834 12.3 80.878 13.35 82.754 13.882C82.894 13.588 83.216 13.182 83.454 12.958C81.662 12.58 79.73 11.754 78.456 10.746H83.104ZM96.138 12.3C96.32 12.3 96.572 12.258 96.712 12.188C96.88 12.104 97.006 11.964 97.076 11.768C97.146 11.572 97.188 10.998 97.216 10.494C96.978 10.424 96.684 10.284 96.516 10.13C96.502 10.634 96.488 11.026 96.46 11.194C96.432 11.362 96.376 11.46 96.32 11.488C96.278 11.53 96.152 11.53 96.068 11.53H95.704C95.606 11.53 95.55 11.516 95.494 11.488C95.452 11.432 95.452 11.292 95.452 11.054V8.576H92.19V9.682C92.19 10.41 92.022 11.25 91.084 11.936C91.266 12.062 91.602 12.384 91.728 12.552C92.806 11.74 93.044 10.62 93.044 9.71V9.374H94.556V10.998C94.556 11.698 94.612 11.894 94.78 12.062C94.962 12.23 95.256 12.3 95.508 12.3H96.138ZM90.342 9.346C90.104 10.13 89.768 10.802 89.334 11.362C89.012 10.9 88.732 10.34 88.522 9.626C88.578 9.528 88.634 9.444 88.69 9.346H90.342ZM90.818 8.562L90.65 8.59H89.082C89.222 8.296 89.348 7.988 89.446 7.68L88.62 7.47C88.2 8.772 87.43 9.948 86.506 10.732C86.702 9.5 86.758 8.268 86.758 7.274V4.684H90.328V5.622L87.514 5.804L87.556 6.504L90.328 6.322V6.714C90.328 7.68 90.734 7.89 92.232 7.89H95.396C96.46 7.89 96.782 7.638 96.88 6.56C96.628 6.518 96.236 6.406 96.04 6.28C95.984 7.022 95.872 7.134 95.298 7.134H92.288C91.434 7.134 91.308 7.064 91.308 6.714V6.266L94.85 6.042L94.794 5.342L91.308 5.566V4.684H95.872C95.69 5.174 95.494 5.664 95.312 6.014L96.166 6.28C96.502 5.706 96.838 4.81 97.132 4.012L96.404 3.816L96.236 3.858H91.35V2.948H96.138V2.178H91.35V1.296H90.328V3.858H85.778V7.26C85.778 9.108 85.666 11.656 84.56 13.476C84.784 13.574 85.204 13.91 85.372 14.092C85.946 13.154 86.282 12.006 86.492 10.83C86.674 10.998 86.954 11.264 87.066 11.404C87.388 11.11 87.696 10.774 87.99 10.396C88.228 11.012 88.494 11.544 88.788 11.964C88.088 12.65 87.234 13.112 86.296 13.392C86.478 13.574 86.674 13.91 86.772 14.12C87.738 13.784 88.62 13.294 89.334 12.608C90.426 13.658 91.91 13.91 93.814 13.91H97.104C97.146 13.658 97.3 13.238 97.44 13.028C96.852 13.042 94.29 13.042 93.87 13.042C92.246 13.042 90.902 12.846 89.908 11.992C90.58 11.152 91.07 10.074 91.35 8.702L90.818 8.562Z" fill="#0697DB"/>
</svg>
