<svg width="34" height="18" viewBox="0 0 34 18" fill="none" xmlns="http://www.w3.org/2000/svg">
<path d="M7.298 8.926H8.594V4.822H14.336V7.342H15.578V3.85H8.594V2.752H14.534V1.708H1.466V2.752H7.298V3.85H0.44V7.342H1.646V4.822H7.298V8.926ZM9.548 8.458H13.832V7.612H9.548V8.458ZM9.548 5.794V6.622H13.4V5.794H9.548ZM6.38 5.794H2.582V6.622H6.38V5.794ZM2.24 8.458H6.38V7.612H2.24V8.458ZM3.248 13.876V12.652H7.244V13.876H3.248ZM7.244 10.51V11.752H3.248V10.51H7.244ZM12.806 11.752H8.522V10.51H12.806V11.752ZM8.522 13.876V12.652H12.806V13.876H8.522ZM9.872 16.144C8.738 16.144 8.522 16.036 8.522 15.424V14.848H14.102V9.538H1.97V15.784H3.248V14.848H7.244V15.424C7.244 16.864 7.802 17.206 9.818 17.206H13.958C15.65 17.206 16.064 16.666 16.262 14.488C15.884 14.416 15.398 14.236 15.092 14.038C15.002 15.838 14.822 16.144 13.868 16.144H9.872ZM20.762 4.732H23.354C23.336 5.074 23.264 5.398 23.12 5.704H20.42L20.762 4.732ZM24.614 2.824H27.386V3.85H24.614V2.824ZM31.436 2.824V3.85H28.646V2.824H31.436ZM27.386 5.704H24.452C24.524 5.398 24.578 5.074 24.596 4.732H27.386V5.704ZM32.444 6.586C32.372 7.054 32.3 7.306 32.21 7.414C32.102 7.486 31.994 7.504 31.778 7.504C31.598 7.504 31.094 7.486 30.536 7.45C30.608 7.594 30.68 7.792 30.734 7.972H22.742C23.39 7.558 23.822 7.09 24.092 6.586H27.386V7.936H28.646V6.586H32.444ZM30.608 9.952H21.608V8.836H30.608V9.952ZM30.608 11.878H21.608V10.78H30.608V11.878ZM30.608 13.84H21.608V12.724H30.608V13.84ZM20.312 14.704H31.94V8.368H32.372C32.732 8.35 33.02 8.26 33.236 8.044C33.524 7.756 33.632 7.234 33.758 6.136C33.776 5.974 33.794 5.704 33.794 5.704H28.646V4.732H32.642V1.942H28.646V0.952H27.386V1.942H24.614V0.952H23.39V1.942H18.998V2.824H23.39V3.85H19.808C19.502 4.804 19.124 5.938 18.746 6.748L19.988 6.82L20.078 6.586H22.526C21.788 7.324 20.456 7.918 18.08 8.368C18.314 8.602 18.584 9.106 18.71 9.394C19.304 9.268 19.826 9.142 20.312 9.016V14.704ZM23.336 14.884C22.04 15.514 19.88 16.09 18.026 16.432C18.332 16.666 18.782 17.17 18.998 17.422C20.798 16.99 23.066 16.234 24.542 15.424L23.336 14.884ZM27.44 15.586C29.456 16.18 31.418 16.864 32.57 17.386L33.992 16.684C32.66 16.162 30.5 15.424 28.52 14.884L27.44 15.586Z" fill="#666666"/>
</svg>
