<svg width="83" height="14" viewBox="0 0 83 14" fill="none" xmlns="http://www.w3.org/2000/svg">
<path d="M1.764 6.54H3.01V7.814H1.764V6.54ZM1.764 4.538H3.01V5.798H1.764V4.538ZM4.97 5.798H3.71V4.538H4.97V5.798ZM4.97 7.814H3.71V6.54H4.97V7.814ZM3.822 8.598H5.768V3.754H3.822V2.69H6.062V1.794H3.822V0.282H2.898V1.794H0.77V2.69H2.898V3.754H0.98V8.598H2.898V9.718H0.602V10.642H2.898V13.078H3.822V10.642H6.02V9.718H3.822V8.598ZM7.182 9.536V8.374H8.764V9.536H7.182ZM8.764 6.554V7.632H7.182V6.554H8.764ZM9.534 5.77H6.412V13.022H7.182V10.32H8.764V12.168C8.764 12.266 8.736 12.308 8.638 12.308H7.938C8.022 12.518 8.134 12.854 8.148 13.05C8.666 13.05 9.002 13.05 9.24 12.91C9.464 12.77 9.534 12.546 9.534 12.168V5.77ZM11.62 3.852H7.77V4.692H11.62V3.852ZM11.088 6.064H10.318V10.964H11.088V6.064ZM12.194 12.042C12.194 12.196 12.138 12.224 11.984 12.238C11.83 12.252 11.312 12.252 10.738 12.238C10.85 12.462 10.962 12.812 11.004 13.022C11.816 13.022 12.306 13.008 12.642 12.896C12.95 12.742 13.048 12.504 13.048 12.056V5.546H12.194V12.042ZM9.198 0.337999C8.54 1.654 7.21 3.18 5.796 4.006C5.964 4.244 6.202 4.608 6.314 4.86C7.728 3.964 9.002 2.536 9.702 1.304C10.486 2.55 11.844 3.936 13.132 4.748C13.286 4.468 13.51 4.076 13.692 3.852C12.39 3.138 10.99 1.752 10.122 0.337999H9.198ZM17.22 1.136V2.172H20.664C20.692 2.704 20.748 3.32 20.846 3.964L20.23 3.866C19.376 7.786 17.654 10.6 14.56 12.21C14.84 12.392 15.302 12.826 15.498 13.036C18.284 11.398 20.048 8.85 21.084 5.224C21.714 7.87 23.198 10.936 26.642 13.022C26.824 12.77 27.244 12.322 27.482 12.154C21.994 8.892 21.672 3.614 21.672 1.136H17.22ZM35.588 7.814V5.49H39.354V7.814H35.588ZM31.15 7.814C31.192 7.296 31.206 6.778 31.206 6.316V5.49H34.552V7.814H31.15ZM34.552 2.27V4.51H31.206V2.27H34.552ZM39.354 4.51H35.588V2.27H39.354V4.51ZM40.376 1.276H30.184V6.316C30.184 8.262 30.044 10.726 28.504 12.462C28.728 12.588 29.148 12.938 29.302 13.148C30.366 11.958 30.842 10.362 31.052 8.808H34.552V12.938H35.588V8.808H39.354V11.65C39.354 11.916 39.256 12 38.976 12.014C38.724 12.014 37.772 12.028 36.792 11.986C36.932 12.266 37.1 12.714 37.142 12.994C38.458 13.008 39.27 12.994 39.746 12.826C40.194 12.644 40.376 12.336 40.376 11.664V1.276ZM48.454 6.498H49.462V3.306H53.928V5.266H54.894V2.55H49.462V1.696H54.082V0.884H43.918V1.696H48.454V2.55H43.12V5.266H44.058V3.306H48.454V6.498ZM50.204 6.134H53.536V5.476H50.204V6.134ZM50.204 4.062V4.706H53.2V4.062H50.204ZM47.74 4.062H44.786V4.706H47.74V4.062ZM44.52 6.134H47.74V5.476H44.52V6.134ZM45.304 10.348V9.396H48.412V10.348H45.304ZM48.412 7.73V8.696H45.304V7.73H48.412ZM52.738 8.696H49.406V7.73H52.738V8.696ZM49.406 10.348V9.396H52.738V10.348H49.406ZM50.456 12.112C49.574 12.112 49.406 12.028 49.406 11.552V11.104H53.746V6.974H44.31V11.832H45.304V11.104H48.412V11.552C48.412 12.672 48.846 12.938 50.414 12.938H53.634C54.95 12.938 55.272 12.518 55.426 10.824C55.132 10.768 54.754 10.628 54.516 10.474C54.446 11.874 54.306 12.112 53.564 12.112H50.456ZM59.5 7.66C59.542 7.1 59.556 6.582 59.556 6.092V4.86H66.654V7.66H59.5ZM59.556 3.908V2.648C62.244 2.298 65.254 1.766 67.284 1.094L66.416 0.323999C64.792 0.911999 61.908 1.444 59.304 1.808L58.52 1.584V6.078C58.52 8.052 58.338 10.544 56.588 12.35C56.854 12.476 57.232 12.84 57.386 13.064C58.59 11.804 59.136 10.18 59.388 8.64H66.654V9.382H67.69V3.908H59.556ZM75.586 11.552V8.108H81.326V11.552H75.586ZM79.058 2.62C78.456 3.838 77.574 4.944 76.538 5.896C75.894 5.196 74.83 4.3 73.892 3.642C74.256 3.32 74.578 2.97 74.886 2.62H79.058ZM82.376 7.156H76.65C78.274 5.784 79.646 4.062 80.472 1.99L79.786 1.626L79.59 1.682H75.642C75.936 1.276 76.202 0.87 76.44 0.478L75.278 0.24C74.466 1.752 72.87 3.544 70.574 4.79C70.812 4.972 71.162 5.35 71.302 5.588C71.974 5.196 72.576 4.762 73.136 4.314C74.06 5 75.082 5.896 75.698 6.61C74.116 7.856 72.282 8.78 70.504 9.298C70.728 9.494 70.994 9.928 71.12 10.208C72.282 9.83 73.444 9.298 74.564 8.64V13.064H75.586V12.504H81.326V13.092H82.376V7.156Z" fill="#0697DB"/>
</svg>
