<svg width="56" height="14" viewBox="0 0 56 14" fill="none" xmlns="http://www.w3.org/2000/svg">
<path d="M1.764 6.54H3.01V7.814H1.764V6.54ZM1.764 4.538H3.01V5.798H1.764V4.538ZM4.97 5.798H3.71V4.538H4.97V5.798ZM4.97 7.814H3.71V6.54H4.97V7.814ZM3.822 8.598H5.768V3.754H3.822V2.69H6.062V1.794H3.822V0.282H2.898V1.794H0.77V2.69H2.898V3.754H0.98V8.598H2.898V9.718H0.602V10.642H2.898V13.078H3.822V10.642H6.02V9.718H3.822V8.598ZM7.182 9.536V8.374H8.764V9.536H7.182ZM8.764 6.554V7.632H7.182V6.554H8.764ZM9.534 5.77H6.412V13.022H7.182V10.32H8.764V12.168C8.764 12.266 8.736 12.308 8.638 12.308H7.938C8.022 12.518 8.134 12.854 8.148 13.05C8.666 13.05 9.002 13.05 9.24 12.91C9.464 12.77 9.534 12.546 9.534 12.168V5.77ZM11.62 3.852H7.77V4.692H11.62V3.852ZM11.088 6.064H10.318V10.964H11.088V6.064ZM12.194 12.042C12.194 12.196 12.138 12.224 11.984 12.238C11.83 12.252 11.312 12.252 10.738 12.238C10.85 12.462 10.962 12.812 11.004 13.022C11.816 13.022 12.306 13.008 12.642 12.896C12.95 12.742 13.048 12.504 13.048 12.056V5.546H12.194V12.042ZM9.198 0.337999C8.54 1.654 7.21 3.18 5.796 4.006C5.964 4.244 6.202 4.608 6.314 4.86C7.728 3.964 9.002 2.536 9.702 1.304C10.486 2.55 11.844 3.936 13.132 4.748C13.286 4.468 13.51 4.076 13.692 3.852C12.39 3.138 10.99 1.752 10.122 0.337999H9.198ZM17.22 1.136V2.172H20.664C20.692 2.704 20.748 3.32 20.846 3.964L20.23 3.866C19.376 7.786 17.654 10.6 14.56 12.21C14.84 12.392 15.302 12.826 15.498 13.036C18.284 11.398 20.048 8.85 21.084 5.224C21.714 7.87 23.198 10.936 26.642 13.022C26.824 12.77 27.244 12.322 27.482 12.154C21.994 8.892 21.672 3.614 21.672 1.136H17.22ZM34.454 6.498H35.462V3.306H39.928V5.266H40.894V2.55H35.462V1.696H40.082V0.884H29.918V1.696H34.454V2.55H29.12V5.266H30.058V3.306H34.454V6.498ZM36.204 6.134H39.536V5.476H36.204V6.134ZM36.204 4.062V4.706H39.2V4.062H36.204ZM33.74 4.062H30.786V4.706H33.74V4.062ZM30.52 6.134H33.74V5.476H30.52V6.134ZM31.304 10.348V9.396H34.412V10.348H31.304ZM34.412 7.73V8.696H31.304V7.73H34.412ZM38.738 8.696H35.406V7.73H38.738V8.696ZM35.406 10.348V9.396H38.738V10.348H35.406ZM36.456 12.112C35.574 12.112 35.406 12.028 35.406 11.552V11.104H39.746V6.974H30.31V11.832H31.304V11.104H34.412V11.552C34.412 12.672 34.846 12.938 36.414 12.938H39.634C40.95 12.938 41.272 12.518 41.426 10.824C41.132 10.768 40.754 10.628 40.516 10.474C40.446 11.874 40.306 12.112 39.564 12.112H36.456ZM46.284 3.81H44.184V1.682H46.284V3.81ZM47.25 0.814H43.26V4.678H47.25V0.814ZM44.492 7.814C44.59 7.408 44.688 6.988 44.772 6.582H47.852V5.658H42.616V6.582H43.82C43.624 7.548 43.344 8.654 43.12 9.41L44.044 9.578C44.114 9.326 44.198 9.018 44.282 8.696H46.186C46.018 10.922 45.836 11.818 45.57 12.07C45.458 12.196 45.318 12.224 45.122 12.21C44.898 12.21 44.366 12.21 43.778 12.154C43.918 12.392 44.03 12.798 44.044 13.05C44.632 13.092 45.206 13.092 45.5 13.064C45.878 13.036 46.13 12.952 46.354 12.7C46.732 12.28 46.942 11.146 47.166 8.234C47.18 8.108 47.194 7.814 47.194 7.814H44.492ZM49.182 3.908H54.404C54.32 4.468 54.208 5.042 54.124 5.448L54.908 5.644C55.09 5.014 55.314 4.006 55.482 3.166L54.824 2.998L54.67 3.04H51.968V2.102H54.782V1.262H51.968V0.282H50.974V3.04H48.23V6.61C48.23 8.402 48.104 10.824 46.9 12.574C47.124 12.672 47.516 12.952 47.684 13.148C48.972 11.286 49.182 8.542 49.182 6.61V3.908ZM50.302 8.192C50.204 10.236 49.91 11.594 48.384 12.364C48.608 12.532 48.874 12.882 48.986 13.12C50.708 12.182 51.1 10.572 51.212 8.192H50.302ZM52.388 6.82C52.01 6.82 51.954 6.764 51.954 6.484V5.84L53.718 5.658L53.62 4.93L51.954 5.098V3.992H51.016V5.196L49.49 5.35L49.588 6.078L51.016 5.938V6.498C51.016 7.38 51.268 7.59 52.276 7.59H53.802C54.558 7.59 54.81 7.324 54.894 6.246C54.642 6.176 54.278 6.064 54.096 5.938C54.068 6.722 53.998 6.82 53.676 6.82H52.388ZM53.662 11.916C53.522 11.916 53.424 11.888 53.34 11.846C53.27 11.804 53.242 11.706 53.242 11.608V8.192H52.332V11.594C52.332 12.224 52.388 12.434 52.626 12.63C52.822 12.798 53.158 12.854 53.452 12.854H54.236C54.502 12.854 54.824 12.798 54.978 12.714C55.188 12.588 55.342 12.434 55.426 12.182C55.496 11.93 55.552 11.244 55.566 10.586C55.314 10.502 54.964 10.32 54.796 10.166C54.796 10.796 54.782 11.328 54.74 11.552C54.712 11.692 54.628 11.804 54.544 11.846C54.474 11.888 54.306 11.916 54.152 11.916H53.662Z" fill="#0697DB"/>
</svg>
