<svg width="34" height="31" viewBox="0 0 34 31" fill="none" xmlns="http://www.w3.org/2000/svg">
<g clip-path="url(#clip0_372_4121)">
<path d="M28.0026 13.0943C27.4576 13.0943 27.0162 12.646 27.0162 12.0924V6.29168H21.3097C20.7647 6.29168 20.3232 5.84335 20.3232 5.28982C20.3232 4.7363 20.7647 4.28796 21.3097 4.28796H28.0026C28.5477 4.28796 28.9891 4.7363 28.9891 5.28982V12.0949C28.9891 12.646 28.5477 13.0943 28.0026 13.0943Z" fill="#A4A4A4"/>
<path d="M5.99767 13.0943C5.45266 13.0943 5.01123 12.646 5.01123 12.0924V5.28982C5.01123 4.7363 5.45266 4.28796 5.99767 4.28796H12.6906C13.2356 4.28796 13.6771 4.7363 13.6771 5.28982C13.6771 5.84335 13.2356 6.29168 12.6906 6.29168H6.9841V12.0949C6.9841 12.646 6.54267 13.0943 5.99767 13.0943Z" fill="#A4A4A4"/>
<path d="M28.0026 27.6538H21.3097C20.7647 27.6538 20.3232 27.2055 20.3232 26.652C20.3232 26.0984 20.7647 25.6501 21.3097 25.6501H27.0162V19.8468C27.0162 19.2933 27.4576 18.845 28.0026 18.845C28.5477 18.845 28.9891 19.2933 28.9891 19.8468V26.652C28.9891 27.2055 28.5477 27.6538 28.0026 27.6538Z" fill="#A4A4A4"/>
<path d="M12.6931 27.6538H5.99767C5.45266 27.6538 5.01123 27.2055 5.01123 26.652V19.8468C5.01123 19.2933 5.45266 18.845 5.99767 18.845C6.54267 18.845 6.9841 19.2933 6.9841 19.8468V25.6501H12.6906C13.2356 25.6501 13.6771 26.0984 13.6771 26.652C13.6771 27.2055 13.2381 27.6538 12.6931 27.6538Z" fill="#A4A4A4"/>
<path d="M24.6558 16.8788H9.34386C8.79885 16.8788 8.35742 16.4305 8.35742 15.877C8.35742 15.3235 8.79885 14.8751 9.34386 14.8751H24.6534C25.1984 14.8751 25.6398 15.3235 25.6398 15.877C25.6398 16.4305 25.2008 16.8788 24.6558 16.8788Z" fill="#A4A4A4"/>
</g>
<defs>
<clipPath id="clip0_372_4121">
<rect width="34" height="31" fill="white"/>
</clipPath>
</defs>
</svg>
