<svg width="36" height="12" viewBox="0 0 36 12" fill="none" xmlns="http://www.w3.org/2000/svg">
<path d="M11.304 2.732V1.844H0.708V2.732H5.292V11.9H6.24V5.588C7.608 6.32 9.216 7.304 10.032 7.976L10.656 7.172C9.708 6.452 7.824 5.372 6.396 4.688L6.24 4.868V2.732H11.304ZM12.576 5.84V6.812H23.472V5.84H12.576ZM27.192 5.84C26.592 6.716 25.62 7.604 24.672 8.18C24.9 8.312 25.272 8.6 25.44 8.768C26.352 8.132 27.408 7.124 28.092 6.128L27.192 5.84ZM33.192 6.164C32.16 9.164 29.844 10.58 25.56 11.108C25.74 11.312 25.92 11.672 26.016 11.936C30.48 11.288 32.928 9.728 34.08 6.464L33.192 6.164ZM30.468 4.58V3.212H34.116V2.372H30.468V0.968H29.568V4.58H27.36V1.892H26.472V4.58H24.684V5.408H29.568V8.18C29.568 8.3 29.532 8.336 29.352 8.348C29.172 8.36 28.584 8.36 27.96 8.336C28.068 8.576 28.2 8.9 28.248 9.14C29.1 9.14 29.652 9.14 30 9.008C30.348 8.876 30.456 8.648 30.456 8.192V5.408H35.328V4.58H30.468Z" fill="white"/>
</svg>
