<svg width="56" height="16" viewBox="0 0 56 16" fill="none" xmlns="http://www.w3.org/2000/svg">
<path d="M7.588 8.814V6.49H11.354V8.814H7.588ZM3.15 8.814C3.192 8.296 3.206 7.778 3.206 7.316V6.49H6.552V8.814H3.15ZM6.552 3.27V5.51H3.206V3.27H6.552ZM11.354 5.51H7.588V3.27H11.354V5.51ZM12.376 2.276H2.184V7.316C2.184 9.262 2.044 11.726 0.504 13.462C0.728 13.588 1.148 13.938 1.302 14.148C2.366 12.958 2.842 11.362 3.052 9.808H6.552V13.938H7.588V9.808H11.354V12.65C11.354 12.916 11.256 13 10.976 13.014C10.724 13.014 9.772 13.028 8.792 12.986C8.932 13.266 9.1 13.714 9.142 13.994C10.458 14.008 11.27 13.994 11.746 13.826C12.194 13.644 12.376 13.336 12.376 12.664V2.276ZM17.5 8.66C17.542 8.1 17.556 7.582 17.556 7.092V5.86H24.654V8.66H17.5ZM17.556 4.908V3.648C20.244 3.298 23.254 2.766 25.284 2.094L24.416 1.324C22.792 1.912 19.908 2.444 17.304 2.808L16.52 2.584V7.078C16.52 9.052 16.338 11.544 14.588 13.35C14.854 13.476 15.232 13.84 15.386 14.064C16.59 12.804 17.136 11.18 17.388 9.64H24.654V10.382H25.69V4.908H17.556ZM32.284 4.81H30.184V2.682H32.284V4.81ZM33.25 1.814H29.26V5.678H33.25V1.814ZM30.492 8.814C30.59 8.408 30.688 7.988 30.772 7.582H33.852V6.658H28.616V7.582H29.82C29.624 8.548 29.344 9.654 29.12 10.41L30.044 10.578C30.114 10.326 30.198 10.018 30.282 9.696H32.186C32.018 11.922 31.836 12.818 31.57 13.07C31.458 13.196 31.318 13.224 31.122 13.21C30.898 13.21 30.366 13.21 29.778 13.154C29.918 13.392 30.03 13.798 30.044 14.05C30.632 14.092 31.206 14.092 31.5 14.064C31.878 14.036 32.13 13.952 32.354 13.7C32.732 13.28 32.942 12.146 33.166 9.234C33.18 9.108 33.194 8.814 33.194 8.814H30.492ZM35.182 4.908H40.404C40.32 5.468 40.208 6.042 40.124 6.448L40.908 6.644C41.09 6.014 41.314 5.006 41.482 4.166L40.824 3.998L40.67 4.04H37.968V3.102H40.782V2.262H37.968V1.282H36.974V4.04H34.23V7.61C34.23 9.402 34.104 11.824 32.9 13.574C33.124 13.672 33.516 13.952 33.684 14.148C34.972 12.286 35.182 9.542 35.182 7.61V4.908ZM36.302 9.192C36.204 11.236 35.91 12.594 34.384 13.364C34.608 13.532 34.874 13.882 34.986 14.12C36.708 13.182 37.1 11.572 37.212 9.192H36.302ZM38.388 7.82C38.01 7.82 37.954 7.764 37.954 7.484V6.84L39.718 6.658L39.62 5.93L37.954 6.098V4.992H37.016V6.196L35.49 6.35L35.588 7.078L37.016 6.938V7.498C37.016 8.38 37.268 8.59 38.276 8.59H39.802C40.558 8.59 40.81 8.324 40.894 7.246C40.642 7.176 40.278 7.064 40.096 6.938C40.068 7.722 39.998 7.82 39.676 7.82H38.388ZM39.662 12.916C39.522 12.916 39.424 12.888 39.34 12.846C39.27 12.804 39.242 12.706 39.242 12.608V9.192H38.332V12.594C38.332 13.224 38.388 13.434 38.626 13.63C38.822 13.798 39.158 13.854 39.452 13.854H40.236C40.502 13.854 40.824 13.798 40.978 13.714C41.188 13.588 41.342 13.434 41.426 13.182C41.496 12.93 41.552 12.244 41.566 11.586C41.314 11.502 40.964 11.32 40.796 11.166C40.796 11.796 40.782 12.328 40.74 12.552C40.712 12.692 40.628 12.804 40.544 12.846C40.474 12.888 40.306 12.916 40.152 12.916H39.662ZM46.396 11.376H44.604V7.19H46.396V11.376ZM47.306 12.286V6.294H44.646C44.94 5.23 45.164 4.082 45.346 2.906H47.838V1.954H42.728V2.906H44.352C44.002 5.328 43.414 7.61 42.392 9.108C42.588 9.318 42.91 9.808 43.008 10.018C43.26 9.654 43.498 9.248 43.708 8.814V13.434H44.604V12.286H47.306ZM47.95 13.434C48.622 12.678 48.874 11.376 49.014 10.172L48.23 9.976C48.104 11.124 47.824 12.328 47.222 13.014L47.95 13.434ZM49.574 10.41C49.728 11.222 49.812 12.286 49.784 12.986L50.554 12.86C50.568 12.174 50.456 11.124 50.288 10.298L49.574 10.41ZM51.058 10.298C51.338 10.984 51.59 11.866 51.674 12.454L52.388 12.244C52.29 11.67 52.024 10.774 51.73 10.116L51.058 10.298ZM49.378 7.05H51.31V8.38H49.378V7.05ZM51.31 2.794V4.068H49.378V2.794H51.31ZM51.31 6.21H49.378V4.908H51.31V6.21ZM52.234 8.38V7.05H54.572V6.21H52.234V4.908H54.572V4.068H52.234V2.794H54.894V1.884H48.426V9.29H54.194C54.068 11.824 53.9 12.804 53.676 13.07C53.55 13.196 53.452 13.224 53.228 13.224C53.018 13.224 52.458 13.21 51.87 13.154C52.01 13.406 52.108 13.784 52.122 14.05C52.752 14.092 53.34 14.092 53.662 14.064C54.04 14.036 54.264 13.938 54.488 13.672C54.838 13.266 55.006 12.062 55.16 8.814C55.174 8.674 55.174 8.38 55.174 8.38H52.234ZM53.984 11.376C53.802 10.942 53.41 10.256 53.018 9.752L52.444 9.99C52.808 10.508 53.214 11.208 53.382 11.67L53.984 11.376Z" fill="#0697DB"/>
</svg>
