<svg width="111" height="20" viewBox="0 0 111 20" fill="none" xmlns="http://www.w3.org/2000/svg">
<path d="M28.612 8.16C27.868 9.696 26.656 11.16 25.384 12.084C25.588 12.24 25.96 12.54 26.104 12.708C26.608 12.288 27.124 11.784 27.616 11.22V15.912H28.492V10.104C28.864 9.564 29.2 9.012 29.488 8.436L28.612 8.16ZM32.524 6.912V8.232H33.412V6.912H36.232V6.048H33.412V4.956H32.524V6.048H29.512V4.956H28.624V6.048H25.756V6.912H28.624V8.16H29.512V6.912H32.524ZM32.74 14.904C32.128 14.904 32.008 14.796 32.008 14.304V11.952C33.376 11.388 34.888 10.692 35.956 9.984L35.272 9.324C34.504 9.912 33.232 10.596 32.008 11.136V8.268H31.132V14.292C31.132 15.432 31.468 15.744 32.668 15.744H34.948C36.064 15.744 36.328 15.204 36.448 13.428C36.208 13.368 35.848 13.212 35.632 13.056C35.56 14.592 35.464 14.904 34.9 14.904H32.74ZM44.308 12.048H46.516V12.96H44.308V12.048ZM46.516 9.024V9.9H44.308V9.024H46.516ZM44.308 10.512H46.516V11.424H44.308V10.512ZM42.136 12.96V13.692H48.532V12.96H47.344V9.024H48.316V8.304H47.344V7.476H46.516V8.304H44.308V7.476H43.492V8.304H42.46V9.024H43.492V12.96H42.136ZM41.92 9.264H39.76V7.716H41.848L41.824 7.74C42.028 7.848 42.364 8.076 42.52 8.196C42.844 7.86 43.144 7.44 43.42 6.972H48.448V6.228H43.804C43.96 5.88 44.092 5.52 44.2 5.148L43.396 4.956C43.144 5.844 42.712 6.696 42.172 7.356V6.9H40.408V4.98H39.568V6.9H37.564V7.716H38.98V9.804C38.98 11.52 38.8 13.632 37.36 15.384C37.564 15.528 37.864 15.756 38.008 15.924C39.496 14.124 39.736 11.988 39.76 10.08H41.092C41.02 13.476 40.924 14.664 40.744 14.952C40.66 15.084 40.564 15.108 40.42 15.108C40.252 15.108 39.892 15.108 39.484 15.06C39.616 15.276 39.7 15.624 39.712 15.864C40.12 15.888 40.54 15.888 40.792 15.852C41.08 15.816 41.284 15.744 41.464 15.468C41.752 15.06 41.836 13.728 41.92 9.672V9.264ZM44.044 13.764C43.612 14.304 42.7 14.964 41.896 15.348C42.076 15.492 42.34 15.744 42.484 15.9C43.288 15.504 44.224 14.808 44.812 14.16L44.044 13.764ZM45.94 14.208C46.636 14.724 47.512 15.492 47.932 15.948L48.58 15.504C48.136 15.036 47.26 14.316 46.576 13.824L45.94 14.208ZM54.376 13.86L52.504 14.22V10.716H54.292V9.936H52.504V8.676H53.98V7.908H50.62C51.304 7.188 51.808 6.432 52.18 5.784C52.876 6.42 53.644 7.308 54.04 7.872L54.64 7.188C54.172 6.564 53.224 5.616 52.444 4.968H51.652C51.22 5.916 50.44 7.128 49.312 8.04C49.48 8.16 49.744 8.436 49.876 8.616C50.044 8.472 50.212 8.316 50.368 8.16V8.676H51.724V9.936H49.768V10.716H51.724V14.364C50.92 14.508 50.188 14.652 49.612 14.748L49.816 15.552C51.076 15.3 52.816 14.964 54.436 14.616L54.376 13.86ZM50.008 11.556C50.26 12.264 50.464 13.176 50.5 13.788L51.172 13.596C51.112 13.008 50.896 12.096 50.632 11.4L50.008 11.556ZM53.44 13.644C53.656 13.08 53.932 12.204 54.16 11.472L53.464 11.256C53.344 11.904 53.068 12.864 52.876 13.44L53.44 13.644ZM55.756 8.376H59.056V9.792H55.756V8.376ZM59.056 6.264V7.596H55.756V6.264H59.056ZM59.776 11.076C59.392 11.484 58.78 12 58.24 12.408C58 11.832 57.808 11.22 57.652 10.572H59.908V5.46H54.916V14.712C54.544 14.796 54.208 14.868 53.908 14.928L54.16 15.78C55.264 15.528 56.704 15.168 58.06 14.808L57.976 13.992C57.22 14.172 56.464 14.352 55.756 14.52V10.572H56.848C57.376 13.02 58.372 14.976 60.112 15.936C60.244 15.708 60.508 15.36 60.7 15.192C59.8 14.76 59.104 14.016 58.576 13.08C59.152 12.696 59.848 12.168 60.388 11.676L59.776 11.076ZM72.076 5.688H66.22V6.528H72.076V5.688ZM64.216 4.956C63.616 5.808 62.464 6.888 61.468 7.56C61.624 7.728 61.864 8.076 61.996 8.268C63.064 7.512 64.288 6.348 65.068 5.292L64.216 4.956ZM64.708 7.512C63.88 8.868 62.584 10.248 61.348 11.124C61.528 11.304 61.84 11.688 61.972 11.868C62.416 11.52 62.872 11.088 63.328 10.62V15.948H64.216V9.636C64.708 9.048 65.164 8.436 65.536 7.824L64.708 7.512ZM72.424 8.964H65.704V9.816H69.712V14.76C69.712 14.964 69.64 15.012 69.412 15.024C69.184 15.036 68.392 15.036 67.54 15.012C67.672 15.264 67.792 15.636 67.828 15.876C69.004 15.876 69.676 15.876 70.084 15.744C70.48 15.6 70.612 15.324 70.612 14.772V9.816H72.424V8.964Z" fill="url(#paint0_linear_1422_13814)"/>
<g clip-path="url(#clip0_1422_13814)">
<path d="M6.65856 13.3848C6.61672 13.4415 6.58803 13.4959 6.54601 13.5348C5.86759 14.1766 5.08367 14.5328 4.12981 14.4013C3.26166 14.282 2.59342 13.8502 2.16768 13.0802C1.78432 12.3891 1.71528 11.648 1.88817 10.8841C2.04218 10.2039 2.39851 9.65107 2.9803 9.25961C3.91731 8.63032 5.14605 8.65456 6.08047 9.3218C6.29038 9.47172 6.48252 9.64645 6.68965 9.81506L7.6846 8.61199C7.62407 8.54295 7.56817 8.47706 7.51005 8.41358C6.75315 7.58457 5.81965 7.13351 4.69124 7.1076C4.07261 7.09316 3.46694 7.17664 2.88312 7.38523C1.66345 7.82204 0.784189 8.62199 0.31883 9.8419C-0.0484224 10.8055 -0.0869245 11.7996 0.139646 12.7989C0.423785 14.0515 1.13922 14.989 2.278 15.5894C3.07396 16.0092 3.9299 16.1658 4.82526 16.1219C5.59142 16.0849 6.2839 15.8398 6.89846 15.379C7.18918 15.1596 7.45239 14.9059 7.68238 14.6235L6.65856 13.3848ZM17.1569 7.25382H15.339V4.54821C15.2964 4.56801 15.2686 4.57949 15.2421 4.59374C14.7203 4.87248 14.1994 5.15308 13.6761 5.42904C13.6114 5.46328 13.593 5.50308 13.5936 5.57285C13.5965 6.09406 13.5951 6.61564 13.5951 7.13703V7.2566H12.0901C12.0872 7.28584 12.0837 7.30398 12.0837 7.32212C12.0837 7.81871 12.0846 8.31548 12.082 8.81226C12.082 8.88259 12.1129 8.89203 12.1716 8.89184C12.6066 8.89036 13.0416 8.89184 13.4766 8.89184H13.5951V9.02141C13.5951 10.6102 13.5951 12.1991 13.5951 13.788C13.5951 14.0763 13.6226 14.3617 13.7076 14.6373C13.9512 15.4267 14.4543 15.9448 15.2892 16.0712C15.922 16.1671 16.5294 16.0547 17.0923 15.738C17.1181 15.7257 17.1408 15.7075 17.1587 15.6851C17.1765 15.6627 17.189 15.6365 17.1952 15.6085C17.3218 15.1038 17.4518 14.5999 17.5801 14.0956C17.5836 14.075 17.5855 14.0541 17.586 14.0332C17.4429 14.1102 17.31 14.1876 17.1721 14.2553C16.8389 14.4186 16.4914 14.5254 16.1146 14.5128C15.6888 14.4985 15.4297 14.2738 15.3677 13.8526C15.349 13.7245 15.3397 13.5952 15.3397 13.4657C15.3378 11.9817 15.3374 10.4977 15.3384 9.01382V8.88999H17.1571L17.1569 7.25382ZM21.8993 5.80736C20.5816 3.78879 17.8522 1.94181 14.5654 2.0014C11.4088 2.05952 8.80598 3.8682 7.54985 5.80699H7.65406C8.2464 5.80699 8.83875 5.8044 9.43109 5.80921C9.47897 5.81155 9.52678 5.80334 9.57114 5.78518C9.61551 5.76701 9.65534 5.73933 9.68783 5.70408C11.0382 4.36645 12.6562 3.63369 14.5626 3.57409C15.4656 3.54577 16.3417 3.70254 17.1871 4.0246C18.1852 4.40477 19.0526 4.98391 19.8004 5.74406C19.8196 5.76534 19.8432 5.78214 19.8696 5.79324C19.896 5.80434 19.9245 5.80948 19.9531 5.80829C20.5701 5.80606 21.1872 5.80699 21.8042 5.80699L21.8993 5.80736ZM18.9906 7.25382V15.9592H20.76V7.25382H18.9906ZM10.4901 15.9626V7.24938H8.84615C8.71769 7.24938 8.7175 7.24938 8.7175 7.3806V13.4426C8.7175 14.2509 8.71707 15.0591 8.71621 15.8672C8.71621 15.9413 8.73175 15.969 8.81246 15.9685C9.34612 15.965 9.87979 15.9666 10.4135 15.9664C10.4375 15.9666 10.4616 15.9642 10.4901 15.9626Z" fill="white"/>
<path d="M6.65916 13.3848L7.68336 14.6234C7.45338 14.9059 7.19017 15.1596 6.89943 15.3791C6.28488 15.84 5.59239 16.0845 4.82623 16.1221C3.93087 16.1659 3.07512 16.0093 2.27898 15.5896C1.13964 14.9891 0.424762 14.0517 0.140623 12.799C-0.0859479 11.7995 -0.0474458 10.8056 0.319806 9.84204C0.784795 8.62212 1.66405 7.82217 2.88372 7.38574C3.46755 7.17677 4.07322 7.0933 4.69185 7.10811C5.821 7.13402 6.75375 7.58508 7.51102 8.41445C7.56915 8.47794 7.62505 8.54402 7.68558 8.61287L6.69063 9.81594C6.4835 9.6464 6.29136 9.47168 6.08144 9.32175C5.14702 8.65451 3.91828 8.62971 2.98127 9.25956C2.39874 9.65103 2.04241 10.2035 1.88914 10.8841C1.71625 11.6479 1.7853 12.389 2.16865 13.0801C2.59551 13.8501 3.26301 14.2819 4.13079 14.4013C5.08501 14.5327 5.86857 14.1766 6.54699 13.5347C6.58864 13.4949 6.61733 13.4414 6.65916 13.3848Z" fill="#1A8AAB"/>
<path d="M17.1571 7.25415V8.88922H15.3384V9.01248C15.3384 10.4964 15.3389 11.9804 15.3397 13.4644C15.3397 13.5938 15.349 13.7231 15.3677 13.8512C15.4297 14.2725 15.6887 14.4972 16.1146 14.5114C16.4915 14.524 16.8389 14.4172 17.1721 14.254C17.31 14.1864 17.4429 14.1091 17.586 14.0319C17.5856 14.0528 17.5836 14.0736 17.5801 14.0942C17.4518 14.5986 17.3209 15.1024 17.1952 15.6072C17.189 15.6351 17.1765 15.6613 17.1587 15.6838C17.1409 15.7062 17.1182 15.7243 17.0923 15.7367C16.5289 16.0532 15.9221 16.1656 15.2892 16.0699C14.4544 15.9435 13.9512 15.4254 13.7076 14.636C13.6227 14.36 13.5951 14.075 13.5951 13.7866C13.5951 12.1978 13.5951 10.609 13.5951 9.02007V8.89051H13.4766C13.0416 8.89051 12.6066 8.89051 12.1716 8.89051C12.1129 8.89051 12.0817 8.88126 12.082 8.81092C12.0846 8.31415 12.0833 7.81737 12.0837 7.32078C12.0837 7.30227 12.0872 7.28377 12.0902 7.25526H13.5951V7.1357C13.5951 6.6143 13.5966 6.09273 13.5936 5.57152C13.5936 5.50119 13.6121 5.46195 13.6762 5.42771C14.1995 5.15174 14.7204 4.87115 15.2422 4.59241C15.2686 4.57815 15.2964 4.56668 15.339 4.54688V7.25415H17.1571Z" fill="#1A8AAB"/>
<path d="M21.9001 5.80709H21.8049C21.188 5.80709 20.5708 5.80616 19.9539 5.80838C19.9253 5.80957 19.8967 5.80444 19.8703 5.79333C19.8439 5.78223 19.8203 5.76544 19.8012 5.74416C19.0533 4.984 18.1859 4.40486 17.1878 4.02469C16.3424 3.70264 15.4663 3.54587 14.5634 3.57419C12.6568 3.63379 11.0389 4.36729 9.68877 5.70418C9.65636 5.73959 9.61657 5.76745 9.5722 5.78578C9.52783 5.8041 9.47998 5.81245 9.43202 5.81023C8.83968 5.80542 8.24734 5.80801 7.655 5.80801H7.55078C8.80655 3.86922 11.4093 2.06054 14.5663 2.00242C17.8529 1.9419 20.5823 3.78889 21.9001 5.80709Z" fill="#1A8AAB"/>
<path d="M18.9912 7.25391H20.7606V15.9593H18.9912V7.25391Z" fill="#1A8AAB"/>
<path d="M10.4907 15.963C10.4622 15.9647 10.4381 15.9671 10.414 15.9671C9.88038 15.9671 9.34672 15.9656 8.81305 15.9691C8.73235 15.9691 8.71661 15.941 8.7168 15.8679C8.71877 15.0596 8.71921 14.2514 8.71809 13.4432V7.38123C8.71809 7.25 8.71809 7.25 8.84674 7.25H10.4907V15.963Z" fill="#1A8AAB"/>
</g>
<path d="M80.21 15.15C80.7 15.15 81.1333 15.0433 81.51 14.83C81.8867 14.6133 82.1817 14.3167 82.395 13.94C82.6117 13.56 82.72 13.1267 82.72 12.64V10.16C82.72 9.67 82.6117 9.23667 82.395 8.86C82.1817 8.48333 81.8867 8.18833 81.51 7.975C81.1333 7.75833 80.7 7.65 80.21 7.65C79.7233 7.65 79.29 7.75833 78.91 7.975C78.5333 8.18833 78.2367 8.48333 78.02 8.86C77.8067 9.23667 77.7 9.67 77.7 10.16V12.64C77.7 13.1267 77.8067 13.56 78.02 13.94C78.2367 14.3167 78.5333 14.6133 78.91 14.83C79.29 15.0433 79.7233 15.15 80.21 15.15ZM80.21 14.15C79.9433 14.15 79.7 14.0867 79.48 13.96C79.26 13.83 79.085 13.655 78.955 13.435C78.8283 13.215 78.765 12.9717 78.765 12.705V10.085C78.765 9.81833 78.8283 9.57667 78.955 9.36C79.085 9.14 79.26 8.96667 79.48 8.84C79.7 8.71 79.9433 8.645 80.21 8.645C80.48 8.645 80.7233 8.71 80.94 8.84C81.16 8.96667 81.3333 9.14 81.46 9.36C81.59 9.57667 81.655 9.81833 81.655 10.085V12.705C81.655 12.9717 81.59 13.215 81.46 13.435C81.3333 13.655 81.16 13.83 80.94 13.96C80.7233 14.0867 80.48 14.15 80.21 14.15ZM88.126 15.15C88.616 15.15 89.0493 15.0433 89.426 14.83C89.8027 14.6133 90.0977 14.3167 90.311 13.94C90.5277 13.56 90.636 13.1267 90.636 12.64V10.16C90.636 9.67 90.5277 9.23667 90.311 8.86C90.0977 8.48333 89.8027 8.18833 89.426 7.975C89.0493 7.75833 88.616 7.65 88.126 7.65C87.6393 7.65 87.206 7.75833 86.826 7.975C86.4493 8.18833 86.1527 8.48333 85.936 8.86C85.7227 9.23667 85.616 9.67 85.616 10.16V12.64C85.616 13.1267 85.7227 13.56 85.936 13.94C86.1527 14.3167 86.4493 14.6133 86.826 14.83C87.206 15.0433 87.6393 15.15 88.126 15.15ZM88.126 14.15C87.8593 14.15 87.616 14.0867 87.396 13.96C87.176 13.83 87.001 13.655 86.871 13.435C86.7443 13.215 86.681 12.9717 86.681 12.705V10.085C86.681 9.81833 86.7443 9.57667 86.871 9.36C87.001 9.14 87.176 8.96667 87.396 8.84C87.616 8.71 87.8593 8.645 88.126 8.645C88.396 8.645 88.6393 8.71 88.856 8.84C89.076 8.96667 89.2493 9.14 89.376 9.36C89.506 9.57667 89.571 9.81833 89.571 10.085V12.705C89.571 12.9717 89.506 13.215 89.376 13.435C89.2493 13.655 89.076 13.83 88.856 13.96C88.6393 14.0867 88.396 14.15 88.126 14.15ZM96.042 15.15C96.532 15.15 96.9654 15.0433 97.342 14.83C97.7187 14.6133 98.0137 14.3167 98.227 13.94C98.4437 13.56 98.552 13.1267 98.552 12.64V10.16C98.552 9.67 98.4437 9.23667 98.227 8.86C98.0137 8.48333 97.7187 8.18833 97.342 7.975C96.9654 7.75833 96.532 7.65 96.042 7.65C95.5554 7.65 95.122 7.75833 94.742 7.975C94.3654 8.18833 94.0687 8.48333 93.852 8.86C93.6387 9.23667 93.532 9.67 93.532 10.16V12.64C93.532 13.1267 93.6387 13.56 93.852 13.94C94.0687 14.3167 94.3654 14.6133 94.742 14.83C95.122 15.0433 95.5554 15.15 96.042 15.15ZM96.042 14.15C95.7754 14.15 95.532 14.0867 95.312 13.96C95.092 13.83 94.917 13.655 94.787 13.435C94.6604 13.215 94.597 12.9717 94.597 12.705V10.085C94.597 9.81833 94.6604 9.57667 94.787 9.36C94.917 9.14 95.092 8.96667 95.312 8.84C95.532 8.71 95.7754 8.645 96.042 8.645C96.312 8.645 96.5554 8.71 96.772 8.84C96.992 8.96667 97.1654 9.14 97.292 9.36C97.422 9.57667 97.487 9.81833 97.487 10.085V12.705C97.487 12.9717 97.422 13.215 97.292 13.435C97.1654 13.655 96.992 13.83 96.772 13.96C96.5554 14.0867 96.312 14.15 96.042 14.15ZM103.583 15.15C104.033 15.15 104.446 15.0417 104.823 14.825C105.203 14.6083 105.508 14.3183 105.738 13.955C105.968 13.5883 106.083 13.1817 106.083 12.735C106.083 12.285 105.981 11.8817 105.778 11.525C105.578 11.1683 105.301 10.8883 104.948 10.685C104.598 10.4783 104.198 10.375 103.748 10.375C103.535 10.375 103.32 10.4083 103.103 10.475C102.89 10.5417 102.695 10.6383 102.518 10.765L102.638 8.785H105.588V7.8H101.703L101.483 11.585L102.393 11.905C102.506 11.755 102.665 11.6217 102.868 11.505C103.071 11.385 103.32 11.325 103.613 11.325C103.87 11.325 104.105 11.3883 104.318 11.515C104.535 11.6383 104.706 11.8067 104.833 12.02C104.963 12.2333 105.028 12.4717 105.028 12.735C105.028 12.9917 104.965 13.2267 104.838 13.44C104.711 13.6533 104.541 13.8233 104.328 13.95C104.115 14.0767 103.876 14.14 103.613 14.14C103.313 14.14 103.031 14.0467 102.768 13.86C102.508 13.67 102.336 13.415 102.253 13.095L101.248 13.365C101.348 13.715 101.511 14.025 101.738 14.295C101.965 14.5617 102.236 14.7717 102.553 14.925C102.87 15.075 103.213 15.15 103.583 15.15Z" fill="url(#paint1_linear_1422_13814)"/>
<defs>
<linearGradient id="paint0_linear_1422_13814" x1="97.5" y1="-17.5" x2="1.49999" y2="25.5" gradientUnits="userSpaceOnUse">
<stop offset="0.0817963" stop-color="#5AC484"/>
<stop offset="1" stop-color="#0071BD"/>
</linearGradient>
<linearGradient id="paint1_linear_1422_13814" x1="128.354" y1="-21.5714" x2="52.5533" y2="-0.527981" gradientUnits="userSpaceOnUse">
<stop offset="0.0817963" stop-color="#43AE93"/>
<stop offset="1" stop-color="#43B097"/>
</linearGradient>
<clipPath id="clip0_1422_13814">
<rect width="21.9" height="14.129" fill="white" transform="translate(0 2)"/>
</clipPath>
</defs>
</svg>
