<svg width="56" height="56" viewBox="0 0 56 56" fill="none" xmlns="http://www.w3.org/2000/svg">
<circle cx="28" cy="28" r="27.5" fill="white" stroke="#F1F1F1"/>
<path d="M44 22.2V20.6992C44 19.2099 42.7979 18 41.3182 18H15.6818C14.2021 18 13 19.2099 13 20.6992V22.2H44Z" fill="#0697DB" fill-opacity="0.8"/>
<path d="M33.8647 31.8008C33.3724 31.8008 32.9717 32.2041 32.9717 32.6995C32.9717 33.195 33.3724 33.5983 33.8647 33.5983C34.357 33.5983 34.7577 33.195 34.7577 32.6995C34.7577 32.2041 34.357 31.8008 33.8647 31.8008Z" fill="#0697DB" fill-opacity="0.8"/>
<path d="M13 24H44V25.8004H13V24Z" fill="#0697DB" fill-opacity="0.8"/>
<path d="M13 27.6016V36.3012C13 37.7905 14.2021 39.0003 15.6818 39.0003H41.3153C42.795 39.0003 43.9971 37.7876 43.9971 36.3012V27.6016H13ZM21.346 33.5991H17.7684C17.2732 33.5991 16.8754 33.1958 16.8754 32.7003C16.8754 32.202 17.2761 31.8016 17.7684 31.8016H21.346C21.8412 31.8016 22.239 32.2049 22.239 32.7003C22.239 33.1987 21.8412 33.5991 21.346 33.5991ZM37.4428 35.3995C36.7559 35.3995 36.1291 35.1374 35.654 34.711C35.1788 35.1402 34.552 35.3995 33.8651 35.3995C32.3854 35.3995 31.1833 34.1867 31.1833 32.7003C31.1833 31.2139 32.3854 30.0012 33.8651 30.0012C34.552 30.0012 35.1788 30.2633 35.654 30.6896C36.1291 30.2604 36.7559 30.0012 37.4428 30.0012C38.9225 30.0012 40.1246 31.2139 40.1246 32.7003C40.1246 34.1867 38.9225 35.3995 37.4428 35.3995Z" fill="#0697DB" fill-opacity="0.8"/>
<path d="M37.4428 31.8008C36.9505 31.8008 36.5498 32.2041 36.5498 32.6995C36.5498 33.195 36.9505 33.5983 37.4428 33.5983C37.9351 33.5983 38.3358 33.195 38.3358 32.6995C38.3358 32.2041 37.9351 31.8008 37.4428 31.8008Z" fill="#0697DB" fill-opacity="0.8"/>
</svg>
