<svg width="44" height="14" viewBox="0 0 44 14" fill="none" xmlns="http://www.w3.org/2000/svg">
<path d="M5.74316 7.60449H1.56641V12H0.253906V2.04688H6.41992V3.12695H1.56641V6.53125H5.74316V7.60449ZM12.1279 12C12.055 11.8542 11.9958 11.5944 11.9502 11.2207C11.3623 11.8314 10.6605 12.1367 9.84473 12.1367C9.11556 12.1367 8.51628 11.9316 8.04688 11.5215C7.58203 11.1068 7.34961 10.5827 7.34961 9.94922C7.34961 9.17904 7.64128 8.58203 8.22461 8.1582C8.8125 7.72982 9.63737 7.51562 10.6992 7.51562H11.9297V6.93457C11.9297 6.49251 11.7975 6.1416 11.5332 5.88184C11.2689 5.61751 10.8792 5.48535 10.3643 5.48535C9.91309 5.48535 9.53483 5.59928 9.22949 5.82715C8.92415 6.05501 8.77148 6.33073 8.77148 6.6543H7.5C7.5 6.28516 7.62988 5.92969 7.88965 5.58789C8.15397 5.24154 8.50944 4.9681 8.95605 4.76758C9.40723 4.56706 9.90169 4.4668 10.4395 4.4668C11.2917 4.4668 11.9593 4.68099 12.4424 5.10938C12.9255 5.5332 13.1761 6.11882 13.1943 6.86621V10.2705C13.1943 10.9495 13.2809 11.4896 13.4541 11.8906V12H12.1279ZM10.0293 11.0361C10.4258 11.0361 10.8018 10.9336 11.1572 10.7285C11.5127 10.5234 11.7702 10.2568 11.9297 9.92871V8.41113H10.9385C9.389 8.41113 8.61426 8.86458 8.61426 9.77148C8.61426 10.168 8.74642 10.4779 9.01074 10.7012C9.27507 10.9245 9.61458 11.0361 10.0293 11.0361ZM16.3662 4.60352L16.4004 5.42383C16.9427 4.78581 17.6742 4.4668 18.5947 4.4668C19.6292 4.4668 20.3333 4.86328 20.707 5.65625C20.9531 5.30078 21.2721 5.01367 21.6641 4.79492C22.0605 4.57617 22.5277 4.4668 23.0654 4.4668C24.6878 4.4668 25.5127 5.32585 25.54 7.04395V12H24.2754V7.11914C24.2754 6.59049 24.1546 6.19629 23.9131 5.93652C23.6715 5.6722 23.266 5.54004 22.6963 5.54004C22.2269 5.54004 21.8372 5.68132 21.5273 5.96387C21.2174 6.24186 21.0374 6.61784 20.9873 7.0918V12H19.7158V7.15332C19.7158 6.0778 19.1895 5.54004 18.1367 5.54004C17.3073 5.54004 16.7399 5.89323 16.4346 6.59961V12H15.1699V4.60352H16.3662ZM28.8281 12H27.5635V4.60352H28.8281V12ZM27.4609 2.6416C27.4609 2.43652 27.5225 2.26335 27.6455 2.12207C27.7731 1.98079 27.96 1.91016 28.2061 1.91016C28.4521 1.91016 28.639 1.98079 28.7666 2.12207C28.8942 2.26335 28.958 2.43652 28.958 2.6416C28.958 2.84668 28.8942 3.01758 28.7666 3.1543C28.639 3.29102 28.4521 3.35938 28.2061 3.35938C27.96 3.35938 27.7731 3.29102 27.6455 3.1543C27.5225 3.01758 27.4609 2.84668 27.4609 2.6416ZM33.4154 7.884C33.9194 7.422 34.3674 6.918 34.7734 6.372H39.1134C39.5054 6.918 39.9394 7.436 40.4294 7.884H33.4154ZM37.7134 3.824C37.9374 4.37 38.1894 4.902 38.4834 5.406H35.4034C35.7114 4.902 35.9774 4.37 36.2154 3.824H37.7134ZM43.0894 6.372V5.406H39.6174C39.2814 4.902 38.9874 4.37 38.7354 3.824H42.2774V2.9H39.7994C40.2334 2.34 40.7374 1.584 41.1574 0.855999L40.1354 0.505999C39.8414 1.178 39.2674 2.116 38.8194 2.704L39.3234 2.9H36.5794C36.8594 2.116 37.0834 1.304 37.2794 0.463999L36.2154 0.267999C36.0334 1.178 35.7954 2.06 35.4734 2.9H34.0454L34.6334 2.648C34.4094 2.074 33.8634 1.192 33.3454 0.562L32.4634 0.884C32.9394 1.486 33.4154 2.312 33.6534 2.9H31.5954V3.824H35.0814C34.8294 4.37 34.5214 4.902 34.1854 5.406H30.6994V6.372H33.4434C32.6454 7.296 31.6514 8.08 30.4194 8.682C30.6434 8.878 30.9374 9.27 31.0774 9.494C31.8334 9.116 32.5054 8.654 33.1074 8.15V8.822H35.5014C35.1514 10.446 34.3114 11.622 31.6934 12.224C31.8894 12.42 32.1834 12.854 32.2814 13.092C35.2074 12.308 36.1874 10.88 36.5794 8.822H39.4494C39.2954 10.894 39.1414 11.734 38.8894 11.986C38.7494 12.112 38.6234 12.126 38.3714 12.126C38.1054 12.126 37.3774 12.126 36.6354 12.056C36.8174 12.308 36.9294 12.728 36.9574 13.022C37.7134 13.064 38.4554 13.064 38.8194 13.036C39.2534 13.008 39.5054 12.91 39.7574 12.644C40.1354 12.238 40.3454 11.132 40.5274 8.332C40.5414 8.248 40.5554 8.108 40.5554 8.01C41.1994 8.598 41.9134 9.088 42.6834 9.452C42.8094 9.186 43.1314 8.794 43.3694 8.598C42.2354 8.108 41.2134 7.338 40.3594 6.372H43.0894Z" fill="#666666"/>
</svg>
