<svg width="151" height="24" viewBox="0 0 151 24" fill="none" xmlns="http://www.w3.org/2000/svg">
<path d="M67.348 1.688H60.936V2.99H67.348V1.688ZM58.584 1.17C57.828 3.158 56.54 5.146 55.21 6.406C55.49 6.798 55.924 7.708 56.078 8.1C56.47 7.708 56.862 7.274 57.24 6.784V14.176H58.822V4.376C59.326 3.494 59.76 2.57 60.124 1.674L58.584 1.17ZM66.116 10.97V12.342H62.084V10.97H66.116ZM60.488 14.204H62.084V13.644H66.116V14.162H67.796V9.682H60.488V14.204ZM60.712 8.996H67.544V7.694H60.712V8.996ZM67.6 5.706H60.712V6.994H67.6V5.706ZM59.606 3.676V5.02H68.566V3.676H59.606ZM76.98 8.562V6.84H79.934V8.562H76.98ZM72.626 8.562C72.654 8.044 72.668 7.54 72.668 7.092V6.84H75.3V8.562H72.626ZM75.3 3.662V5.286H72.668V3.662H75.3ZM79.934 5.286H76.98V3.662H79.934V5.286ZM81.586 2.08H71.016V7.078C71.016 9.038 70.89 11.53 69.364 13.21C69.742 13.406 70.414 13.98 70.68 14.288C71.688 13.196 72.192 11.656 72.444 10.13H75.3V14.036H76.98V10.13H79.934V12.23C79.934 12.482 79.836 12.566 79.57 12.566C79.318 12.566 78.394 12.58 77.61 12.538C77.82 12.972 78.086 13.686 78.142 14.134C79.402 14.148 80.256 14.12 80.83 13.84C81.39 13.588 81.586 13.14 81.586 12.244V2.08ZM96.356 7.722V6.07H90.588V4.446H94.858V2.836H90.588V1.142H88.81V6.07H83.686V7.722H88.81V14.204H90.588V9.962C91.988 10.452 93.724 11.124 94.634 11.614L95.516 10.102C94.438 9.57 92.31 8.856 90.91 8.436L90.588 8.954V7.722H96.356Z" fill="white"/>
<line x1="1" y1="23" x2="150" y2="23" stroke="white" stroke-width="2" stroke-linecap="round"/>
</svg>
