<svg width="56" height="56" viewBox="0 0 56 56" fill="none" xmlns="http://www.w3.org/2000/svg">
<circle cx="28" cy="28" r="27.5" fill="white" stroke="#F1F1F1"/>
<path d="M35.8115 23.2729L29.6598 24.6182L32.6677 14.0851C32.929 13.1697 31.7049 12.5832 31.1561 13.3629L19.1572 30.4102C18.7061 31.0512 19.2942 31.9114 20.055 31.7241L25.5364 30.3747L22.5384 40.9178C22.2801 41.8263 23.4827 42.4052 24.038 41.6561L36.6756 24.6088C37.1419 23.9796 36.5765 23.1057 35.8115 23.2729V23.2729Z" fill="#0697DB" fill-opacity="0.8"/>
<path d="M35.2629 36.9028L33.2241 36.8688L34.307 34.7392C34.5197 34.3209 34.353 33.8095 33.9348 33.5969C33.5165 33.3842 33.0051 33.5508 32.7924 33.9691L31.0934 37.3106C30.7477 37.9882 31.2001 38.4324 31.8516 38.5453L33.8856 38.5792L32.79 40.7705C32.5801 41.1902 32.7502 41.7004 33.1699 41.9103C33.5903 42.1205 34.1002 41.9492 34.3096 41.5304L36.0087 38.1323C36.2877 37.5739 35.8839 36.912 35.2629 36.9028V36.9028Z" fill="#0697DB" fill-opacity="0.8"/>
<path d="M22.0362 13.0918C21.6166 12.882 21.1063 13.0521 20.8965 13.4717L19.1974 16.8698C18.9211 17.4226 19.3151 18.0993 19.9622 18.0993H21.9808L20.8965 20.268C20.6866 20.6876 20.8568 21.1979 21.2764 21.4078C21.6968 21.618 22.2067 21.4467 22.4162 21.0279L24.1152 17.6297C24.3979 17.0643 23.9821 16.4003 23.3553 16.4003H21.3318L22.4162 14.2316C22.626 13.8119 22.4559 13.3016 22.0362 13.0918V13.0918Z" fill="#0697DB" fill-opacity="0.8"/>
</svg>
