<svg width="68" height="18" viewBox="0 0 68 18" fill="none" xmlns="http://www.w3.org/2000/svg">
<path d="M8.20508 8.77051H3.14258V14H0.505859V1.20312H8.83789V3.33887H3.14258V6.64355H8.20508V8.77051ZM15.4121 14C15.2949 13.7715 15.21 13.4873 15.1572 13.1475C14.542 13.833 13.7422 14.1758 12.7578 14.1758C11.8262 14.1758 11.0527 13.9062 10.4375 13.3672C9.82812 12.8281 9.52344 12.1484 9.52344 11.3281C9.52344 10.3203 9.89551 9.54688 10.6396 9.00781C11.3896 8.46875 12.4707 8.19629 13.8828 8.19043H15.0518V7.64551C15.0518 7.20605 14.9375 6.85449 14.709 6.59082C14.4863 6.32715 14.1318 6.19531 13.6455 6.19531C13.2178 6.19531 12.8809 6.29785 12.6348 6.50293C12.3945 6.70801 12.2744 6.98926 12.2744 7.34668H9.73438C9.73438 6.7959 9.9043 6.28613 10.2441 5.81738C10.584 5.34863 11.0645 4.98242 11.6855 4.71875C12.3066 4.44922 13.0039 4.31445 13.7773 4.31445C14.9492 4.31445 15.8779 4.61035 16.5635 5.20215C17.2549 5.78809 17.6006 6.61426 17.6006 7.68066V11.8027C17.6064 12.7051 17.7324 13.3877 17.9785 13.8506V14H15.4121ZM13.3115 12.2334C13.6865 12.2334 14.0322 12.1514 14.3486 11.9873C14.665 11.8174 14.8994 11.5918 15.0518 11.3105V9.67578H14.1025C12.8311 9.67578 12.1543 10.1152 12.0723 10.9941L12.0635 11.1436C12.0635 11.46 12.1748 11.7207 12.3975 11.9258C12.6201 12.1309 12.9248 12.2334 13.3115 12.2334ZM21.9336 4.49023L22.0127 5.55371C22.6865 4.72754 23.5977 4.31445 24.7461 4.31445C25.9707 4.31445 26.8115 4.79785 27.2686 5.76465C27.9365 4.79785 28.8887 4.31445 30.125 4.31445C31.1562 4.31445 31.9238 4.61621 32.4277 5.21973C32.9316 5.81738 33.1836 6.71973 33.1836 7.92676V14H30.6348V7.93555C30.6348 7.39648 30.5293 7.00391 30.3184 6.75781C30.1074 6.50586 29.7354 6.37988 29.2021 6.37988C28.4404 6.37988 27.9131 6.74316 27.6201 7.46973L27.6289 14H25.0889V7.94434C25.0889 7.39355 24.9805 6.99512 24.7637 6.74902C24.5469 6.50293 24.1777 6.37988 23.6562 6.37988C22.9355 6.37988 22.4141 6.67871 22.0918 7.27637V14H19.5518V4.49023H21.9336ZM37.8242 14H35.2754V4.49023H37.8242V14ZM35.126 2.0293C35.126 1.64844 35.252 1.33496 35.5039 1.08887C35.7617 0.842773 36.1104 0.719727 36.5498 0.719727C36.9834 0.719727 37.3291 0.842773 37.5869 1.08887C37.8447 1.33496 37.9736 1.64844 37.9736 2.0293C37.9736 2.41602 37.8418 2.73242 37.5781 2.97852C37.3203 3.22461 36.9775 3.34766 36.5498 3.34766C36.1221 3.34766 35.7764 3.22461 35.5127 2.97852C35.2549 2.73242 35.126 2.41602 35.126 2.0293ZM48.4854 9.33301C48.4854 10.7979 48.1514 11.9727 47.4834 12.8574C46.8213 13.7363 45.9248 14.1758 44.7939 14.1758C43.833 14.1758 43.0566 13.8418 42.4648 13.1738V17.6562H39.9248V4.49023H42.2803L42.3682 5.42188C42.9834 4.68359 43.7861 4.31445 44.7764 4.31445C45.9482 4.31445 46.8594 4.74805 47.5098 5.61523C48.1602 6.48242 48.4854 7.67773 48.4854 9.20117V9.33301ZM45.9453 9.14844C45.9453 8.26367 45.7871 7.58105 45.4707 7.10059C45.1602 6.62012 44.7061 6.37988 44.1084 6.37988C43.3115 6.37988 42.7637 6.68457 42.4648 7.29395V11.1875C42.7754 11.8145 43.3291 12.1279 44.126 12.1279C45.3389 12.1279 45.9453 11.1348 45.9453 9.14844ZM55.5781 14C55.4609 13.7715 55.376 13.4873 55.3232 13.1475C54.708 13.833 53.9082 14.1758 52.9238 14.1758C51.9922 14.1758 51.2188 13.9062 50.6035 13.3672C49.9941 12.8281 49.6895 12.1484 49.6895 11.3281C49.6895 10.3203 50.0615 9.54688 50.8057 9.00781C51.5557 8.46875 52.6367 8.19629 54.0488 8.19043H55.2178V7.64551C55.2178 7.20605 55.1035 6.85449 54.875 6.59082C54.6523 6.32715 54.2979 6.19531 53.8115 6.19531C53.3838 6.19531 53.0469 6.29785 52.8008 6.50293C52.5605 6.70801 52.4404 6.98926 52.4404 7.34668H49.9004C49.9004 6.7959 50.0703 6.28613 50.4102 5.81738C50.75 5.34863 51.2305 4.98242 51.8516 4.71875C52.4727 4.44922 53.1699 4.31445 53.9434 4.31445C55.1152 4.31445 56.0439 4.61035 56.7295 5.20215C57.4209 5.78809 57.7666 6.61426 57.7666 7.68066V11.8027C57.7725 12.7051 57.8984 13.3877 58.1445 13.8506V14H55.5781ZM53.4775 12.2334C53.8525 12.2334 54.1982 12.1514 54.5146 11.9873C54.8311 11.8174 55.0654 11.5918 55.2178 11.3105V9.67578H54.2686C52.9971 9.67578 52.3203 10.1152 52.2383 10.9941L52.2295 11.1436C52.2295 11.46 52.3408 11.7207 52.5635 11.9258C52.7861 12.1309 53.0908 12.2334 53.4775 12.2334ZM63.1279 10.4053L64.8857 4.49023H67.6104L63.7871 15.4766L63.5762 15.9775C63.0078 17.2197 62.0703 17.8408 60.7637 17.8408C60.3945 17.8408 60.0195 17.7852 59.6387 17.6738V15.749L60.0254 15.7578C60.5059 15.7578 60.8633 15.6846 61.0977 15.5381C61.3379 15.3916 61.5254 15.1484 61.6602 14.8086L61.959 14.0264L58.6279 4.49023H61.3613L63.1279 10.4053Z" fill="white"/>
</svg>
