<svg width="152" height="25" viewBox="0 0 152 25" fill="none" xmlns="http://www.w3.org/2000/svg">
<path d="M45.0068 8.78223H41.001V13H39.2715V3.04688H45.5947V4.44141H41.001V7.40137H45.0068V8.78223ZM50.9951 13C50.9222 12.8587 50.8584 12.6286 50.8037 12.3096C50.2751 12.861 49.6279 13.1367 48.8623 13.1367C48.1195 13.1367 47.5133 12.9248 47.0439 12.501C46.5745 12.0771 46.3398 11.5531 46.3398 10.9287C46.3398 10.1403 46.6315 9.53646 47.2148 9.11719C47.8027 8.69336 48.6413 8.48145 49.7305 8.48145H50.749V7.99609C50.749 7.61328 50.6419 7.30794 50.4277 7.08008C50.2135 6.84766 49.8877 6.73145 49.4502 6.73145C49.0719 6.73145 48.762 6.82715 48.5205 7.01855C48.279 7.2054 48.1582 7.44466 48.1582 7.73633H46.4971C46.4971 7.33073 46.6315 6.95247 46.9004 6.60156C47.1693 6.24609 47.5339 5.9681 47.9941 5.76758C48.459 5.56706 48.9762 5.4668 49.5459 5.4668C50.4118 5.4668 51.1022 5.68555 51.6172 6.12305C52.1322 6.55599 52.3965 7.16667 52.4102 7.95508V11.291C52.4102 11.9564 52.5036 12.4873 52.6904 12.8838V13H50.9951ZM49.1699 11.8037C49.498 11.8037 49.8057 11.724 50.0928 11.5645C50.3844 11.4049 50.6032 11.1908 50.749 10.9219V9.52734H49.8535C49.2383 9.52734 48.7757 9.63444 48.4658 9.84863C48.1559 10.0628 48.001 10.3659 48.001 10.7578C48.001 11.0768 48.1058 11.332 48.3154 11.5234C48.5296 11.7103 48.8145 11.8037 49.1699 11.8037ZM55.7119 5.60352L55.7598 6.37598C56.2793 5.76986 56.9902 5.4668 57.8926 5.4668C58.8815 5.4668 59.5583 5.84505 59.9229 6.60156C60.4606 5.84505 61.2171 5.4668 62.1924 5.4668C63.0081 5.4668 63.6143 5.69238 64.0107 6.14355C64.4118 6.59473 64.6169 7.26009 64.626 8.13965V13H62.9648V8.1875C62.9648 7.7181 62.8623 7.37402 62.6572 7.15527C62.4521 6.93652 62.1126 6.82715 61.6387 6.82715C61.2604 6.82715 60.9505 6.92969 60.709 7.13477C60.472 7.33529 60.3057 7.59961 60.21 7.92773L60.2168 13H58.5557V8.13281C58.5329 7.26237 58.0885 6.82715 57.2227 6.82715C56.5573 6.82715 56.0856 7.09831 55.8076 7.64062V13H54.1465V5.60352H55.7119ZM68.0986 13H66.4375V5.60352H68.0986V13ZM66.335 3.68262C66.335 3.42741 66.4147 3.21549 66.5742 3.04688C66.7383 2.87826 66.9707 2.79395 67.2715 2.79395C67.5723 2.79395 67.8047 2.87826 67.9688 3.04688C68.1328 3.21549 68.2148 3.42741 68.2148 3.68262C68.2148 3.93327 68.1328 4.1429 67.9688 4.31152C67.8047 4.47559 67.5723 4.55762 67.2715 4.55762C66.9707 4.55762 66.7383 4.47559 66.5742 4.31152C66.4147 4.1429 66.335 3.93327 66.335 3.68262ZM74.9619 5.60352L75.0098 6.37598C75.5293 5.76986 76.2402 5.4668 77.1426 5.4668C78.1315 5.4668 78.8083 5.84505 79.1729 6.60156C79.7106 5.84505 80.4671 5.4668 81.4424 5.4668C82.2581 5.4668 82.8643 5.69238 83.2607 6.14355C83.6618 6.59473 83.8669 7.26009 83.876 8.13965V13H82.2148V8.1875C82.2148 7.7181 82.1123 7.37402 81.9072 7.15527C81.7021 6.93652 81.3626 6.82715 80.8887 6.82715C80.5104 6.82715 80.2005 6.92969 79.959 7.13477C79.722 7.33529 79.5557 7.59961 79.46 7.92773L79.4668 13H77.8057V8.13281C77.7829 7.26237 77.3385 6.82715 76.4727 6.82715C75.8073 6.82715 75.3356 7.09831 75.0576 7.64062V13H73.3965V5.60352H74.9619ZM85.2705 9.2334C85.2705 8.50879 85.4141 7.8571 85.7012 7.27832C85.9883 6.69499 86.3916 6.24837 86.9111 5.93848C87.4307 5.62402 88.0277 5.4668 88.7021 5.4668C89.7002 5.4668 90.5091 5.78809 91.1289 6.43066C91.7533 7.07324 92.0905 7.92546 92.1406 8.9873L92.1475 9.37695C92.1475 10.1061 92.0062 10.7578 91.7236 11.332C91.4456 11.9062 91.0446 12.3506 90.5205 12.665C90.001 12.9795 89.3994 13.1367 88.7158 13.1367C87.6722 13.1367 86.8359 12.7904 86.207 12.0977C85.5827 11.4004 85.2705 10.473 85.2705 9.31543V9.2334ZM86.9316 9.37695C86.9316 10.138 87.0889 10.735 87.4033 11.168C87.7178 11.5964 88.1553 11.8105 88.7158 11.8105C89.2764 11.8105 89.7116 11.5918 90.0215 11.1543C90.3359 10.7168 90.4932 10.0765 90.4932 9.2334C90.4932 8.486 90.3314 7.89355 90.0078 7.45605C89.6888 7.01855 89.2536 6.7998 88.7021 6.7998C88.1598 6.7998 87.7292 7.01628 87.4102 7.44922C87.0911 7.8776 86.9316 8.52018 86.9316 9.37695ZM95.0938 5.60352L95.1416 6.45801C95.6885 5.7972 96.4062 5.4668 97.2949 5.4668C98.8353 5.4668 99.6191 6.34863 99.6465 8.1123V13H97.9854V8.20801C97.9854 7.73861 97.8828 7.39225 97.6777 7.16895C97.4772 6.94108 97.1468 6.82715 96.6865 6.82715C96.0166 6.82715 95.5176 7.13021 95.1895 7.73633V13H93.5283V5.60352H95.0938ZM104.603 13.1367C103.55 13.1367 102.695 12.8063 102.039 12.1455C101.387 11.4801 101.062 10.596 101.062 9.49316V9.28809C101.062 8.5498 101.203 7.89128 101.485 7.3125C101.772 6.72917 102.174 6.27572 102.688 5.95215C103.203 5.62858 103.778 5.4668 104.411 5.4668C105.418 5.4668 106.195 5.78809 106.742 6.43066C107.294 7.07324 107.569 7.98242 107.569 9.1582V9.82812H102.736C102.786 10.4388 102.989 10.9219 103.345 11.2773C103.705 11.6328 104.156 11.8105 104.698 11.8105C105.459 11.8105 106.079 11.5029 106.558 10.8877L107.453 11.7422C107.157 12.1842 106.76 12.5283 106.264 12.7744C105.771 13.016 105.218 13.1367 104.603 13.1367ZM104.404 6.7998C103.949 6.7998 103.579 6.95931 103.297 7.27832C103.019 7.59733 102.841 8.04167 102.764 8.61133H105.929V8.48828C105.892 7.93229 105.744 7.51302 105.484 7.23047C105.225 6.94336 104.865 6.7998 104.404 6.7998ZM111.356 10.6211L112.86 5.60352H114.631L111.691 14.1211C111.24 15.3652 110.475 15.9873 109.395 15.9873C109.153 15.9873 108.886 15.9463 108.595 15.8643V14.5791L108.909 14.5996C109.328 14.5996 109.643 14.5221 109.853 14.3672C110.067 14.2168 110.235 13.9616 110.358 13.6016L110.598 12.9658L108 5.60352H109.791L111.356 10.6211Z" fill="white"/>
<line x1="1" y1="24" x2="151" y2="24" stroke="white" stroke-opacity="0.3" stroke-width="2" stroke-linecap="round"/>
</svg>
