<svg width="42" height="14" viewBox="0 0 42 14" fill="none" xmlns="http://www.w3.org/2000/svg">
<path d="M10.766 11.972C10.374 11.972 10.304 11.888 10.304 11.384V4.328H4.718C4.788 3.586 4.858 2.872 4.914 2.2H12.908V1.206H1.022V2.2H3.85C3.612 5.168 3.164 9.06 2.772 11.51C2.002 11.594 1.288 11.664 0.686 11.72L0.896 12.77C2.814 12.532 5.614 12.21 8.246 11.874L8.232 10.908C6.762 11.076 5.264 11.244 3.906 11.398C4.13 9.774 4.396 7.52 4.62 5.322H9.268V11.384C9.268 12.63 9.576 12.952 10.612 12.952H12.026C13.062 12.952 13.314 12.266 13.412 9.9C13.118 9.83 12.698 9.648 12.46 9.452C12.404 11.552 12.334 11.972 11.928 11.972H10.766ZM4.998 7.114C5.992 7.898 7.098 9.032 7.532 9.872L8.4 9.228C7.924 8.388 6.804 7.282 5.796 6.54L4.998 7.114ZM16.87 7.324H19.516V8.752H16.87V7.324ZM19.516 3.068V4.342H16.87V3.068H19.516ZM16.87 5.182H19.516V6.498H16.87V5.182ZM21.49 8.752H20.496V3.068H21.406V2.13H20.496V0.436H19.516V2.13H16.87V0.436H15.918V2.13H14.798V3.068H15.918V8.752H14.588V9.676H21.49V8.752ZM16.548 9.97C16.128 10.866 15.414 11.748 14.658 12.35C14.91 12.49 15.316 12.798 15.512 12.966C16.254 12.294 17.066 11.258 17.542 10.236L16.548 9.97ZM27.398 4.93H22.932V2.662C24.416 2.312 26.068 1.808 27.216 1.234L26.334 0.492C25.494 0.967999 24.08 1.458 22.736 1.822L21.994 1.598V6.358C21.994 8.01 21.882 10.04 20.916 11.678C20.58 11.16 20.006 10.46 19.53 9.942L18.732 10.376C19.278 10.992 19.936 11.846 20.202 12.378L20.622 12.14C20.566 12.21 20.51 12.28 20.454 12.35C20.678 12.49 21.042 12.826 21.182 13.036C22.722 11.104 22.932 8.36 22.932 6.386V5.896H25.06V13.064H26.04V5.896H27.398V4.93ZM30.926 3.236H32.942C32.928 3.502 32.872 3.754 32.76 3.992H30.66L30.926 3.236ZM33.922 1.752H36.078V2.55H33.922V1.752ZM39.228 1.752V2.55H37.058V1.752H39.228ZM36.078 3.992H33.796C33.852 3.754 33.894 3.502 33.908 3.236H36.078V3.992ZM40.012 4.678C39.956 5.042 39.9 5.238 39.83 5.322C39.746 5.378 39.662 5.392 39.494 5.392C39.354 5.392 38.962 5.378 38.528 5.35C38.584 5.462 38.64 5.616 38.682 5.756H32.466C32.97 5.434 33.306 5.07 33.516 4.678H36.078V5.728H37.058V4.678H40.012ZM38.584 7.296H31.584V6.428H38.584V7.296ZM38.584 8.794H31.584V7.94H38.584V8.794ZM38.584 10.32H31.584V9.452H38.584V10.32ZM30.576 10.992H39.62V6.064H39.956C40.236 6.05 40.46 5.98 40.628 5.812C40.852 5.588 40.936 5.182 41.034 4.328C41.048 4.202 41.062 3.992 41.062 3.992H37.058V3.236H40.166V1.066H37.058V0.296H36.078V1.066H33.922V0.296H32.97V1.066H29.554V1.752H32.97V2.55H30.184C29.946 3.292 29.652 4.174 29.358 4.804L30.324 4.86L30.394 4.678H32.298C31.724 5.252 30.688 5.714 28.84 6.064C29.022 6.246 29.232 6.638 29.33 6.862C29.792 6.764 30.198 6.666 30.576 6.568V10.992ZM32.928 11.132C31.92 11.622 30.24 12.07 28.798 12.336C29.036 12.518 29.386 12.91 29.554 13.106C30.954 12.77 32.718 12.182 33.866 11.552L32.928 11.132ZM36.12 11.678C37.688 12.14 39.214 12.672 40.11 13.078L41.216 12.532C40.18 12.126 38.5 11.552 36.96 11.132L36.12 11.678Z" fill="#666666"/>
</svg>
