<svg width="16" height="16" viewBox="0 0 16 16" fill="none" xmlns="http://www.w3.org/2000/svg">
<circle cx="8" cy="8" r="8" fill="white"/>
<path d="M6.93945 9.49316V13H4.88867V3.04688H8.77148C9.51888 3.04688 10.1751 3.18359 10.7402 3.45703C11.3099 3.73047 11.7474 4.12012 12.0527 4.62598C12.3581 5.12728 12.5107 5.69922 12.5107 6.3418C12.5107 7.31706 12.1758 8.08724 11.5059 8.65234C10.8405 9.21289 9.91764 9.49316 8.7373 9.49316H6.93945ZM6.93945 7.83203H8.77148C9.3138 7.83203 9.72624 7.70443 10.0088 7.44922C10.2959 7.19401 10.4395 6.82943 10.4395 6.35547C10.4395 5.86784 10.2959 5.47363 10.0088 5.17285C9.72168 4.87207 9.3252 4.71712 8.81934 4.70801H6.93945V7.83203Z" fill="#0686E3"/>
</svg>
