<svg width="42" height="14" viewBox="0 0 42 14" fill="none" xmlns="http://www.w3.org/2000/svg">
<path d="M4.424 1.64V2.55H13.328V1.64H9.338V0.337999H8.302V1.64H4.424ZM6.482 4.048H11.214V5.364H6.482V4.048ZM12.236 6.092V3.32H5.502V6.092H12.236ZM3.738 0.337999C2.94 2.466 1.652 4.552 0.28 5.896C0.476 6.12 0.756 6.666 0.868 6.904C1.358 6.4 1.834 5.826 2.282 5.182V13.036H3.262V3.656C3.822 2.69 4.312 1.668 4.704 0.631999L3.738 0.337999ZM5.782 9.536H8.302V11.93C8.302 12.098 8.246 12.154 8.022 12.154C7.812 12.168 7.084 12.168 6.258 12.14C6.384 12.42 6.538 12.798 6.58 13.078C7.616 13.078 8.33 13.078 8.764 12.924C9.212 12.784 9.324 12.518 9.324 11.958V9.536H11.984V8.682H5.782V9.536ZM4.186 6.904V9.312H5.124V7.744H12.502V9.284H13.454V6.904H4.186ZM17.234 8.094V6.652H20.44V8.094H17.234ZM17.234 4.398H20.44V5.826H17.234V4.398ZM24.766 4.398V5.826H21.49V4.398H24.766ZM24.766 8.094H21.49V6.652H24.766V8.094ZM27.272 10.096H21.49V8.948H25.802V3.53H21.49V2.508H26.796V1.556H21.49V0.296H20.44V1.556H15.204V2.508H20.44V3.53H16.24V8.948H20.44V10.096H14.784V11.034H20.44V13.106H21.49V11.034H27.272V10.096ZM30.926 3.236H32.942C32.928 3.502 32.872 3.754 32.76 3.992H30.66L30.926 3.236ZM33.922 1.752H36.078V2.55H33.922V1.752ZM39.228 1.752V2.55H37.058V1.752H39.228ZM36.078 3.992H33.796C33.852 3.754 33.894 3.502 33.908 3.236H36.078V3.992ZM40.012 4.678C39.956 5.042 39.9 5.238 39.83 5.322C39.746 5.378 39.662 5.392 39.494 5.392C39.354 5.392 38.962 5.378 38.528 5.35C38.584 5.462 38.64 5.616 38.682 5.756H32.466C32.97 5.434 33.306 5.07 33.516 4.678H36.078V5.728H37.058V4.678H40.012ZM38.584 7.296H31.584V6.428H38.584V7.296ZM38.584 8.794H31.584V7.94H38.584V8.794ZM38.584 10.32H31.584V9.452H38.584V10.32ZM30.576 10.992H39.62V6.064H39.956C40.236 6.05 40.46 5.98 40.628 5.812C40.852 5.588 40.936 5.182 41.034 4.328C41.048 4.202 41.062 3.992 41.062 3.992H37.058V3.236H40.166V1.066H37.058V0.296H36.078V1.066H33.922V0.296H32.97V1.066H29.554V1.752H32.97V2.55H30.184C29.946 3.292 29.652 4.174 29.358 4.804L30.324 4.86L30.394 4.678H32.298C31.724 5.252 30.688 5.714 28.84 6.064C29.022 6.246 29.232 6.638 29.33 6.862C29.792 6.764 30.198 6.666 30.576 6.568V10.992ZM32.928 11.132C31.92 11.622 30.24 12.07 28.798 12.336C29.036 12.518 29.386 12.91 29.554 13.106C30.954 12.77 32.718 12.182 33.866 11.552L32.928 11.132ZM36.12 11.678C37.688 12.14 39.214 12.672 40.11 13.078L41.216 12.532C40.18 12.126 38.5 11.552 36.96 11.132L36.12 11.678Z" fill="#666666"/>
</svg>
