<svg width="125" height="125" viewBox="0 0 125 125" fill="none" xmlns="http://www.w3.org/2000/svg">
<path d="M5 0H0V5H5V0Z" fill="white"/>
<path d="M10 0H5V5H10V0Z" fill="white"/>
<path d="M15 0H10V5H15V0Z" fill="white"/>
<path d="M20 0H15V5H20V0Z" fill="white"/>
<path d="M25 0H20V5H25V0Z" fill="white"/>
<path d="M30 0H25V5H30V0Z" fill="white"/>
<path d="M35 0H30V5H35V0Z" fill="white"/>
<path d="M45 0H40V5H45V0Z" fill="white"/>
<path d="M75 0H70V5H75V0Z" fill="white"/>
<path d="M85 0H80V5H85V0Z" fill="white"/>
<path d="M95 0H90V5H95V0Z" fill="white"/>
<path d="M100 0H95V5H100V0Z" fill="white"/>
<path d="M105 0H100V5H105V0Z" fill="white"/>
<path d="M110 0H105V5H110V0Z" fill="white"/>
<path d="M115 0H110V5H115V0Z" fill="white"/>
<path d="M120 0H115V5H120V0Z" fill="white"/>
<path d="M125 0H120V5H125V0Z" fill="white"/>
<path d="M5 5H0V10H5V5Z" fill="white"/>
<path d="M35 5H30V10H35V5Z" fill="white"/>
<path d="M45 5H40V10H45V5Z" fill="white"/>
<path d="M50 5H45V10H50V5Z" fill="white"/>
<path d="M60 5H55V10H60V5Z" fill="white"/>
<path d="M65 5H60V10H65V5Z" fill="white"/>
<path d="M85 5H80V10H85V5Z" fill="white"/>
<path d="M95 5H90V10H95V5Z" fill="white"/>
<path d="M125 5H120V10H125V5Z" fill="white"/>
<path d="M5 10H0V15H5V10Z" fill="white"/>
<path d="M15 10H10V15H15V10Z" fill="white"/>
<path d="M20 10H15V15H20V10Z" fill="white"/>
<path d="M25 10H20V15H25V10Z" fill="white"/>
<path d="M35 10H30V15H35V10Z" fill="white"/>
<path d="M45 10H40V15H45V10Z" fill="white"/>
<path d="M50 10H45V15H50V10Z" fill="white"/>
<path d="M60 10H55V15H60V10Z" fill="white"/>
<path d="M70 10H65V15H70V10Z" fill="white"/>
<path d="M80 10H75V15H80V10Z" fill="white"/>
<path d="M85 10H80V15H85V10Z" fill="white"/>
<path d="M95 10H90V15H95V10Z" fill="white"/>
<path d="M105 10H100V15H105V10Z" fill="white"/>
<path d="M110 10H105V15H110V10Z" fill="white"/>
<path d="M115 10H110V15H115V10Z" fill="white"/>
<path d="M125 10H120V15H125V10Z" fill="white"/>
<path d="M5 15H0V20H5V15Z" fill="white"/>
<path d="M15 15H10V20H15V15Z" fill="white"/>
<path d="M20 15H15V20H20V15Z" fill="white"/>
<path d="M25 15H20V20H25V15Z" fill="white"/>
<path d="M35 15H30V20H35V15Z" fill="white"/>
<path d="M50 15H45V20H50V15Z" fill="white"/>
<path d="M55 15H50V20H55V15Z" fill="white"/>
<path d="M60 15H55V20H60V15Z" fill="white"/>
<path d="M70 15H65V20H70V15Z" fill="white"/>
<path d="M85 15H80V20H85V15Z" fill="white"/>
<path d="M95 15H90V20H95V15Z" fill="white"/>
<path d="M105 15H100V20H105V15Z" fill="white"/>
<path d="M110 15H105V20H110V15Z" fill="white"/>
<path d="M115 15H110V20H115V15Z" fill="white"/>
<path d="M125 15H120V20H125V15Z" fill="white"/>
<path d="M5 20H0V25H5V20Z" fill="white"/>
<path d="M15 20H10V25H15V20Z" fill="white"/>
<path d="M20 20H15V25H20V20Z" fill="white"/>
<path d="M25 20H20V25H25V20Z" fill="white"/>
<path d="M35 20H30V25H35V20Z" fill="white"/>
<path d="M45 20H40V25H45V20Z" fill="white"/>
<path d="M50 20H45V25H50V20Z" fill="white"/>
<path d="M60 20H55V25H60V20Z" fill="white"/>
<path d="M65 20H60V25H65V20Z" fill="white"/>
<path d="M75 20H70V25H75V20Z" fill="white"/>
<path d="M85 20H80V25H85V20Z" fill="white"/>
<path d="M95 20H90V25H95V20Z" fill="white"/>
<path d="M105 20H100V25H105V20Z" fill="white"/>
<path d="M110 20H105V25H110V20Z" fill="white"/>
<path d="M115 20H110V25H115V20Z" fill="white"/>
<path d="M125 20H120V25H125V20Z" fill="white"/>
<path d="M5 25H0V30H5V25Z" fill="white"/>
<path d="M35 25H30V30H35V25Z" fill="white"/>
<path d="M70 25H65V30H70V25Z" fill="white"/>
<path d="M95 25H90V30H95V25Z" fill="white"/>
<path d="M125 25H120V30H125V25Z" fill="white"/>
<path d="M5 30H0V35H5V30Z" fill="white"/>
<path d="M10 30H5V35H10V30Z" fill="white"/>
<path d="M15 30H10V35H15V30Z" fill="white"/>
<path d="M20 30H15V35H20V30Z" fill="white"/>
<path d="M25 30H20V35H25V30Z" fill="white"/>
<path d="M30 30H25V35H30V30Z" fill="white"/>
<path d="M35 30H30V35H35V30Z" fill="white"/>
<path d="M45 30H40V35H45V30Z" fill="white"/>
<path d="M55 30H50V35H55V30Z" fill="white"/>
<path d="M65 30H60V35H65V30Z" fill="white"/>
<path d="M75 30H70V35H75V30Z" fill="white"/>
<path d="M85 30H80V35H85V30Z" fill="white"/>
<path d="M95 30H90V35H95V30Z" fill="white"/>
<path d="M100 30H95V35H100V30Z" fill="white"/>
<path d="M105 30H100V35H105V30Z" fill="white"/>
<path d="M110 30H105V35H110V30Z" fill="white"/>
<path d="M115 30H110V35H115V30Z" fill="white"/>
<path d="M120 30H115V35H120V30Z" fill="white"/>
<path d="M125 30H120V35H125V30Z" fill="white"/>
<path d="M50 35H45V40H50V35Z" fill="white"/>
<path d="M55 35H50V40H55V35Z" fill="white"/>
<path d="M65 35H60V40H65V35Z" fill="white"/>
<path d="M70 35H65V40H70V35Z" fill="white"/>
<path d="M85 35H80V40H85V35Z" fill="white"/>
<path d="M5 40H0V45H5V40Z" fill="white"/>
<path d="M20 40H15V45H20V40Z" fill="white"/>
<path d="M25 40H20V45H25V40Z" fill="white"/>
<path d="M30 40H25V45H30V40Z" fill="white"/>
<path d="M35 40H30V45H35V40Z" fill="white"/>
<path d="M40 40H35V45H40V40Z" fill="white"/>
<path d="M45 40H40V45H45V40Z" fill="white"/>
<path d="M50 40H45V45H50V40Z" fill="white"/>
<path d="M55 40H50V45H55V40Z" fill="white"/>
<path d="M75 40H70V45H75V40Z" fill="white"/>
<path d="M85 40H80V45H85V40Z" fill="white"/>
<path d="M90 40H85V45H90V40Z" fill="white"/>
<path d="M105 40H100V45H105V40Z" fill="white"/>
<path d="M115 40H110V45H115V40Z" fill="white"/>
<path d="M120 40H115V45H120V40Z" fill="white"/>
<path d="M125 40H120V45H125V40Z" fill="white"/>
<path d="M50 45H45V50H50V45Z" fill="white"/>
<path d="M55 45H50V50H55V45Z" fill="white"/>
<path d="M60 45H55V50H60V45Z" fill="white"/>
<path d="M65 45H60V50H65V45Z" fill="white"/>
<path d="M70 45H65V50H70V45Z" fill="white"/>
<path d="M75 45H70V50H75V45Z" fill="white"/>
<path d="M80 45H75V50H80V45Z" fill="white"/>
<path d="M90 45H85V50H90V45Z" fill="white"/>
<path d="M100 45H95V50H100V45Z" fill="white"/>
<path d="M105 45H100V50H105V45Z" fill="white"/>
<path d="M110 45H105V50H110V45Z" fill="white"/>
<path d="M115 45H110V50H115V45Z" fill="white"/>
<path d="M120 45H115V50H120V45Z" fill="white"/>
<path d="M5 50H0V55H5V50Z" fill="white"/>
<path d="M15 50H10V55H15V50Z" fill="white"/>
<path d="M20 50H15V55H20V50Z" fill="white"/>
<path d="M30 50H25V55H30V50Z" fill="white"/>
<path d="M35 50H30V55H35V50Z" fill="white"/>
<path d="M55 50H50V55H55V50Z" fill="white"/>
<path d="M70 50H65V55H70V50Z" fill="white"/>
<path d="M80 50H75V55H80V50Z" fill="white"/>
<path d="M85 50H80V55H85V50Z" fill="white"/>
<path d="M95 50H90V55H95V50Z" fill="white"/>
<path d="M100 50H95V55H100V50Z" fill="white"/>
<path d="M110 50H105V55H110V50Z" fill="white"/>
<path d="M125 50H120V55H125V50Z" fill="white"/>
<path d="M5 55H0V60H5V55Z" fill="white"/>
<path d="M10 55H5V60H10V55Z" fill="white"/>
<path d="M15 55H10V60H15V55Z" fill="white"/>
<path d="M20 55H15V60H20V55Z" fill="white"/>
<path d="M30 55H25V60H30V55Z" fill="white"/>
<path d="M55 55H50V60H55V55Z" fill="white"/>
<path d="M65 55H60V60H65V55Z" fill="white"/>
<path d="M75 55H70V60H75V55Z" fill="white"/>
<path d="M80 55H75V60H80V55Z" fill="white"/>
<path d="M100 55H95V60H100V55Z" fill="white"/>
<path d="M110 55H105V60H110V55Z" fill="white"/>
<path d="M115 55H110V60H115V55Z" fill="white"/>
<path d="M120 55H115V60H120V55Z" fill="white"/>
<path d="M125 55H120V60H125V55Z" fill="white"/>
<path d="M5 60H0V65H5V60Z" fill="white"/>
<path d="M15 60H10V65H15V60Z" fill="white"/>
<path d="M20 60H15V65H20V60Z" fill="white"/>
<path d="M25 60H20V65H25V60Z" fill="white"/>
<path d="M35 60H30V65H35V60Z" fill="white"/>
<path d="M40 60H35V65H40V60Z" fill="white"/>
<path d="M45 60H40V65H45V60Z" fill="white"/>
<path d="M50 60H45V65H50V60Z" fill="white"/>
<path d="M80 60H75V65H80V60Z" fill="white"/>
<path d="M85 60H80V65H85V60Z" fill="white"/>
<path d="M95 60H90V65H95V60Z" fill="white"/>
<path d="M125 60H120V65H125V60Z" fill="white"/>
<path d="M15 65H10V70H15V65Z" fill="white"/>
<path d="M25 65H20V70H25V65Z" fill="white"/>
<path d="M55 65H50V70H55V65Z" fill="white"/>
<path d="M65 65H60V70H65V65Z" fill="white"/>
<path d="M75 65H70V70H75V65Z" fill="white"/>
<path d="M80 65H75V70H80V65Z" fill="white"/>
<path d="M85 65H80V70H85V65Z" fill="white"/>
<path d="M90 65H85V70H90V65Z" fill="white"/>
<path d="M105 65H100V70H105V65Z" fill="white"/>
<path d="M120 65H115V70H120V65Z" fill="white"/>
<path d="M35 70H30V75H35V70Z" fill="white"/>
<path d="M45 70H40V75H45V70Z" fill="white"/>
<path d="M50 70H45V75H50V70Z" fill="white"/>
<path d="M55 70H50V75H55V70Z" fill="white"/>
<path d="M70 70H65V75H70V70Z" fill="white"/>
<path d="M75 70H70V75H75V70Z" fill="white"/>
<path d="M80 70H75V75H80V70Z" fill="white"/>
<path d="M90 70H85V75H90V70Z" fill="white"/>
<path d="M95 70H90V75H95V70Z" fill="white"/>
<path d="M105 70H100V75H105V70Z" fill="white"/>
<path d="M110 70H105V75H110V70Z" fill="white"/>
<path d="M115 70H110V75H115V70Z" fill="white"/>
<path d="M120 70H115V75H120V70Z" fill="white"/>
<path d="M125 70H120V75H125V70Z" fill="white"/>
<path d="M10 75H5V80H10V75Z" fill="white"/>
<path d="M40 75H35V80H40V75Z" fill="white"/>
<path d="M50 75H45V80H50V75Z" fill="white"/>
<path d="M55 75H50V80H55V75Z" fill="white"/>
<path d="M65 75H60V80H65V75Z" fill="white"/>
<path d="M85 75H80V80H85V75Z" fill="white"/>
<path d="M90 75H85V80H90V75Z" fill="white"/>
<path d="M100 75H95V80H100V75Z" fill="white"/>
<path d="M110 75H105V80H110V75Z" fill="white"/>
<path d="M115 75H110V80H115V75Z" fill="white"/>
<path d="M125 75H120V80H125V75Z" fill="white"/>
<path d="M10 80H5V85H10V80Z" fill="white"/>
<path d="M20 80H15V85H20V80Z" fill="white"/>
<path d="M25 80H20V85H25V80Z" fill="white"/>
<path d="M35 80H30V85H35V80Z" fill="white"/>
<path d="M40 80H35V85H40V80Z" fill="white"/>
<path d="M60 80H55V85H60V80Z" fill="white"/>
<path d="M65 80H60V85H65V80Z" fill="white"/>
<path d="M70 80H65V85H70V80Z" fill="white"/>
<path d="M75 80H70V85H75V80Z" fill="white"/>
<path d="M85 80H80V85H85V80Z" fill="white"/>
<path d="M90 80H85V85H90V80Z" fill="white"/>
<path d="M95 80H90V85H95V80Z" fill="white"/>
<path d="M100 80H95V85H100V80Z" fill="white"/>
<path d="M105 80H100V85H105V80Z" fill="white"/>
<path d="M115 80H110V85H115V80Z" fill="white"/>
<path d="M120 80H115V85H120V80Z" fill="white"/>
<path d="M45 85H40V90H45V85Z" fill="white"/>
<path d="M60 85H55V90H60V85Z" fill="white"/>
<path d="M70 85H65V90H70V85Z" fill="white"/>
<path d="M85 85H80V90H85V85Z" fill="white"/>
<path d="M105 85H100V90H105V85Z" fill="white"/>
<path d="M115 85H110V90H115V85Z" fill="white"/>
<path d="M120 85H115V90H120V85Z" fill="white"/>
<path d="M5 90H0V95H5V90Z" fill="white"/>
<path d="M10 90H5V95H10V90Z" fill="white"/>
<path d="M15 90H10V95H15V90Z" fill="white"/>
<path d="M20 90H15V95H20V90Z" fill="white"/>
<path d="M25 90H20V95H25V90Z" fill="white"/>
<path d="M30 90H25V95H30V90Z" fill="white"/>
<path d="M35 90H30V95H35V90Z" fill="white"/>
<path d="M45 90H40V95H45V90Z" fill="white"/>
<path d="M55 90H50V95H55V90Z" fill="white"/>
<path d="M65 90H60V95H65V90Z" fill="white"/>
<path d="M85 90H80V95H85V90Z" fill="white"/>
<path d="M95 90H90V95H95V90Z" fill="white"/>
<path d="M105 90H100V95H105V90Z" fill="white"/>
<path d="M125 90H120V95H125V90Z" fill="white"/>
<path d="M5 95H0V100H5V95Z" fill="white"/>
<path d="M35 95H30V100H35V95Z" fill="white"/>
<path d="M45 95H40V100H45V95Z" fill="white"/>
<path d="M60 95H55V100H60V95Z" fill="white"/>
<path d="M70 95H65V100H70V95Z" fill="white"/>
<path d="M80 95H75V100H80V95Z" fill="white"/>
<path d="M85 95H80V100H85V95Z" fill="white"/>
<path d="M105 95H100V100H105V95Z" fill="white"/>
<path d="M5 100H0V105H5V100Z" fill="white"/>
<path d="M15 100H10V105H15V100Z" fill="white"/>
<path d="M20 100H15V105H20V100Z" fill="white"/>
<path d="M25 100H20V105H25V100Z" fill="white"/>
<path d="M35 100H30V105H35V100Z" fill="white"/>
<path d="M45 100H40V105H45V100Z" fill="white"/>
<path d="M50 100H45V105H50V100Z" fill="white"/>
<path d="M55 100H50V105H55V100Z" fill="white"/>
<path d="M60 100H55V105H60V100Z" fill="white"/>
<path d="M70 100H65V105H70V100Z" fill="white"/>
<path d="M80 100H75V105H80V100Z" fill="white"/>
<path d="M85 100H80V105H85V100Z" fill="white"/>
<path d="M90 100H85V105H90V100Z" fill="white"/>
<path d="M95 100H90V105H95V100Z" fill="white"/>
<path d="M100 100H95V105H100V100Z" fill="white"/>
<path d="M105 100H100V105H105V100Z" fill="white"/>
<path d="M120 100H115V105H120V100Z" fill="white"/>
<path d="M125 100H120V105H125V100Z" fill="white"/>
<path d="M5 105H0V110H5V105Z" fill="white"/>
<path d="M15 105H10V110H15V105Z" fill="white"/>
<path d="M20 105H15V110H20V105Z" fill="white"/>
<path d="M25 105H20V110H25V105Z" fill="white"/>
<path d="M35 105H30V110H35V105Z" fill="white"/>
<path d="M45 105H40V110H45V105Z" fill="white"/>
<path d="M55 105H50V110H55V105Z" fill="white"/>
<path d="M65 105H60V110H65V105Z" fill="white"/>
<path d="M70 105H65V110H70V105Z" fill="white"/>
<path d="M75 105H70V110H75V105Z" fill="white"/>
<path d="M95 105H90V110H95V105Z" fill="white"/>
<path d="M120 105H115V110H120V105Z" fill="white"/>
<path d="M125 105H120V110H125V105Z" fill="white"/>
<path d="M5 110H0V115H5V110Z" fill="white"/>
<path d="M15 110H10V115H15V110Z" fill="white"/>
<path d="M20 110H15V115H20V110Z" fill="white"/>
<path d="M25 110H20V115H25V110Z" fill="white"/>
<path d="M35 110H30V115H35V110Z" fill="white"/>
<path d="M50 110H45V115H50V110Z" fill="white"/>
<path d="M60 110H55V115H60V110Z" fill="white"/>
<path d="M70 110H65V115H70V110Z" fill="white"/>
<path d="M90 110H85V115H90V110Z" fill="white"/>
<path d="M105 110H100V115H105V110Z" fill="white"/>
<path d="M110 110H105V115H110V110Z" fill="white"/>
<path d="M115 110H110V115H115V110Z" fill="white"/>
<path d="M120 110H115V115H120V110Z" fill="white"/>
<path d="M125 110H120V115H125V110Z" fill="white"/>
<path d="M5 115H0V120H5V115Z" fill="white"/>
<path d="M35 115H30V120H35V115Z" fill="white"/>
<path d="M55 115H50V120H55V115Z" fill="white"/>
<path d="M60 115H55V120H60V115Z" fill="white"/>
<path d="M65 115H60V120H65V115Z" fill="white"/>
<path d="M70 115H65V120H70V115Z" fill="white"/>
<path d="M100 115H95V120H100V115Z" fill="white"/>
<path d="M105 115H100V120H105V115Z" fill="white"/>
<path d="M115 115H110V120H115V115Z" fill="white"/>
<path d="M120 115H115V120H120V115Z" fill="white"/>
<path d="M125 115H120V120H125V115Z" fill="white"/>
<path d="M5 120H0V125H5V120Z" fill="white"/>
<path d="M10 120H5V125H10V120Z" fill="white"/>
<path d="M15 120H10V125H15V120Z" fill="white"/>
<path d="M20 120H15V125H20V120Z" fill="white"/>
<path d="M25 120H20V125H25V120Z" fill="white"/>
<path d="M30 120H25V125H30V120Z" fill="white"/>
<path d="M35 120H30V125H35V120Z" fill="white"/>
<path d="M45 120H40V125H45V120Z" fill="white"/>
<path d="M60 120H55V125H60V120Z" fill="white"/>
<path d="M65 120H60V125H65V120Z" fill="white"/>
<path d="M70 120H65V125H70V120Z" fill="white"/>
<path d="M85 120H80V125H85V120Z" fill="white"/>
<path d="M90 120H85V125H90V120Z" fill="white"/>
<path d="M110 120H105V125H110V120Z" fill="white"/>
<path d="M125 120H120V125H125V120Z" fill="white"/>
</svg>
