<svg width="37" height="23" viewBox="0 0 37 23" fill="none" xmlns="http://www.w3.org/2000/svg">
<g filter="url(#filter0_i_511_12435)">
<path d="M16.0283 4.06533C19.0283 4.06533 21.9283 4.06533 24.9283 4.06533C28.8283 4.06533 31.7283 6.66533 31.8283 10.2653C31.9283 14.2653 29.3283 17.2653 25.2283 17.2653C19.0283 17.3653 12.7283 17.3653 6.52827 17.2653C3.02827 17.1653 0.228271 14.5653 0.0282712 11.3653C-0.271728 7.76533 1.82827 4.86533 5.22827 4.16533C6.52827 3.86533 7.82827 4.06533 9.02827 4.06533C11.4283 4.06533 13.7283 4.06533 16.0283 4.06533Z" fill="#1FA2D5" fill-opacity="0.3"/>
</g>
<g filter="url(#filter1_d_511_12435)">
<path d="M20.2286 10.6653C20.2286 13.4653 22.3286 15.4653 25.1286 15.4653C27.7286 15.4653 29.8286 13.2653 29.8286 10.5653C29.8286 7.86533 27.7286 5.86533 25.0286 5.86533C22.3286 5.86533 20.2286 7.86533 20.2286 10.6653Z" fill="white"/>
</g>
<defs>
<filter id="filter0_i_511_12435" x="0" y="4" width="31.8311" height="14.3403" filterUnits="userSpaceOnUse" color-interpolation-filters="sRGB">
<feFlood flood-opacity="0" result="BackgroundImageFix"/>
<feBlend mode="normal" in="SourceGraphic" in2="BackgroundImageFix" result="shape"/>
<feColorMatrix in="SourceAlpha" type="matrix" values="0 0 0 0 0 0 0 0 0 0 0 0 0 0 0 0 0 0 127 0" result="hardAlpha"/>
<feOffset dy="1"/>
<feGaussianBlur stdDeviation="2.5"/>
<feComposite in2="hardAlpha" operator="arithmetic" k2="-1" k3="1"/>
<feColorMatrix type="matrix" values="0 0 0 0 0 0 0 0 0 0 0 0 0 0 0 0 0 0 0.1 0"/>
<feBlend mode="normal" in2="shape" result="effect1_innerShadow_511_12435"/>
</filter>
<filter id="filter1_d_511_12435" x="15.2285" y="0.865234" width="21.6001" height="21.6001" filterUnits="userSpaceOnUse" color-interpolation-filters="sRGB">
<feFlood flood-opacity="0" result="BackgroundImageFix"/>
<feColorMatrix in="SourceAlpha" type="matrix" values="0 0 0 0 0 0 0 0 0 0 0 0 0 0 0 0 0 0 127 0" result="hardAlpha"/>
<feOffset dx="1" dy="1"/>
<feGaussianBlur stdDeviation="3"/>
<feColorMatrix type="matrix" values="0 0 0 0 0 0 0 0 0 0 0 0 0 0 0 0 0 0 0.25 0"/>
<feBlend mode="normal" in2="BackgroundImageFix" result="effect1_dropShadow_511_12435"/>
<feBlend mode="normal" in="SourceGraphic" in2="effect1_dropShadow_511_12435" result="shape"/>
</filter>
</defs>
</svg>
