<svg width="56" height="56" viewBox="0 0 56 56" fill="none" xmlns="http://www.w3.org/2000/svg">
<circle cx="28" cy="28" r="27.5" fill="white" stroke="#F1F1F1"/>
<path d="M25.182 31.8178C22.605 29.2408 22.0215 26.6639 21.8923 25.63C21.857 25.3441 21.9549 25.0582 22.1586 24.8545L24.2421 22.7711C24.5475 22.4656 24.6024 21.9878 24.3752 21.6197L21.0542 16.4658C20.7996 16.0585 20.2787 15.9136 19.8479 16.1251L14.5178 18.6354C14.1693 18.8077 13.9656 19.1759 14.0048 19.5597C14.2828 22.211 15.4421 28.7356 21.8492 35.1427C28.2563 41.5498 34.7809 42.709 37.4322 42.9871C37.816 43.0263 38.1842 42.8226 38.3565 42.4741L40.8708 37.1479C41.0862 36.721 40.9373 36.2001 40.534 35.9456L35.3801 32.6245C35.0119 32.3935 34.5342 32.4483 34.2287 32.7538L32.1452 34.8372C31.9415 35.0409 31.6557 35.1388 31.3698 35.1035C30.3359 34.9743 27.7589 34.3947 25.182 31.8178Z" fill="#0697DB" fill-opacity="0.8"/>
<path d="M35.4114 30.4275C34.8984 30.4275 34.4793 30.0124 34.4793 29.4954C34.4754 25.6417 31.3502 22.5165 27.4965 22.5126C26.9835 22.5126 26.5645 22.0975 26.5645 21.5805C26.5645 21.0636 26.9796 20.6484 27.4965 20.6484C32.3841 20.6602 36.3396 24.6157 36.3435 29.4993C36.3435 30.0124 35.9284 30.4275 35.4114 30.4275Z" fill="#0697DB" fill-opacity="0.8"/>
<path d="M40.0679 30.4277C39.5549 30.4277 39.1358 30.0126 39.1358 29.4956C39.128 23.0729 33.9232 17.8681 27.5004 17.8603C26.9874 17.8603 26.5684 17.4451 26.5684 16.9282C26.5684 16.4112 26.9874 16 27.5004 16C34.9532 16.0078 40.9922 22.0468 41 29.4996C41 29.7463 40.9021 29.9852 40.7259 30.1575C40.5496 30.3298 40.3146 30.4277 40.0679 30.4277Z" fill="#0697DB" fill-opacity="0.8"/>
</svg>
