<svg width="28" height="14" viewBox="0 0 28 14" fill="none" xmlns="http://www.w3.org/2000/svg">
<path d="M5.054 3.81L4.9 3.852H0.812V4.888H4.452C3.78 7.674 2.296 9.76 0.476 10.894C0.714 11.062 1.134 11.468 1.302 11.72C3.346 10.334 5.04 7.744 5.74 4.076L5.054 3.81ZM12.054 2.55C11.228 3.642 9.856 5.042 8.736 6.022C8.246 5.028 7.854 3.964 7.56 2.858V0.323999H6.482V11.594C6.482 11.874 6.384 11.958 6.104 11.972C5.824 11.972 4.928 11.986 3.92 11.944C4.088 12.252 4.298 12.77 4.34 13.078C5.628 13.078 6.44 13.05 6.902 12.868C7.364 12.672 7.56 12.336 7.56 11.594V5.588C8.666 8.458 10.346 10.81 12.768 12C12.936 11.692 13.3 11.272 13.552 11.062C11.704 10.264 10.248 8.738 9.17 6.848C10.374 5.91 11.886 4.44 12.992 3.222L12.054 2.55ZM16.926 3.236H18.942C18.928 3.502 18.872 3.754 18.76 3.992H16.66L16.926 3.236ZM19.922 1.752H22.078V2.55H19.922V1.752ZM25.228 1.752V2.55H23.058V1.752H25.228ZM22.078 3.992H19.796C19.852 3.754 19.894 3.502 19.908 3.236H22.078V3.992ZM26.012 4.678C25.956 5.042 25.9 5.238 25.83 5.322C25.746 5.378 25.662 5.392 25.494 5.392C25.354 5.392 24.962 5.378 24.528 5.35C24.584 5.462 24.64 5.616 24.682 5.756H18.466C18.97 5.434 19.306 5.07 19.516 4.678H22.078V5.728H23.058V4.678H26.012ZM24.584 7.296H17.584V6.428H24.584V7.296ZM24.584 8.794H17.584V7.94H24.584V8.794ZM24.584 10.32H17.584V9.452H24.584V10.32ZM16.576 10.992H25.62V6.064H25.956C26.236 6.05 26.46 5.98 26.628 5.812C26.852 5.588 26.936 5.182 27.034 4.328C27.048 4.202 27.062 3.992 27.062 3.992H23.058V3.236H26.166V1.066H23.058V0.296H22.078V1.066H19.922V0.296H18.97V1.066H15.554V1.752H18.97V2.55H16.184C15.946 3.292 15.652 4.174 15.358 4.804L16.324 4.86L16.394 4.678H18.298C17.724 5.252 16.688 5.714 14.84 6.064C15.022 6.246 15.232 6.638 15.33 6.862C15.792 6.764 16.198 6.666 16.576 6.568V10.992ZM18.928 11.132C17.92 11.622 16.24 12.07 14.798 12.336C15.036 12.518 15.386 12.91 15.554 13.106C16.954 12.77 18.718 12.182 19.866 11.552L18.928 11.132ZM22.12 11.678C23.688 12.14 25.214 12.672 26.11 13.078L27.216 12.532C26.18 12.126 24.5 11.552 22.96 11.132L22.12 11.678Z" fill="#666666"/>
</svg>
