<svg width="69" height="14" viewBox="0 0 69 14" fill="none" xmlns="http://www.w3.org/2000/svg">
<path d="M3.956 11.65C2.444 11.65 2.136 11.454 2.136 10.572V6.876H9.444V7.562H10.508V1.164H0.344V2.186H9.444V5.854H2.136V3.558H1.086V10.558C1.086 12.28 1.786 12.672 4.026 12.672H9.262C11.544 12.672 12.006 11.916 12.272 9.354C11.964 9.298 11.502 9.13 11.222 8.934C11.026 11.188 10.802 11.65 9.276 11.65H3.956ZM14.134 8.22C14.008 9.438 13.826 10.698 13.448 11.552C13.644 11.622 14.036 11.79 14.19 11.902C14.568 11.006 14.82 9.662 14.946 8.374L14.134 8.22ZM17.144 7.086C17.242 7.394 17.326 7.674 17.368 7.912L18.152 7.59C17.998 6.848 17.508 5.672 16.99 4.804L16.248 5.07C16.458 5.434 16.654 5.854 16.822 6.274L15.198 6.358C16.024 5.154 16.962 3.558 17.648 2.256L16.808 1.906C16.5 2.606 16.08 3.446 15.632 4.258C15.45 3.992 15.226 3.698 14.988 3.404C15.422 2.648 15.898 1.528 16.29 0.604L15.394 0.296C15.184 1.024 14.806 2.018 14.442 2.802C14.316 2.662 14.19 2.536 14.064 2.41L13.588 3.11C14.148 3.684 14.778 4.468 15.156 5.084C14.876 5.56 14.596 6.008 14.33 6.386L13.462 6.428L13.546 7.366C14.106 7.338 14.75 7.282 15.422 7.24V13.064H16.29V7.17L17.144 7.086ZM16.668 8.402C16.962 9.242 17.27 10.32 17.354 11.034L18.138 10.796C18.026 10.096 17.718 9.018 17.396 8.178L16.668 8.402ZM20.686 0.407999H19.762V2.284H18.11V3.222H19.762V4.958H18.278V5.882H19.762V6.372C19.762 6.834 19.748 7.296 19.734 7.73H18.096V8.668H19.636C19.44 10.138 18.936 11.426 17.69 12.49C17.928 12.63 18.292 12.924 18.46 13.12C19.832 11.916 20.378 10.39 20.574 8.668H22.31V7.73H20.658C20.672 7.282 20.686 6.834 20.686 6.372V5.882H22.128V4.958H20.686V3.222H22.31V2.284H20.686V0.407999ZM25.642 1.122L25.488 1.164H22.604V13.036H23.542V2.032H25.18C24.928 3.124 24.578 4.412 24.186 5.742C25.082 7.114 25.46 8.01 25.46 8.85C25.46 9.354 25.376 9.858 25.166 10.026C25.082 10.11 24.942 10.138 24.788 10.152C24.592 10.166 24.312 10.166 24.032 10.124C24.2 10.376 24.284 10.768 24.284 11.02C24.578 11.034 24.9 11.034 25.138 11.006C25.404 10.964 25.642 10.88 25.81 10.74C26.188 10.418 26.37 9.69 26.37 8.878C26.37 7.982 25.95 6.988 25.068 5.616C25.544 4.132 25.964 2.676 26.314 1.472L25.642 1.122ZM29.212 2.872H38.746V4.916H39.81V1.892H34.518V0.296H33.44V1.892H28.19V4.916H29.212V2.872ZM34.518 8.822H38.662V7.856H34.518V5.532H38.088V4.552H29.982V5.532H33.454V11.398C32.306 10.964 31.41 10.166 30.878 8.696C31.018 8.108 31.13 7.492 31.214 6.834L30.15 6.736C29.842 9.242 29.086 11.23 27.532 12.434C27.784 12.588 28.218 12.952 28.386 13.134C29.296 12.336 29.982 11.3 30.472 10.012C31.746 12.378 33.832 12.882 36.73 12.882H39.978C40.02 12.574 40.202 12.084 40.37 11.832C39.698 11.846 37.29 11.846 36.786 11.846C35.974 11.846 35.204 11.804 34.518 11.678V8.822ZM44.234 8.094V6.652H47.44V8.094H44.234ZM44.234 4.398H47.44V5.826H44.234V4.398ZM51.766 4.398V5.826H48.49V4.398H51.766ZM51.766 8.094H48.49V6.652H51.766V8.094ZM54.272 10.096H48.49V8.948H52.802V3.53H48.49V2.508H53.796V1.556H48.49V0.296H47.44V1.556H42.204V2.508H47.44V3.53H43.24V8.948H47.44V10.096H41.784V11.034H47.44V13.106H48.49V11.034H54.272V10.096ZM59.284 3.81H57.184V1.682H59.284V3.81ZM60.25 0.814H56.26V4.678H60.25V0.814ZM57.492 7.814C57.59 7.408 57.688 6.988 57.772 6.582H60.852V5.658H55.616V6.582H56.82C56.624 7.548 56.344 8.654 56.12 9.41L57.044 9.578C57.114 9.326 57.198 9.018 57.282 8.696H59.186C59.018 10.922 58.836 11.818 58.57 12.07C58.458 12.196 58.318 12.224 58.122 12.21C57.898 12.21 57.366 12.21 56.778 12.154C56.918 12.392 57.03 12.798 57.044 13.05C57.632 13.092 58.206 13.092 58.5 13.064C58.878 13.036 59.13 12.952 59.354 12.7C59.732 12.28 59.942 11.146 60.166 8.234C60.18 8.108 60.194 7.814 60.194 7.814H57.492ZM62.182 3.908H67.404C67.32 4.468 67.208 5.042 67.124 5.448L67.908 5.644C68.09 5.014 68.314 4.006 68.482 3.166L67.824 2.998L67.67 3.04H64.968V2.102H67.782V1.262H64.968V0.282H63.974V3.04H61.23V6.61C61.23 8.402 61.104 10.824 59.9 12.574C60.124 12.672 60.516 12.952 60.684 13.148C61.972 11.286 62.182 8.542 62.182 6.61V3.908ZM63.302 8.192C63.204 10.236 62.91 11.594 61.384 12.364C61.608 12.532 61.874 12.882 61.986 13.12C63.708 12.182 64.1 10.572 64.212 8.192H63.302ZM65.388 6.82C65.01 6.82 64.954 6.764 64.954 6.484V5.84L66.718 5.658L66.62 4.93L64.954 5.098V3.992H64.016V5.196L62.49 5.35L62.588 6.078L64.016 5.938V6.498C64.016 7.38 64.268 7.59 65.276 7.59H66.802C67.558 7.59 67.81 7.324 67.894 6.246C67.642 6.176 67.278 6.064 67.096 5.938C67.068 6.722 66.998 6.82 66.676 6.82H65.388ZM66.662 11.916C66.522 11.916 66.424 11.888 66.34 11.846C66.27 11.804 66.242 11.706 66.242 11.608V8.192H65.332V11.594C65.332 12.224 65.388 12.434 65.626 12.63C65.822 12.798 66.158 12.854 66.452 12.854H67.236C67.502 12.854 67.824 12.798 67.978 12.714C68.188 12.588 68.342 12.434 68.426 12.182C68.496 11.93 68.552 11.244 68.566 10.586C68.314 10.502 67.964 10.32 67.796 10.166C67.796 10.796 67.782 11.328 67.74 11.552C67.712 11.692 67.628 11.804 67.544 11.846C67.474 11.888 67.306 11.916 67.152 11.916H66.662Z" fill="#0697DB"/>
</svg>
