<svg width="87" height="83" viewBox="0 0 87 83" fill="none" xmlns="http://www.w3.org/2000/svg">
<rect width="87" height="83" rx="5" fill="white"/>
<rect x="0.5" y="0.5" width="86" height="82" rx="4.5" stroke="#0697DB" stroke-opacity="0.15"/>
<path d="M26.7656 37.0391C25.5001 37.0391 24.2631 37.4143 23.2108 38.1174C22.1586 38.8205 21.3385 39.8198 20.8542 40.9889C20.37 42.1581 20.2432 43.4446 20.4901 44.6858C20.737 45.927 21.3464 47.067 22.2412 47.9619C23.1361 48.8567 24.2762 49.4661 25.5174 49.713C26.7585 49.9599 28.045 49.8332 29.2142 49.3489C30.3834 48.8646 31.3827 48.0445 32.0857 46.9923C32.7888 45.9401 33.1641 44.703 33.1641 43.4375C33.1621 41.7411 32.4874 40.1148 31.2879 38.9152C30.0884 37.7157 28.462 37.041 26.7656 37.0391ZM26.7656 46.3906C26.1816 46.3906 25.6106 46.2174 25.125 45.8929C24.6393 45.5684 24.2608 45.1072 24.0373 44.5676C23.8138 44.028 23.7553 43.4342 23.8692 42.8614C23.9832 42.2885 24.2644 41.7623 24.6774 41.3493C25.0905 40.9363 25.6166 40.6551 26.1895 40.5411C26.7623 40.4272 27.3561 40.4857 27.8957 40.7092C28.4353 40.9327 28.8966 41.3112 29.2211 41.7968C29.5456 42.2825 29.7187 42.8534 29.7187 43.4375C29.7187 44.2207 29.4076 44.9719 28.8538 45.5257C28.3 46.0795 27.5488 46.3906 26.7656 46.3906Z" fill="#0697DB" fill-opacity="0.8"/>
<path d="M62.2031 37.0391C60.9376 37.0391 59.7006 37.4143 58.6483 38.1174C57.5961 38.8205 56.776 39.8198 56.2917 40.9889C55.8075 42.1581 55.6807 43.4446 55.9276 44.6858C56.1745 45.927 56.7839 47.067 57.6787 47.9619C58.5736 48.8567 59.7137 49.4661 60.9548 49.713C62.196 49.9599 63.4825 49.8332 64.6517 49.3489C65.8209 48.8646 66.8202 48.0445 67.5232 46.9923C68.2263 45.9401 68.6016 44.703 68.6016 43.4375C68.5996 41.7411 67.9249 40.1148 66.7254 38.9152C65.5259 37.7157 63.8995 37.041 62.2031 37.0391ZM62.2031 46.3906C61.619 46.3906 61.0481 46.2174 60.5625 45.8929C60.0768 45.5684 59.6983 45.1072 59.4748 44.5676C59.2513 44.028 59.1928 43.4342 59.3067 42.8614C59.4207 42.2885 59.7019 41.7623 60.1149 41.3493C60.5279 40.9363 61.0541 40.6551 61.627 40.5411C62.1998 40.4272 62.7936 40.4857 63.3332 40.7092C63.8728 40.9327 64.3341 41.3112 64.6586 41.7968C64.983 42.2825 65.1562 42.8534 65.1562 43.4375C65.1562 44.2207 64.8451 44.9719 64.2913 45.5257C63.7375 46.0795 62.9863 46.3906 62.2031 46.3906Z" fill="#0697DB" fill-opacity="0.8"/>
<path d="M70.7426 31.753L59.25 29.6563L49.4659 21.5382C48.4963 20.7417 47.2805 20.3058 46.0257 20.3047H31.6112C30.7989 20.3028 29.9967 20.4846 29.2646 20.8364C28.5324 21.1883 27.8894 21.7012 27.3834 22.3367L21.134 29.6563H16.9219C15.7474 29.6576 14.6215 30.1247 13.7911 30.9551C12.9606 31.7856 12.4935 32.9115 12.4922 34.086V39.5C12.4938 40.9354 13.0647 42.3116 14.0797 43.3266C15.0947 44.3416 16.4708 44.9125 17.9062 44.9141H19.0315C18.8131 43.775 18.849 42.6017 19.1366 41.4781C19.4243 40.3545 19.9566 39.3083 20.6955 38.4143C21.4343 37.5203 22.3616 36.8005 23.4109 36.3064C24.4603 35.8123 25.6058 35.5561 26.7656 35.5561C27.9255 35.5561 29.071 35.8123 30.1203 36.3064C31.1697 36.8005 32.0969 37.5203 32.8358 38.4143C33.5747 39.3083 34.107 40.3545 34.3946 41.4781C34.6822 42.6017 34.7181 43.775 34.4997 44.9141H54.469C54.2506 43.775 54.2865 42.6017 54.5741 41.4781C54.8618 40.3545 55.3941 39.3083 56.133 38.4143C56.8718 37.5203 57.7991 36.8005 58.8484 36.3064C59.8978 35.8123 61.0433 35.5561 62.2031 35.5561C63.363 35.5561 64.5085 35.8123 65.5578 36.3064C66.6072 36.8005 67.5344 37.5203 68.2733 38.4143C69.0122 39.3083 69.5445 40.3545 69.8321 41.4781C70.1197 42.6017 70.1556 43.775 69.9372 44.9141H70.0781C71.2525 44.9128 72.3785 44.4457 73.2089 43.6152C74.0394 42.7848 74.5065 41.6588 74.5078 40.4844V36.1325C74.5131 35.0713 74.1351 34.044 73.4433 33.2393C72.7515 32.4347 71.7925 31.9069 70.7426 31.753ZM34.1484 28.1797C34.1484 28.5713 33.9929 28.9469 33.716 29.2238C33.4391 29.5007 33.0635 29.6563 32.6719 29.6563H26.1805C26.0394 29.6563 25.9011 29.616 25.7822 29.5399C25.6633 29.4638 25.5687 29.3552 25.5096 29.227C25.4505 29.0988 25.4294 28.9564 25.4488 28.8165C25.4682 28.6767 25.5273 28.5454 25.6191 28.4381L29.9154 23.4055C30.0541 23.2433 30.2263 23.1131 30.4202 23.0239C30.614 22.9347 30.8249 22.8886 31.0383 22.8887H32.6719C33.0635 22.8887 33.4391 23.0443 33.716 23.3212C33.9929 23.5981 34.1484 23.9736 34.1484 24.3652V28.1797ZM41.5312 35.0703H39.5625C39.1709 35.0703 38.7953 34.9148 38.5184 34.6379C38.2415 34.3609 38.0859 33.9854 38.0859 33.5938C38.0859 33.2022 38.2415 32.8266 38.5184 32.5497C38.7953 32.2728 39.1709 32.1172 39.5625 32.1172H41.5312C41.9229 32.1172 42.2984 32.2728 42.5753 32.5497C42.8522 32.8266 43.0078 33.2022 43.0078 33.5938C43.0078 33.9854 42.8522 34.3609 42.5753 34.6379C42.2984 34.9148 41.9229 35.0703 41.5312 35.0703ZM53.1566 29.6924L39.0669 29.6597C38.6759 29.6588 38.3012 29.5028 38.025 29.226C37.7488 28.9492 37.5937 28.5742 37.5937 28.1831V24.3652C37.5937 23.9736 37.7493 23.5981 38.0262 23.3212C38.3031 23.0443 38.6787 22.8887 39.0703 22.8887H46.1514C46.4833 22.8887 46.8055 23.0005 47.066 23.2061L53.6156 28.3741C53.7363 28.4692 53.8243 28.5995 53.8675 28.747C53.9106 28.8945 53.9066 29.0518 53.8561 29.1969C53.8055 29.342 53.711 29.4678 53.5856 29.5566C53.4602 29.6454 53.3102 29.6929 53.1566 29.6924Z" fill="#0697DB" fill-opacity="0.8"/>
</svg>
