<svg width="87" height="83" viewBox="0 0 87 83" fill="none" xmlns="http://www.w3.org/2000/svg">
<rect width="87" height="83" rx="5" fill="white"/>
<rect x="0.5" y="0.5" width="86" height="82" rx="4.5" stroke="#1FA2D5" stroke-opacity="0.15"/>
<path d="M24.6596 45.3145C25.2723 47.5608 27.3294 49.2173 29.767 49.2173C32.2049 49.2173 34.2619 47.5607 34.8746 45.3145H24.6596Z" fill="#0697DB" fill-opacity="0.8"/>
<path d="M54.7502 45.3145C55.3628 47.5608 57.4198 49.2173 59.8576 49.2173C62.2953 49.2173 64.3523 47.5607 64.965 45.3145H54.7502Z" fill="#0697DB" fill-opacity="0.8"/>
<path d="M63.3581 32.1385L57.3523 27.8832L57.3588 24.3275C57.6414 24.5399 57.9915 24.6674 58.3724 24.6674C59.306 24.6674 60.0628 23.9106 60.0628 22.977V19.4731C60.0628 18.5395 59.306 17.7827 58.3724 17.7827C57.8729 17.7827 57.4255 18.0006 57.1161 18.345C56.7879 18.1016 56.3829 17.9559 55.9429 17.9559C55.0084 17.9559 54.1499 18.2568 53.4534 18.7634L46.7808 20.7587C45.8864 21.0261 45.3783 21.968 45.6457 22.8625C45.8648 23.5955 46.5367 24.0691 47.2645 24.0691C47.4249 24.0691 47.5879 24.0461 47.7496 23.9978L51.7208 22.8103L51.6473 30.879L50.5692 33.9488C49.1236 37.412 45.7384 39.6672 41.9855 39.6673H39.2569C38.6407 36.9684 39.1217 34.0985 40.6537 31.7244H25.5276C22.293 32.9861 20 36.1298 20 39.8111V42.2015C20 42.8217 20.3533 43.3584 20.8691 43.6241H51.0165C51.4437 39.1215 55.245 35.587 59.8576 35.587C61.6245 35.587 63.2712 36.1078 64.6562 37.0008L64.7018 36.972C65.4561 35.2459 64.895 33.2275 63.3581 32.1385Z" fill="#0697DB" fill-opacity="0.8"/>
<path d="M41.0654 27.0714H30.6165C29.6829 27.0714 28.9261 27.8282 28.9261 28.7618C28.9261 29.2696 29.1511 29.7238 29.5056 30.0338H42.1762C42.5307 29.724 42.7558 29.2696 42.7558 28.7618C42.7558 27.8282 41.9989 27.0714 41.0654 27.0714Z" fill="#0697DB" fill-opacity="0.8"/>
<path d="M59.8576 37.2774C56.1779 37.2774 53.1346 40.0552 52.7151 43.6241H67C66.5804 40.0553 63.5372 37.2774 59.8576 37.2774Z" fill="#0697DB" fill-opacity="0.8"/>
</svg>
