<svg width="72" height="12" viewBox="0 0 72 12" fill="none" xmlns="http://www.w3.org/2000/svg">
<path d="M3.504 9.176C2.856 9.932 1.704 10.616 0.624 11.048C0.816 11.192 1.104 11.528 1.236 11.696C2.316 11.18 3.552 10.352 4.308 9.452L3.504 9.176ZM7.56 9.728C8.616 10.304 9.948 11.168 10.632 11.696L11.244 11.096C10.524 10.556 9.18 9.74 8.136 9.2L7.56 9.728ZM3.3 6.404C2.988 6.092 2.496 5.696 2.04 5.384C2.232 5.252 2.412 5.108 2.58 4.952C3.024 5.24 3.528 5.6 3.84 5.9C3.672 6.08 3.48 6.248 3.3 6.404ZM4.944 4.316C4.764 4.7 4.536 5.072 4.26 5.408C3.924 5.132 3.444 4.796 3 4.544C3.072 4.472 3.144 4.388 3.216 4.316H4.944ZM10.26 3.788H11.088V1.892H6.42V0.968H5.544V1.892H0.9V3.788H1.704V2.636H10.248V3.788L10.044 3.656L9.888 3.692H7.344V4.4H9.396C9.108 4.868 8.724 5.36 8.328 5.744C7.524 5 6.912 4.064 6.528 2.972L5.832 3.164C6.288 4.472 6.984 5.576 7.92 6.428H4.344C5.016 5.732 5.58 4.904 5.928 3.92L5.436 3.668L5.292 3.704H3.696C3.84 3.5 3.972 3.284 4.092 3.08L3.324 2.948C2.856 3.812 1.944 4.796 0.564 5.492C0.732 5.6 0.96 5.852 1.056 6.008C1.212 5.924 1.356 5.84 1.5 5.756C1.956 6.08 2.448 6.476 2.76 6.812C2.064 7.304 1.296 7.676 0.528 7.916C0.684 8.072 0.888 8.36 0.984 8.552C1.296 8.444 1.608 8.312 1.92 8.156V8.876H5.568V11C5.568 11.144 5.52 11.18 5.34 11.192C5.172 11.192 4.596 11.192 3.936 11.18C4.044 11.396 4.164 11.696 4.212 11.924C5.064 11.924 5.628 11.936 5.976 11.804C6.324 11.696 6.42 11.468 6.42 11.024V8.876H10.056V8.132H1.968C2.7 7.772 3.408 7.304 4.032 6.728V7.148H8.112V6.596C8.904 7.28 9.864 7.784 10.992 8.108C11.1 7.88 11.328 7.568 11.52 7.388C10.512 7.148 9.636 6.74 8.892 6.2C9.516 5.6 10.14 4.76 10.56 3.98L10.26 3.788ZM21.816 1.436H13.98V2.072H20.952V2.792H14.268V3.392H20.952V4.112H13.908V4.736H21.816V1.436ZM12.912 8.06C14.172 7.952 15.936 7.82 17.664 7.676V7.004C16.98 7.052 16.296 7.1 15.636 7.148V6.02H17.424V5.348H13.068V6.02H14.796V7.208C14.052 7.256 13.38 7.304 12.828 7.34L12.912 8.06ZM19.08 5.972H21.816V7.148H19.08V5.972ZM23.412 8.54H20.94V7.772H22.704V5.348H18.252V7.772H20.064V8.54H12.6V9.308H15.084L14.58 9.74C15.288 10.148 16.092 10.784 16.476 11.24L17.112 10.664C16.728 10.256 15.996 9.692 15.336 9.308H20.064V10.928C20.064 11.084 20.016 11.132 19.812 11.144C19.608 11.156 18.888 11.156 18.108 11.132C18.228 11.36 18.36 11.684 18.396 11.912C19.44 11.912 20.052 11.912 20.448 11.78C20.832 11.66 20.94 11.42 20.94 10.94V9.308H23.412V8.54ZM35.172 3.14C34.764 2.6 33.912 1.784 33.192 1.22L32.544 1.652C33.252 2.24 34.092 3.08 34.476 3.62L35.172 3.14ZM27.768 1.1C26.988 2.984 25.668 4.808 24.3 5.972C24.456 6.176 24.72 6.62 24.816 6.836C25.368 6.332 25.908 5.744 26.424 5.072V11.9H27.324V3.788C27.816 3.008 28.26 2.204 28.608 1.364L27.768 1.1ZM35.4 4.964L35.28 4.124L31.692 4.58C31.572 3.524 31.5 2.36 31.464 1.148H30.576C30.624 2.396 30.708 3.584 30.804 4.7L27.9 5.06L28.02 5.9L30.9 5.54C31.356 9.284 32.316 11.768 34.284 11.912C34.908 11.948 35.388 11.324 35.652 9.272C35.472 9.188 35.088 8.972 34.908 8.804C34.788 10.184 34.596 10.892 34.248 10.868C32.964 10.748 32.184 8.6 31.776 5.42L35.4 4.964ZM37.032 7.784C36.924 8.816 36.732 9.884 36.396 10.616C36.576 10.676 36.9 10.82 37.032 10.916C37.368 10.16 37.596 9.008 37.74 7.904L37.032 7.784ZM45.06 4.232H46.32C46.188 5.504 45.972 6.68 45.672 7.712C45.372 6.716 45.156 5.6 45 4.436L45.06 4.232ZM43.02 3.596H41.112V2.612H43.02V3.596ZM43.02 5.216H41.112V4.22H43.02V5.216ZM47.52 4.232V3.44H45.24C45.396 2.684 45.516 1.88 45.612 1.064L44.844 0.968C44.664 2.72 44.364 4.4 43.776 5.624V1.964H42.24C42.324 1.676 42.42 1.352 42.516 1.04L41.664 0.943999C41.628 1.232 41.556 1.616 41.472 1.964H40.38V5.876H41.676V6.908H40.368C40.236 6.308 39.948 5.528 39.636 4.904L39.012 5.132C39.168 5.468 39.312 5.84 39.432 6.212L37.968 6.248C38.7 5.228 39.516 3.836 40.128 2.696L39.408 2.384C39.132 3.008 38.76 3.74 38.34 4.46C38.172 4.208 37.956 3.944 37.704 3.692C38.112 3.032 38.592 2.072 38.964 1.268L38.22 0.991999C37.992 1.652 37.608 2.552 37.248 3.224C37.14 3.116 37.032 3.008 36.924 2.912L36.468 3.476C36.996 3.968 37.572 4.628 37.932 5.156C37.68 5.564 37.428 5.948 37.176 6.272L36.468 6.296L36.516 7.088C37.008 7.064 37.548 7.028 38.136 7.004V11.912H38.868V6.956L39.636 6.908C39.696 7.124 39.732 7.328 39.756 7.508L40.176 7.34V7.628H41.184C41.112 9.464 40.872 10.664 39.672 11.36C39.852 11.492 40.068 11.756 40.152 11.924C41.172 11.324 41.604 10.412 41.796 9.14H42.984C42.888 10.46 42.78 10.988 42.648 11.144C42.564 11.228 42.468 11.24 42.336 11.24C42.204 11.24 41.88 11.228 41.508 11.204C41.616 11.384 41.688 11.672 41.7 11.876C42.084 11.9 42.468 11.9 42.672 11.876C42.924 11.864 43.104 11.792 43.26 11.624C43.5 11.348 43.632 10.628 43.764 8.792C43.776 8.672 43.776 8.456 43.776 8.456H41.88C41.904 8.192 41.916 7.916 41.928 7.628H44.076V6.908H42.444V5.876H43.644C43.596 5.96 43.548 6.044 43.5 6.128C43.68 6.26 43.98 6.548 44.088 6.692C44.268 6.404 44.424 6.08 44.568 5.732C44.748 6.836 44.976 7.88 45.288 8.792C44.844 9.872 44.244 10.736 43.464 11.288C43.668 11.444 43.932 11.732 44.052 11.912C44.712 11.396 45.24 10.676 45.672 9.8C46.044 10.64 46.488 11.348 47.052 11.876C47.196 11.66 47.472 11.36 47.664 11.204C47.004 10.652 46.476 9.836 46.068 8.84C46.548 7.52 46.848 5.936 47.016 4.232H47.52ZM40.356 10.004C40.26 9.392 39.984 8.444 39.696 7.736L39.084 7.928C39.348 8.648 39.624 9.596 39.708 10.22L40.356 10.004ZM52.776 3.224H51.168V0.98H50.4V3.224H48.84V9.452H49.536V4.028H50.4V11.912H51.168V4.028H52.092V8.456C52.092 8.564 52.068 8.588 51.984 8.6C51.9 8.6 51.672 8.6 51.384 8.588C51.492 8.804 51.612 9.14 51.624 9.356C52.032 9.356 52.308 9.344 52.524 9.2C52.728 9.056 52.776 8.816 52.776 8.48V3.224ZM58.8 7.448C58.368 7.88 57.684 8.408 57.096 8.816C56.832 8.324 56.628 7.76 56.484 7.16H59.424V6.416H54.66V5.48H58.5V4.784H54.66V3.836H58.5V3.14H54.66V2.228H58.908V1.472H53.832V6.416H52.92V7.16H53.82V10.796C53.388 10.856 53.004 10.916 52.668 10.964L52.872 11.78C53.976 11.576 55.476 11.312 56.94 11.048L56.88 10.304C56.124 10.436 55.356 10.556 54.648 10.664V7.16H55.716C56.22 9.44 57.252 11.12 59.064 11.912C59.184 11.684 59.46 11.324 59.64 11.156C58.716 10.82 58.008 10.22 57.468 9.44C58.08 9.044 58.836 8.504 59.4 7.988L58.8 7.448ZM69.636 3.152H67.32V2.024H69.636V3.152ZM70.464 1.424H66.504V3.752H70.464V1.424ZM64.704 3.152H62.412V2.024H64.704V3.152ZM65.544 1.424H61.608V3.752H65.544V1.424ZM62.796 7.808V6.776H65.508V7.808H62.796ZM62.796 5.072H65.508V6.092H62.796V5.072ZM69.276 6.092H66.42V5.072H69.276V6.092ZM69.276 7.808H66.42V6.776H69.276V7.808ZM71.292 9.44H66.42V8.528H70.188V4.352H61.932V8.528H65.508V9.44H60.732V10.22H65.508V11.912H66.42V10.22H71.292V9.44Z" fill="white"/>
</svg>
