<svg width="56" height="14" viewBox="0 0 56 14" fill="none" xmlns="http://www.w3.org/2000/svg">
<path d="M3.234 8.094V6.652H6.44V8.094H3.234ZM3.234 4.398H6.44V5.826H3.234V4.398ZM10.766 4.398V5.826H7.49V4.398H10.766ZM10.766 8.094H7.49V6.652H10.766V8.094ZM13.272 10.096H7.49V8.948H11.802V3.53H7.49V2.508H12.796V1.556H7.49V0.296H6.44V1.556H1.204V2.508H6.44V3.53H2.24V8.948H6.44V10.096H0.784V11.034H6.44V13.106H7.49V11.034H13.272V10.096ZM21.056 6.162V4.692H23.086C23.058 5.168 22.974 5.672 22.764 6.162H21.056ZM21.056 2.452H23.086V3.908H21.056V2.452ZM26.012 3.908H23.982V2.452H26.012V3.908ZM26.012 6.162H23.744C23.898 5.672 23.954 5.182 23.982 4.692H26.012V6.162ZM26.964 6.988V1.626H23.366C23.576 1.262 23.814 0.855999 24.024 0.478L22.848 0.24C22.736 0.631999 22.526 1.164 22.316 1.626H20.118V6.988H22.274C21.826 7.562 21.112 8.108 20.034 8.57C20.244 8.71 20.58 8.976 20.72 9.158C22.106 8.57 22.918 7.8 23.38 6.988H26.964ZM16.38 5.014H19.796V4.104H18.634V0.296H17.724V4.104H16.38V0.575999H15.456V5.91C15.456 7.94 15.344 10.74 14.532 12.742C14.812 12.826 15.218 12.966 15.428 13.092C16.002 11.594 16.24 9.718 16.338 7.954H18.144V13.05H19.082V7.058H16.366C16.38 6.666 16.38 6.274 16.38 5.91V5.014ZM27.356 9.27H25.186V7.31H24.192V9.27H19.516V10.166H24.192V13.05H25.186V10.166H27.356V9.27ZM32.284 3.81H30.184V1.682H32.284V3.81ZM33.25 0.814H29.26V4.678H33.25V0.814ZM30.492 7.814C30.59 7.408 30.688 6.988 30.772 6.582H33.852V5.658H28.616V6.582H29.82C29.624 7.548 29.344 8.654 29.12 9.41L30.044 9.578C30.114 9.326 30.198 9.018 30.282 8.696H32.186C32.018 10.922 31.836 11.818 31.57 12.07C31.458 12.196 31.318 12.224 31.122 12.21C30.898 12.21 30.366 12.21 29.778 12.154C29.918 12.392 30.03 12.798 30.044 13.05C30.632 13.092 31.206 13.092 31.5 13.064C31.878 13.036 32.13 12.952 32.354 12.7C32.732 12.28 32.942 11.146 33.166 8.234C33.18 8.108 33.194 7.814 33.194 7.814H30.492ZM35.182 3.908H40.404C40.32 4.468 40.208 5.042 40.124 5.448L40.908 5.644C41.09 5.014 41.314 4.006 41.482 3.166L40.824 2.998L40.67 3.04H37.968V2.102H40.782V1.262H37.968V0.282H36.974V3.04H34.23V6.61C34.23 8.402 34.104 10.824 32.9 12.574C33.124 12.672 33.516 12.952 33.684 13.148C34.972 11.286 35.182 8.542 35.182 6.61V3.908ZM36.302 8.192C36.204 10.236 35.91 11.594 34.384 12.364C34.608 12.532 34.874 12.882 34.986 13.12C36.708 12.182 37.1 10.572 37.212 8.192H36.302ZM38.388 6.82C38.01 6.82 37.954 6.764 37.954 6.484V5.84L39.718 5.658L39.62 4.93L37.954 5.098V3.992H37.016V5.196L35.49 5.35L35.588 6.078L37.016 5.938V6.498C37.016 7.38 37.268 7.59 38.276 7.59H39.802C40.558 7.59 40.81 7.324 40.894 6.246C40.642 6.176 40.278 6.064 40.096 5.938C40.068 6.722 39.998 6.82 39.676 6.82H38.388ZM39.662 11.916C39.522 11.916 39.424 11.888 39.34 11.846C39.27 11.804 39.242 11.706 39.242 11.608V8.192H38.332V11.594C38.332 12.224 38.388 12.434 38.626 12.63C38.822 12.798 39.158 12.854 39.452 12.854H40.236C40.502 12.854 40.824 12.798 40.978 12.714C41.188 12.588 41.342 12.434 41.426 12.182C41.496 11.93 41.552 11.244 41.566 10.586C41.314 10.502 40.964 10.32 40.796 10.166C40.796 10.796 40.782 11.328 40.74 11.552C40.712 11.692 40.628 11.804 40.544 11.846C40.474 11.888 40.306 11.916 40.152 11.916H39.662ZM46.396 10.376H44.604V6.19H46.396V10.376ZM47.306 11.286V5.294H44.646C44.94 4.23 45.164 3.082 45.346 1.906H47.838V0.954H42.728V1.906H44.352C44.002 4.328 43.414 6.61 42.392 8.108C42.588 8.318 42.91 8.808 43.008 9.018C43.26 8.654 43.498 8.248 43.708 7.814V12.434H44.604V11.286H47.306ZM47.95 12.434C48.622 11.678 48.874 10.376 49.014 9.172L48.23 8.976C48.104 10.124 47.824 11.328 47.222 12.014L47.95 12.434ZM49.574 9.41C49.728 10.222 49.812 11.286 49.784 11.986L50.554 11.86C50.568 11.174 50.456 10.124 50.288 9.298L49.574 9.41ZM51.058 9.298C51.338 9.984 51.59 10.866 51.674 11.454L52.388 11.244C52.29 10.67 52.024 9.774 51.73 9.116L51.058 9.298ZM49.378 6.05H51.31V7.38H49.378V6.05ZM51.31 1.794V3.068H49.378V1.794H51.31ZM51.31 5.21H49.378V3.908H51.31V5.21ZM52.234 7.38V6.05H54.572V5.21H52.234V3.908H54.572V3.068H52.234V1.794H54.894V0.884H48.426V8.29H54.194C54.068 10.824 53.9 11.804 53.676 12.07C53.55 12.196 53.452 12.224 53.228 12.224C53.018 12.224 52.458 12.21 51.87 12.154C52.01 12.406 52.108 12.784 52.122 13.05C52.752 13.092 53.34 13.092 53.662 13.064C54.04 13.036 54.264 12.938 54.488 12.672C54.838 12.266 55.006 11.062 55.16 7.814C55.174 7.674 55.174 7.38 55.174 7.38H52.234ZM53.984 10.376C53.802 9.942 53.41 9.256 53.018 8.752L52.444 8.99C52.808 9.508 53.214 10.208 53.382 10.67L53.984 10.376Z" fill="#0697DB"/>
</svg>
