<svg width="53" height="18" viewBox="0 0 53 18" fill="none" xmlns="http://www.w3.org/2000/svg">
<path d="M5.688 2.68V3.85H17.136V2.68H12.006V1.006H10.674V2.68H5.688ZM8.334 5.776H14.418V7.468H8.334V5.776ZM15.732 8.404V4.84H7.074V8.404H15.732ZM4.806 1.006C3.78 3.742 2.124 6.424 0.36 8.152C0.612 8.44 0.972 9.142 1.116 9.448C1.746 8.8 2.358 8.062 2.934 7.234V17.332H4.194V5.272C4.914 4.03 5.544 2.716 6.048 1.384L4.806 1.006ZM7.434 12.832H10.674V15.91C10.674 16.126 10.602 16.198 10.314 16.198C10.044 16.216 9.108 16.216 8.046 16.18C8.208 16.54 8.406 17.026 8.46 17.386C9.792 17.386 10.71 17.386 11.268 17.188C11.844 17.008 11.988 16.666 11.988 15.946V12.832H15.408V11.734H7.434V12.832ZM5.382 9.448V12.544H6.588V10.528H16.074V12.508H17.298V9.448H5.382ZM22.158 10.978V9.124H26.28V10.978H22.158ZM22.158 6.226H26.28V8.062H22.158V6.226ZM31.842 6.226V8.062H27.63V6.226H31.842ZM31.842 10.978H27.63V9.124H31.842V10.978ZM35.064 13.552H27.63V12.076H33.174V5.11H27.63V3.796H34.452V2.572H27.63V0.952H26.28V2.572H19.548V3.796H26.28V5.11H20.88V12.076H26.28V13.552H19.008V14.758H26.28V17.422H27.63V14.758H35.064V13.552ZM39.762 4.732H42.354C42.336 5.074 42.264 5.398 42.12 5.704H39.42L39.762 4.732ZM43.614 2.824H46.386V3.85H43.614V2.824ZM50.436 2.824V3.85H47.646V2.824H50.436ZM46.386 5.704H43.452C43.524 5.398 43.578 5.074 43.596 4.732H46.386V5.704ZM51.444 6.586C51.372 7.054 51.3 7.306 51.21 7.414C51.102 7.486 50.994 7.504 50.778 7.504C50.598 7.504 50.094 7.486 49.536 7.45C49.608 7.594 49.68 7.792 49.734 7.972H41.742C42.39 7.558 42.822 7.09 43.092 6.586H46.386V7.936H47.646V6.586H51.444ZM49.608 9.952H40.608V8.836H49.608V9.952ZM49.608 11.878H40.608V10.78H49.608V11.878ZM49.608 13.84H40.608V12.724H49.608V13.84ZM39.312 14.704H50.94V8.368H51.372C51.732 8.35 52.02 8.26 52.236 8.044C52.524 7.756 52.632 7.234 52.758 6.136C52.776 5.974 52.794 5.704 52.794 5.704H47.646V4.732H51.642V1.942H47.646V0.952H46.386V1.942H43.614V0.952H42.39V1.942H37.998V2.824H42.39V3.85H38.808C38.502 4.804 38.124 5.938 37.746 6.748L38.988 6.82L39.078 6.586H41.526C40.788 7.324 39.456 7.918 37.08 8.368C37.314 8.602 37.584 9.106 37.71 9.394C38.304 9.268 38.826 9.142 39.312 9.016V14.704ZM42.336 14.884C41.04 15.514 38.88 16.09 37.026 16.432C37.332 16.666 37.782 17.17 37.998 17.422C39.798 16.99 42.066 16.234 43.542 15.424L42.336 14.884ZM46.44 15.586C48.456 16.18 50.418 16.864 51.57 17.386L52.992 16.684C51.66 16.162 49.5 15.424 47.52 14.884L46.44 15.586Z" fill="#666666"/>
</svg>
