<svg width="84" height="13" viewBox="0 0 84 13" fill="none" xmlns="http://www.w3.org/2000/svg">
<path d="M4.45031 1.376H1.04231V2.096H4.45031V1.376ZM4.88231 2.948H0.442313V3.68H4.88231V2.948ZM4.47431 4.568H0.994313V5.276H4.47431V4.568ZM0.994313 6.872H4.47431V6.152H0.994313V6.872ZM3.71831 8.492V10.508H1.76231V8.492H3.71831ZM4.48631 7.76H0.982313V11.78H1.76231V11.228H4.48631V7.76ZM6.57431 9.032V8.168H9.82631V9.032H6.57431ZM9.82631 6.68V7.532H6.57431V6.68H9.82631ZM10.6663 5.996H5.74631V11.888H6.57431V9.668H9.82631V10.964C9.82631 11.108 9.79031 11.144 9.64631 11.156C9.49031 11.156 8.99831 11.168 8.45831 11.144C8.57831 11.348 8.68631 11.66 8.71031 11.876C9.45431 11.876 9.95831 11.876 10.2703 11.756C10.5823 11.624 10.6663 11.408 10.6663 10.976V5.996ZM8.53031 4.616V3.824H10.9543V3.164H8.53031V2.444H11.1343V1.772H8.53031V0.956H7.67831V1.772H5.14631V2.444H7.67831V3.164H5.45831V3.824H7.67831V4.616H4.84631V5.3H11.3983V4.616H8.53031ZM21.9943 2.828H19.6903V4.076C19.6903 4.796 19.9423 4.976 20.8303 4.976H22.4383C23.0743 4.976 23.3023 4.76 23.3863 3.956C23.1703 3.908 22.8823 3.812 22.7263 3.704C22.6903 4.268 22.6303 4.34 22.3423 4.34H20.9143C20.5183 4.34 20.4463 4.292 20.4463 4.064V3.452H22.7863V1.424H19.4623V2.048H21.9943V2.828ZM18.1303 2.828H15.7783V4.076C15.7783 4.796 16.0063 4.976 16.8943 4.976H18.3823C18.9943 4.976 19.2223 4.772 19.3063 3.992C19.0903 3.956 18.8023 3.86 18.6463 3.74C18.6103 4.268 18.5503 4.34 18.2623 4.34H16.9663C16.5823 4.34 16.5223 4.292 16.5223 4.076V3.452H18.8863V1.424H15.5623V2.048H18.1303V2.828ZM18.3223 6.68H20.2903V7.82H18.3223V6.68ZM23.3143 7.82H21.1423V6.68H22.9423V5.996H21.1423V5.132H20.2903V5.996H18.3223V5.132H17.4943V5.996H15.7183V6.68H17.4943V7.82H15.3343V8.516H23.3143V7.82ZM23.1343 10.112C22.5703 9.668 21.5863 9.092 20.7103 8.672L20.0743 9.068C20.9023 9.488 21.7663 10.052 22.2703 10.496L23.1343 10.112ZM17.8903 8.648C17.3623 9.128 16.4743 9.584 15.6583 9.908C15.8503 10.028 16.1743 10.316 16.3183 10.472C17.1103 10.088 18.0703 9.5 18.6823 8.924L17.8903 8.648ZM15.1063 3.236C14.7703 2.636 13.9783 1.808 13.2703 1.244L12.5863 1.7C13.2823 2.288 14.0503 3.14 14.3623 3.74L15.1063 3.236ZM14.8303 5.66H12.5263V6.5H14.0023V9.596C13.4743 10.1 12.8863 10.604 12.3823 10.976L12.8503 11.804C13.4263 11.276 13.9663 10.772 14.4703 10.244C15.2143 11.192 16.3063 11.624 17.8903 11.684C19.2463 11.732 21.8383 11.708 23.1943 11.648C23.2303 11.396 23.3743 11 23.4823 10.808C22.0183 10.904 19.2223 10.94 17.8663 10.88C16.4623 10.82 15.3943 10.412 14.8303 9.512V5.66ZM27.9943 6.008C27.5983 6.14 27.2023 6.272 26.8063 6.392V4.184H28.0903V3.368H26.8063V0.968H25.9783V3.368H24.4783V4.184H25.9783V6.644C25.3543 6.836 24.7783 7.016 24.3223 7.136L24.5503 8L25.9783 7.532V10.88C25.9783 11.06 25.9183 11.096 25.7743 11.096C25.6303 11.108 25.1623 11.108 24.6463 11.096C24.7663 11.336 24.8743 11.708 24.9103 11.912C25.6543 11.924 26.1103 11.888 26.3983 11.756C26.6983 11.612 26.8063 11.372 26.8063 10.88V7.268L28.1143 6.836L27.9943 6.008ZM32.9263 8.108H30.5143L30.8503 8.012C30.7903 7.724 30.5983 7.292 30.4183 6.968H33.1423C33.0103 7.304 32.8063 7.736 32.6503 8.024L32.9263 8.108ZM31.2103 2.096H32.3983V3.356H31.2103V2.096ZM30.4903 3.356H29.3503V2.096H30.4903V3.356ZM33.1183 2.096H34.3303V3.356H33.1183V2.096ZM35.4343 6.26H32.1703V5.408H34.8463V4.736H32.1703V3.992H35.0743V1.448H28.6183V3.992H31.3303V4.736H28.7503V5.408H31.3303V6.26H28.1623V6.968H30.1303L29.6383 7.088C29.8063 7.388 29.9743 7.796 30.0583 8.108H28.2703V8.804H31.3303V9.656H28.5223V10.352H31.3303V12.008H32.1703V10.352H35.0023V9.656H32.1703V8.804H35.2663V8.108H33.4063C33.5983 7.796 33.8143 7.412 34.0423 7.016L33.8623 6.968H35.4343V6.26ZM38.7103 7.652V6.416H41.4583V7.652H38.7103ZM38.7103 4.484H41.4583V5.708H38.7103V4.484ZM45.1663 4.484V5.708H42.3583V4.484H45.1663ZM45.1663 7.652H42.3583V6.416H45.1663V7.652ZM47.3143 9.368H42.3583V8.384H46.0543V3.74H42.3583V2.864H46.9063V2.048H42.3583V0.968H41.4583V2.048H36.9703V2.864H41.4583V3.74H37.8583V8.384H41.4583V9.368H36.6103V10.172H41.4583V11.948H42.3583V10.172H47.3143V9.368ZM53.9863 5.996V4.736H55.7263C55.7023 5.144 55.6303 5.576 55.4503 5.996H53.9863ZM53.9863 2.816H55.7263V4.064H53.9863V2.816ZM58.2343 4.064H56.4943V2.816H58.2343V4.064ZM58.2343 5.996H56.2903C56.4223 5.576 56.4703 5.156 56.4943 4.736H58.2343V5.996ZM59.0503 6.704V2.108H55.9663C56.1463 1.796 56.3503 1.448 56.5303 1.124L55.5223 0.92C55.4263 1.256 55.2463 1.712 55.0663 2.108H53.1823V6.704H55.0303C54.6463 7.196 54.0343 7.664 53.1103 8.06C53.2903 8.18 53.5783 8.408 53.6983 8.564C54.8863 8.06 55.5823 7.4 55.9783 6.704H59.0503ZM49.9783 5.012H52.9063V4.232H51.9103V0.968H51.1303V4.232H49.9783V1.208H49.1863V5.78C49.1863 7.52 49.0903 9.92 48.3943 11.636C48.6343 11.708 48.9823 11.828 49.1623 11.936C49.6543 10.652 49.8583 9.044 49.9423 7.532H51.4903V11.9H52.2943V6.764H49.9663C49.9783 6.428 49.9783 6.092 49.9783 5.78V5.012ZM59.3863 8.66H57.5263V6.98H56.6743V8.66H52.6663V9.428H56.6743V11.9H57.5263V9.428H59.3863V8.66ZM63.6103 3.98H61.8103V2.156H63.6103V3.98ZM64.4383 1.412H61.0183V4.724H64.4383V1.412ZM62.0743 7.412C62.1583 7.064 62.2423 6.704 62.3143 6.356H64.9543V5.564H60.4663V6.356H61.4983C61.3303 7.184 61.0903 8.132 60.8983 8.78L61.6903 8.924C61.7503 8.708 61.8223 8.444 61.8943 8.168H63.5263C63.3823 10.076 63.2263 10.844 62.9983 11.06C62.9023 11.168 62.7823 11.192 62.6143 11.18C62.4223 11.18 61.9663 11.18 61.4623 11.132C61.5823 11.336 61.6783 11.684 61.6903 11.9C62.1943 11.936 62.6863 11.936 62.9383 11.912C63.2623 11.888 63.4783 11.816 63.6703 11.6C63.9943 11.24 64.1743 10.268 64.3663 7.772C64.3783 7.664 64.3903 7.412 64.3903 7.412H62.0743ZM66.0943 4.064H70.5703C70.4983 4.544 70.4023 5.036 70.3303 5.384L71.0023 5.552C71.1583 5.012 71.3503 4.148 71.4943 3.428L70.9303 3.284L70.7983 3.32H68.4823V2.516H70.8943V1.796H68.4823V0.956H67.6303V3.32H65.2783V6.38C65.2783 7.916 65.1703 9.992 64.1383 11.492C64.3303 11.576 64.6663 11.816 64.8103 11.984C65.9143 10.388 66.0943 8.036 66.0943 6.38V4.064ZM67.0543 7.736C66.9703 9.488 66.7183 10.652 65.4103 11.312C65.6023 11.456 65.8303 11.756 65.9263 11.96C67.4023 11.156 67.7383 9.776 67.8343 7.736H67.0543ZM68.8423 6.56C68.5183 6.56 68.4703 6.512 68.4703 6.272V5.72L69.9823 5.564L69.8983 4.94L68.4703 5.084V4.136H67.6663V5.168L66.3583 5.3L66.4423 5.924L67.6663 5.804V6.284C67.6663 7.04 67.8823 7.22 68.7463 7.22H70.0543C70.7023 7.22 70.9183 6.992 70.9903 6.068C70.7743 6.008 70.4623 5.912 70.3063 5.804C70.2823 6.476 70.2223 6.56 69.9463 6.56H68.8423ZM69.9343 10.928C69.8143 10.928 69.7303 10.904 69.6583 10.868C69.5983 10.832 69.5743 10.748 69.5743 10.664V7.736H68.7943V10.652C68.7943 11.192 68.8423 11.372 69.0463 11.54C69.2143 11.684 69.5023 11.732 69.7543 11.732H70.4263C70.6543 11.732 70.9303 11.684 71.0623 11.612C71.2423 11.504 71.3743 11.372 71.4463 11.156C71.5063 10.94 71.5543 10.352 71.5663 9.788C71.3503 9.716 71.0503 9.56 70.9063 9.428C70.9063 9.968 70.8943 10.424 70.8583 10.616C70.8343 10.736 70.7623 10.832 70.6903 10.868C70.6303 10.904 70.4863 10.928 70.3543 10.928H69.9343ZM75.7063 9.608H74.1703V6.02H75.7063V9.608ZM76.4863 10.388V5.252H74.2063C74.4583 4.34 74.6503 3.356 74.8063 2.348H76.9423V1.532H72.5623V2.348H73.9543C73.6543 4.424 73.1503 6.38 72.2743 7.664C72.4423 7.844 72.7183 8.264 72.8023 8.444C73.0183 8.132 73.2223 7.784 73.4023 7.412V11.372H74.1703V10.388H76.4863ZM77.0383 11.372C77.6143 10.724 77.8303 9.608 77.9503 8.576L77.2783 8.408C77.1703 9.392 76.9303 10.424 76.4143 11.012L77.0383 11.372ZM78.4303 8.78C78.5623 9.476 78.6343 10.388 78.6103 10.988L79.2703 10.88C79.2823 10.292 79.1863 9.392 79.0423 8.684L78.4303 8.78ZM79.7023 8.684C79.9423 9.272 80.1583 10.028 80.2303 10.532L80.8423 10.352C80.7583 9.86 80.5303 9.092 80.2783 8.528L79.7023 8.684ZM78.2623 5.9H79.9183V7.04H78.2623V5.9ZM79.9183 2.252V3.344H78.2623V2.252H79.9183ZM79.9183 5.18H78.2623V4.064H79.9183V5.18ZM80.7103 7.04V5.9H82.7143V5.18H80.7103V4.064H82.7143V3.344H80.7103V2.252H82.9903V1.472H77.4463V7.82H82.3903C82.2823 9.992 82.1383 10.832 81.9463 11.06C81.8383 11.168 81.7543 11.192 81.5623 11.192C81.3823 11.192 80.9023 11.18 80.3983 11.132C80.5183 11.348 80.6023 11.672 80.6143 11.9C81.1543 11.936 81.6583 11.936 81.9343 11.912C82.2583 11.888 82.4503 11.804 82.6423 11.576C82.9423 11.228 83.0863 10.196 83.2183 7.412C83.2303 7.292 83.2303 7.04 83.2303 7.04H80.7103ZM82.2103 9.608C82.0543 9.236 81.7183 8.648 81.3823 8.216L80.8903 8.42C81.2023 8.864 81.5503 9.464 81.6943 9.86L82.2103 9.608Z" fill="#A4A4A4"/>
</svg>
