<svg width="84" height="12" viewBox="0 0 84 12" fill="none" xmlns="http://www.w3.org/2000/svg">
<path d="M4.45031 1.376H1.04231V2.096H4.45031V1.376ZM4.88231 2.948H0.442313V3.68H4.88231V2.948ZM4.47431 4.568H0.994313V5.276H4.47431V4.568ZM0.994313 6.872H4.47431V6.152H0.994313V6.872ZM3.71831 8.492V10.508H1.76231V8.492H3.71831ZM4.48631 7.76H0.982313V11.78H1.76231V11.228H4.48631V7.76ZM6.57431 9.032V8.168H9.82631V9.032H6.57431ZM9.82631 6.68V7.532H6.57431V6.68H9.82631ZM10.6663 5.996H5.74631V11.888H6.57431V9.668H9.82631V10.964C9.82631 11.108 9.79031 11.144 9.64631 11.156C9.49031 11.156 8.99831 11.168 8.45831 11.144C8.57831 11.348 8.68631 11.66 8.71031 11.876C9.45431 11.876 9.95831 11.876 10.2703 11.756C10.5823 11.624 10.6663 11.408 10.6663 10.976V5.996ZM8.53031 4.616V3.824H10.9543V3.164H8.53031V2.444H11.1343V1.772H8.53031V0.956H7.67831V1.772H5.14631V2.444H7.67831V3.164H5.45831V3.824H7.67831V4.616H4.84631V5.3H11.3983V4.616H8.53031ZM13.4503 6.32H14.5183V7.412H13.4503V6.32ZM13.4503 4.604H14.5183V5.684H13.4503V4.604ZM16.1983 5.684H15.1183V4.604H16.1983V5.684ZM16.1983 7.412H15.1183V6.32H16.1983V7.412ZM15.2143 8.084H16.8823V3.932H15.2143V3.02H17.1343V2.252H15.2143V0.956H14.4223V2.252H12.5983V3.02H14.4223V3.932H12.7783V8.084H14.4223V9.044H12.4543V9.836H14.4223V11.924H15.2143V9.836H17.0983V9.044H15.2143V8.084ZM18.0943 8.888V7.892H19.4503V8.888H18.0943ZM19.4503 6.332V7.256H18.0943V6.332H19.4503ZM20.1103 5.66H17.4343V11.876H18.0943V9.56H19.4503V11.144C19.4503 11.228 19.4263 11.264 19.3423 11.264H18.7423C18.8143 11.444 18.9103 11.732 18.9223 11.9C19.3663 11.9 19.6543 11.9 19.8583 11.78C20.0503 11.66 20.1103 11.468 20.1103 11.144V5.66ZM21.8983 4.016H18.5983V4.736H21.8983V4.016ZM21.4423 5.912H20.7823V10.112H21.4423V5.912ZM22.3903 11.036C22.3903 11.168 22.3423 11.192 22.2103 11.204C22.0783 11.216 21.6343 11.216 21.1423 11.204C21.2383 11.396 21.3343 11.696 21.3703 11.876C22.0663 11.876 22.4863 11.864 22.7743 11.768C23.0383 11.636 23.1223 11.432 23.1223 11.048V5.468H22.3903V11.036ZM19.8223 1.004C19.2583 2.132 18.1183 3.44 16.9063 4.148C17.0503 4.352 17.2543 4.664 17.3503 4.88C18.5623 4.112 19.6543 2.888 20.2543 1.832C20.9263 2.9 22.0903 4.088 23.1943 4.784C23.3263 4.544 23.5183 4.208 23.6743 4.016C22.5583 3.404 21.3583 2.216 20.6143 1.004H19.8223ZM26.6983 1.688V2.576H29.6503C29.6743 3.032 29.7223 3.56 29.8063 4.112L29.2783 4.028C28.5463 7.388 27.0703 9.8 24.4183 11.18C24.6583 11.336 25.0543 11.708 25.2223 11.888C27.6103 10.484 29.1223 8.3 30.0103 5.192C30.5503 7.46 31.8223 10.088 34.7743 11.876C34.9303 11.66 35.2903 11.276 35.4943 11.132C30.7903 8.336 30.5143 3.812 30.5143 1.688H26.6983ZM38.7103 7.652V6.416H41.4583V7.652H38.7103ZM38.7103 4.484H41.4583V5.708H38.7103V4.484ZM45.1663 4.484V5.708H42.3583V4.484H45.1663ZM45.1663 7.652H42.3583V6.416H45.1663V7.652ZM47.3143 9.368H42.3583V8.384H46.0543V3.74H42.3583V2.864H46.9063V2.048H42.3583V0.968H41.4583V2.048H36.9703V2.864H41.4583V3.74H37.8583V8.384H41.4583V9.368H36.6103V10.172H41.4583V11.948H42.3583V10.172H47.3143V9.368ZM53.9863 5.996V4.736H55.7263C55.7023 5.144 55.6303 5.576 55.4503 5.996H53.9863ZM53.9863 2.816H55.7263V4.064H53.9863V2.816ZM58.2343 4.064H56.4943V2.816H58.2343V4.064ZM58.2343 5.996H56.2903C56.4223 5.576 56.4703 5.156 56.4943 4.736H58.2343V5.996ZM59.0503 6.704V2.108H55.9663C56.1463 1.796 56.3503 1.448 56.5303 1.124L55.5223 0.92C55.4263 1.256 55.2463 1.712 55.0663 2.108H53.1823V6.704H55.0303C54.6463 7.196 54.0343 7.664 53.1103 8.06C53.2903 8.18 53.5783 8.408 53.6983 8.564C54.8863 8.06 55.5823 7.4 55.9783 6.704H59.0503ZM49.9783 5.012H52.9063V4.232H51.9103V0.968H51.1303V4.232H49.9783V1.208H49.1863V5.78C49.1863 7.52 49.0903 9.92 48.3943 11.636C48.6343 11.708 48.9823 11.828 49.1623 11.936C49.6543 10.652 49.8583 9.044 49.9423 7.532H51.4903V11.9H52.2943V6.764H49.9663C49.9783 6.428 49.9783 6.092 49.9783 5.78V5.012ZM59.3863 8.66H57.5263V6.98H56.6743V8.66H52.6663V9.428H56.6743V11.9H57.5263V9.428H59.3863V8.66ZM63.6103 3.98H61.8103V2.156H63.6103V3.98ZM64.4383 1.412H61.0183V4.724H64.4383V1.412ZM62.0743 7.412C62.1583 7.064 62.2423 6.704 62.3143 6.356H64.9543V5.564H60.4663V6.356H61.4983C61.3303 7.184 61.0903 8.132 60.8983 8.78L61.6903 8.924C61.7503 8.708 61.8223 8.444 61.8943 8.168H63.5263C63.3823 10.076 63.2263 10.844 62.9983 11.06C62.9023 11.168 62.7823 11.192 62.6143 11.18C62.4223 11.18 61.9663 11.18 61.4623 11.132C61.5823 11.336 61.6783 11.684 61.6903 11.9C62.1943 11.936 62.6863 11.936 62.9383 11.912C63.2623 11.888 63.4783 11.816 63.6703 11.6C63.9943 11.24 64.1743 10.268 64.3663 7.772C64.3783 7.664 64.3903 7.412 64.3903 7.412H62.0743ZM66.0943 4.064H70.5703C70.4983 4.544 70.4023 5.036 70.3303 5.384L71.0023 5.552C71.1583 5.012 71.3503 4.148 71.4943 3.428L70.9303 3.284L70.7983 3.32H68.4823V2.516H70.8943V1.796H68.4823V0.956H67.6303V3.32H65.2783V6.38C65.2783 7.916 65.1703 9.992 64.1383 11.492C64.3303 11.576 64.6663 11.816 64.8103 11.984C65.9143 10.388 66.0943 8.036 66.0943 6.38V4.064ZM67.0543 7.736C66.9703 9.488 66.7183 10.652 65.4103 11.312C65.6023 11.456 65.8303 11.756 65.9263 11.96C67.4023 11.156 67.7383 9.776 67.8343 7.736H67.0543ZM68.8423 6.56C68.5183 6.56 68.4703 6.512 68.4703 6.272V5.72L69.9823 5.564L69.8983 4.94L68.4703 5.084V4.136H67.6663V5.168L66.3583 5.3L66.4423 5.924L67.6663 5.804V6.284C67.6663 7.04 67.8823 7.22 68.7463 7.22H70.0543C70.7023 7.22 70.9183 6.992 70.9903 6.068C70.7743 6.008 70.4623 5.912 70.3063 5.804C70.2823 6.476 70.2223 6.56 69.9463 6.56H68.8423ZM69.9343 10.928C69.8143 10.928 69.7303 10.904 69.6583 10.868C69.5983 10.832 69.5743 10.748 69.5743 10.664V7.736H68.7943V10.652C68.7943 11.192 68.8423 11.372 69.0463 11.54C69.2143 11.684 69.5023 11.732 69.7543 11.732H70.4263C70.6543 11.732 70.9303 11.684 71.0623 11.612C71.2423 11.504 71.3743 11.372 71.4463 11.156C71.5063 10.94 71.5543 10.352 71.5663 9.788C71.3503 9.716 71.0503 9.56 70.9063 9.428C70.9063 9.968 70.8943 10.424 70.8583 10.616C70.8343 10.736 70.7623 10.832 70.6903 10.868C70.6303 10.904 70.4863 10.928 70.3543 10.928H69.9343ZM75.7063 9.608H74.1703V6.02H75.7063V9.608ZM76.4863 10.388V5.252H74.2063C74.4583 4.34 74.6503 3.356 74.8063 2.348H76.9423V1.532H72.5623V2.348H73.9543C73.6543 4.424 73.1503 6.38 72.2743 7.664C72.4423 7.844 72.7183 8.264 72.8023 8.444C73.0183 8.132 73.2223 7.784 73.4023 7.412V11.372H74.1703V10.388H76.4863ZM77.0383 11.372C77.6143 10.724 77.8303 9.608 77.9503 8.576L77.2783 8.408C77.1703 9.392 76.9303 10.424 76.4143 11.012L77.0383 11.372ZM78.4303 8.78C78.5623 9.476 78.6343 10.388 78.6103 10.988L79.2703 10.88C79.2823 10.292 79.1863 9.392 79.0423 8.684L78.4303 8.78ZM79.7023 8.684C79.9423 9.272 80.1583 10.028 80.2303 10.532L80.8423 10.352C80.7583 9.86 80.5303 9.092 80.2783 8.528L79.7023 8.684ZM78.2623 5.9H79.9183V7.04H78.2623V5.9ZM79.9183 2.252V3.344H78.2623V2.252H79.9183ZM79.9183 5.18H78.2623V4.064H79.9183V5.18ZM80.7103 7.04V5.9H82.7143V5.18H80.7103V4.064H82.7143V3.344H80.7103V2.252H82.9903V1.472H77.4463V7.82H82.3903C82.2823 9.992 82.1383 10.832 81.9463 11.06C81.8383 11.168 81.7543 11.192 81.5623 11.192C81.3823 11.192 80.9023 11.18 80.3983 11.132C80.5183 11.348 80.6023 11.672 80.6143 11.9C81.1543 11.936 81.6583 11.936 81.9343 11.912C82.2583 11.888 82.4503 11.804 82.6423 11.576C82.9423 11.228 83.0863 10.196 83.2183 7.412C83.2303 7.292 83.2303 7.04 83.2303 7.04H80.7103ZM82.2103 9.608C82.0543 9.236 81.7183 8.648 81.3823 8.216L80.8903 8.42C81.2023 8.864 81.5503 9.464 81.6943 9.86L82.2103 9.608Z" fill="#A4A4A4"/>
</svg>
