<svg width="39" height="14" viewBox="0 0 39 14" fill="none" xmlns="http://www.w3.org/2000/svg">
<path d="M5.45048 1.376H2.04248V2.096H5.45048V1.376ZM5.88248 2.948H1.44248V3.68H5.88248V2.948ZM5.47448 4.568H1.99448V5.276H5.47448V4.568ZM1.99448 6.872H5.47448V6.152H1.99448V6.872ZM4.71848 8.492V10.508H2.76248V8.492H4.71848ZM5.48648 7.76H1.98248V11.78H2.76248V11.228H5.48648V7.76ZM7.57448 9.032V8.168H10.8265V9.032H7.57448ZM10.8265 6.68V7.532H7.57448V6.68H10.8265ZM11.6665 5.996H6.74648V11.888H7.57448V9.668H10.8265V10.964C10.8265 11.108 10.7905 11.144 10.6465 11.156C10.4905 11.156 9.99848 11.168 9.45848 11.144C9.57848 11.348 9.68648 11.66 9.71048 11.876C10.4545 11.876 10.9585 11.876 11.2705 11.756C11.5825 11.624 11.6665 11.408 11.6665 10.976V5.996ZM9.53048 4.616V3.824H11.9545V3.164H9.53048V2.444H12.1345V1.772H9.53048V0.956H8.67848V1.772H6.14648V2.444H8.67848V3.164H6.45848V3.824H8.67848V4.616H5.84648V5.3H12.3985V4.616H9.53048ZM22.9945 2.828H20.6905V4.076C20.6905 4.796 20.9425 4.976 21.8305 4.976H23.4385C24.0745 4.976 24.3025 4.76 24.3865 3.956C24.1705 3.908 23.8825 3.812 23.7265 3.704C23.6905 4.268 23.6305 4.34 23.3425 4.34H21.9145C21.5185 4.34 21.4465 4.292 21.4465 4.064V3.452H23.7865V1.424H20.4625V2.048H22.9945V2.828ZM19.1305 2.828H16.7785V4.076C16.7785 4.796 17.0065 4.976 17.8945 4.976H19.3825C19.9945 4.976 20.2225 4.772 20.3065 3.992C20.0905 3.956 19.8025 3.86 19.6465 3.74C19.6105 4.268 19.5505 4.34 19.2625 4.34H17.9665C17.5825 4.34 17.5225 4.292 17.5225 4.076V3.452H19.8865V1.424H16.5625V2.048H19.1305V2.828ZM19.3225 6.68H21.2905V7.82H19.3225V6.68ZM24.3145 7.82H22.1425V6.68H23.9425V5.996H22.1425V5.132H21.2905V5.996H19.3225V5.132H18.4945V5.996H16.7185V6.68H18.4945V7.82H16.3345V8.516H24.3145V7.82ZM24.1345 10.112C23.5705 9.668 22.5865 9.092 21.7105 8.672L21.0745 9.068C21.9025 9.488 22.7665 10.052 23.2705 10.496L24.1345 10.112ZM18.8905 8.648C18.3625 9.128 17.4745 9.584 16.6585 9.908C16.8505 10.028 17.1745 10.316 17.3185 10.472C18.1105 10.088 19.0705 9.5 19.6825 8.924L18.8905 8.648ZM16.1065 3.236C15.7705 2.636 14.9785 1.808 14.2705 1.244L13.5865 1.7C14.2825 2.288 15.0505 3.14 15.3625 3.74L16.1065 3.236ZM15.8305 5.66H13.5265V6.5H15.0025V9.596C14.4745 10.1 13.8865 10.604 13.3825 10.976L13.8505 11.804C14.4265 11.276 14.9665 10.772 15.4705 10.244C16.2145 11.192 17.3065 11.624 18.8905 11.684C20.2465 11.732 22.8385 11.708 24.1945 11.648C24.2305 11.396 24.3745 11 24.4825 10.808C23.0185 10.904 20.2225 10.94 18.8665 10.88C17.4625 10.82 16.3945 10.412 15.8305 9.512V5.66ZM28.9945 6.008C28.5985 6.14 28.2025 6.272 27.8065 6.392V4.184H29.0905V3.368H27.8065V0.968H26.9785V3.368H25.4785V4.184H26.9785V6.644C26.3545 6.836 25.7785 7.016 25.3225 7.136L25.5505 8L26.9785 7.532V10.88C26.9785 11.06 26.9185 11.096 26.7745 11.096C26.6305 11.108 26.1625 11.108 25.6465 11.096C25.7665 11.336 25.8745 11.708 25.9105 11.912C26.6545 11.924 27.1105 11.888 27.3985 11.756C27.6985 11.612 27.8065 11.372 27.8065 10.88V7.268L29.1145 6.836L28.9945 6.008ZM33.9265 8.108H31.5145L31.8505 8.012C31.7905 7.724 31.5985 7.292 31.4185 6.968H34.1425C34.0105 7.304 33.8065 7.736 33.6505 8.024L33.9265 8.108ZM32.2105 2.096H33.3985V3.356H32.2105V2.096ZM31.4905 3.356H30.3505V2.096H31.4905V3.356ZM34.1185 2.096H35.3305V3.356H34.1185V2.096ZM36.4345 6.26H33.1705V5.408H35.8465V4.736H33.1705V3.992H36.0745V1.448H29.6185V3.992H32.3305V4.736H29.7505V5.408H32.3305V6.26H29.1625V6.968H31.1305L30.6385 7.088C30.8065 7.388 30.9745 7.796 31.0585 8.108H29.2705V8.804H32.3305V9.656H29.5225V10.352H32.3305V12.008H33.1705V10.352H36.0025V9.656H33.1705V8.804H36.2665V8.108H34.4065C34.5985 7.796 34.8145 7.412 35.0425 7.016L34.8625 6.968H36.4345V6.26Z" fill="#A4A4A4"/>
</svg>
