<svg width="70" height="14" viewBox="0 0 70 14" fill="none" xmlns="http://www.w3.org/2000/svg">
<path d="M5.264 0.771999H1.288V1.612H5.264V0.771999ZM5.768 2.606H0.588V3.46H5.768V2.606ZM5.292 4.496H1.232V5.322H5.292V4.496ZM1.232 7.184H5.292V6.344H1.232V7.184ZM4.41 9.074V11.426H2.128V9.074H4.41ZM5.306 8.22H1.218V12.91H2.128V12.266H5.306V8.22ZM7.742 9.704V8.696H11.536V9.704H7.742ZM11.536 6.96V7.954H7.742V6.96H11.536ZM12.516 6.162H6.776V13.036H7.742V10.446H11.536V11.958C11.536 12.126 11.494 12.168 11.326 12.182C11.144 12.182 10.57 12.196 9.94 12.168C10.08 12.406 10.206 12.77 10.234 13.022C11.102 13.022 11.69 13.022 12.054 12.882C12.418 12.728 12.516 12.476 12.516 11.972V6.162ZM10.024 4.552V3.628H12.852V2.858H10.024V2.018H13.062V1.234H10.024V0.282H9.03V1.234H6.076V2.018H9.03V2.858H6.44V3.628H9.03V4.552H5.726V5.35H13.37V4.552H10.024ZM25.732 2.466H23.044V3.922C23.044 4.762 23.338 4.972 24.374 4.972H26.25C26.992 4.972 27.258 4.72 27.356 3.782C27.104 3.726 26.768 3.614 26.586 3.488C26.544 4.146 26.474 4.23 26.138 4.23H24.472C24.01 4.23 23.926 4.174 23.926 3.908V3.194H26.656V0.827999H22.778V1.556H25.732V2.466ZM21.224 2.466H18.48V3.922C18.48 4.762 18.746 4.972 19.782 4.972H21.518C22.232 4.972 22.498 4.734 22.596 3.824C22.344 3.782 22.008 3.67 21.826 3.53C21.784 4.146 21.714 4.23 21.378 4.23H19.866C19.418 4.23 19.348 4.174 19.348 3.922V3.194H22.106V0.827999H18.228V1.556H21.224V2.466ZM21.448 6.96H23.744V8.29H21.448V6.96ZM27.272 8.29H24.738V6.96H26.838V6.162H24.738V5.154H23.744V6.162H21.448V5.154H20.482V6.162H18.41V6.96H20.482V8.29H17.962V9.102H27.272V8.29ZM27.062 10.964C26.404 10.446 25.256 9.774 24.234 9.284L23.492 9.746C24.458 10.236 25.466 10.894 26.054 11.412L27.062 10.964ZM20.944 9.256C20.328 9.816 19.292 10.348 18.34 10.726C18.564 10.866 18.942 11.202 19.11 11.384C20.034 10.936 21.154 10.25 21.868 9.578L20.944 9.256ZM17.696 2.942C17.304 2.242 16.38 1.276 15.554 0.618L14.756 1.15C15.568 1.836 16.464 2.83 16.828 3.53L17.696 2.942ZM17.374 5.77H14.686V6.75H16.408V10.362C15.792 10.95 15.106 11.538 14.518 11.972L15.064 12.938C15.736 12.322 16.366 11.734 16.954 11.118C17.822 12.224 19.096 12.728 20.944 12.798C22.526 12.854 25.55 12.826 27.132 12.756C27.174 12.462 27.342 12 27.468 11.776C25.76 11.888 22.498 11.93 20.916 11.86C19.278 11.79 18.032 11.314 17.374 10.264V5.77ZM32.732 6.176C32.27 6.33 31.808 6.484 31.346 6.624V4.048H32.844V3.096H31.346V0.296H30.38V3.096H28.63V4.048H30.38V6.918C29.652 7.142 28.98 7.352 28.448 7.492L28.714 8.5L30.38 7.954V11.86C30.38 12.07 30.31 12.112 30.142 12.112C29.974 12.126 29.428 12.126 28.826 12.112C28.966 12.392 29.092 12.826 29.134 13.064C30.002 13.078 30.534 13.036 30.87 12.882C31.22 12.714 31.346 12.434 31.346 11.86V7.646L32.872 7.142L32.732 6.176ZM38.486 8.626H35.672L36.064 8.514C35.994 8.178 35.77 7.674 35.56 7.296H38.738C38.584 7.688 38.346 8.192 38.164 8.528L38.486 8.626ZM36.484 1.612H37.87V3.082H36.484V1.612ZM35.644 3.082H34.314V1.612H35.644V3.082ZM38.71 1.612H40.124V3.082H38.71V1.612ZM41.412 6.47H37.604V5.476H40.726V4.692H37.604V3.824H40.992V0.855999H33.46V3.824H36.624V4.692H33.614V5.476H36.624V6.47H32.928V7.296H35.224L34.65 7.436C34.846 7.786 35.042 8.262 35.14 8.626H33.054V9.438H36.624V10.432H33.348V11.244H36.624V13.176H37.604V11.244H40.908V10.432H37.604V9.438H41.216V8.626H39.046C39.27 8.262 39.522 7.814 39.788 7.352L39.578 7.296H41.412V6.47ZM47.936 2.55H45.64V1.472H47.936V2.55ZM47.936 4.356H45.64V3.278H47.936V4.356ZM47.936 6.19H45.64V5.098H47.936V6.19ZM48.776 0.701999H44.814V6.96H48.776V0.701999ZM43.904 9.256C43.624 10.25 43.162 11.3 42.616 12.014C42.854 12.14 43.26 12.364 43.442 12.504C43.974 11.748 44.52 10.586 44.842 9.494L43.904 9.256ZM49.07 8.752V7.842H43.862V1.864H42.994V8.752H45.794V13.064H46.718V8.752H49.07ZM47.418 9.508C47.866 10.18 48.3 11.104 48.482 11.706L49.308 11.314C49.112 10.726 48.65 9.83 48.188 9.172L47.418 9.508ZM50.176 9.144C49.938 10.208 49.518 11.314 48.958 12.07C49.182 12.168 49.588 12.364 49.77 12.49C50.316 11.692 50.778 10.502 51.086 9.326L50.176 9.144ZM54.488 7.982C54.628 8.234 54.726 8.486 54.796 8.696L55.594 8.318C55.37 7.576 54.712 6.512 54.04 5.714L53.284 6.05C53.55 6.386 53.816 6.764 54.04 7.156C53.144 7.226 52.248 7.296 51.422 7.352C52.402 6.218 53.494 4.734 54.32 3.502L53.452 3.068C53.06 3.754 52.542 4.58 51.968 5.378C51.716 5.056 51.38 4.706 51.016 4.342C51.562 3.628 52.22 2.606 52.766 1.738L52.542 1.64C53.438 1.486 54.278 1.304 54.95 1.08L54.32 0.323999C53.102 0.729999 50.946 1.094 49.14 1.29C49.252 1.514 49.364 1.85 49.406 2.046C50.106 1.99 50.862 1.906 51.604 1.794C51.268 2.452 50.834 3.208 50.428 3.81C50.26 3.656 50.078 3.502 49.91 3.362L49.336 3.992C50.064 4.608 50.918 5.49 51.422 6.134C51.058 6.61 50.708 7.044 50.358 7.436L49.252 7.506L49.364 8.43L51.856 8.22V13.05H52.78V8.136L54.488 7.982ZM53.508 9.34C54.012 10.264 54.474 11.51 54.642 12.322L55.496 12.014C55.314 11.202 54.824 9.984 54.306 9.06L53.508 9.34ZM69.272 3.236V2.214H63.504V0.226H62.412V2.214H56.756V3.236H62.426V5.126H58.184V11.342H59.22V6.12H62.426V13.106H63.49V6.12H66.906V10.026C66.906 10.208 66.836 10.264 66.598 10.292C66.346 10.292 65.506 10.292 64.568 10.264C64.708 10.558 64.876 10.978 64.932 11.286C66.108 11.286 66.892 11.286 67.382 11.104C67.844 10.936 67.984 10.628 67.984 10.026V5.126H63.49V3.236H69.272Z" fill="#0697DB"/>
</svg>
