<svg width="56" height="16" viewBox="0 0 56 16" fill="none" xmlns="http://www.w3.org/2000/svg">
<path d="M3.234 9.094V7.652H6.44V9.094H3.234ZM3.234 5.398H6.44V6.826H3.234V5.398ZM10.766 5.398V6.826H7.49V5.398H10.766ZM10.766 9.094H7.49V7.652H10.766V9.094ZM13.272 11.096H7.49V9.948H11.802V4.53H7.49V3.508H12.796V2.556H7.49V1.296H6.44V2.556H1.204V3.508H6.44V4.53H2.24V9.948H6.44V11.096H0.784V12.034H6.44V14.106H7.49V12.034H13.272V11.096ZM21.056 7.162V5.692H23.086C23.058 6.168 22.974 6.672 22.764 7.162H21.056ZM21.056 3.452H23.086V4.908H21.056V3.452ZM26.012 4.908H23.982V3.452H26.012V4.908ZM26.012 7.162H23.744C23.898 6.672 23.954 6.182 23.982 5.692H26.012V7.162ZM26.964 7.988V2.626H23.366C23.576 2.262 23.814 1.856 24.024 1.478L22.848 1.24C22.736 1.632 22.526 2.164 22.316 2.626H20.118V7.988H22.274C21.826 8.562 21.112 9.108 20.034 9.57C20.244 9.71 20.58 9.976 20.72 10.158C22.106 9.57 22.918 8.8 23.38 7.988H26.964ZM16.38 6.014H19.796V5.104H18.634V1.296H17.724V5.104H16.38V1.576H15.456V6.91C15.456 8.94 15.344 11.74 14.532 13.742C14.812 13.826 15.218 13.966 15.428 14.092C16.002 12.594 16.24 10.718 16.338 8.954H18.144V14.05H19.082V8.058H16.366C16.38 7.666 16.38 7.274 16.38 6.91V6.014ZM27.356 10.27H25.186V8.31H24.192V10.27H19.516V11.166H24.192V14.05H25.186V11.166H27.356V10.27ZM33.922 8.954C33.642 8.632 32.452 7.4 32.018 7.036V6.182H33.768V5.202H32.018V2.836C32.676 2.682 33.292 2.486 33.796 2.276L33.068 1.492C32.046 1.954 30.212 2.36 28.644 2.612C28.77 2.85 28.91 3.186 28.966 3.424C29.61 3.326 30.324 3.214 31.01 3.074V5.202H28.728V6.182H30.87C30.31 7.778 29.344 9.584 28.462 10.564C28.63 10.816 28.882 11.222 28.98 11.516C29.694 10.662 30.436 9.262 31.01 7.848V14.036H32.018V8.044C32.494 8.618 33.068 9.388 33.292 9.78L33.922 8.954ZM35 9.206V8.086H36.96V9.206H35ZM35 6.308H36.96V7.4H35V6.308ZM39.97 6.308V7.4H37.954V6.308H39.97ZM39.97 9.206H37.954V8.086H39.97V9.206ZM37.954 12.916V11.824H40.978V10.984H37.954V9.99H40.908V5.524H37.954V4.586H41.188V3.732H37.954V2.71C39.158 2.598 40.278 2.444 41.16 2.248L40.53 1.464C38.962 1.814 36.064 2.052 33.74 2.15C33.838 2.346 33.964 2.71 33.978 2.934C34.916 2.906 35.952 2.864 36.96 2.794V3.732H33.488V4.586H36.96V5.524H34.076V9.99H36.96V10.984H33.922V11.824H36.96V12.916H33.124V13.784H41.454V12.916H37.954ZM53.9 6.322H50.12V4.978H53.9V6.322ZM53.9 8.436H50.12V7.078H53.9V8.436ZM53.9 10.564H50.12V9.206H53.9V10.564ZM49.182 4.152V11.39H54.88V4.152H52.052C52.206 3.746 52.346 3.298 52.5 2.85H55.314V1.94H48.72V2.85H51.38C51.296 3.27 51.17 3.746 51.058 4.152H49.182ZM47.6 1.576C47.418 2.08 47.082 2.822 46.802 3.284L47.516 3.55C47.81 3.116 48.16 2.472 48.482 1.856L47.6 1.576ZM44.576 3.214C44.478 2.78 44.128 2.108 43.778 1.604L43.05 1.898C43.386 2.402 43.708 3.074 43.834 3.55L44.576 3.214ZM45.234 7.582H46.158V5.636C46.844 6.126 47.782 6.826 48.146 7.19L48.72 6.434C48.342 6.154 46.704 5.09 46.158 4.796V4.614H48.636V3.76H46.158V1.436H45.234V3.76H42.798V4.614H44.926C44.324 5.524 43.414 6.42 42.546 6.868C42.742 7.036 43.036 7.344 43.162 7.554C43.876 7.106 44.632 6.336 45.234 5.51V7.582ZM48.552 12.44C47.992 11.908 46.914 11.138 46.074 10.55C46.102 10.354 46.13 10.144 46.144 9.948H48.706V9.038H46.172V7.876H45.22V9.038H42.798V9.948H45.192C45.066 11.012 44.562 12.16 42.532 13.042C42.714 13.224 42.994 13.588 43.106 13.826C44.618 13.154 45.402 12.314 45.794 11.432C46.564 12.006 47.404 12.678 47.866 13.14L48.552 12.44ZM50.47 11.656C49.924 12.258 48.776 12.972 47.768 13.364C47.978 13.546 48.286 13.868 48.454 14.064C49.476 13.644 50.652 12.902 51.38 12.174L50.47 11.656ZM52.5 12.244C53.312 12.776 54.334 13.56 54.824 14.064L55.636 13.49C55.104 12.972 54.068 12.23 53.256 11.726L52.5 12.244Z" fill="#0697DB"/>
</svg>
