<svg width="12" height="23" viewBox="0 0 12 23" fill="none" xmlns="http://www.w3.org/2000/svg">
<path d="M9.55469 15.6055C9.55469 14.8867 9.30078 14.2812 8.79297 13.7891C8.29297 13.2969 7.44531 12.8516 6.25 12.4531C4.58594 11.9453 3.37109 11.2852 2.60547 10.4727C1.84766 9.65234 1.46875 8.61328 1.46875 7.35547C1.46875 6.07422 1.83984 5.02344 2.58203 4.20312C3.33203 3.38281 4.35938 2.89453 5.66406 2.73828V0.171875H7.41016V2.75C8.72266 2.92969 9.74219 3.48047 10.4688 4.40234C11.2031 5.32422 11.5703 6.58594 11.5703 8.1875H9.41406C9.41406 7.08594 9.15234 6.21094 8.62891 5.5625C8.10547 4.91406 7.39844 4.58984 6.50781 4.58984C5.57812 4.58984 4.86719 4.83203 4.375 5.31641C3.88281 5.79297 3.63672 6.46094 3.63672 7.32031C3.63672 8.11719 3.89453 8.75391 4.41016 9.23047C4.93359 9.69922 5.78906 10.1289 6.97656 10.5195C8.17188 10.9023 9.10156 11.3281 9.76562 11.7969C10.4375 12.2578 10.9297 12.7969 11.2422 13.4141C11.5625 14.0312 11.7227 14.7539 11.7227 15.582C11.7227 16.9023 11.3242 17.9648 10.5273 18.7695C9.73828 19.5742 8.62891 20.0508 7.19922 20.1992V22.4375H5.46484V20.1992C4.01172 20.0664 2.87109 19.5508 2.04297 18.6523C1.22266 17.7461 0.8125 16.5195 0.8125 14.9727H2.98047C2.98047 16.0586 3.26562 16.8945 3.83594 17.4805C4.40625 18.0664 5.21484 18.3594 6.26172 18.3594C7.28516 18.3594 8.08984 18.1133 8.67578 17.6211C9.26172 17.1289 9.55469 16.457 9.55469 15.6055Z" fill="white"/>
</svg>
