<svg width="34" height="31" viewBox="0 0 34 31" fill="none" xmlns="http://www.w3.org/2000/svg">
<path d="M28.0026 13.0944C27.4576 13.0944 27.0162 12.6461 27.0162 12.0926V6.2918H21.3097C20.7647 6.2918 20.3232 5.84347 20.3232 5.28994C20.3232 4.73642 20.7647 4.28809 21.3097 4.28809H28.0026C28.5477 4.28809 28.9891 4.73642 28.9891 5.28994V12.0951C28.9891 12.6461 28.5477 13.0944 28.0026 13.0944Z" fill="#666666"/>
<path d="M5.99767 13.0944C5.45266 13.0944 5.01123 12.6461 5.01123 12.0926V5.28994C5.01123 4.73642 5.45266 4.28809 5.99767 4.28809H12.6906C13.2356 4.28809 13.6771 4.73642 13.6771 5.28994C13.6771 5.84347 13.2356 6.2918 12.6906 6.2918H6.9841V12.0951C6.9841 12.6461 6.54267 13.0944 5.99767 13.0944Z" fill="#666666"/>
<path d="M28.0026 27.6541H21.3097C20.7647 27.6541 20.3232 27.2057 20.3232 26.6522C20.3232 26.0987 20.7647 25.6503 21.3097 25.6503H27.0162V19.8471C27.0162 19.2935 27.4576 18.8452 28.0026 18.8452C28.5477 18.8452 28.9891 19.2935 28.9891 19.8471V26.6522C28.9891 27.2057 28.5477 27.6541 28.0026 27.6541Z" fill="#666666"/>
<path d="M12.6931 27.6541H5.99767C5.45266 27.6541 5.01123 27.2057 5.01123 26.6522V19.8471C5.01123 19.2935 5.45266 18.8452 5.99767 18.8452C6.54267 18.8452 6.9841 19.2935 6.9841 19.8471V25.6503H12.6906C13.2356 25.6503 13.6771 26.0987 13.6771 26.6522C13.6771 27.2057 13.2381 27.6541 12.6931 27.6541Z" fill="#666666"/>
<path d="M24.6561 16.8787H9.3441C8.7991 16.8787 8.35767 16.4304 8.35767 15.8769C8.35767 15.3233 8.7991 14.875 9.3441 14.875H24.6536C25.1986 14.875 25.64 15.3233 25.64 15.8769C25.64 16.4304 25.2011 16.8787 24.6561 16.8787Z" fill="#666666"/>
</svg>
