<svg width="89" height="18" viewBox="0 0 89 18" fill="none" xmlns="http://www.w3.org/2000/svg">
<path d="M15.552 1.798H7.308V2.896H15.552V1.798ZM5.022 0.987999C3.978 3.706 2.232 6.37 0.414 8.08C0.648 8.386 1.044 9.088 1.17 9.376C1.854 8.692 2.52 7.9 3.168 7V17.314H4.428V5.074C5.13 3.904 5.76 2.626 6.264 1.366L5.022 0.987999ZM14.706 12.778V15.424H8.19V12.778H14.706ZM6.894 17.368H8.19V16.522H14.706V17.314H16.038V11.698H6.894V17.368ZM7.092 10.312H15.84V9.232H7.092V10.312ZM15.876 6.748H7.092V7.846H15.876V6.748ZM5.616 4.264V5.38H17.244V4.264H5.616ZM27.756 10.618V7.63H32.598V10.618H27.756ZM22.05 10.618C22.104 9.952 22.122 9.286 22.122 8.692V7.63H26.424V10.618H22.05ZM26.424 3.49V6.37H22.122V3.49H26.424ZM32.598 6.37H27.756V3.49H32.598V6.37ZM33.912 2.212H20.808V8.692C20.808 11.194 20.628 14.362 18.648 16.594C18.936 16.756 19.476 17.206 19.674 17.476C21.042 15.946 21.654 13.894 21.924 11.896H26.424V17.206H27.756V11.896H32.598V15.55C32.598 15.892 32.472 16 32.112 16.018C31.788 16.018 30.564 16.036 29.304 15.982C29.484 16.342 29.7 16.918 29.754 17.278C31.446 17.296 32.49 17.278 33.102 17.062C33.678 16.828 33.912 16.432 33.912 15.568V2.212ZM53.028 8.836V7.522H45.36V4.804H51.084V3.526H45.36V0.934H43.956V7.522H37.008V8.836H43.956V17.368H45.36V11.5C47.34 12.076 49.752 12.994 51.03 13.624L51.714 12.418C50.292 11.752 47.574 10.852 45.612 10.33L45.36 10.726V8.836H53.028ZM71.028 8.836V7.522H63.36V4.804H69.084V3.526H63.36V0.934H61.956V7.522H55.008V8.836H61.956V17.368H63.36V11.5C65.34 12.076 67.752 12.994 69.03 13.624L69.714 12.418C68.292 11.752 65.574 10.852 63.612 10.33L63.36 10.726V8.836H71.028ZM75.762 4.732H78.354C78.336 5.074 78.264 5.398 78.12 5.704H75.42L75.762 4.732ZM79.614 2.824H82.386V3.85H79.614V2.824ZM86.436 2.824V3.85H83.646V2.824H86.436ZM82.386 5.704H79.452C79.524 5.398 79.578 5.074 79.596 4.732H82.386V5.704ZM87.444 6.586C87.372 7.054 87.3 7.306 87.21 7.414C87.102 7.486 86.994 7.504 86.778 7.504C86.598 7.504 86.094 7.486 85.536 7.45C85.608 7.594 85.68 7.792 85.734 7.972H77.742C78.39 7.558 78.822 7.09 79.092 6.586H82.386V7.936H83.646V6.586H87.444ZM85.608 9.952H76.608V8.836H85.608V9.952ZM85.608 11.878H76.608V10.78H85.608V11.878ZM85.608 13.84H76.608V12.724H85.608V13.84ZM75.312 14.704H86.94V8.368H87.372C87.732 8.35 88.02 8.26 88.236 8.044C88.524 7.756 88.632 7.234 88.758 6.136C88.776 5.974 88.794 5.704 88.794 5.704H83.646V4.732H87.642V1.942H83.646V0.952H82.386V1.942H79.614V0.952H78.39V1.942H73.998V2.824H78.39V3.85H74.808C74.502 4.804 74.124 5.938 73.746 6.748L74.988 6.82L75.078 6.586H77.526C76.788 7.324 75.456 7.918 73.08 8.368C73.314 8.602 73.584 9.106 73.71 9.394C74.304 9.268 74.826 9.142 75.312 9.016V14.704ZM78.336 14.884C77.04 15.514 74.88 16.09 73.026 16.432C73.332 16.666 73.782 17.17 73.998 17.422C75.798 16.99 78.066 16.234 79.542 15.424L78.336 14.884ZM82.44 15.586C84.456 16.18 86.418 16.864 87.57 17.386L88.992 16.684C87.66 16.162 85.5 15.424 83.52 14.884L82.44 15.586Z" fill="#666666"/>
</svg>
