<svg width="56" height="16" viewBox="0 0 56 16" fill="none" xmlns="http://www.w3.org/2000/svg">
<path d="M1.204 9.248C1.078 10.452 0.854 11.698 0.462 12.552C0.672 12.622 1.05 12.79 1.204 12.902C1.596 12.02 1.862 10.676 2.03 9.388L1.204 9.248ZM10.57 5.104H12.04C11.886 6.588 11.634 7.96 11.284 9.164C10.934 8.002 10.682 6.7 10.5 5.342L10.57 5.104ZM8.19 4.362H5.964V3.214H8.19V4.362ZM8.19 6.252H5.964V5.09H8.19V6.252ZM13.44 5.104V4.18H10.78C10.962 3.298 11.102 2.36 11.214 1.408L10.318 1.296C10.108 3.34 9.758 5.3 9.072 6.728V2.458H7.28C7.378 2.122 7.49 1.744 7.602 1.38L6.608 1.268C6.566 1.604 6.482 2.052 6.384 2.458H5.11V7.022H6.622V8.226H5.096C4.942 7.526 4.606 6.616 4.242 5.888L3.514 6.154C3.696 6.546 3.864 6.98 4.004 7.414L2.296 7.456C3.15 6.266 4.102 4.642 4.816 3.312L3.976 2.948C3.654 3.676 3.22 4.53 2.73 5.37C2.534 5.076 2.282 4.768 1.988 4.474C2.464 3.704 3.024 2.584 3.458 1.646L2.59 1.324C2.324 2.094 1.876 3.144 1.456 3.928C1.33 3.802 1.204 3.676 1.078 3.564L0.546 4.222C1.162 4.796 1.834 5.566 2.254 6.182C1.96 6.658 1.666 7.106 1.372 7.484L0.546 7.512L0.602 8.436C1.176 8.408 1.806 8.366 2.492 8.338V14.064H3.346V8.282L4.242 8.226C4.312 8.478 4.354 8.716 4.382 8.926L4.872 8.73V9.066H6.048C5.964 11.208 5.684 12.608 4.284 13.42C4.494 13.574 4.746 13.882 4.844 14.078C6.034 13.378 6.538 12.314 6.762 10.83H8.148C8.036 12.37 7.91 12.986 7.756 13.168C7.658 13.266 7.546 13.28 7.392 13.28C7.238 13.28 6.86 13.266 6.426 13.238C6.552 13.448 6.636 13.784 6.65 14.022C7.098 14.05 7.546 14.05 7.784 14.022C8.078 14.008 8.288 13.924 8.47 13.728C8.75 13.406 8.904 12.566 9.058 10.424C9.072 10.284 9.072 10.032 9.072 10.032H6.86C6.888 9.724 6.902 9.402 6.916 9.066H9.422V8.226H7.518V7.022H8.918C8.862 7.12 8.806 7.218 8.75 7.316C8.96 7.47 9.31 7.806 9.436 7.974C9.646 7.638 9.828 7.26 9.996 6.854C10.206 8.142 10.472 9.36 10.836 10.424C10.318 11.684 9.618 12.692 8.708 13.336C8.946 13.518 9.254 13.854 9.394 14.064C10.164 13.462 10.78 12.622 11.284 11.6C11.718 12.58 12.236 13.406 12.894 14.022C13.062 13.77 13.384 13.42 13.608 13.238C12.838 12.594 12.222 11.642 11.746 10.48C12.306 8.94 12.656 7.092 12.852 5.104H13.44ZM5.082 11.838C4.97 11.124 4.648 10.018 4.312 9.192L3.598 9.416C3.906 10.256 4.228 11.362 4.326 12.09L5.082 11.838ZM17.486 4.698H15.092V5.566H20.902V4.698H18.466V3.494H21.182V2.612H18.466V1.338H17.486V2.612H14.77V3.494H17.486V4.698ZM15.68 9.92C15.414 10.97 14.98 12.006 14.392 12.72C14.616 12.818 15.022 13.028 15.19 13.154C15.764 12.398 16.268 11.236 16.548 10.088L15.68 9.92ZM21.322 9.444V8.548H14.602V9.444H17.5V13C17.5 13.14 17.458 13.182 17.29 13.182C17.15 13.196 16.646 13.196 16.1 13.182C16.226 13.434 16.366 13.812 16.408 14.078C17.206 14.078 17.71 14.064 18.032 13.91C18.382 13.77 18.466 13.49 18.466 13.014V9.444H21.322ZM21.098 11.992C20.916 11.446 20.482 10.564 20.062 9.906L19.278 10.228C19.67 10.914 20.09 11.838 20.272 12.398L21.098 11.992ZM24.514 4.768H26.166C26.04 5.678 25.872 6.672 25.69 7.316L26.516 7.568C26.81 6.644 27.062 5.174 27.244 3.956L26.572 3.76L26.404 3.802H22.988C23.156 3.046 23.296 2.248 23.408 1.436L22.372 1.268C22.092 3.452 21.602 5.58 20.734 6.952V6.616H15.232V7.484H20.734V7.05C20.986 7.176 21.42 7.484 21.588 7.638C22.05 6.854 22.428 5.874 22.736 4.768H23.492V6.658C23.506 7.806 23.1 11.376 20.174 13.238C20.356 13.434 20.65 13.868 20.762 14.078C23.044 12.58 23.87 9.99 24.01 8.8C24.136 9.948 24.864 12.65 26.838 14.064C26.978 13.826 27.3 13.42 27.482 13.196C24.92 11.376 24.5 7.764 24.514 6.658V4.768ZM31.668 5.524C33.04 4.488 34.216 3.326 34.944 2.276C35.756 3.368 37.016 4.53 38.388 5.524H31.668ZM35.476 9.234H40.278V8.324H35.476V6.448H38.472V5.58C39.242 6.14 40.04 6.644 40.81 7.036C40.978 6.728 41.23 6.378 41.482 6.112C39.312 5.146 36.89 3.27 35.406 1.268H34.37C33.278 3.018 30.982 5.076 28.574 6.294C28.798 6.504 29.092 6.868 29.204 7.106C30.002 6.686 30.786 6.182 31.514 5.65V6.448H34.398V8.324H29.708V9.234H34.398V12.692H29.078V13.616H40.95V12.692H35.476V9.234ZM30.87 9.934C31.416 10.732 31.962 11.81 32.144 12.51L33.04 12.118C32.844 11.418 32.284 10.382 31.71 9.612L30.87 9.934ZM37.408 12.51C37.94 11.852 38.598 10.844 39.116 9.962L38.136 9.584C37.786 10.368 37.142 11.474 36.638 12.16L37.408 12.51ZM53.858 6.35H50.204V5.006H53.858V6.35ZM53.858 8.45H50.204V7.106H53.858V8.45ZM53.858 10.592H50.204V9.234H53.858V10.592ZM49.266 4.18V11.418H54.838V4.18H52.08C52.22 3.774 52.36 3.298 52.5 2.85H55.202V1.94H48.734V2.85H51.38C51.31 3.284 51.198 3.76 51.086 4.18H49.266ZM43.708 3.396H47.67V4.558H48.566V2.556H46.186V1.31H45.22V2.556H42.84V4.558H43.708V3.396ZM44.394 9.514C44.968 9.136 45.542 8.688 46.046 8.17C46.648 8.646 47.222 9.108 47.67 9.514H44.394ZM46.844 5.538C46.606 6.056 46.298 6.532 45.934 6.98C45.472 6.658 45.024 6.336 44.59 6.042C44.73 5.888 44.856 5.706 44.982 5.538H46.844ZM46.83 12.328H44.506V10.34H46.83V12.328ZM47.754 13.168V9.584C47.88 9.71 48.006 9.822 48.104 9.92L48.72 9.192C48.23 8.716 47.46 8.114 46.634 7.498C47.222 6.77 47.698 5.944 48.02 5.006L47.418 4.74L47.264 4.782H45.458C45.612 4.516 45.752 4.25 45.878 3.97L44.996 3.746C44.478 4.978 43.512 6.126 42.462 6.868C42.658 7.008 43.008 7.316 43.162 7.484C43.456 7.246 43.75 6.98 44.044 6.686C44.45 6.98 44.898 7.302 45.346 7.624C44.478 8.478 43.428 9.15 42.392 9.542C42.574 9.724 42.826 10.06 42.952 10.284C43.176 10.186 43.386 10.088 43.61 9.962V13.826H44.506V13.168H47.754ZM50.428 11.698C49.896 12.3 48.748 12.986 47.74 13.35C47.964 13.546 48.258 13.854 48.426 14.036C49.434 13.644 50.624 12.93 51.324 12.216L50.428 11.698ZM52.458 12.258C53.284 12.79 54.306 13.588 54.81 14.092L55.608 13.546C55.09 13.028 54.054 12.258 53.242 11.754L52.458 12.258Z" fill="#0697DB"/>
</svg>
