<svg width="112" height="14" viewBox="0 0 112 14" fill="none" xmlns="http://www.w3.org/2000/svg">
<path d="M5.264 0.771999H1.288V1.612H5.264V0.771999ZM5.768 2.606H0.588V3.46H5.768V2.606ZM5.292 4.496H1.232V5.322H5.292V4.496ZM1.232 7.184H5.292V6.344H1.232V7.184ZM4.41 9.074V11.426H2.128V9.074H4.41ZM5.306 8.22H1.218V12.91H2.128V12.266H5.306V8.22ZM7.742 9.704V8.696H11.536V9.704H7.742ZM11.536 6.96V7.954H7.742V6.96H11.536ZM12.516 6.162H6.776V13.036H7.742V10.446H11.536V11.958C11.536 12.126 11.494 12.168 11.326 12.182C11.144 12.182 10.57 12.196 9.94 12.168C10.08 12.406 10.206 12.77 10.234 13.022C11.102 13.022 11.69 13.022 12.054 12.882C12.418 12.728 12.516 12.476 12.516 11.972V6.162ZM10.024 4.552V3.628H12.852V2.858H10.024V2.018H13.062V1.234H10.024V0.282H9.03V1.234H6.076V2.018H9.03V2.858H6.44V3.628H9.03V4.552H5.726V5.35H13.37V4.552H10.024ZM25.732 2.466H23.044V3.922C23.044 4.762 23.338 4.972 24.374 4.972H26.25C26.992 4.972 27.258 4.72 27.356 3.782C27.104 3.726 26.768 3.614 26.586 3.488C26.544 4.146 26.474 4.23 26.138 4.23H24.472C24.01 4.23 23.926 4.174 23.926 3.908V3.194H26.656V0.827999H22.778V1.556H25.732V2.466ZM21.224 2.466H18.48V3.922C18.48 4.762 18.746 4.972 19.782 4.972H21.518C22.232 4.972 22.498 4.734 22.596 3.824C22.344 3.782 22.008 3.67 21.826 3.53C21.784 4.146 21.714 4.23 21.378 4.23H19.866C19.418 4.23 19.348 4.174 19.348 3.922V3.194H22.106V0.827999H18.228V1.556H21.224V2.466ZM21.448 6.96H23.744V8.29H21.448V6.96ZM27.272 8.29H24.738V6.96H26.838V6.162H24.738V5.154H23.744V6.162H21.448V5.154H20.482V6.162H18.41V6.96H20.482V8.29H17.962V9.102H27.272V8.29ZM27.062 10.964C26.404 10.446 25.256 9.774 24.234 9.284L23.492 9.746C24.458 10.236 25.466 10.894 26.054 11.412L27.062 10.964ZM20.944 9.256C20.328 9.816 19.292 10.348 18.34 10.726C18.564 10.866 18.942 11.202 19.11 11.384C20.034 10.936 21.154 10.25 21.868 9.578L20.944 9.256ZM17.696 2.942C17.304 2.242 16.38 1.276 15.554 0.618L14.756 1.15C15.568 1.836 16.464 2.83 16.828 3.53L17.696 2.942ZM17.374 5.77H14.686V6.75H16.408V10.362C15.792 10.95 15.106 11.538 14.518 11.972L15.064 12.938C15.736 12.322 16.366 11.734 16.954 11.118C17.822 12.224 19.096 12.728 20.944 12.798C22.526 12.854 25.55 12.826 27.132 12.756C27.174 12.462 27.342 12 27.468 11.776C25.76 11.888 22.498 11.93 20.916 11.86C19.278 11.79 18.032 11.314 17.374 10.264V5.77ZM32.732 6.176C32.27 6.33 31.808 6.484 31.346 6.624V4.048H32.844V3.096H31.346V0.296H30.38V3.096H28.63V4.048H30.38V6.918C29.652 7.142 28.98 7.352 28.448 7.492L28.714 8.5L30.38 7.954V11.86C30.38 12.07 30.31 12.112 30.142 12.112C29.974 12.126 29.428 12.126 28.826 12.112C28.966 12.392 29.092 12.826 29.134 13.064C30.002 13.078 30.534 13.036 30.87 12.882C31.22 12.714 31.346 12.434 31.346 11.86V7.646L32.872 7.142L32.732 6.176ZM38.486 8.626H35.672L36.064 8.514C35.994 8.178 35.77 7.674 35.56 7.296H38.738C38.584 7.688 38.346 8.192 38.164 8.528L38.486 8.626ZM36.484 1.612H37.87V3.082H36.484V1.612ZM35.644 3.082H34.314V1.612H35.644V3.082ZM38.71 1.612H40.124V3.082H38.71V1.612ZM41.412 6.47H37.604V5.476H40.726V4.692H37.604V3.824H40.992V0.855999H33.46V3.824H36.624V4.692H33.614V5.476H36.624V6.47H32.928V7.296H35.224L34.65 7.436C34.846 7.786 35.042 8.262 35.14 8.626H33.054V9.438H36.624V10.432H33.348V11.244H36.624V13.176H37.604V11.244H40.908V10.432H37.604V9.438H41.216V8.626H39.046C39.27 8.262 39.522 7.814 39.788 7.352L39.578 7.296H41.412V6.47ZM54.096 0.954H47.684V1.808H54.096V0.954ZM45.906 0.323999C45.094 2.438 43.736 4.51 42.322 5.84C42.504 6.078 42.812 6.624 42.91 6.848C43.442 6.316 43.96 5.7 44.464 5V13.022H45.444V3.502C45.99 2.592 46.48 1.598 46.872 0.618L45.906 0.323999ZM53.438 9.494V11.552H48.37V9.494H53.438ZM47.362 13.064H48.37V12.406H53.438V13.022H54.474V8.654H47.362V13.064ZM47.516 7.576H54.32V6.736H47.516V7.576ZM54.348 4.804H47.516V5.658H54.348V4.804ZM46.368 2.872V3.74H55.412V2.872H46.368ZM63.588 7.814V5.49H67.354V7.814H63.588ZM59.15 7.814C59.192 7.296 59.206 6.778 59.206 6.316V5.49H62.552V7.814H59.15ZM62.552 2.27V4.51H59.206V2.27H62.552ZM67.354 4.51H63.588V2.27H67.354V4.51ZM68.376 1.276H58.184V6.316C58.184 8.262 58.044 10.726 56.504 12.462C56.728 12.588 57.148 12.938 57.302 13.148C58.366 11.958 58.842 10.362 59.052 8.808H62.552V12.938H63.588V8.808H67.354V11.65C67.354 11.916 67.256 12 66.976 12.014C66.724 12.014 65.772 12.028 64.792 11.986C64.932 12.266 65.1 12.714 65.142 12.994C66.458 13.008 67.27 12.994 67.746 12.826C68.194 12.644 68.376 12.336 68.376 11.664V1.276ZM83.244 6.428V5.406H77.28V3.292H81.732V2.298H77.28V0.282H76.188V5.406H70.784V6.428H76.188V13.064H77.28V8.5C78.82 8.948 80.696 9.662 81.69 10.152L82.222 9.214C81.116 8.696 79.002 7.996 77.476 7.59L77.28 7.898V6.428H83.244ZM93.604 5.378L93.758 6.162C94.64 6.078 95.634 6.008 96.684 5.896C96.768 6.106 96.824 6.302 96.852 6.47L97.524 6.148C97.426 5.616 97.034 4.776 96.656 4.132L96.012 4.398C96.152 4.636 96.292 4.916 96.418 5.196L94.934 5.294C95.606 4.37 96.348 3.166 96.936 2.172L96.18 1.808C95.956 2.298 95.648 2.872 95.312 3.446C95.144 3.25 94.92 3.04 94.696 2.816C95.046 2.256 95.494 1.444 95.844 0.744L95.032 0.422C94.836 0.996 94.486 1.78 94.178 2.382C94.066 2.284 93.954 2.214 93.856 2.13L93.422 2.704C93.954 3.11 94.542 3.67 94.892 4.118C94.612 4.58 94.318 5 94.052 5.35L93.604 5.378ZM88.774 5.518L88.928 6.344C89.782 6.26 90.748 6.162 91.756 6.078C91.812 6.246 91.84 6.414 91.868 6.554L92.554 6.26C92.456 5.728 92.134 4.874 91.77 4.244L91.126 4.482C91.266 4.748 91.392 5.042 91.504 5.35L90.132 5.434C90.846 4.482 91.63 3.208 92.232 2.172L91.476 1.808C91.252 2.298 90.944 2.872 90.608 3.446C90.454 3.25 90.244 3.04 90.006 2.83C90.356 2.256 90.776 1.43 91.14 0.744L90.328 0.422C90.132 0.996 89.796 1.78 89.488 2.382C89.376 2.298 89.264 2.214 89.152 2.13L88.718 2.704C89.236 3.11 89.838 3.684 90.202 4.132C89.88 4.622 89.558 5.098 89.264 5.49L88.774 5.518ZM95.522 8.458C95.256 9.074 94.878 9.648 94.416 10.166C94.22 9.62 94.052 8.976 93.912 8.234H97.328V7.394H96.18L96.474 7.086C96.152 6.764 95.522 6.358 94.99 6.078L94.5 6.582C94.892 6.792 95.34 7.114 95.676 7.394H93.772C93.478 5.448 93.324 3.026 93.352 0.296H92.414C92.428 2.928 92.554 5.364 92.862 7.394H88.942L88.998 7.31C88.788 6.918 87.836 5.392 87.472 4.888V4.258H88.984V3.306H87.472V0.282H86.534V3.306H84.77V4.258H86.436C86.058 6.148 85.274 8.36 84.476 9.522C84.644 9.746 84.882 10.138 84.994 10.39C85.568 9.494 86.114 8.066 86.534 6.582V13.05H87.472V6.064C87.85 6.764 88.284 7.618 88.466 8.066L88.9 7.45V8.234H89.894C89.754 9.9 89.376 11.468 88.102 12.35C88.326 12.504 88.592 12.826 88.732 13.036C89.754 12.294 90.272 11.202 90.566 9.956C91.154 10.362 91.742 10.81 92.078 11.132L92.666 10.418C92.232 10.026 91.42 9.466 90.734 9.046C90.762 8.78 90.804 8.514 90.818 8.234H93.002C93.184 9.242 93.422 10.124 93.716 10.852C92.988 11.482 92.092 12 91.098 12.392C91.28 12.56 91.532 12.882 91.658 13.05C92.554 12.686 93.38 12.21 94.094 11.65C94.626 12.574 95.284 13.092 96.124 13.092C97.048 13.092 97.356 12.63 97.524 11.062C97.314 10.978 96.992 10.796 96.81 10.6C96.74 11.86 96.586 12.196 96.18 12.196C95.648 12.196 95.186 11.79 94.794 11.048C95.466 10.39 96.026 9.634 96.418 8.794L95.522 8.458ZM103.348 7.688C103.11 7.31 102.074 5.756 101.682 5.238V4.272H103.278V3.306H101.682V0.282H100.73V3.306H98.77V4.272H100.618C100.212 6.176 99.358 8.36 98.49 9.522C98.658 9.76 98.91 10.152 99.022 10.418C99.666 9.508 100.268 8.038 100.73 6.512V13.05H101.682V6.47C102.088 7.156 102.578 8.01 102.774 8.458L103.348 7.688ZM107.702 9.97V8.948H109.676V9.97H107.702ZM104.902 8.948H106.75V9.97H104.902V8.948ZM106.75 7.24V8.206H104.902V7.24H106.75ZM109.676 7.24V8.206H107.702V7.24H109.676ZM106.134 3.894H108.388V4.832H106.134V3.894ZM106.134 2.214H108.388V3.124H106.134V2.214ZM111.538 9.97H110.642V6.456H107.702V5.63H111.384V4.832H109.368V3.894H110.894V3.124H109.368V2.214H111.104V1.43H109.368V0.282H108.388V1.43H106.134V0.282H105.182V1.43H103.572V2.214H105.182V3.124H103.852V3.894H105.182V4.832H103.25V5.63H106.75V6.456H103.95V9.97H102.998V10.782H103.95V13.022H104.902V10.782H109.676V11.958C109.676 12.126 109.62 12.182 109.452 12.196C109.256 12.196 108.654 12.21 107.982 12.182C108.094 12.42 108.234 12.784 108.276 13.022C109.2 13.022 109.802 13.022 110.166 12.882C110.544 12.728 110.642 12.462 110.642 11.972V10.782H111.538V9.97Z" fill="#0697DB"/>
</svg>
