<svg width="60" height="12" viewBox="0 0 60 12" fill="none" xmlns="http://www.w3.org/2000/svg">
<path d="M4.39512 1.376H0.987118V2.096H4.39512V1.376ZM4.82712 2.948H0.387118V3.68H4.82712V2.948ZM4.41912 4.568H0.939118V5.276H4.41912V4.568ZM0.939118 6.872H4.41912V6.152H0.939118V6.872ZM3.66312 8.492V10.508H1.70712V8.492H3.66312ZM4.43112 7.76H0.927118V11.78H1.70712V11.228H4.43112V7.76ZM6.51912 9.032V8.168H9.77112V9.032H6.51912ZM9.77112 6.68V7.532H6.51912V6.68H9.77112ZM10.6111 5.996H5.69112V11.888H6.51912V9.668H9.77112V10.964C9.77112 11.108 9.73512 11.144 9.59112 11.156C9.43512 11.156 8.94312 11.168 8.40312 11.144C8.52312 11.348 8.63112 11.66 8.65512 11.876C9.39912 11.876 9.90312 11.876 10.2151 11.756C10.5271 11.624 10.6111 11.408 10.6111 10.976V5.996ZM8.47512 4.616V3.824H10.8991V3.164H8.47512V2.444H11.0791V1.772H8.47512V0.956H7.62312V1.772H5.09112V2.444H7.62312V3.164H5.40312V3.824H7.62312V4.616H4.79112V5.3H11.3431V4.616H8.47512ZM13.3951 6.32H14.4631V7.412H13.3951V6.32ZM13.3951 4.604H14.4631V5.684H13.3951V4.604ZM16.1431 5.684H15.0631V4.604H16.1431V5.684ZM16.1431 7.412H15.0631V6.32H16.1431V7.412ZM15.1591 8.084H16.8271V3.932H15.1591V3.02H17.0791V2.252H15.1591V0.956H14.3671V2.252H12.5431V3.02H14.3671V3.932H12.7231V8.084H14.3671V9.044H12.3991V9.836H14.3671V11.924H15.1591V9.836H17.0431V9.044H15.1591V8.084ZM18.0391 8.888V7.892H19.3951V8.888H18.0391ZM19.3951 6.332V7.256H18.0391V6.332H19.3951ZM20.0551 5.66H17.3791V11.876H18.0391V9.56H19.3951V11.144C19.3951 11.228 19.3711 11.264 19.2871 11.264H18.6871C18.7591 11.444 18.8551 11.732 18.8671 11.9C19.3111 11.9 19.5991 11.9 19.8031 11.78C19.9951 11.66 20.0551 11.468 20.0551 11.144V5.66ZM21.8431 4.016H18.5431V4.736H21.8431V4.016ZM21.3871 5.912H20.7271V10.112H21.3871V5.912ZM22.3351 11.036C22.3351 11.168 22.2871 11.192 22.1551 11.204C22.0231 11.216 21.5791 11.216 21.0871 11.204C21.1831 11.396 21.2791 11.696 21.3151 11.876C22.0111 11.876 22.4311 11.864 22.7191 11.768C22.9831 11.636 23.0671 11.432 23.0671 11.048V5.468H22.3351V11.036ZM19.7671 1.004C19.2031 2.132 18.0631 3.44 16.8511 4.148C16.9951 4.352 17.1991 4.664 17.2951 4.88C18.5071 4.112 19.5991 2.888 20.1991 1.832C20.8711 2.9 22.0351 4.088 23.1391 4.784C23.2711 4.544 23.4631 4.208 23.6191 4.016C22.5031 3.404 21.3031 2.216 20.5591 1.004H19.7671ZM26.6431 1.688V2.576H29.5951C29.6191 3.032 29.6671 3.56 29.7511 4.112L29.2231 4.028C28.4911 7.388 27.0151 9.8 24.3631 11.18C24.6031 11.336 24.9991 11.708 25.1671 11.888C27.5551 10.484 29.0671 8.3 29.9551 5.192C30.4951 7.46 31.7671 10.088 34.7191 11.876C34.8751 11.66 35.2351 11.276 35.4391 11.132C30.7351 8.336 30.4591 3.812 30.4591 1.688H26.6431ZM39.0271 4.592C40.2031 3.704 41.2111 2.708 41.8351 1.808C42.5311 2.744 43.6111 3.74 44.7871 4.592H39.0271ZM42.2911 7.772H46.4071V6.992H42.2911V5.384H44.8591V4.64C45.5191 5.12 46.2031 5.552 46.8631 5.888C47.0071 5.624 47.2231 5.324 47.4391 5.096C45.5791 4.268 43.5031 2.66 42.2311 0.943999H41.3431C40.4071 2.444 38.4391 4.208 36.3751 5.252C36.5671 5.432 36.8191 5.744 36.9151 5.948C37.5991 5.588 38.2711 5.156 38.8951 4.7V5.384H41.3671V6.992H37.3471V7.772H41.3671V10.736H36.8071V11.528H46.9831V10.736H42.2911V7.772ZM38.3431 8.372C38.8111 9.056 39.2791 9.98 39.4351 10.58L40.2031 10.244C40.0351 9.644 39.5551 8.756 39.0631 8.096L38.3431 8.372ZM43.9471 10.58C44.4031 10.016 44.9671 9.152 45.4111 8.396L44.5711 8.072C44.2711 8.744 43.7191 9.692 43.2871 10.28L43.9471 10.58ZM58.0471 5.3H54.9151V4.148H58.0471V5.3ZM58.0471 7.1H54.9151V5.948H58.0471V7.1ZM58.0471 8.936H54.9151V7.772H58.0471V8.936ZM54.1111 3.44V9.644H58.8871V3.44H56.5231C56.6431 3.092 56.7631 2.684 56.8831 2.3H59.1991V1.52H53.6551V2.3H55.9231C55.8631 2.672 55.7671 3.08 55.6711 3.44H54.1111ZM49.3471 2.768H52.7431V3.764H53.5111V2.048H51.4711V0.98H50.6431V2.048H48.6031V3.764H49.3471V2.768ZM49.9351 8.012C50.4271 7.688 50.9191 7.304 51.3511 6.86C51.8671 7.268 52.3591 7.664 52.7431 8.012H49.9351ZM52.0351 4.604C51.8311 5.048 51.5671 5.456 51.2551 5.84C50.8591 5.564 50.4751 5.288 50.1031 5.036C50.2231 4.904 50.3311 4.748 50.4391 4.604H52.0351ZM52.0231 10.424H50.0311V8.72H52.0231V10.424ZM52.8151 11.144V8.072C52.9231 8.18 53.0311 8.276 53.1151 8.36L53.6431 7.736C53.2231 7.328 52.5631 6.812 51.8551 6.284C52.3591 5.66 52.7671 4.952 53.0431 4.148L52.5271 3.92L52.3951 3.956H50.8471C50.9791 3.728 51.0991 3.5 51.2071 3.26L50.4511 3.068C50.0071 4.124 49.1791 5.108 48.2791 5.744C48.4471 5.864 48.7471 6.128 48.8791 6.272C49.1311 6.068 49.3831 5.84 49.6351 5.588C49.9831 5.84 50.3671 6.116 50.7511 6.392C50.0071 7.124 49.1071 7.7 48.2191 8.036C48.3751 8.192 48.5911 8.48 48.6991 8.672C48.8911 8.588 49.0711 8.504 49.2631 8.396V11.708H50.0311V11.144H52.8151ZM55.1071 9.884C54.6511 10.4 53.6671 10.988 52.8031 11.3C52.9951 11.468 53.2471 11.732 53.3911 11.888C54.2551 11.552 55.2751 10.94 55.8751 10.328L55.1071 9.884ZM56.8471 10.364C57.5551 10.82 58.4311 11.504 58.8631 11.936L59.5471 11.468C59.1031 11.024 58.2151 10.364 57.5191 9.932L56.8471 10.364Z" fill="#A4A4A4"/>
</svg>
