<svg width="64" height="14" viewBox="0 0 64 14" fill="none" xmlns="http://www.w3.org/2000/svg">
<path d="M5.39512 1.376H1.98712V2.096H5.39512V1.376ZM5.82712 2.948H1.38712V3.68H5.82712V2.948ZM5.41912 4.568H1.93912V5.276H5.41912V4.568ZM1.93912 6.872H5.41912V6.152H1.93912V6.872ZM4.66312 8.492V10.508H2.70712V8.492H4.66312ZM5.43112 7.76H1.92712V11.78H2.70712V11.228H5.43112V7.76ZM7.51912 9.032V8.168H10.7711V9.032H7.51912ZM10.7711 6.68V7.532H7.51912V6.68H10.7711ZM11.6111 5.996H6.69112V11.888H7.51912V9.668H10.7711V10.964C10.7711 11.108 10.7351 11.144 10.5911 11.156C10.4351 11.156 9.94312 11.168 9.40312 11.144C9.52312 11.348 9.63112 11.66 9.65512 11.876C10.3991 11.876 10.9031 11.876 11.2151 11.756C11.5271 11.624 11.6111 11.408 11.6111 10.976V5.996ZM9.47512 4.616V3.824H11.8991V3.164H9.47512V2.444H12.0791V1.772H9.47512V0.956H8.62312V1.772H6.09112V2.444H8.62312V3.164H6.40312V3.824H8.62312V4.616H5.79112V5.3H12.3431V4.616H9.47512ZM14.3951 6.32H15.4631V7.412H14.3951V6.32ZM14.3951 4.604H15.4631V5.684H14.3951V4.604ZM17.1431 5.684H16.0631V4.604H17.1431V5.684ZM17.1431 7.412H16.0631V6.32H17.1431V7.412ZM16.1591 8.084H17.8271V3.932H16.1591V3.02H18.0791V2.252H16.1591V0.956H15.3671V2.252H13.5431V3.02H15.3671V3.932H13.7231V8.084H15.3671V9.044H13.3991V9.836H15.3671V11.924H16.1591V9.836H18.0431V9.044H16.1591V8.084ZM19.0391 8.888V7.892H20.3951V8.888H19.0391ZM20.3951 6.332V7.256H19.0391V6.332H20.3951ZM21.0551 5.66H18.3791V11.876H19.0391V9.56H20.3951V11.144C20.3951 11.228 20.3711 11.264 20.2871 11.264H19.6871C19.7591 11.444 19.8551 11.732 19.8671 11.9C20.3111 11.9 20.5991 11.9 20.8031 11.78C20.9951 11.66 21.0551 11.468 21.0551 11.144V5.66ZM22.8431 4.016H19.5431V4.736H22.8431V4.016ZM22.3871 5.912H21.7271V10.112H22.3871V5.912ZM23.3351 11.036C23.3351 11.168 23.2871 11.192 23.1551 11.204C23.0231 11.216 22.5791 11.216 22.0871 11.204C22.1831 11.396 22.2791 11.696 22.3151 11.876C23.0111 11.876 23.4311 11.864 23.7191 11.768C23.9831 11.636 24.0671 11.432 24.0671 11.048V5.468H23.3351V11.036ZM20.7671 1.004C20.2031 2.132 19.0631 3.44 17.8511 4.148C17.9951 4.352 18.1991 4.664 18.2951 4.88C19.5071 4.112 20.5991 2.888 21.1991 1.832C21.8711 2.9 23.0351 4.088 24.1391 4.784C24.2711 4.544 24.4631 4.208 24.6191 4.016C23.5031 3.404 22.3031 2.216 21.5591 1.004H20.7671ZM27.6431 1.688V2.576H30.5951C30.6191 3.032 30.6671 3.56 30.7511 4.112L30.2231 4.028C29.4911 7.388 28.0151 9.8 25.3631 11.18C25.6031 11.336 25.9991 11.708 26.1671 11.888C28.5551 10.484 30.0671 8.3 30.9551 5.192C31.4951 7.46 32.7671 10.088 35.7191 11.876C35.8751 11.66 36.2351 11.276 36.4391 11.132C31.7351 8.336 31.4591 3.812 31.4591 1.688H27.6431ZM40.5551 3.98H38.7551V2.156H40.5551V3.98ZM41.3831 1.412H37.9631V4.724H41.3831V1.412ZM39.0191 7.412C39.1031 7.064 39.1871 6.704 39.2591 6.356H41.8991V5.564H37.4111V6.356H38.4431C38.2751 7.184 38.0351 8.132 37.8431 8.78L38.6351 8.924C38.6951 8.708 38.7671 8.444 38.8391 8.168H40.4711C40.3271 10.076 40.1711 10.844 39.9431 11.06C39.8471 11.168 39.7271 11.192 39.5591 11.18C39.3671 11.18 38.9111 11.18 38.4071 11.132C38.5271 11.336 38.6231 11.684 38.6351 11.9C39.1391 11.936 39.6311 11.936 39.8831 11.912C40.2071 11.888 40.4231 11.816 40.6151 11.6C40.9391 11.24 41.1191 10.268 41.3111 7.772C41.3231 7.664 41.3351 7.412 41.3351 7.412H39.0191ZM43.0391 4.064H47.5151C47.4431 4.544 47.3471 5.036 47.2751 5.384L47.9471 5.552C48.1031 5.012 48.2951 4.148 48.4391 3.428L47.8751 3.284L47.7431 3.32H45.4271V2.516H47.8391V1.796H45.4271V0.956H44.5751V3.32H42.2231V6.38C42.2231 7.916 42.1151 9.992 41.0831 11.492C41.2751 11.576 41.6111 11.816 41.7551 11.984C42.8591 10.388 43.0391 8.036 43.0391 6.38V4.064ZM43.9991 7.736C43.9151 9.488 43.6631 10.652 42.3551 11.312C42.5471 11.456 42.7751 11.756 42.8711 11.96C44.3471 11.156 44.6831 9.776 44.7791 7.736H43.9991ZM45.7871 6.56C45.4631 6.56 45.4151 6.512 45.4151 6.272V5.72L46.9271 5.564L46.8431 4.94L45.4151 5.084V4.136H44.6111V5.168L43.3031 5.3L43.3871 5.924L44.6111 5.804V6.284C44.6111 7.04 44.8271 7.22 45.6911 7.22H46.9991C47.6471 7.22 47.8631 6.992 47.9351 6.068C47.7191 6.008 47.4071 5.912 47.2511 5.804C47.2271 6.476 47.1671 6.56 46.8911 6.56H45.7871ZM46.8791 10.928C46.7591 10.928 46.6751 10.904 46.6031 10.868C46.5431 10.832 46.5191 10.748 46.5191 10.664V7.736H45.7391V10.652C45.7391 11.192 45.7871 11.372 45.9911 11.54C46.1591 11.684 46.4471 11.732 46.6991 11.732H47.3711C47.5991 11.732 47.8751 11.684 48.0071 11.612C48.1871 11.504 48.3191 11.372 48.3911 11.156C48.4511 10.94 48.4991 10.352 48.5111 9.788C48.2951 9.716 47.9951 9.56 47.8511 9.428C47.8511 9.968 47.8391 10.424 47.8031 10.616C47.7791 10.736 47.7071 10.832 47.6351 10.868C47.5751 10.904 47.4311 10.928 47.2991 10.928H46.8791ZM52.6511 9.608H51.1151V6.02H52.6511V9.608ZM53.4311 10.388V5.252H51.1511C51.4031 4.34 51.5951 3.356 51.7511 2.348H53.8871V1.532H49.5071V2.348H50.8991C50.5991 4.424 50.0951 6.38 49.2191 7.664C49.3871 7.844 49.6631 8.264 49.7471 8.444C49.9631 8.132 50.1671 7.784 50.3471 7.412V11.372H51.1151V10.388H53.4311ZM53.9831 11.372C54.5591 10.724 54.7751 9.608 54.8951 8.576L54.2231 8.408C54.1151 9.392 53.8751 10.424 53.3591 11.012L53.9831 11.372ZM55.3751 8.78C55.5071 9.476 55.5791 10.388 55.5551 10.988L56.2151 10.88C56.2271 10.292 56.1311 9.392 55.9871 8.684L55.3751 8.78ZM56.6471 8.684C56.8871 9.272 57.1031 10.028 57.1751 10.532L57.7871 10.352C57.7031 9.86 57.4751 9.092 57.2231 8.528L56.6471 8.684ZM55.2071 5.9H56.8631V7.04H55.2071V5.9ZM56.8631 2.252V3.344H55.2071V2.252H56.8631ZM56.8631 5.18H55.2071V4.064H56.8631V5.18ZM57.6551 7.04V5.9H59.6591V5.18H57.6551V4.064H59.6591V3.344H57.6551V2.252H59.9351V1.472H54.3911V7.82H59.3351C59.2271 9.992 59.0831 10.832 58.8911 11.06C58.7831 11.168 58.6991 11.192 58.5071 11.192C58.3271 11.192 57.8471 11.18 57.3431 11.132C57.4631 11.348 57.5471 11.672 57.5591 11.9C58.0991 11.936 58.6031 11.936 58.8791 11.912C59.2031 11.888 59.3951 11.804 59.5871 11.576C59.8871 11.228 60.0311 10.196 60.1631 7.412C60.1751 7.292 60.1751 7.04 60.1751 7.04H57.6551ZM59.1551 9.608C58.9991 9.236 58.6631 8.648 58.3271 8.216L57.8351 8.42C58.1471 8.864 58.4951 9.464 58.6391 9.86L59.1551 9.608Z" fill="#A4A4A4"/>
</svg>
