<svg width="56" height="14" viewBox="0 0 56 14" fill="none" xmlns="http://www.w3.org/2000/svg">
<path d="M13.482 3.992C13.16 3.18 12.348 1.934 11.592 1.024L10.766 1.43C11.508 2.368 12.292 3.642 12.6 4.468L13.482 3.992ZM3.948 11.104V7.002H5.978V6.092H3.948V4.622H5.544V3.726H1.876C2.618 2.886 3.178 2.018 3.584 1.262C4.382 2.004 5.25 3.068 5.698 3.74L6.37 2.9C5.852 2.172 4.76 1.066 3.878 0.296H2.954C2.506 1.402 1.638 2.816 0.406 3.88C0.602 4.006 0.924 4.342 1.064 4.552C1.218 4.412 1.372 4.272 1.512 4.118V4.622H3.038V6.092H0.798V7.002H3.038V11.272C2.128 11.454 1.302 11.594 0.658 11.706L0.896 12.644C2.352 12.364 4.368 11.958 6.244 11.552L6.188 10.67L3.948 11.104ZM1.106 7.982C1.386 8.808 1.624 9.872 1.666 10.586L2.436 10.362C2.366 9.676 2.128 8.612 1.834 7.8L1.106 7.982ZM5.082 10.446C5.32 9.788 5.628 8.752 5.894 7.884L5.068 7.632C4.928 8.402 4.634 9.522 4.41 10.222L5.082 10.446ZM7.504 1.052C7.182 2.158 6.608 3.278 5.922 4.006C6.16 4.146 6.58 4.412 6.762 4.566C7.42 3.754 8.078 2.508 8.47 1.262L7.504 1.052ZM7.812 9.396V7.898H11.704V9.396H7.812ZM11.704 5.574V7.016H7.812V5.574H11.704ZM12.698 4.664H10.164V0.282H9.17V4.664H6.804V13.05H7.812V10.264H11.704V11.846C11.704 12.028 11.634 12.084 11.452 12.084C11.27 12.098 10.64 12.098 9.982 12.07C10.108 12.336 10.262 12.784 10.304 13.064C11.228 13.064 11.83 13.036 12.208 12.882C12.586 12.714 12.698 12.392 12.698 11.86V4.664ZM19.572 2.928H17.696V0.309999H16.8V2.928H14.98V10.194H15.792V3.866H16.8V13.064H17.696V3.866H18.774V9.032C18.774 9.158 18.746 9.186 18.648 9.2C18.55 9.2 18.284 9.2 17.948 9.186C18.074 9.438 18.214 9.83 18.228 10.082C18.704 10.082 19.026 10.068 19.278 9.9C19.516 9.732 19.572 9.452 19.572 9.06V2.928ZM26.6 7.856C26.096 8.36 25.298 8.976 24.612 9.452C24.304 8.878 24.066 8.22 23.898 7.52H27.328V6.652H21.77V5.56H26.25V4.748H21.77V3.642H26.25V2.83H21.77V1.766H26.726V0.884H20.804V6.652H19.74V7.52H20.79V11.762C20.286 11.832 19.838 11.902 19.446 11.958L19.684 12.91C20.972 12.672 22.722 12.364 24.43 12.056L24.36 11.188C23.478 11.342 22.582 11.482 21.756 11.608V7.52H23.002C23.59 10.18 24.794 12.14 26.908 13.064C27.048 12.798 27.37 12.378 27.58 12.182C26.502 11.79 25.676 11.09 25.046 10.18C25.76 9.718 26.642 9.088 27.3 8.486L26.6 7.856ZM29.288 8.22C29.134 9.438 28.868 10.698 28.434 11.552C28.63 11.622 29.036 11.804 29.19 11.916C29.638 11.02 29.946 9.69 30.142 8.374L29.288 8.22ZM32.62 7.1C32.732 7.436 32.816 7.744 32.858 7.996L33.656 7.66C33.488 6.876 32.998 5.658 32.466 4.734L31.738 5.014C31.934 5.392 32.13 5.812 32.298 6.232L30.422 6.33C31.318 5.154 32.354 3.558 33.11 2.256L32.256 1.878C31.892 2.62 31.388 3.53 30.842 4.398C30.646 4.132 30.394 3.824 30.114 3.516C30.604 2.746 31.206 1.598 31.682 0.631999L30.786 0.296C30.506 1.066 30.002 2.144 29.554 2.942C29.414 2.802 29.26 2.648 29.12 2.522L28.56 3.166C29.204 3.768 29.904 4.58 30.31 5.21C30.03 5.644 29.75 6.036 29.484 6.386C29.12 6.4 28.77 6.414 28.462 6.428L28.56 7.366C29.19 7.324 29.904 7.282 30.674 7.226V13.064H31.584V7.17L32.62 7.1ZM39.102 9.55V7.94H40.208V9.55H39.102ZM37.31 9.55V7.94H38.388V9.55H37.31ZM35.56 9.55V7.94H36.61V9.55H35.56ZM39.802 3.824V5.322H34.972V3.824H39.802ZM41.09 7.128H34.944C34.958 6.792 34.972 6.484 34.972 6.176H40.81V2.956H34.034V6.022C34.034 7.366 33.964 9.088 33.404 10.628C33.32 9.942 33.054 8.948 32.718 8.178L31.99 8.402C32.312 9.2 32.592 10.25 32.634 10.936L33.376 10.726C33.166 11.272 32.9 11.804 32.55 12.28C32.76 12.392 33.152 12.686 33.306 12.868C34.132 11.734 34.566 10.292 34.776 8.878V13.064H35.56V10.348H36.61V12.924H37.31V10.348H38.388V12.924H39.102V10.348H40.208V12.07C40.208 12.196 40.18 12.224 40.096 12.224C39.984 12.224 39.69 12.224 39.354 12.21C39.466 12.448 39.606 12.812 39.634 13.064C40.152 13.064 40.516 13.036 40.782 12.91C41.034 12.742 41.09 12.49 41.09 12.084V7.128ZM33.502 1.136V2.046H41.146V1.136H33.502ZM46.284 3.81H44.184V1.682H46.284V3.81ZM47.25 0.814H43.26V4.678H47.25V0.814ZM44.492 7.814C44.59 7.408 44.688 6.988 44.772 6.582H47.852V5.658H42.616V6.582H43.82C43.624 7.548 43.344 8.654 43.12 9.41L44.044 9.578C44.114 9.326 44.198 9.018 44.282 8.696H46.186C46.018 10.922 45.836 11.818 45.57 12.07C45.458 12.196 45.318 12.224 45.122 12.21C44.898 12.21 44.366 12.21 43.778 12.154C43.918 12.392 44.03 12.798 44.044 13.05C44.632 13.092 45.206 13.092 45.5 13.064C45.878 13.036 46.13 12.952 46.354 12.7C46.732 12.28 46.942 11.146 47.166 8.234C47.18 8.108 47.194 7.814 47.194 7.814H44.492ZM49.182 3.908H54.404C54.32 4.468 54.208 5.042 54.124 5.448L54.908 5.644C55.09 5.014 55.314 4.006 55.482 3.166L54.824 2.998L54.67 3.04H51.968V2.102H54.782V1.262H51.968V0.282H50.974V3.04H48.23V6.61C48.23 8.402 48.104 10.824 46.9 12.574C47.124 12.672 47.516 12.952 47.684 13.148C48.972 11.286 49.182 8.542 49.182 6.61V3.908ZM50.302 8.192C50.204 10.236 49.91 11.594 48.384 12.364C48.608 12.532 48.874 12.882 48.986 13.12C50.708 12.182 51.1 10.572 51.212 8.192H50.302ZM52.388 6.82C52.01 6.82 51.954 6.764 51.954 6.484V5.84L53.718 5.658L53.62 4.93L51.954 5.098V3.992H51.016V5.196L49.49 5.35L49.588 6.078L51.016 5.938V6.498C51.016 7.38 51.268 7.59 52.276 7.59H53.802C54.558 7.59 54.81 7.324 54.894 6.246C54.642 6.176 54.278 6.064 54.096 5.938C54.068 6.722 53.998 6.82 53.676 6.82H52.388ZM53.662 11.916C53.522 11.916 53.424 11.888 53.34 11.846C53.27 11.804 53.242 11.706 53.242 11.608V8.192H52.332V11.594C52.332 12.224 52.388 12.434 52.626 12.63C52.822 12.798 53.158 12.854 53.452 12.854H54.236C54.502 12.854 54.824 12.798 54.978 12.714C55.188 12.588 55.342 12.434 55.426 12.182C55.496 11.93 55.552 11.244 55.566 10.586C55.314 10.502 54.964 10.32 54.796 10.166C54.796 10.796 54.782 11.328 54.74 11.552C54.712 11.692 54.628 11.804 54.544 11.846C54.474 11.888 54.306 11.916 54.152 11.916H53.662Z" fill="#0697DB"/>
</svg>
