<svg width="20" height="20" viewBox="0 0 20 20" fill="none" xmlns="http://www.w3.org/2000/svg">
<g clip-path="url(#clip0_394_6266)">
<path d="M8.16768 10.0158L0.380075 2.22797C-0.12673 1.72141 -0.12673 0.90236 0.380075 0.395794C0.886642 -0.110772 1.70569 -0.110772 2.21226 0.395794L10.0001 8.18363L17.7877 0.395794C18.2945 -0.110772 19.1133 -0.110772 19.6199 0.395794C20.1267 0.90236 20.1267 1.72141 19.6199 2.22797L11.8323 10.0158L19.6199 17.8036C20.1267 18.3102 20.1267 19.1293 19.6199 19.6358C19.3674 19.8885 19.0355 20.0154 18.7038 20.0154C18.3721 20.0154 18.0404 19.8885 17.7877 19.6358L10.0001 11.848L2.21226 19.6358C1.95957 19.8885 1.62787 20.0154 1.29617 20.0154C0.964466 20.0154 0.632765 19.8885 0.380075 19.6358C-0.12673 19.1293 -0.12673 18.3102 0.380075 17.8036L8.16768 10.0158Z" fill="white"/>
</g>
<defs>
<clipPath id="clip0_394_6266">
<rect width="20" height="20" fill="white" transform="matrix(-1 0 0 1 20 0)"/>
</clipPath>
</defs>
</svg>
