<svg width="56" height="14" viewBox="0 0 56 14" fill="none" xmlns="http://www.w3.org/2000/svg">
<path d="M13.286 7.492H7.546V5.224H12.502V4.23H7.546V1.962C9.198 1.766 10.724 1.5 11.914 1.136L11.13 0.309999C9.03 0.967999 4.97 1.332 1.666 1.486C1.764 1.724 1.89 2.13 1.932 2.41C3.374 2.34 4.956 2.242 6.496 2.074V4.23H1.68V5.224H6.496V7.492H0.742V8.514H6.496V11.608C6.496 11.902 6.37 12 6.062 12C5.74 12.014 4.648 12.028 3.472 11.986C3.64 12.266 3.836 12.728 3.92 13.022C5.39 13.036 6.286 13.008 6.804 12.84C7.322 12.672 7.546 12.364 7.546 11.622V8.514H13.286V7.492ZM15.904 7.786V6.764H17.668V7.786H15.904ZM15.904 5.07H17.668V6.078H15.904V5.07ZM20.44 5.07V6.078H18.606V5.07H20.44ZM20.44 7.786H18.606V6.764H20.44V7.786ZM24.122 3.53C24.15 2.55 24.15 1.514 24.15 0.463999H23.17C23.17 1.528 23.17 2.55 23.142 3.53H21.476V4.51H23.114C22.988 7.128 22.61 9.382 21.406 11.034V10.978C20.468 11.09 19.516 11.188 18.606 11.272V10.166H21.35V9.368H18.606V8.514H21.322V4.356H18.606V3.474H21.574V2.662H18.606V1.64C19.628 1.528 20.58 1.402 21.336 1.234L20.818 0.436C19.376 0.758 16.856 1.01 14.784 1.122C14.896 1.332 14.994 1.668 15.036 1.892C15.862 1.864 16.772 1.808 17.668 1.738V2.662H14.644V3.474H17.668V4.356H15.05V8.514H17.668V9.368H15.022V10.166H17.668V11.37C16.52 11.482 15.47 11.58 14.63 11.65L14.784 12.56C16.352 12.392 18.522 12.154 20.636 11.902C20.454 12.07 20.258 12.238 20.034 12.392C20.286 12.56 20.65 12.91 20.804 13.134C23.268 11.286 23.912 8.234 24.08 4.51H26.082C25.942 9.592 25.774 11.44 25.452 11.846C25.312 12.028 25.186 12.07 24.948 12.07C24.682 12.07 24.066 12.056 23.394 12C23.548 12.266 23.66 12.7 23.688 12.98C24.332 13.022 24.99 13.036 25.382 12.98C25.802 12.938 26.082 12.826 26.32 12.462C26.796 11.874 26.922 9.928 27.076 4.062C27.076 3.922 27.09 3.53 27.09 3.53H24.122ZM29.764 6.54H31.01V7.814H29.764V6.54ZM29.764 4.538H31.01V5.798H29.764V4.538ZM32.97 5.798H31.71V4.538H32.97V5.798ZM32.97 7.814H31.71V6.54H32.97V7.814ZM31.822 8.598H33.768V3.754H31.822V2.69H34.062V1.794H31.822V0.282H30.898V1.794H28.77V2.69H30.898V3.754H28.98V8.598H30.898V9.718H28.602V10.642H30.898V13.078H31.822V10.642H34.02V9.718H31.822V8.598ZM35.182 9.536V8.374H36.764V9.536H35.182ZM36.764 6.554V7.632H35.182V6.554H36.764ZM37.534 5.77H34.412V13.022H35.182V10.32H36.764V12.168C36.764 12.266 36.736 12.308 36.638 12.308H35.938C36.022 12.518 36.134 12.854 36.148 13.05C36.666 13.05 37.002 13.05 37.24 12.91C37.464 12.77 37.534 12.546 37.534 12.168V5.77ZM39.62 3.852H35.77V4.692H39.62V3.852ZM39.088 6.064H38.318V10.964H39.088V6.064ZM40.194 12.042C40.194 12.196 40.138 12.224 39.984 12.238C39.83 12.252 39.312 12.252 38.738 12.238C38.85 12.462 38.962 12.812 39.004 13.022C39.816 13.022 40.306 13.008 40.642 12.896C40.95 12.742 41.048 12.504 41.048 12.056V5.546H40.194V12.042ZM37.198 0.337999C36.54 1.654 35.21 3.18 33.796 4.006C33.964 4.244 34.202 4.608 34.314 4.86C35.728 3.964 37.002 2.536 37.702 1.304C38.486 2.55 39.844 3.936 41.132 4.748C41.286 4.468 41.51 4.076 41.692 3.852C40.39 3.138 38.99 1.752 38.122 0.337999H37.198ZM45.22 1.136V2.172H48.664C48.692 2.704 48.748 3.32 48.846 3.964L48.23 3.866C47.376 7.786 45.654 10.6 42.56 12.21C42.84 12.392 43.302 12.826 43.498 13.036C46.284 11.398 48.048 8.85 49.084 5.224C49.714 7.87 51.198 10.936 54.642 13.022C54.824 12.77 55.244 12.322 55.482 12.154C49.994 8.892 49.672 3.614 49.672 1.136H45.22Z" fill="white"/>
</svg>
