<svg width="53" height="18" viewBox="0 0 53 18" fill="none" xmlns="http://www.w3.org/2000/svg">
<path d="M13.842 15.964C13.338 15.964 13.248 15.856 13.248 15.208V6.136H6.066C6.156 5.182 6.246 4.264 6.318 3.4H16.596V2.122H1.314V3.4H4.95C4.644 7.216 4.068 12.22 3.564 15.37C2.574 15.478 1.656 15.568 0.882 15.64L1.152 16.99C3.618 16.684 7.218 16.27 10.602 15.838L10.584 14.596C8.694 14.812 6.768 15.028 5.022 15.226C5.31 13.138 5.652 10.24 5.94 7.414H11.916V15.208C11.916 16.81 12.312 17.224 13.644 17.224H15.462C16.794 17.224 17.118 16.342 17.244 13.3C16.866 13.21 16.326 12.976 16.02 12.724C15.948 15.424 15.858 15.964 15.336 15.964H13.842ZM6.426 9.718C7.704 10.726 9.126 12.184 9.684 13.264L10.8 12.436C10.188 11.356 8.748 9.934 7.452 8.98L6.426 9.718ZM21.69 9.988H25.092V11.824H21.69V9.988ZM25.092 4.516V6.154H21.69V4.516H25.092ZM21.69 7.234H25.092V8.926H21.69V7.234ZM27.63 11.824H26.352V4.516H27.522V3.31H26.352V1.132H25.092V3.31H21.69V1.132H20.466V3.31H19.026V4.516H20.466V11.824H18.756V13.012H27.63V11.824ZM21.276 13.39C20.736 14.542 19.818 15.676 18.846 16.45C19.17 16.63 19.692 17.026 19.944 17.242C20.898 16.378 21.942 15.046 22.554 13.732L21.276 13.39ZM35.226 6.91H29.484V3.994C31.392 3.544 33.516 2.896 34.992 2.158L33.858 1.204C32.778 1.816 30.96 2.446 29.232 2.914L28.278 2.626V8.746C28.278 10.87 28.134 13.48 26.892 15.586C26.46 14.92 25.722 14.02 25.11 13.354L24.084 13.912C24.786 14.704 25.632 15.802 25.974 16.486L26.514 16.18C26.442 16.27 26.37 16.36 26.298 16.45C26.586 16.63 27.054 17.062 27.234 17.332C29.214 14.848 29.484 11.32 29.484 8.782V8.152H32.22V17.368H33.48V8.152H35.226V6.91ZM39.762 4.732H42.354C42.336 5.074 42.264 5.398 42.12 5.704H39.42L39.762 4.732ZM43.614 2.824H46.386V3.85H43.614V2.824ZM50.436 2.824V3.85H47.646V2.824H50.436ZM46.386 5.704H43.452C43.524 5.398 43.578 5.074 43.596 4.732H46.386V5.704ZM51.444 6.586C51.372 7.054 51.3 7.306 51.21 7.414C51.102 7.486 50.994 7.504 50.778 7.504C50.598 7.504 50.094 7.486 49.536 7.45C49.608 7.594 49.68 7.792 49.734 7.972H41.742C42.39 7.558 42.822 7.09 43.092 6.586H46.386V7.936H47.646V6.586H51.444ZM49.608 9.952H40.608V8.836H49.608V9.952ZM49.608 11.878H40.608V10.78H49.608V11.878ZM49.608 13.84H40.608V12.724H49.608V13.84ZM39.312 14.704H50.94V8.368H51.372C51.732 8.35 52.02 8.26 52.236 8.044C52.524 7.756 52.632 7.234 52.758 6.136C52.776 5.974 52.794 5.704 52.794 5.704H47.646V4.732H51.642V1.942H47.646V0.952H46.386V1.942H43.614V0.952H42.39V1.942H37.998V2.824H42.39V3.85H38.808C38.502 4.804 38.124 5.938 37.746 6.748L38.988 6.82L39.078 6.586H41.526C40.788 7.324 39.456 7.918 37.08 8.368C37.314 8.602 37.584 9.106 37.71 9.394C38.304 9.268 38.826 9.142 39.312 9.016V14.704ZM42.336 14.884C41.04 15.514 38.88 16.09 37.026 16.432C37.332 16.666 37.782 17.17 37.998 17.422C39.798 16.99 42.066 16.234 43.542 15.424L42.336 14.884ZM46.44 15.586C48.456 16.18 50.418 16.864 51.57 17.386L52.992 16.684C51.66 16.162 49.5 15.424 47.52 14.884L46.44 15.586Z" fill="#666666"/>
</svg>
