<svg width="98" height="16" viewBox="0 0 98 16" fill="none" xmlns="http://www.w3.org/2000/svg">
<path d="M5.264 1.772H1.288V2.612H5.264V1.772ZM5.768 3.606H0.588V4.46H5.768V3.606ZM5.292 5.496H1.232V6.322H5.292V5.496ZM1.232 8.184H5.292V7.344H1.232V8.184ZM4.41 10.074V12.426H2.128V10.074H4.41ZM5.306 9.22H1.218V13.91H2.128V13.266H5.306V9.22ZM7.742 10.704V9.696H11.536V10.704H7.742ZM11.536 7.96V8.954H7.742V7.96H11.536ZM12.516 7.162H6.776V14.036H7.742V11.446H11.536V12.958C11.536 13.126 11.494 13.168 11.326 13.182C11.144 13.182 10.57 13.196 9.94 13.168C10.08 13.406 10.206 13.77 10.234 14.022C11.102 14.022 11.69 14.022 12.054 13.882C12.418 13.728 12.516 13.476 12.516 12.972V7.162ZM10.024 5.552V4.628H12.852V3.858H10.024V3.018H13.062V2.234H10.024V1.282H9.03V2.234H6.076V3.018H9.03V3.858H6.44V4.628H9.03V5.552H5.726V6.35H13.37V5.552H10.024ZM25.732 3.466H23.044V4.922C23.044 5.762 23.338 5.972 24.374 5.972H26.25C26.992 5.972 27.258 5.72 27.356 4.782C27.104 4.726 26.768 4.614 26.586 4.488C26.544 5.146 26.474 5.23 26.138 5.23H24.472C24.01 5.23 23.926 5.174 23.926 4.908V4.194H26.656V1.828H22.778V2.556H25.732V3.466ZM21.224 3.466H18.48V4.922C18.48 5.762 18.746 5.972 19.782 5.972H21.518C22.232 5.972 22.498 5.734 22.596 4.824C22.344 4.782 22.008 4.67 21.826 4.53C21.784 5.146 21.714 5.23 21.378 5.23H19.866C19.418 5.23 19.348 5.174 19.348 4.922V4.194H22.106V1.828H18.228V2.556H21.224V3.466ZM21.448 7.96H23.744V9.29H21.448V7.96ZM27.272 9.29H24.738V7.96H26.838V7.162H24.738V6.154H23.744V7.162H21.448V6.154H20.482V7.162H18.41V7.96H20.482V9.29H17.962V10.102H27.272V9.29ZM27.062 11.964C26.404 11.446 25.256 10.774 24.234 10.284L23.492 10.746C24.458 11.236 25.466 11.894 26.054 12.412L27.062 11.964ZM20.944 10.256C20.328 10.816 19.292 11.348 18.34 11.726C18.564 11.866 18.942 12.202 19.11 12.384C20.034 11.936 21.154 11.25 21.868 10.578L20.944 10.256ZM17.696 3.942C17.304 3.242 16.38 2.276 15.554 1.618L14.756 2.15C15.568 2.836 16.464 3.83 16.828 4.53L17.696 3.942ZM17.374 6.77H14.686V7.75H16.408V11.362C15.792 11.95 15.106 12.538 14.518 12.972L15.064 13.938C15.736 13.322 16.366 12.734 16.954 12.118C17.822 13.224 19.096 13.728 20.944 13.798C22.526 13.854 25.55 13.826 27.132 13.756C27.174 13.462 27.342 13 27.468 12.776C25.76 12.888 22.498 12.93 20.916 12.86C19.278 12.79 18.032 12.314 17.374 11.264V6.77ZM32.732 7.176C32.27 7.33 31.808 7.484 31.346 7.624V5.048H32.844V4.096H31.346V1.296H30.38V4.096H28.63V5.048H30.38V7.918C29.652 8.142 28.98 8.352 28.448 8.492L28.714 9.5L30.38 8.954V12.86C30.38 13.07 30.31 13.112 30.142 13.112C29.974 13.126 29.428 13.126 28.826 13.112C28.966 13.392 29.092 13.826 29.134 14.064C30.002 14.078 30.534 14.036 30.87 13.882C31.22 13.714 31.346 13.434 31.346 12.86V8.646L32.872 8.142L32.732 7.176ZM38.486 9.626H35.672L36.064 9.514C35.994 9.178 35.77 8.674 35.56 8.296H38.738C38.584 8.688 38.346 9.192 38.164 9.528L38.486 9.626ZM36.484 2.612H37.87V4.082H36.484V2.612ZM35.644 4.082H34.314V2.612H35.644V4.082ZM38.71 2.612H40.124V4.082H38.71V2.612ZM41.412 7.47H37.604V6.476H40.726V5.692H37.604V4.824H40.992V1.856H33.46V4.824H36.624V5.692H33.614V6.476H36.624V7.47H32.928V8.296H35.224L34.65 8.436C34.846 8.786 35.042 9.262 35.14 9.626H33.054V10.438H36.624V11.432H33.348V12.244H36.624V14.176H37.604V12.244H40.908V11.432H37.604V10.438H41.216V9.626H39.046C39.27 9.262 39.522 8.814 39.788 8.352L39.578 8.296H41.412V7.47ZM52.766 12.972C52.374 12.972 52.304 12.888 52.304 12.384V5.328H46.718C46.788 4.586 46.858 3.872 46.914 3.2H54.908V2.206H43.022V3.2H45.85C45.612 6.168 45.164 10.06 44.772 12.51C44.002 12.594 43.288 12.664 42.686 12.72L42.896 13.77C44.814 13.532 47.614 13.21 50.246 12.874L50.232 11.908C48.762 12.076 47.264 12.244 45.906 12.398C46.13 10.774 46.396 8.52 46.62 6.322H51.268V12.384C51.268 13.63 51.576 13.952 52.612 13.952H54.026C55.062 13.952 55.314 13.266 55.412 10.9C55.118 10.83 54.698 10.648 54.46 10.452C54.404 12.552 54.334 12.972 53.928 12.972H52.766ZM46.998 8.114C47.992 8.898 49.098 10.032 49.532 10.872L50.4 10.228C49.924 9.388 48.804 8.282 47.796 7.54L46.998 8.114ZM58.87 8.324H61.516V9.752H58.87V8.324ZM61.516 4.068V5.342H58.87V4.068H61.516ZM58.87 6.182H61.516V7.498H58.87V6.182ZM63.49 9.752H62.496V4.068H63.406V3.13H62.496V1.436H61.516V3.13H58.87V1.436H57.918V3.13H56.798V4.068H57.918V9.752H56.588V10.676H63.49V9.752ZM58.548 10.97C58.128 11.866 57.414 12.748 56.658 13.35C56.91 13.49 57.316 13.798 57.512 13.966C58.254 13.294 59.066 12.258 59.542 11.236L58.548 10.97ZM69.398 5.93H64.932V3.662C66.416 3.312 68.068 2.808 69.216 2.234L68.334 1.492C67.494 1.968 66.08 2.458 64.736 2.822L63.994 2.598V7.358C63.994 9.01 63.882 11.04 62.916 12.678C62.58 12.16 62.006 11.46 61.53 10.942L60.732 11.376C61.278 11.992 61.936 12.846 62.202 13.378L62.622 13.14C62.566 13.21 62.51 13.28 62.454 13.35C62.678 13.49 63.042 13.826 63.182 14.036C64.722 12.104 64.932 9.36 64.932 7.386V6.896H67.06V14.064H68.04V6.896H69.398V5.93ZM74.466 1.688C73.64 3.746 72.268 5.748 70.742 7.008C71.036 7.162 71.512 7.554 71.736 7.75C73.22 6.378 74.662 4.25 75.6 2.01L74.466 1.688ZM78.54 9.36C79.198 10.144 79.912 11.096 80.542 12.006C78.428 12.104 76.272 12.202 74.382 12.272C75.306 10.62 76.314 8.436 77.07 6.63L75.866 6.336C75.264 8.142 74.158 10.62 73.22 12.328C72.52 12.342 71.876 12.37 71.302 12.384L71.442 13.476C73.934 13.35 77.658 13.182 81.186 12.972C81.452 13.392 81.69 13.798 81.872 14.134L82.894 13.56C82.208 12.314 80.78 10.368 79.506 8.912L78.54 9.36ZM78.4 2.108C79.464 4.068 81.214 6.406 82.502 7.75C82.712 7.47 83.09 7.064 83.37 6.868C82.096 5.692 80.346 3.508 79.408 1.688L78.4 2.108ZM91.77 8.002V10.606H87.276V8.002H91.77ZM92.792 11.53V7.078H86.254V12.552H87.276V11.53H92.792ZM93.744 4.642H85.372V5.58H93.744V4.642ZM96.39 2.192H85.274V3.186H95.34V12.524C95.34 12.79 95.27 12.86 95.004 12.874C94.724 12.888 93.758 12.888 92.792 12.86C92.96 13.154 93.114 13.672 93.156 13.98C94.402 13.98 95.27 13.966 95.76 13.784C96.236 13.602 96.39 13.238 96.39 12.524V2.192Z" fill="#0697DB"/>
</svg>
