<svg width="57" height="19" viewBox="0 0 57 19" fill="none" xmlns="http://www.w3.org/2000/svg">
<rect width="57" height="19" rx="8" fill="url(#paint0_linear_619_5642)"/>
<path d="M20.18 6.964H25.856V9.16H20.18V6.964ZM25.268 12.94C24.752 12.94 24.656 12.868 24.656 12.532V9.964H26.768V6.448C27.128 6.748 27.5 7.024 27.872 7.252C28.016 7.036 28.34 6.736 28.568 6.58C27.308 5.908 25.964 4.612 25.28 3.304H21.824V4.12H24.74C25.196 4.84 25.784 5.548 26.432 6.148H19.736C20.36 5.536 20.924 4.84 21.332 4.096L20.444 3.808C19.808 4.972 18.692 6.04 17.516 6.7C17.732 6.844 18.068 7.204 18.224 7.36C18.596 7.132 18.956 6.856 19.316 6.544V9.964H21.044C20.816 11.632 20.168 12.64 17.48 13.168C17.66 13.348 17.9 13.72 17.984 13.936C20.888 13.264 21.692 12.04 21.992 9.964H23.756V12.532C23.756 13.492 24.044 13.768 25.172 13.768H27.116C28.1 13.768 28.376 13.324 28.472 11.596C28.232 11.536 27.86 11.404 27.656 11.236C27.596 12.712 27.512 12.94 27.032 12.94H25.268ZM37.28 4.6C37.1 4.996 36.86 5.44 36.644 5.776H34.352C34.7 5.404 35.012 5.008 35.264 4.6H37.28ZM39.128 7.768C39.104 7.84 39.056 7.852 38.888 7.852H38.096C37.844 7.852 37.82 7.828 37.82 7.636V6.508H39.128V7.768ZM34.46 6.508H35.636C35.552 7.42 35.288 7.96 34.46 8.308V6.508ZM33.176 8.836L33.056 8.008C32.66 8.14 32.264 8.272 31.868 8.392V6.184H33.08C33.224 6.304 33.38 6.448 33.476 6.58C33.548 6.52 33.632 6.46 33.704 6.388V9.7H34.46V8.32C34.604 8.428 34.784 8.656 34.856 8.812C35.876 8.368 36.212 7.648 36.308 6.508H37.136V7.636C37.136 8.308 37.304 8.464 38.012 8.464H39.008H39.128V9.676H39.908V5.776H37.52C37.832 5.296 38.168 4.72 38.384 4.204L37.82 3.832L37.688 3.88H35.684C35.816 3.616 35.936 3.352 36.044 3.088L35.204 2.956C34.868 3.868 34.196 4.972 33.152 5.824V5.368H31.868V2.968H31.04V5.368H29.54V6.184H31.04V8.644C30.416 8.836 29.84 9.016 29.384 9.136L29.612 10L31.04 9.532V12.88C31.04 13.06 30.98 13.096 30.836 13.096C30.692 13.108 30.224 13.108 29.708 13.096C29.828 13.336 29.936 13.708 29.972 13.912C30.716 13.924 31.172 13.888 31.46 13.756C31.76 13.612 31.868 13.372 31.868 12.88V9.268L33.176 8.836ZM40.364 10.9V10.144H37.004C37.064 9.808 37.1 9.46 37.136 9.076H36.32C36.284 9.46 36.248 9.82 36.188 10.144H33.032V10.9H35.984C35.576 12.088 34.676 12.832 32.612 13.252C32.78 13.42 32.984 13.744 33.056 13.936C35.192 13.444 36.2 12.604 36.692 11.332C37.316 12.652 38.384 13.48 40.004 13.876C40.124 13.66 40.34 13.312 40.544 13.144C38.96 12.844 37.916 12.076 37.352 10.9H40.364Z" fill="white"/>
<defs>
<linearGradient id="paint0_linear_619_5642" x1="57" y1="19" x2="8.49366e-07" y2="19" gradientUnits="userSpaceOnUse">
<stop stop-color="#0F92DE"/>
<stop offset="1" stop-color="#4FD1B9"/>
</linearGradient>
</defs>
</svg>
