<svg width="57" height="18" viewBox="0 0 57 18" fill="none" xmlns="http://www.w3.org/2000/svg">
<path d="M7.74121 10.3486H2.37109V16H0.683594V3.20314H8.61133V4.59181H2.37109V8.96877H7.74121V10.3486Z" fill="#666666"/>
<path d="M15.9502 16C15.8564 15.8125 15.7803 15.4785 15.7217 14.9981C14.9658 15.7832 14.0635 16.1758 13.0146 16.1758C12.0771 16.1758 11.3066 15.9121 10.7031 15.3848C10.1055 14.8516 9.80664 14.1778 9.80664 13.3633C9.80664 12.3731 10.1816 11.6055 10.9316 11.0606C11.6875 10.5098 12.748 10.2344 14.1133 10.2344H15.6953V9.48732C15.6953 8.91896 15.5254 8.46779 15.1855 8.13381C14.8457 7.79396 14.3447 7.62404 13.6826 7.62404C13.1025 7.62404 12.6162 7.77052 12.2236 8.06349C11.8311 8.35646 11.6348 8.71095 11.6348 9.12697H10C10 8.65236 10.167 8.19533 10.501 7.75588C10.8408 7.31056 11.2979 6.959 11.8721 6.70119C12.4521 6.44338 13.0879 6.31447 13.7793 6.31447C14.875 6.31447 15.7334 6.58986 16.3545 7.14064C16.9756 7.68556 17.2979 8.43849 17.3213 9.39943V13.7764C17.3213 14.6494 17.4326 15.3438 17.6553 15.8594V16H15.9502ZM13.252 14.7608C13.7617 14.7608 14.2451 14.6289 14.7021 14.3653C15.1592 14.1016 15.4902 13.7588 15.6953 13.3369V11.3858H14.4209C12.4287 11.3858 11.4326 11.9688 11.4326 13.1348C11.4326 13.6445 11.6025 14.043 11.9424 14.3301C12.2822 14.6172 12.7188 14.7608 13.252 14.7608Z" fill="#666666"/>
<path d="M21.3994 6.49025L21.4434 7.54494C22.1406 6.72463 23.0811 6.31447 24.2646 6.31447C25.5947 6.31447 26.5 6.82424 26.9805 7.84377C27.2969 7.38674 27.707 7.01759 28.2109 6.73634C28.7207 6.45509 29.3213 6.31447 30.0127 6.31447C32.0986 6.31447 33.1592 7.41896 33.1943 9.62795V16H31.5684V9.72463C31.5684 9.04494 31.4131 8.5381 31.1025 8.20412C30.792 7.86427 30.2705 7.69435 29.5381 7.69435C28.9346 7.69435 28.4336 7.87599 28.0352 8.23927C27.6367 8.5967 27.4053 9.0801 27.3408 9.68947V16H25.7061V9.76857C25.7061 8.38576 25.0293 7.69435 23.6758 7.69435C22.6094 7.69435 21.8799 8.14845 21.4873 9.05666V16H19.8613V6.49025H21.3994Z" fill="#666666"/>
<path d="M37.4219 16H35.7959V6.49025H37.4219V16ZM35.6641 3.96779C35.6641 3.70412 35.7432 3.48146 35.9014 3.29982C36.0654 3.11818 36.3057 3.02736 36.6221 3.02736C36.9385 3.02736 37.1787 3.11818 37.3428 3.29982C37.5068 3.48146 37.5889 3.70412 37.5889 3.96779C37.5889 4.23146 37.5068 4.45119 37.3428 4.62697C37.1787 4.80275 36.9385 4.89064 36.6221 4.89064C36.3057 4.89064 36.0654 4.80275 35.9014 4.62697C35.7432 4.45119 35.6641 4.23146 35.6641 3.96779Z" fill="#666666"/>
<path d="M43.3198 10.708C43.9678 10.114 44.5438 9.46602 45.0658 8.76402H50.6458C51.1498 9.46602 51.7078 10.132 52.3378 10.708H43.3198ZM48.8458 5.48802C49.1338 6.19002 49.4578 6.87402 49.8358 7.52202H45.8758C46.2718 6.87402 46.6138 6.19002 46.9198 5.48802H48.8458ZM55.7578 8.76402V7.52202H51.2938C50.8618 6.87402 50.4838 6.19002 50.1598 5.48802H54.7138V4.30002H51.5278C52.0858 3.58002 52.7338 2.60802 53.2738 1.67202L51.9598 1.22202C51.5818 2.08602 50.8438 3.29202 50.2678 4.04802L50.9158 4.30002H47.3878C47.7478 3.29202 48.0358 2.24802 48.2878 1.16802L46.9198 0.916016C46.6858 2.08602 46.3798 3.22002 45.9658 4.30002H44.1298L44.8858 3.97602C44.5978 3.23802 43.8958 2.10402 43.2298 1.29402L42.0958 1.70802C42.7078 2.48202 43.3198 3.54402 43.6258 4.30002H40.9798V5.48802H45.4618C45.1378 6.19002 44.7418 6.87402 44.3098 7.52202H39.8278V8.76402H43.3558C42.3298 9.95202 41.0518 10.96 39.4678 11.734C39.7558 11.986 40.1338 12.49 40.3138 12.778C41.2858 12.292 42.1498 11.698 42.9238 11.05V11.914H46.0018C45.5518 14.002 44.4718 15.514 41.1058 16.288C41.3578 16.54 41.7358 17.098 41.8618 17.404C45.6238 16.396 46.8838 14.56 47.3878 11.914H51.0778C50.8798 14.578 50.6818 15.658 50.3578 15.982C50.1778 16.144 50.0158 16.162 49.6918 16.162C49.3498 16.162 48.4138 16.162 47.4598 16.072C47.6938 16.396 47.8378 16.936 47.8738 17.314C48.8458 17.368 49.7998 17.368 50.2678 17.332C50.8258 17.296 51.1498 17.17 51.4738 16.828C51.9598 16.306 52.2298 14.884 52.4638 11.284C52.4818 11.176 52.4998 10.996 52.4998 10.87C53.3278 11.626 54.2458 12.256 55.2358 12.724C55.3978 12.382 55.8118 11.878 56.1178 11.626C54.6598 10.996 53.3458 10.006 52.2478 8.76402H55.7578Z" fill="#666666"/>
</svg>
