<svg width="10" height="13" viewBox="0 0 10 13" fill="none" xmlns="http://www.w3.org/2000/svg">
<path d="M2.7793 8.49121V13H0.142578V0.203125H5.13477C6.0957 0.203125 6.93945 0.378906 7.66602 0.730469C8.39844 1.08203 8.96094 1.58301 9.35352 2.2334C9.74609 2.87793 9.94238 3.61328 9.94238 4.43945C9.94238 5.69336 9.51172 6.68359 8.65039 7.41016C7.79492 8.13086 6.6084 8.49121 5.09082 8.49121H2.7793ZM2.7793 6.35547H5.13477C5.83203 6.35547 6.3623 6.19141 6.72559 5.86328C7.09473 5.53516 7.2793 5.06641 7.2793 4.45703C7.2793 3.83008 7.09473 3.32324 6.72559 2.93652C6.35645 2.5498 5.84668 2.35059 5.19629 2.33887H2.7793V6.35547Z" fill="#0686E3"/>
</svg>
