<svg width="10" height="18" viewBox="0 0 10 18" fill="none" xmlns="http://www.w3.org/2000/svg">
<path d="M1.16928 9.43901L8.01972 16.8195C8.24434 17.061 8.60786 17.0598 8.8314 16.8183C9.05493 16.5756 9.05493 16.1829 8.83031 15.9415L2.38788 9.00059L8.8314 2.05971C9.05602 1.81823 9.05602 1.42553 8.83248 1.18287C8.71963 1.06096 8.57314 1 8.42556 1C8.27907 1 8.13257 1.06096 8.01972 1.18053L1.16928 8.55982C1.06077 8.67587 1 8.83413 1 8.99941C1.00109 9.1647 1.06185 9.32295 1.16928 9.43901Z" fill="#666666"/>
<path fill-rule="evenodd" clip-rule="evenodd" d="M0.43543 10.1183C0.14945 9.80938 0.00265557 9.40731 2.05872e-05 9.00598L-2.23279e-05 8.99941C-2.23102e-05 8.59368 0.148281 8.18846 0.43731 7.87848C0.437821 7.87794 0.438333 7.87739 0.438845 7.87684L7.29246 0.494114C7.5892 0.179717 7.99657 -8.75727e-08 8.42556 -6.88211e-08C8.85612 -5.00007e-08 9.26721 0.180421 9.56633 0.503559L9.56797 0.50533C10.1433 1.12987 10.1459 2.11398 9.56427 2.74007L3.75232 9.00064L9.56252 15.2604C9.56274 15.2606 9.56229 15.2601 9.56252 15.2604C9.56254 15.2604 9.56323 15.2611 9.56325 15.2612C10.1449 15.8873 10.1422 16.8713 9.56688 17.4958L9.56525 17.4976C8.9476 18.1648 7.90937 18.1691 7.28751 17.5006L0.43543 10.1183ZM8.83031 15.9415L2.38788 9.00059L8.8314 2.05971C9.05602 1.81823 9.05602 1.42553 8.83248 1.18287C8.71963 1.06096 8.57314 1 8.42556 1C8.27906 1 8.13257 1.06096 8.01972 1.18053L1.16928 8.55982C1.06077 8.67587 1 8.83413 1 8.99941C1.00108 9.1647 1.06185 9.32295 1.16928 9.43901L8.01972 16.8195C8.24434 17.061 8.60786 17.0598 8.8314 16.8183C9.05493 16.5756 9.05493 16.1829 8.83031 15.9415Z" fill="#666666"/>
</svg>
