<svg width="194" height="22" viewBox="0 0 194 22" fill="none" xmlns="http://www.w3.org/2000/svg">
<path d="M92.5 8.396V9.932H89.584V8.396H92.5ZM93.316 10.628V7.7H88.792V11.36H89.584V10.628H93.316ZM89.68 4.172C89.572 3.824 89.356 3.32 89.116 2.912H92.86C92.692 3.32 92.44 3.824 92.236 4.172H89.68ZM96.16 2.912V2.096H91.408V0.968H90.508V2.096H85.864V2.912H88.156C88.36 3.284 88.588 3.788 88.72 4.172H86.368V11.9H87.208V4.952H89.356C89.236 6.068 88.804 6.62 87.292 6.932C87.448 7.076 87.652 7.376 87.724 7.556C89.476 7.136 90.016 6.392 90.16 4.952H91.588V6.152C91.588 6.896 91.792 7.088 92.632 7.088H93.868C94.504 7.088 94.72 6.848 94.804 5.888C94.576 5.84 94.252 5.732 94.12 5.612C94.084 6.32 94.036 6.404 93.772 6.404H92.728C92.428 6.404 92.38 6.38 92.38 6.14V4.952H94.888V10.808C94.888 11 94.828 11.06 94.624 11.06C94.408 11.072 93.688 11.084 92.908 11.048C93.04 11.276 93.172 11.684 93.208 11.912C94.192 11.912 94.852 11.9 95.248 11.768C95.632 11.624 95.752 11.336 95.752 10.808V4.172H93.22C93.436 3.812 93.676 3.368 93.904 2.912H96.16ZM106.516 10.652H101.332V8.348H106.516V10.652ZM104.2 3.608H103.3V7.556H100.456V11.924H101.332V11.456H106.516V11.9H107.416V7.556H104.2V5.84H108.22V5.036H104.2V3.608ZM103.804 2.504V0.968H102.892V2.504H98.488V5.6C98.488 7.304 98.392 9.704 97.42 11.42C97.636 11.516 98.02 11.768 98.176 11.924C99.196 10.112 99.364 7.424 99.364 5.6V3.356H108.388V2.504H103.804Z" fill="#1092DE"/>
<path d="M1 21H193" stroke="#1092DE" stroke-width="2" stroke-linecap="round"/>
</svg>
