<svg width="181" height="22" viewBox="0 0 181 22" fill="none" xmlns="http://www.w3.org/2000/svg">
<path d="M1 21L180 21" stroke="#E5E5E5" stroke-width="2" stroke-linecap="round"/>
<path d="M77.016 3.272C76.632 2.708 75.792 1.868 75.108 1.28L74.424 1.748C75.12 2.36 75.936 3.224 76.296 3.788L77.016 3.272ZM75.948 5.888C75.54 6.656 75.012 7.388 74.376 8.072C74.172 7.28 74.004 6.356 73.884 5.336H77.316V4.484H73.788C73.692 3.416 73.644 2.264 73.644 1.064H72.732C72.744 2.24 72.792 3.392 72.9 4.484H70.152V2.396C70.884 2.24 71.58 2.048 72.156 1.844L71.52 1.112C70.392 1.532 68.46 1.94 66.78 2.192C66.9 2.408 67.02 2.72 67.068 2.936C67.776 2.84 68.532 2.72 69.276 2.576V4.484H66.708V5.336H69.276V7.436C68.232 7.652 67.26 7.856 66.54 7.976L66.792 8.876C67.512 8.72 68.376 8.516 69.276 8.324V10.76C69.276 10.976 69.204 11.036 68.988 11.036C68.784 11.048 68.076 11.06 67.308 11.024C67.44 11.276 67.596 11.684 67.644 11.924C68.616 11.924 69.264 11.9 69.636 11.756C70.008 11.612 70.152 11.348 70.152 10.772V8.108C70.884 7.94 71.628 7.772 72.36 7.592L72.3 6.788C71.592 6.944 70.86 7.1 70.152 7.256V5.336H72.972C73.128 6.632 73.356 7.82 73.644 8.816C72.792 9.608 71.808 10.268 70.8 10.76C71.028 10.952 71.28 11.252 71.412 11.468C72.312 11 73.164 10.4 73.944 9.704C74.496 11.108 75.216 11.948 76.164 11.948C77.064 11.948 77.376 11.372 77.544 9.392C77.292 9.308 76.98 9.104 76.788 8.912C76.716 10.448 76.572 11.06 76.248 11.06C75.648 11.06 75.108 10.292 74.652 9.032C75.492 8.18 76.2 7.232 76.74 6.212L75.948 5.888ZM82.416 6.188H79.896V3.68H82.416V6.188ZM79.896 9.86V6.98H82.416V9.86H79.896ZM80.904 0.931999C80.82 1.496 80.604 2.3 80.424 2.876H79.08V11.612H79.896V10.664H83.232V2.876H81.24C81.444 2.36 81.66 1.7 81.864 1.112L80.904 0.931999ZM89.1 2.84H85.512C85.716 2.276 85.884 1.7 86.028 1.112L85.176 0.908C84.792 2.552 84.144 4.208 83.34 5.264C83.532 5.384 83.916 5.624 84.072 5.768C84.492 5.204 84.864 4.472 85.2 3.668H88.248C88.092 8.444 87.912 10.268 87.516 10.688C87.396 10.844 87.264 10.868 87.024 10.868C86.748 10.868 86.028 10.868 85.248 10.796C85.416 11.048 85.524 11.408 85.548 11.672C86.22 11.708 86.904 11.732 87.324 11.684C87.732 11.648 88.008 11.54 88.272 11.204C88.752 10.616 88.908 8.768 89.1 3.296V2.84ZM87.204 8.24C86.82 7.532 85.992 6.38 85.32 5.528L84.624 5.936C85.284 6.8 86.088 7.988 86.448 8.708L87.204 8.24ZM97.5 8.396V9.932H94.584V8.396H97.5ZM98.316 10.628V7.7H93.792V11.36H94.584V10.628H98.316ZM94.68 4.172C94.572 3.824 94.356 3.32 94.116 2.912H97.86C97.692 3.32 97.44 3.824 97.236 4.172H94.68ZM101.16 2.912V2.096H96.408V0.968H95.508V2.096H90.864V2.912H93.156C93.36 3.284 93.588 3.788 93.72 4.172H91.368V11.9H92.208V4.952H94.356C94.236 6.068 93.804 6.62 92.292 6.932C92.448 7.076 92.652 7.376 92.724 7.556C94.476 7.136 95.016 6.392 95.16 4.952H96.588V6.152C96.588 6.896 96.792 7.088 97.632 7.088H98.868C99.504 7.088 99.72 6.848 99.804 5.888C99.576 5.84 99.252 5.732 99.12 5.612C99.084 6.32 99.036 6.404 98.772 6.404H97.728C97.428 6.404 97.38 6.38 97.38 6.14V4.952H99.888V10.808C99.888 11 99.828 11.06 99.624 11.06C99.408 11.072 98.688 11.084 97.908 11.048C98.04 11.276 98.172 11.684 98.208 11.912C99.192 11.912 99.852 11.9 100.248 11.768C100.632 11.624 100.752 11.336 100.752 10.808V4.172H98.22C98.436 3.812 98.676 3.368 98.904 2.912H101.16ZM110.4 4.592H105.636V2.324H110.4V4.592ZM111.3 1.472H104.772V5.444H111.3V1.472ZM106.392 7.568V10.412H103.884V7.568H106.392ZM103.032 11.924H103.884V11.276H106.392V11.816H107.268V6.704H103.032V11.924ZM109.44 10.412V7.568H112.164V10.412H109.44ZM108.576 6.704V11.924H109.44V11.276H112.164V11.84H113.04V6.704H108.576Z" fill="#A4A4A4"/>
</svg>
