<svg width="10" height="18" viewBox="0 0 10 18" fill="none" xmlns="http://www.w3.org/2000/svg">
<path d="M0.802355 9.77866L0.802813 9.77916L9.1975 2.40025L8.8314 2.05971L9.19784 2.39989L9.19767 2.40007C9.60098 1.96629 9.59972 1.27776 9.20023 0.844102L9.20023 0.844101L9.19941 0.843215C8.99342 0.62069 8.71463 0.5 8.42556 0.5C8.13782 0.5 7.8609 0.620349 7.6561 0.837332L7.65609 0.83732L7.65328 0.840348L0.804064 8.21833C0.803792 8.21862 0.803519 8.21891 0.803246 8.21921C0.6045 8.43222 0.5 8.71394 0.499989 8.99941L0.500011 9.00269C0.501871 9.28601 0.605652 9.56617 0.802355 9.77866ZM9.19641 15.6009L3.0701 9.00061L8.83031 15.9415L9.19678 15.6013L9.19649 15.601C9.19646 15.601 9.19644 15.6009 9.19641 15.6009Z" fill="#A4A4A4" stroke="#A4A4A4"/>
</svg>
