<svg width="96" height="12" viewBox="0 0 96 12" fill="none" xmlns="http://www.w3.org/2000/svg">
<path d="M3.38248 6.5H8.31448V7.1C8.17048 7.232 8.02648 7.352 7.88248 7.472C6.33448 7.58 4.77448 7.676 3.38248 7.76V6.5ZM8.31448 2.936V4.04H3.38248V2.936H8.31448ZM8.31448 5.828H3.38248V4.724H8.31448V5.828ZM10.3425 4.784C10.0065 5.288 9.63448 5.768 9.21448 6.224V2.144H5.92648C6.13048 1.82 6.33448 1.448 6.50248 1.1L5.43448 0.931999C5.32648 1.28 5.14648 1.736 4.94248 2.144H2.49448V7.808C1.79848 7.844 1.17448 7.88 0.634477 7.904L0.766477 8.792C2.35048 8.684 4.51048 8.516 6.70648 8.336C4.91848 9.524 2.80648 10.412 0.526477 11.012C0.706477 11.192 0.994477 11.612 1.11448 11.816C3.79048 11.024 6.27448 9.872 8.31448 8.276V10.664C8.31448 10.916 8.23048 11 7.97848 11C7.71448 11.012 6.81448 11.024 5.86648 10.976C6.01048 11.24 6.15448 11.66 6.20248 11.912C7.41448 11.924 8.19448 11.912 8.63848 11.768C9.08248 11.6 9.21448 11.3 9.21448 10.676V7.508C9.95848 6.824 10.6185 6.068 11.1945 5.228L10.3425 4.784ZM15.8505 1.208C15.1065 3.044 13.7745 4.7 12.2625 5.72C12.4785 5.876 12.8625 6.212 13.0185 6.404C14.5305 5.276 15.9225 3.488 16.7865 1.472L15.8505 1.208ZM14.2065 5.468V6.332H16.6545C16.3785 8.36 15.7185 10.256 12.8985 11.192C13.1025 11.384 13.3545 11.744 13.4745 11.972C16.5225 10.868 17.2905 8.696 17.6025 6.332H20.6985C20.5545 9.356 20.3865 10.556 20.0745 10.856C19.9665 10.988 19.8225 11.012 19.5705 11.012C19.2945 11.012 18.5505 11 17.7705 10.928C17.9385 11.192 18.0465 11.552 18.0705 11.816C18.8145 11.852 19.5585 11.876 19.9545 11.84C20.3745 11.792 20.6265 11.72 20.8785 11.42C21.2865 10.964 21.4665 9.584 21.6345 5.9C21.6465 5.78 21.6585 5.468 21.6585 5.468H14.2065ZM19.1505 1.52C20.0385 3.296 21.5505 5.228 22.8705 6.296C23.0385 6.044 23.3745 5.696 23.6025 5.504C22.3065 4.592 20.7705 2.792 19.9905 1.184L19.1505 1.52ZM28.1265 1.376H25.0185V2.096H28.1265V1.376ZM28.5105 2.948H24.4425V3.68H28.5105V2.948ZM28.1745 5.276V4.568H24.9465V5.276H28.1745ZM27.4185 8.492V10.496H25.6905V8.492H27.4185ZM28.1745 7.76H24.9345V11.78H25.6905V11.216H28.1745V7.76ZM24.9465 6.872H28.1745V6.152H24.9465V6.872ZM28.5225 11.552H35.3265V10.772H28.5225V11.552ZM33.5145 7.856H30.1665V6.56H33.5145V7.856ZM34.3665 5.852H29.3505V8.576H34.3665V5.852ZM33.1425 10.724C33.3705 10.244 33.6465 9.524 33.8985 8.864L33.0585 8.66C32.9265 9.212 32.6385 10.028 32.4225 10.532L33.1425 10.724ZM31.2945 10.508C31.1985 10.004 30.9345 9.236 30.6585 8.66L29.9025 8.864C30.1785 9.452 30.4185 10.232 30.4905 10.736L31.2945 10.508ZM34.8585 2.54C34.5945 2.816 34.1505 3.188 33.7785 3.476C33.6225 3.236 33.4665 2.972 33.3345 2.708C33.7425 2.456 34.2105 2.12 34.6305 1.796L34.1145 1.304C33.8625 1.556 33.4545 1.916 33.1065 2.192C32.9385 1.808 32.8065 1.4 32.6985 0.991999L31.9665 1.16C32.2785 2.372 32.7465 3.488 33.3945 4.364H30.3825C30.9345 3.596 31.3905 2.66 31.6425 1.58L31.1385 1.388L30.9945 1.424H28.8465V2.144H30.6705C30.5265 2.564 30.3465 2.972 30.1185 3.344C29.8545 3.056 29.4945 2.756 29.1705 2.528L28.6665 3.02C29.0145 3.284 29.4105 3.656 29.6865 3.98C29.2305 4.556 28.6905 5.024 28.1265 5.324C28.3065 5.48 28.5225 5.792 28.6305 5.984C29.1825 5.66 29.7105 5.192 30.1785 4.628V5.084H33.5265V4.532C33.9345 5.06 34.4145 5.492 34.9545 5.804C35.0865 5.588 35.3385 5.276 35.5305 5.12C35.0025 4.844 34.5345 4.448 34.1385 3.956C34.5345 3.704 34.9785 3.38 35.3745 3.056L34.8585 2.54ZM46.7985 2.24C46.3545 1.844 45.4665 1.328 44.7345 1.004L44.2185 1.556C44.9505 1.904 45.8265 2.456 46.2465 2.864L46.7985 2.24ZM41.9985 9.128C40.0545 9.536 38.0145 9.944 36.7185 10.196L36.8865 11.096C38.2785 10.784 40.2345 10.364 42.0705 9.968L41.9985 9.128ZM40.7385 7.664H38.3025V5.588H40.7385V7.664ZM37.4745 4.808V8.432H41.6145V4.808H37.4745ZM45.7665 4.604C45.3825 5.852 44.8665 6.956 44.2185 7.94C43.9185 6.776 43.7145 5.336 43.5945 3.752H47.1345V2.876H43.5345C43.5105 2.264 43.4985 1.64 43.4985 0.991999H42.5625C42.5745 1.628 42.5865 2.252 42.6225 2.876H36.7785V3.752H42.6705C42.8265 5.696 43.0905 7.472 43.5105 8.876C42.7185 9.836 41.7585 10.628 40.6305 11.228C40.8345 11.384 41.1825 11.732 41.3265 11.912C42.2745 11.348 43.1145 10.664 43.8585 9.848C44.3985 11.144 45.1185 11.924 46.0185 11.924C46.9425 11.924 47.2785 11.336 47.4345 9.284C47.1825 9.2 46.8585 8.996 46.6545 8.78C46.5825 10.376 46.4385 11 46.1025 11C45.5145 11 44.9745 10.256 44.5305 9.02C45.4305 7.832 46.1385 6.428 46.6665 4.82L45.7665 4.604ZM52.7625 5.6L52.8465 6.428C54.2385 6.332 56.2425 6.2 58.1625 6.044C58.3785 6.392 58.5585 6.704 58.6785 6.968L59.4225 6.536C59.0505 5.792 58.2345 4.652 57.4905 3.8L56.7945 4.16C57.0825 4.508 57.3945 4.904 57.6705 5.312C56.6625 5.372 55.6425 5.432 54.7305 5.492C55.0545 4.844 55.4025 4.04 55.7025 3.344H59.2305V2.528H56.3265V0.956H55.4265V2.528H52.7145V3.344H54.6825C54.4665 4.04 54.1305 4.904 53.8185 5.54L52.7625 5.6ZM49.0665 7.76C48.9345 8.816 48.6825 9.884 48.2865 10.616C48.4785 10.676 48.8385 10.844 48.9825 10.952C49.3785 10.184 49.6665 9.032 49.8345 7.904L49.0665 7.76ZM52.0905 6.884C52.1865 7.136 52.2585 7.376 52.3065 7.58L52.9785 7.28C52.8225 6.632 52.3425 5.6 51.8505 4.832L51.2265 5.084C51.4305 5.408 51.6225 5.792 51.7905 6.164L50.0145 6.236C50.8065 5.204 51.7185 3.8 52.4025 2.66L51.6465 2.324C51.3345 2.96 50.9025 3.728 50.4345 4.472C50.2425 4.232 50.0025 3.956 49.7385 3.692C50.1825 3.02 50.6865 2.072 51.0945 1.28L50.3145 0.968C50.0625 1.628 49.6425 2.528 49.2345 3.2C49.1145 3.092 49.0065 2.984 48.8865 2.888L48.4305 3.476C48.9825 3.968 49.6065 4.64 49.9785 5.168C49.7145 5.564 49.4385 5.948 49.1865 6.272L48.3945 6.308L48.4665 7.1C49.0185 7.064 49.6665 7.028 50.3505 6.992V11.936H51.1425V6.944L52.0905 6.884ZM52.9545 9.86C52.8345 9.272 52.5105 8.36 52.1865 7.676L51.5385 7.892C51.8505 8.588 52.1505 9.488 52.2705 10.088L52.9545 9.86ZM54.3105 6.86C54.2265 9.176 53.9385 10.556 52.0305 11.3C52.2105 11.456 52.4505 11.768 52.5345 11.96C54.6705 11.084 55.0545 9.464 55.1625 6.86H54.3105ZM57.6585 11.036C57.3945 11.036 57.3585 11 57.3585 10.688V6.848H56.5305V10.688C56.5305 11.576 56.7105 11.828 57.5385 11.828H58.5585C59.2785 11.828 59.4945 11.432 59.5545 9.884C59.3265 9.824 58.9785 9.68 58.8105 9.536C58.7745 10.844 58.7265 11.036 58.4745 11.036H57.6585ZM60.5145 5.84V6.812H71.4105V5.84H60.5145ZM73.0425 7.76C72.9105 8.804 72.6825 9.884 72.3105 10.616C72.4785 10.676 72.8265 10.832 72.9585 10.928C73.3425 10.16 73.6065 9.02 73.7745 7.892L73.0425 7.76ZM75.8985 6.8C75.9945 7.088 76.0665 7.352 76.1025 7.568L76.7865 7.28C76.6425 6.608 76.2225 5.564 75.7665 4.772L75.1425 5.012C75.3105 5.336 75.4785 5.696 75.6225 6.056L74.0145 6.14C74.7825 5.132 75.6705 3.764 76.3185 2.648L75.5865 2.324C75.2745 2.96 74.8425 3.74 74.3745 4.484C74.2065 4.256 73.9905 3.992 73.7505 3.728C74.1705 3.068 74.6865 2.084 75.0945 1.256L74.3265 0.968C74.0865 1.628 73.6545 2.552 73.2705 3.236C73.1505 3.116 73.0185 2.984 72.8985 2.876L72.4185 3.428C72.9705 3.944 73.5705 4.64 73.9185 5.18C73.6785 5.552 73.4385 5.888 73.2105 6.188C72.8985 6.2 72.5985 6.212 72.3345 6.224L72.4185 7.028C72.9585 6.992 73.5705 6.956 74.2305 6.908V11.912H75.0105V6.86L75.8985 6.8ZM81.4545 8.9V7.52H82.4025V8.9H81.4545ZM79.9185 8.9V7.52H80.8425V8.9H79.9185ZM78.4185 8.9V7.52H79.3185V8.9H78.4185ZM82.0545 3.992V5.276H77.9145V3.992H82.0545ZM83.1585 6.824H77.8905C77.9025 6.536 77.9145 6.272 77.9145 6.008H82.9185V3.248H77.1105V5.876C77.1105 7.028 77.0505 8.504 76.5705 9.824C76.4985 9.236 76.2705 8.384 75.9825 7.724L75.3585 7.916C75.6345 8.6 75.8745 9.5 75.9105 10.088L76.5465 9.908C76.3665 10.376 76.1385 10.832 75.8385 11.24C76.0185 11.336 76.3545 11.588 76.4865 11.744C77.1945 10.772 77.5665 9.536 77.7465 8.324V11.912H78.4185V9.584H79.3185V11.792H79.9185V9.584H80.8425V11.792H81.4545V9.584H82.4025V11.06C82.4025 11.168 82.3785 11.192 82.3065 11.192C82.2105 11.192 81.9585 11.192 81.6705 11.18C81.7665 11.384 81.8865 11.696 81.9105 11.912C82.3545 11.912 82.6665 11.888 82.8945 11.78C83.1105 11.636 83.1585 11.42 83.1585 11.072V6.824ZM76.6545 1.688V2.468H83.2065V1.688H76.6545ZM87.6105 3.98H85.8105V2.156H87.6105V3.98ZM88.4385 1.412H85.0185V4.724H88.4385V1.412ZM86.0745 7.412C86.1585 7.064 86.2425 6.704 86.3145 6.356H88.9545V5.564H84.4665V6.356H85.4985C85.3305 7.184 85.0905 8.132 84.8985 8.78L85.6905 8.924C85.7505 8.708 85.8225 8.444 85.8945 8.168H87.5265C87.3825 10.076 87.2265 10.844 86.9985 11.06C86.9025 11.168 86.7825 11.192 86.6145 11.18C86.4225 11.18 85.9665 11.18 85.4625 11.132C85.5825 11.336 85.6785 11.684 85.6905 11.9C86.1945 11.936 86.6865 11.936 86.9385 11.912C87.2625 11.888 87.4785 11.816 87.6705 11.6C87.9945 11.24 88.1745 10.268 88.3665 7.772C88.3785 7.664 88.3905 7.412 88.3905 7.412H86.0745ZM90.0945 4.064H94.5705C94.4985 4.544 94.4025 5.036 94.3305 5.384L95.0025 5.552C95.1585 5.012 95.3505 4.148 95.4945 3.428L94.9305 3.284L94.7985 3.32H92.4825V2.516H94.8945V1.796H92.4825V0.956H91.6305V3.32H89.2785V6.38C89.2785 7.916 89.1705 9.992 88.1385 11.492C88.3305 11.576 88.6665 11.816 88.8105 11.984C89.9145 10.388 90.0945 8.036 90.0945 6.38V4.064ZM91.0545 7.736C90.9705 9.488 90.7185 10.652 89.4105 11.312C89.6025 11.456 89.8305 11.756 89.9265 11.96C91.4025 11.156 91.7385 9.776 91.8345 7.736H91.0545ZM92.8425 6.56C92.5185 6.56 92.4705 6.512 92.4705 6.272V5.72L93.9825 5.564L93.8985 4.94L92.4705 5.084V4.136H91.6665V5.168L90.3585 5.3L90.4425 5.924L91.6665 5.804V6.284C91.6665 7.04 91.8825 7.22 92.7465 7.22H94.0545C94.7025 7.22 94.9185 6.992 94.9905 6.068C94.7745 6.008 94.4625 5.912 94.3065 5.804C94.2825 6.476 94.2225 6.56 93.9465 6.56H92.8425ZM93.9345 10.928C93.8145 10.928 93.7305 10.904 93.6585 10.868C93.5985 10.832 93.5745 10.748 93.5745 10.664V7.736H92.7945V10.652C92.7945 11.192 92.8425 11.372 93.0465 11.54C93.2145 11.684 93.5025 11.732 93.7545 11.732H94.4265C94.6545 11.732 94.9305 11.684 95.0625 11.612C95.2425 11.504 95.3745 11.372 95.4465 11.156C95.5065 10.94 95.5545 10.352 95.5665 9.788C95.3505 9.716 95.0505 9.56 94.9065 9.428C94.9065 9.968 94.8945 10.424 94.8585 10.616C94.8345 10.736 94.7625 10.832 94.6905 10.868C94.6305 10.904 94.4865 10.928 94.3545 10.928H93.9345Z" fill="#A4A4A4"/>
</svg>
