<svg width="60" height="12" viewBox="0 0 60 12" fill="none" xmlns="http://www.w3.org/2000/svg">
<path d="M4.45048 1.376H1.04248V2.096H4.45048V1.376ZM4.88248 2.948H0.442477V3.68H4.88248V2.948ZM4.47448 4.568H0.994477V5.276H4.47448V4.568ZM0.994477 6.872H4.47448V6.152H0.994477V6.872ZM3.71848 8.492V10.508H1.76248V8.492H3.71848ZM4.48648 7.76H0.982477V11.78H1.76248V11.228H4.48648V7.76ZM6.57448 9.032V8.168H9.82648V9.032H6.57448ZM9.82648 6.68V7.532H6.57448V6.68H9.82648ZM10.6665 5.996H5.74648V11.888H6.57448V9.668H9.82648V10.964C9.82648 11.108 9.79048 11.144 9.64648 11.156C9.49048 11.156 8.99848 11.168 8.45848 11.144C8.57848 11.348 8.68648 11.66 8.71048 11.876C9.45448 11.876 9.95848 11.876 10.2705 11.756C10.5825 11.624 10.6665 11.408 10.6665 10.976V5.996ZM8.53048 4.616V3.824H10.9545V3.164H8.53048V2.444H11.1345V1.772H8.53048V0.956H7.67848V1.772H5.14648V2.444H7.67848V3.164H5.45848V3.824H7.67848V4.616H4.84648V5.3H11.3985V4.616H8.53048ZM13.4505 6.32H14.5185V7.412H13.4505V6.32ZM13.4505 4.604H14.5185V5.684H13.4505V4.604ZM16.1985 5.684H15.1185V4.604H16.1985V5.684ZM16.1985 7.412H15.1185V6.32H16.1985V7.412ZM15.2145 8.084H16.8825V3.932H15.2145V3.02H17.1345V2.252H15.2145V0.956H14.4225V2.252H12.5985V3.02H14.4225V3.932H12.7785V8.084H14.4225V9.044H12.4545V9.836H14.4225V11.924H15.2145V9.836H17.0985V9.044H15.2145V8.084ZM18.0945 8.888V7.892H19.4505V8.888H18.0945ZM19.4505 6.332V7.256H18.0945V6.332H19.4505ZM20.1105 5.66H17.4345V11.876H18.0945V9.56H19.4505V11.144C19.4505 11.228 19.4265 11.264 19.3425 11.264H18.7425C18.8145 11.444 18.9105 11.732 18.9225 11.9C19.3665 11.9 19.6545 11.9 19.8585 11.78C20.0505 11.66 20.1105 11.468 20.1105 11.144V5.66ZM21.8985 4.016H18.5985V4.736H21.8985V4.016ZM21.4425 5.912H20.7825V10.112H21.4425V5.912ZM22.3905 11.036C22.3905 11.168 22.3425 11.192 22.2105 11.204C22.0785 11.216 21.6345 11.216 21.1425 11.204C21.2385 11.396 21.3345 11.696 21.3705 11.876C22.0665 11.876 22.4865 11.864 22.7745 11.768C23.0385 11.636 23.1225 11.432 23.1225 11.048V5.468H22.3905V11.036ZM19.8225 1.004C19.2585 2.132 18.1185 3.44 16.9065 4.148C17.0505 4.352 17.2545 4.664 17.3505 4.88C18.5625 4.112 19.6545 2.888 20.2545 1.832C20.9265 2.9 22.0905 4.088 23.1945 4.784C23.3265 4.544 23.5185 4.208 23.6745 4.016C22.5585 3.404 21.3585 2.216 20.6145 1.004H19.8225ZM26.6985 1.688V2.576H29.6505C29.6745 3.032 29.7225 3.56 29.8065 4.112L29.2785 4.028C28.5465 7.388 27.0705 9.8 24.4185 11.18C24.6585 11.336 25.0545 11.708 25.2225 11.888C27.6105 10.484 29.1225 8.3 30.0105 5.192C30.5505 7.46 31.8225 10.088 34.7745 11.876C34.9305 11.66 35.2905 11.276 35.4945 11.132C30.7905 8.336 30.5145 3.812 30.5145 1.688H26.6985ZM39.6105 3.98H37.8105V2.156H39.6105V3.98ZM40.4385 1.412H37.0185V4.724H40.4385V1.412ZM38.0745 7.412C38.1585 7.064 38.2425 6.704 38.3145 6.356H40.9545V5.564H36.4665V6.356H37.4985C37.3305 7.184 37.0905 8.132 36.8985 8.78L37.6905 8.924C37.7505 8.708 37.8225 8.444 37.8945 8.168H39.5265C39.3825 10.076 39.2265 10.844 38.9985 11.06C38.9025 11.168 38.7825 11.192 38.6145 11.18C38.4225 11.18 37.9665 11.18 37.4625 11.132C37.5825 11.336 37.6785 11.684 37.6905 11.9C38.1945 11.936 38.6865 11.936 38.9385 11.912C39.2625 11.888 39.4785 11.816 39.6705 11.6C39.9945 11.24 40.1745 10.268 40.3665 7.772C40.3785 7.664 40.3905 7.412 40.3905 7.412H38.0745ZM42.0945 4.064H46.5705C46.4985 4.544 46.4025 5.036 46.3305 5.384L47.0025 5.552C47.1585 5.012 47.3505 4.148 47.4945 3.428L46.9305 3.284L46.7985 3.32H44.4825V2.516H46.8945V1.796H44.4825V0.956H43.6305V3.32H41.2785V6.38C41.2785 7.916 41.1705 9.992 40.1385 11.492C40.3305 11.576 40.6665 11.816 40.8105 11.984C41.9145 10.388 42.0945 8.036 42.0945 6.38V4.064ZM43.0545 7.736C42.9705 9.488 42.7185 10.652 41.4105 11.312C41.6025 11.456 41.8305 11.756 41.9265 11.96C43.4025 11.156 43.7385 9.776 43.8345 7.736H43.0545ZM44.8425 6.56C44.5185 6.56 44.4705 6.512 44.4705 6.272V5.72L45.9825 5.564L45.8985 4.94L44.4705 5.084V4.136H43.6665V5.168L42.3585 5.3L42.4425 5.924L43.6665 5.804V6.284C43.6665 7.04 43.8825 7.22 44.7465 7.22H46.0545C46.7025 7.22 46.9185 6.992 46.9905 6.068C46.7745 6.008 46.4625 5.912 46.3065 5.804C46.2825 6.476 46.2225 6.56 45.9465 6.56H44.8425ZM45.9345 10.928C45.8145 10.928 45.7305 10.904 45.6585 10.868C45.5985 10.832 45.5745 10.748 45.5745 10.664V7.736H44.7945V10.652C44.7945 11.192 44.8425 11.372 45.0465 11.54C45.2145 11.684 45.5025 11.732 45.7545 11.732H46.4265C46.6545 11.732 46.9305 11.684 47.0625 11.612C47.2425 11.504 47.3745 11.372 47.4465 11.156C47.5065 10.94 47.5545 10.352 47.5665 9.788C47.3505 9.716 47.0505 9.56 46.9065 9.428C46.9065 9.968 46.8945 10.424 46.8585 10.616C46.8345 10.736 46.7625 10.832 46.6905 10.868C46.6305 10.904 46.4865 10.928 46.3545 10.928H45.9345ZM51.7065 9.608H50.1705V6.02H51.7065V9.608ZM52.4865 10.388V5.252H50.2065C50.4585 4.34 50.6505 3.356 50.8065 2.348H52.9425V1.532H48.5625V2.348H49.9545C49.6545 4.424 49.1505 6.38 48.2745 7.664C48.4425 7.844 48.7185 8.264 48.8025 8.444C49.0185 8.132 49.2225 7.784 49.4025 7.412V11.372H50.1705V10.388H52.4865ZM53.0385 11.372C53.6145 10.724 53.8305 9.608 53.9505 8.576L53.2785 8.408C53.1705 9.392 52.9305 10.424 52.4145 11.012L53.0385 11.372ZM54.4305 8.78C54.5625 9.476 54.6345 10.388 54.6105 10.988L55.2705 10.88C55.2825 10.292 55.1865 9.392 55.0425 8.684L54.4305 8.78ZM55.7025 8.684C55.9425 9.272 56.1585 10.028 56.2305 10.532L56.8425 10.352C56.7585 9.86 56.5305 9.092 56.2785 8.528L55.7025 8.684ZM54.2625 5.9H55.9185V7.04H54.2625V5.9ZM55.9185 2.252V3.344H54.2625V2.252H55.9185ZM55.9185 5.18H54.2625V4.064H55.9185V5.18ZM56.7105 7.04V5.9H58.7145V5.18H56.7105V4.064H58.7145V3.344H56.7105V2.252H58.9905V1.472H53.4465V7.82H58.3905C58.2825 9.992 58.1385 10.832 57.9465 11.06C57.8385 11.168 57.7545 11.192 57.5625 11.192C57.3825 11.192 56.9025 11.18 56.3985 11.132C56.5185 11.348 56.6025 11.672 56.6145 11.9C57.1545 11.936 57.6585 11.936 57.9345 11.912C58.2585 11.888 58.4505 11.804 58.6425 11.576C58.9425 11.228 59.0865 10.196 59.2185 7.412C59.2305 7.292 59.2305 7.04 59.2305 7.04H56.7105ZM58.2105 9.608C58.0545 9.236 57.7185 8.648 57.3825 8.216L56.8905 8.42C57.2025 8.864 57.5505 9.464 57.6945 9.86L58.2105 9.608Z" fill="#A4A4A4"/>
</svg>
