<svg width="112" height="16" viewBox="0 0 112 16" fill="none" xmlns="http://www.w3.org/2000/svg">
<path d="M5.264 1.772H1.288V2.612H5.264V1.772ZM5.768 3.606H0.588V4.46H5.768V3.606ZM5.292 5.496H1.232V6.322H5.292V5.496ZM1.232 8.184H5.292V7.344H1.232V8.184ZM4.41 10.074V12.426H2.128V10.074H4.41ZM5.306 9.22H1.218V13.91H2.128V13.266H5.306V9.22ZM7.742 10.704V9.696H11.536V10.704H7.742ZM11.536 7.96V8.954H7.742V7.96H11.536ZM12.516 7.162H6.776V14.036H7.742V11.446H11.536V12.958C11.536 13.126 11.494 13.168 11.326 13.182C11.144 13.182 10.57 13.196 9.94 13.168C10.08 13.406 10.206 13.77 10.234 14.022C11.102 14.022 11.69 14.022 12.054 13.882C12.418 13.728 12.516 13.476 12.516 12.972V7.162ZM10.024 5.552V4.628H12.852V3.858H10.024V3.018H13.062V2.234H10.024V1.282H9.03V2.234H6.076V3.018H9.03V3.858H6.44V4.628H9.03V5.552H5.726V6.35H13.37V5.552H10.024ZM25.732 3.466H23.044V4.922C23.044 5.762 23.338 5.972 24.374 5.972H26.25C26.992 5.972 27.258 5.72 27.356 4.782C27.104 4.726 26.768 4.614 26.586 4.488C26.544 5.146 26.474 5.23 26.138 5.23H24.472C24.01 5.23 23.926 5.174 23.926 4.908V4.194H26.656V1.828H22.778V2.556H25.732V3.466ZM21.224 3.466H18.48V4.922C18.48 5.762 18.746 5.972 19.782 5.972H21.518C22.232 5.972 22.498 5.734 22.596 4.824C22.344 4.782 22.008 4.67 21.826 4.53C21.784 5.146 21.714 5.23 21.378 5.23H19.866C19.418 5.23 19.348 5.174 19.348 4.922V4.194H22.106V1.828H18.228V2.556H21.224V3.466ZM21.448 7.96H23.744V9.29H21.448V7.96ZM27.272 9.29H24.738V7.96H26.838V7.162H24.738V6.154H23.744V7.162H21.448V6.154H20.482V7.162H18.41V7.96H20.482V9.29H17.962V10.102H27.272V9.29ZM27.062 11.964C26.404 11.446 25.256 10.774 24.234 10.284L23.492 10.746C24.458 11.236 25.466 11.894 26.054 12.412L27.062 11.964ZM20.944 10.256C20.328 10.816 19.292 11.348 18.34 11.726C18.564 11.866 18.942 12.202 19.11 12.384C20.034 11.936 21.154 11.25 21.868 10.578L20.944 10.256ZM17.696 3.942C17.304 3.242 16.38 2.276 15.554 1.618L14.756 2.15C15.568 2.836 16.464 3.83 16.828 4.53L17.696 3.942ZM17.374 6.77H14.686V7.75H16.408V11.362C15.792 11.95 15.106 12.538 14.518 12.972L15.064 13.938C15.736 13.322 16.366 12.734 16.954 12.118C17.822 13.224 19.096 13.728 20.944 13.798C22.526 13.854 25.55 13.826 27.132 13.756C27.174 13.462 27.342 13 27.468 12.776C25.76 12.888 22.498 12.93 20.916 12.86C19.278 12.79 18.032 12.314 17.374 11.264V6.77ZM32.732 7.176C32.27 7.33 31.808 7.484 31.346 7.624V5.048H32.844V4.096H31.346V1.296H30.38V4.096H28.63V5.048H30.38V7.918C29.652 8.142 28.98 8.352 28.448 8.492L28.714 9.5L30.38 8.954V12.86C30.38 13.07 30.31 13.112 30.142 13.112C29.974 13.126 29.428 13.126 28.826 13.112C28.966 13.392 29.092 13.826 29.134 14.064C30.002 14.078 30.534 14.036 30.87 13.882C31.22 13.714 31.346 13.434 31.346 12.86V8.646L32.872 8.142L32.732 7.176ZM38.486 9.626H35.672L36.064 9.514C35.994 9.178 35.77 8.674 35.56 8.296H38.738C38.584 8.688 38.346 9.192 38.164 9.528L38.486 9.626ZM36.484 2.612H37.87V4.082H36.484V2.612ZM35.644 4.082H34.314V2.612H35.644V4.082ZM38.71 2.612H40.124V4.082H38.71V2.612ZM41.412 7.47H37.604V6.476H40.726V5.692H37.604V4.824H40.992V1.856H33.46V4.824H36.624V5.692H33.614V6.476H36.624V7.47H32.928V8.296H35.224L34.65 8.436C34.846 8.786 35.042 9.262 35.14 9.626H33.054V10.438H36.624V11.432H33.348V12.244H36.624V14.176H37.604V12.244H40.908V11.432H37.604V10.438H41.216V9.626H39.046C39.27 9.262 39.522 8.814 39.788 8.352L39.578 8.296H41.412V7.47ZM48.454 7.498H49.462V4.306H53.928V6.266H54.894V3.55H49.462V2.696H54.082V1.884H43.918V2.696H48.454V3.55H43.12V6.266H44.058V4.306H48.454V7.498ZM50.204 7.134H53.536V6.476H50.204V7.134ZM50.204 5.062V5.706H53.2V5.062H50.204ZM47.74 5.062H44.786V5.706H47.74V5.062ZM44.52 7.134H47.74V6.476H44.52V7.134ZM45.304 11.348V10.396H48.412V11.348H45.304ZM48.412 8.73V9.696H45.304V8.73H48.412ZM52.738 9.696H49.406V8.73H52.738V9.696ZM49.406 11.348V10.396H52.738V11.348H49.406ZM50.456 13.112C49.574 13.112 49.406 13.028 49.406 12.552V12.104H53.746V7.974H44.31V12.832H45.304V12.104H48.412V12.552C48.412 13.672 48.846 13.938 50.414 13.938H53.634C54.95 13.938 55.272 13.518 55.426 11.824C55.132 11.768 54.754 11.628 54.516 11.474C54.446 12.874 54.306 13.112 53.564 13.112H50.456ZM68.096 1.954H61.684V2.808H68.096V1.954ZM59.906 1.324C59.094 3.438 57.736 5.51 56.322 6.84C56.504 7.078 56.812 7.624 56.91 7.848C57.442 7.316 57.96 6.7 58.464 6V14.022H59.444V4.502C59.99 3.592 60.48 2.598 60.872 1.618L59.906 1.324ZM67.438 10.494V12.552H62.37V10.494H67.438ZM61.362 14.064H62.37V13.406H67.438V14.022H68.474V9.654H61.362V14.064ZM61.516 8.576H68.32V7.736H61.516V8.576ZM68.348 5.804H61.516V6.658H68.348V5.804ZM60.368 3.872V4.74H69.412V3.872H60.368ZM72.926 4.236H74.942C74.928 4.502 74.872 4.754 74.76 4.992H72.66L72.926 4.236ZM75.922 2.752H78.078V3.55H75.922V2.752ZM81.228 2.752V3.55H79.058V2.752H81.228ZM78.078 4.992H75.796C75.852 4.754 75.894 4.502 75.908 4.236H78.078V4.992ZM82.012 5.678C81.956 6.042 81.9 6.238 81.83 6.322C81.746 6.378 81.662 6.392 81.494 6.392C81.354 6.392 80.962 6.378 80.528 6.35C80.584 6.462 80.64 6.616 80.682 6.756H74.466C74.97 6.434 75.306 6.07 75.516 5.678H78.078V6.728H79.058V5.678H82.012ZM80.584 8.296H73.584V7.428H80.584V8.296ZM80.584 9.794H73.584V8.94H80.584V9.794ZM80.584 11.32H73.584V10.452H80.584V11.32ZM72.576 11.992H81.62V7.064H81.956C82.236 7.05 82.46 6.98 82.628 6.812C82.852 6.588 82.936 6.182 83.034 5.328C83.048 5.202 83.062 4.992 83.062 4.992H79.058V4.236H82.166V2.066H79.058V1.296H78.078V2.066H75.922V1.296H74.97V2.066H71.554V2.752H74.97V3.55H72.184C71.946 4.292 71.652 5.174 71.358 5.804L72.324 5.86L72.394 5.678H74.298C73.724 6.252 72.688 6.714 70.84 7.064C71.022 7.246 71.232 7.638 71.33 7.862C71.792 7.764 72.198 7.666 72.576 7.568V11.992ZM74.928 12.132C73.92 12.622 72.24 13.07 70.798 13.336C71.036 13.518 71.386 13.91 71.554 14.106C72.954 13.77 74.718 13.182 75.866 12.552L74.928 12.132ZM78.12 12.678C79.688 13.14 81.214 13.672 82.11 14.078L83.216 13.532C82.18 13.126 80.5 12.552 78.96 12.132L78.12 12.678ZM93.604 6.378L93.758 7.162C94.64 7.078 95.634 7.008 96.684 6.896C96.768 7.106 96.824 7.302 96.852 7.47L97.524 7.148C97.426 6.616 97.034 5.776 96.656 5.132L96.012 5.398C96.152 5.636 96.292 5.916 96.418 6.196L94.934 6.294C95.606 5.37 96.348 4.166 96.936 3.172L96.18 2.808C95.956 3.298 95.648 3.872 95.312 4.446C95.144 4.25 94.92 4.04 94.696 3.816C95.046 3.256 95.494 2.444 95.844 1.744L95.032 1.422C94.836 1.996 94.486 2.78 94.178 3.382C94.066 3.284 93.954 3.214 93.856 3.13L93.422 3.704C93.954 4.11 94.542 4.67 94.892 5.118C94.612 5.58 94.318 6 94.052 6.35L93.604 6.378ZM88.774 6.518L88.928 7.344C89.782 7.26 90.748 7.162 91.756 7.078C91.812 7.246 91.84 7.414 91.868 7.554L92.554 7.26C92.456 6.728 92.134 5.874 91.77 5.244L91.126 5.482C91.266 5.748 91.392 6.042 91.504 6.35L90.132 6.434C90.846 5.482 91.63 4.208 92.232 3.172L91.476 2.808C91.252 3.298 90.944 3.872 90.608 4.446C90.454 4.25 90.244 4.04 90.006 3.83C90.356 3.256 90.776 2.43 91.14 1.744L90.328 1.422C90.132 1.996 89.796 2.78 89.488 3.382C89.376 3.298 89.264 3.214 89.152 3.13L88.718 3.704C89.236 4.11 89.838 4.684 90.202 5.132C89.88 5.622 89.558 6.098 89.264 6.49L88.774 6.518ZM95.522 9.458C95.256 10.074 94.878 10.648 94.416 11.166C94.22 10.62 94.052 9.976 93.912 9.234H97.328V8.394H96.18L96.474 8.086C96.152 7.764 95.522 7.358 94.99 7.078L94.5 7.582C94.892 7.792 95.34 8.114 95.676 8.394H93.772C93.478 6.448 93.324 4.026 93.352 1.296H92.414C92.428 3.928 92.554 6.364 92.862 8.394H88.942L88.998 8.31C88.788 7.918 87.836 6.392 87.472 5.888V5.258H88.984V4.306H87.472V1.282H86.534V4.306H84.77V5.258H86.436C86.058 7.148 85.274 9.36 84.476 10.522C84.644 10.746 84.882 11.138 84.994 11.39C85.568 10.494 86.114 9.066 86.534 7.582V14.05H87.472V7.064C87.85 7.764 88.284 8.618 88.466 9.066L88.9 8.45V9.234H89.894C89.754 10.9 89.376 12.468 88.102 13.35C88.326 13.504 88.592 13.826 88.732 14.036C89.754 13.294 90.272 12.202 90.566 10.956C91.154 11.362 91.742 11.81 92.078 12.132L92.666 11.418C92.232 11.026 91.42 10.466 90.734 10.046C90.762 9.78 90.804 9.514 90.818 9.234H93.002C93.184 10.242 93.422 11.124 93.716 11.852C92.988 12.482 92.092 13 91.098 13.392C91.28 13.56 91.532 13.882 91.658 14.05C92.554 13.686 93.38 13.21 94.094 12.65C94.626 13.574 95.284 14.092 96.124 14.092C97.048 14.092 97.356 13.63 97.524 12.062C97.314 11.978 96.992 11.796 96.81 11.6C96.74 12.86 96.586 13.196 96.18 13.196C95.648 13.196 95.186 12.79 94.794 12.048C95.466 11.39 96.026 10.634 96.418 9.794L95.522 9.458ZM103.348 8.688C103.11 8.31 102.074 6.756 101.682 6.238V5.272H103.278V4.306H101.682V1.282H100.73V4.306H98.77V5.272H100.618C100.212 7.176 99.358 9.36 98.49 10.522C98.658 10.76 98.91 11.152 99.022 11.418C99.666 10.508 100.268 9.038 100.73 7.512V14.05H101.682V7.47C102.088 8.156 102.578 9.01 102.774 9.458L103.348 8.688ZM107.702 10.97V9.948H109.676V10.97H107.702ZM104.902 9.948H106.75V10.97H104.902V9.948ZM106.75 8.24V9.206H104.902V8.24H106.75ZM109.676 8.24V9.206H107.702V8.24H109.676ZM106.134 4.894H108.388V5.832H106.134V4.894ZM106.134 3.214H108.388V4.124H106.134V3.214ZM111.538 10.97H110.642V7.456H107.702V6.63H111.384V5.832H109.368V4.894H110.894V4.124H109.368V3.214H111.104V2.43H109.368V1.282H108.388V2.43H106.134V1.282H105.182V2.43H103.572V3.214H105.182V4.124H103.852V4.894H105.182V5.832H103.25V6.63H106.75V7.456H103.95V10.97H102.998V11.782H103.95V14.022H104.902V11.782H109.676V12.958C109.676 13.126 109.62 13.182 109.452 13.196C109.256 13.196 108.654 13.21 107.982 13.182C108.094 13.42 108.234 13.784 108.276 14.022C109.2 14.022 109.802 14.022 110.166 13.882C110.544 13.728 110.642 13.462 110.642 12.972V11.782H111.538V10.97Z" fill="#0697DB"/>
</svg>
