<svg width="52" height="18" viewBox="0 0 52 18" fill="none" xmlns="http://www.w3.org/2000/svg">
<path d="M7.298 8.926H8.594V4.822H14.336V7.342H15.578V3.85H8.594V2.752H14.534V1.708H1.466V2.752H7.298V3.85H0.44V7.342H1.646V4.822H7.298V8.926ZM9.548 8.458H13.832V7.612H9.548V8.458ZM9.548 5.794V6.622H13.4V5.794H9.548ZM6.38 5.794H2.582V6.622H6.38V5.794ZM2.24 8.458H6.38V7.612H2.24V8.458ZM3.248 13.876V12.652H7.244V13.876H3.248ZM7.244 10.51V11.752H3.248V10.51H7.244ZM12.806 11.752H8.522V10.51H12.806V11.752ZM8.522 13.876V12.652H12.806V13.876H8.522ZM9.872 16.144C8.738 16.144 8.522 16.036 8.522 15.424V14.848H14.102V9.538H1.97V15.784H3.248V14.848H7.244V15.424C7.244 16.864 7.802 17.206 9.818 17.206H13.958C15.65 17.206 16.064 16.666 16.262 14.488C15.884 14.416 15.398 14.236 15.092 14.038C15.002 15.838 14.822 16.144 13.868 16.144H9.872ZM32.552 1.798H24.308V2.896H32.552V1.798ZM22.022 0.987999C20.978 3.706 19.232 6.37 17.414 8.08C17.648 8.386 18.044 9.088 18.17 9.376C18.854 8.692 19.52 7.9 20.168 7V17.314H21.428V5.074C22.13 3.904 22.76 2.626 23.264 1.366L22.022 0.987999ZM31.706 12.778V15.424H25.19V12.778H31.706ZM23.894 17.368H25.19V16.522H31.706V17.314H33.038V11.698H23.894V17.368ZM24.092 10.312H32.84V9.232H24.092V10.312ZM32.876 6.748H24.092V7.846H32.876V6.748ZM22.616 4.264V5.38H34.244V4.264H22.616ZM38.762 4.732H41.354C41.336 5.074 41.264 5.398 41.12 5.704H38.42L38.762 4.732ZM42.614 2.824H45.386V3.85H42.614V2.824ZM49.436 2.824V3.85H46.646V2.824H49.436ZM45.386 5.704H42.452C42.524 5.398 42.578 5.074 42.596 4.732H45.386V5.704ZM50.444 6.586C50.372 7.054 50.3 7.306 50.21 7.414C50.102 7.486 49.994 7.504 49.778 7.504C49.598 7.504 49.094 7.486 48.536 7.45C48.608 7.594 48.68 7.792 48.734 7.972H40.742C41.39 7.558 41.822 7.09 42.092 6.586H45.386V7.936H46.646V6.586H50.444ZM48.608 9.952H39.608V8.836H48.608V9.952ZM48.608 11.878H39.608V10.78H48.608V11.878ZM48.608 13.84H39.608V12.724H48.608V13.84ZM38.312 14.704H49.94V8.368H50.372C50.732 8.35 51.02 8.26 51.236 8.044C51.524 7.756 51.632 7.234 51.758 6.136C51.776 5.974 51.794 5.704 51.794 5.704H46.646V4.732H50.642V1.942H46.646V0.952H45.386V1.942H42.614V0.952H41.39V1.942H36.998V2.824H41.39V3.85H37.808C37.502 4.804 37.124 5.938 36.746 6.748L37.988 6.82L38.078 6.586H40.526C39.788 7.324 38.456 7.918 36.08 8.368C36.314 8.602 36.584 9.106 36.71 9.394C37.304 9.268 37.826 9.142 38.312 9.016V14.704ZM41.336 14.884C40.04 15.514 37.88 16.09 36.026 16.432C36.332 16.666 36.782 17.17 36.998 17.422C38.798 16.99 41.066 16.234 42.542 15.424L41.336 14.884ZM45.44 15.586C47.456 16.18 49.418 16.864 50.57 17.386L51.992 16.684C50.66 16.162 48.5 15.424 46.52 14.884L45.44 15.586Z" fill="#666666"/>
</svg>
