<svg width="80" height="17" viewBox="0 0 80 17" fill="none" xmlns="http://www.w3.org/2000/svg">
<path d="M6.454 7.498H7.462V4.306H11.928V6.266H12.894V3.55H7.462V2.696H12.082V1.884H1.918V2.696H6.454V3.55H1.12V6.266H2.058V4.306H6.454V7.498ZM8.204 7.134H11.536V6.476H8.204V7.134ZM8.204 5.062V5.706H11.2V5.062H8.204ZM5.74 5.062H2.786V5.706H5.74V5.062ZM2.52 7.134H5.74V6.476H2.52V7.134ZM3.304 11.348V10.396H6.412V11.348H3.304ZM6.412 8.73V9.696H3.304V8.73H6.412ZM10.738 9.696H7.406V8.73H10.738V9.696ZM7.406 11.348V10.396H10.738V11.348H7.406ZM8.456 13.112C7.574 13.112 7.406 13.028 7.406 12.552V12.104H11.746V7.974H2.31V12.832H3.304V12.104H6.412V12.552C6.412 13.672 6.846 13.938 8.414 13.938H11.634C12.95 13.938 13.272 13.518 13.426 11.824C13.132 11.768 12.754 11.628 12.516 11.474C12.446 12.874 12.306 13.112 11.564 13.112H8.456ZM26.096 1.954H19.684V2.808H26.096V1.954ZM17.906 1.324C17.094 3.438 15.736 5.51 14.322 6.84C14.504 7.078 14.812 7.624 14.91 7.848C15.442 7.316 15.96 6.7 16.464 6V14.022H17.444V4.502C17.99 3.592 18.48 2.598 18.872 1.618L17.906 1.324ZM25.438 10.494V12.552H20.37V10.494H25.438ZM19.362 14.064H20.37V13.406H25.438V14.022H26.474V9.654H19.362V14.064ZM19.516 8.576H26.32V7.736H19.516V8.576ZM26.348 5.804H19.516V6.658H26.348V5.804ZM18.368 3.872V4.74H27.412V3.872H18.368ZM28.9092 8.95996C28.9092 7.93001 29.0459 6.94108 29.3193 5.99316C29.5973 5.04525 30.0098 4.18392 30.5566 3.40918C31.1035 2.63444 31.6709 2.08757 32.2588 1.76855L32.5186 2.60254C31.8532 3.11296 31.3063 3.89225 30.8779 4.94043C30.4541 5.98861 30.2217 7.16211 30.1807 8.46094L30.1738 9.04199C30.1738 10.8011 30.4951 12.3278 31.1377 13.6221C31.5251 14.3968 31.9854 15.0029 32.5186 15.4404L32.2588 16.2129C31.6527 15.8757 31.0739 15.3105 30.5225 14.5176C29.4469 12.9681 28.9092 11.1156 28.9092 8.95996ZM38.0632 1.772H34.1152V2.612H38.0632V1.772ZM37.2232 10.228V12.566H34.9132V10.228H37.2232ZM38.1332 9.374H34.0032V14.05H34.9132V13.42H38.1332V9.374ZM34.0312 8.296H38.0912V7.47H34.0312V8.296ZM38.0912 5.566H34.0312V6.392H38.0912V5.566ZM33.3732 4.488H38.5532V3.634H33.3732V4.488ZM44.5592 12.426H40.4432V9.626H44.5592V12.426ZM46.2392 6.336V5.342H42.9632V2.962C43.9852 2.794 44.9512 2.598 45.7352 2.36L44.9792 1.52C43.5792 1.954 41.0872 2.304 38.9872 2.514C39.0992 2.752 39.2532 3.13 39.2812 3.382C40.1212 3.312 41.0172 3.228 41.9132 3.116V5.342H38.6512V6.336H41.9132V8.674H39.4632V14.064H40.4432V13.364H44.5592V13.98H45.5952V8.674H42.9632V6.336H46.2392ZM50.6611 9.02832C50.6611 10.0446 50.5267 11.0199 50.2578 11.9541C49.9935 12.8838 49.5856 13.7428 49.0342 14.5312C48.4873 15.3197 47.9131 15.8802 47.3115 16.2129L47.0449 15.4404C47.7467 14.9027 48.3096 14.0687 48.7334 12.9385C49.1618 11.8037 49.3805 10.5459 49.3896 9.16504V8.94629C49.3896 7.98926 49.2894 7.10059 49.0889 6.28027C48.8883 5.4554 48.6081 4.71712 48.248 4.06543C47.8926 3.41374 47.4915 2.9056 47.0449 2.54102L47.3115 1.76855C47.9131 2.10124 48.485 2.65723 49.0273 3.43652C49.5742 4.21582 49.9821 5.07487 50.251 6.01367C50.5244 6.95247 50.6611 7.95736 50.6611 9.02832ZM55.9363 4.81H53.8363V2.682H55.9363V4.81ZM56.9023 1.814H52.9123V5.678H56.9023V1.814ZM54.1443 8.814C54.2423 8.408 54.3403 7.988 54.4243 7.582H57.5043V6.658H52.2683V7.582H53.4723C53.2763 8.548 52.9963 9.654 52.7723 10.41L53.6963 10.578C53.7663 10.326 53.8503 10.018 53.9343 9.696H55.8383C55.6703 11.922 55.4883 12.818 55.2223 13.07C55.1103 13.196 54.9703 13.224 54.7743 13.21C54.5503 13.21 54.0183 13.21 53.4303 13.154C53.5703 13.392 53.6823 13.798 53.6963 14.05C54.2843 14.092 54.8583 14.092 55.1523 14.064C55.5303 14.036 55.7823 13.952 56.0063 13.7C56.3843 13.28 56.5943 12.146 56.8183 9.234C56.8323 9.108 56.8463 8.814 56.8463 8.814H54.1443ZM58.8343 4.908H64.0563C63.9723 5.468 63.8603 6.042 63.7763 6.448L64.5603 6.644C64.7423 6.014 64.9663 5.006 65.1343 4.166L64.4763 3.998L64.3223 4.04H61.6203V3.102H64.4343V2.262H61.6203V1.282H60.6263V4.04H57.8823V7.61C57.8823 9.402 57.7563 11.824 56.5523 13.574C56.7763 13.672 57.1683 13.952 57.3363 14.148C58.6243 12.286 58.8343 9.542 58.8343 7.61V4.908ZM59.9543 9.192C59.8563 11.236 59.5623 12.594 58.0363 13.364C58.2603 13.532 58.5263 13.882 58.6383 14.12C60.3603 13.182 60.7523 11.572 60.8643 9.192H59.9543ZM62.0403 7.82C61.6623 7.82 61.6063 7.764 61.6063 7.484V6.84L63.3703 6.658L63.2723 5.93L61.6063 6.098V4.992H60.6683V6.196L59.1423 6.35L59.2403 7.078L60.6683 6.938V7.498C60.6683 8.38 60.9203 8.59 61.9283 8.59H63.4543C64.2103 8.59 64.4623 8.324 64.5463 7.246C64.2943 7.176 63.9303 7.064 63.7483 6.938C63.7203 7.722 63.6503 7.82 63.3283 7.82H62.0403ZM63.3143 12.916C63.1743 12.916 63.0763 12.888 62.9923 12.846C62.9223 12.804 62.8943 12.706 62.8943 12.608V9.192H61.9843V12.594C61.9843 13.224 62.0403 13.434 62.2783 13.63C62.4743 13.798 62.8103 13.854 63.1043 13.854H63.8883C64.1543 13.854 64.4763 13.798 64.6303 13.714C64.8403 13.588 64.9943 13.434 65.0783 13.182C65.1483 12.93 65.2043 12.244 65.2183 11.586C64.9663 11.502 64.6163 11.32 64.4483 11.166C64.4483 11.796 64.4343 12.328 64.3923 12.552C64.3643 12.692 64.2803 12.804 64.1963 12.846C64.1263 12.888 63.9583 12.916 63.8043 12.916H63.3143ZM70.0483 11.376H68.2563V7.19H70.0483V11.376ZM70.9583 12.286V6.294H68.2983C68.5923 5.23 68.8163 4.082 68.9983 2.906H71.4903V1.954H66.3803V2.906H68.0043C67.6543 5.328 67.0663 7.61 66.0443 9.108C66.2403 9.318 66.5623 9.808 66.6603 10.018C66.9123 9.654 67.1503 9.248 67.3603 8.814V13.434H68.2563V12.286H70.9583ZM71.6023 13.434C72.2743 12.678 72.5263 11.376 72.6663 10.172L71.8823 9.976C71.7563 11.124 71.4763 12.328 70.8743 13.014L71.6023 13.434ZM73.2263 10.41C73.3803 11.222 73.4643 12.286 73.4363 12.986L74.2063 12.86C74.2203 12.174 74.1083 11.124 73.9403 10.298L73.2263 10.41ZM74.7103 10.298C74.9903 10.984 75.2423 11.866 75.3263 12.454L76.0403 12.244C75.9423 11.67 75.6763 10.774 75.3823 10.116L74.7103 10.298ZM73.0303 7.05H74.9623V8.38H73.0303V7.05ZM74.9623 2.794V4.068H73.0303V2.794H74.9623ZM74.9623 6.21H73.0303V4.908H74.9623V6.21ZM75.8863 8.38V7.05H78.2243V6.21H75.8863V4.908H78.2243V4.068H75.8863V2.794H78.5463V1.884H72.0783V9.29H77.8463C77.7203 11.824 77.5523 12.804 77.3283 13.07C77.2023 13.196 77.1043 13.224 76.8803 13.224C76.6703 13.224 76.1103 13.21 75.5223 13.154C75.6623 13.406 75.7603 13.784 75.7743 14.05C76.4043 14.092 76.9923 14.092 77.3143 14.064C77.6923 14.036 77.9163 13.938 78.1403 13.672C78.4903 13.266 78.6583 12.062 78.8123 8.814C78.8263 8.674 78.8263 8.38 78.8263 8.38H75.8863ZM77.6363 11.376C77.4543 10.942 77.0623 10.256 76.6703 9.752L76.0963 9.99C76.4603 10.508 76.8663 11.208 77.0343 11.67L77.6363 11.376Z" fill="#0697DB"/>
</svg>
