<svg width="56" height="14" viewBox="0 0 56 14" fill="none" xmlns="http://www.w3.org/2000/svg">
<path d="M7.588 7.814V5.49H11.354V7.814H7.588ZM3.15 7.814C3.192 7.296 3.206 6.778 3.206 6.316V5.49H6.552V7.814H3.15ZM6.552 2.27V4.51H3.206V2.27H6.552ZM11.354 4.51H7.588V2.27H11.354V4.51ZM12.376 1.276H2.184V6.316C2.184 8.262 2.044 10.726 0.504 12.462C0.728 12.588 1.148 12.938 1.302 13.148C2.366 11.958 2.842 10.362 3.052 8.808H6.552V12.938H7.588V8.808H11.354V11.65C11.354 11.916 11.256 12 10.976 12.014C10.724 12.014 9.772 12.028 8.792 11.986C8.932 12.266 9.1 12.714 9.142 12.994C10.458 13.008 11.27 12.994 11.746 12.826C12.194 12.644 12.376 12.336 12.376 11.664V1.276ZM17.5 7.66C17.542 7.1 17.556 6.582 17.556 6.092V4.86H24.654V7.66H17.5ZM17.556 3.908V2.648C20.244 2.298 23.254 1.766 25.284 1.094L24.416 0.323999C22.792 0.911999 19.908 1.444 17.304 1.808L16.52 1.584V6.078C16.52 8.052 16.338 10.544 14.588 12.35C14.854 12.476 15.232 12.84 15.386 13.064C16.59 11.804 17.136 10.18 17.388 8.64H24.654V9.382H25.69V3.908H17.556ZM32.886 0.771999H29.26V1.612H32.886V0.771999ZM33.334 2.606H28.588V3.46H33.334V2.606ZM32.942 5.322V4.496H29.176V5.322H32.942ZM32.06 9.074V11.412H30.044V9.074H32.06ZM32.942 8.22H29.162V12.91H30.044V12.252H32.942V8.22ZM29.176 7.184H32.942V6.344H29.176V7.184ZM33.348 12.644H41.286V11.734H33.348V12.644ZM39.172 8.332H35.266V6.82H39.172V8.332ZM40.166 5.994H34.314V9.172H40.166V5.994ZM38.738 11.678C39.004 11.118 39.326 10.278 39.62 9.508L38.64 9.27C38.486 9.914 38.15 10.866 37.898 11.454L38.738 11.678ZM36.582 11.426C36.47 10.838 36.162 9.942 35.84 9.27L34.958 9.508C35.28 10.194 35.56 11.104 35.644 11.692L36.582 11.426ZM40.74 2.13C40.432 2.452 39.914 2.886 39.48 3.222C39.298 2.942 39.116 2.634 38.962 2.326C39.438 2.032 39.984 1.64 40.474 1.262L39.872 0.688C39.578 0.981999 39.102 1.402 38.696 1.724C38.5 1.276 38.346 0.8 38.22 0.323999L37.366 0.519999C37.73 1.934 38.276 3.236 39.032 4.258H35.518C36.162 3.362 36.694 2.27 36.988 1.01L36.4 0.785999L36.232 0.827999H33.726V1.668H35.854C35.686 2.158 35.476 2.634 35.21 3.068C34.902 2.732 34.482 2.382 34.104 2.116L33.516 2.69C33.922 2.998 34.384 3.432 34.706 3.81C34.174 4.482 33.544 5.028 32.886 5.378C33.096 5.56 33.348 5.924 33.474 6.148C34.118 5.77 34.734 5.224 35.28 4.566V5.098H39.186V4.454C39.662 5.07 40.222 5.574 40.852 5.938C41.006 5.686 41.3 5.322 41.524 5.14C40.908 4.818 40.362 4.356 39.9 3.782C40.362 3.488 40.88 3.11 41.342 2.732L40.74 2.13ZM46.284 3.81H44.184V1.682H46.284V3.81ZM47.25 0.814H43.26V4.678H47.25V0.814ZM44.492 7.814C44.59 7.408 44.688 6.988 44.772 6.582H47.852V5.658H42.616V6.582H43.82C43.624 7.548 43.344 8.654 43.12 9.41L44.044 9.578C44.114 9.326 44.198 9.018 44.282 8.696H46.186C46.018 10.922 45.836 11.818 45.57 12.07C45.458 12.196 45.318 12.224 45.122 12.21C44.898 12.21 44.366 12.21 43.778 12.154C43.918 12.392 44.03 12.798 44.044 13.05C44.632 13.092 45.206 13.092 45.5 13.064C45.878 13.036 46.13 12.952 46.354 12.7C46.732 12.28 46.942 11.146 47.166 8.234C47.18 8.108 47.194 7.814 47.194 7.814H44.492ZM49.182 3.908H54.404C54.32 4.468 54.208 5.042 54.124 5.448L54.908 5.644C55.09 5.014 55.314 4.006 55.482 3.166L54.824 2.998L54.67 3.04H51.968V2.102H54.782V1.262H51.968V0.282H50.974V3.04H48.23V6.61C48.23 8.402 48.104 10.824 46.9 12.574C47.124 12.672 47.516 12.952 47.684 13.148C48.972 11.286 49.182 8.542 49.182 6.61V3.908ZM50.302 8.192C50.204 10.236 49.91 11.594 48.384 12.364C48.608 12.532 48.874 12.882 48.986 13.12C50.708 12.182 51.1 10.572 51.212 8.192H50.302ZM52.388 6.82C52.01 6.82 51.954 6.764 51.954 6.484V5.84L53.718 5.658L53.62 4.93L51.954 5.098V3.992H51.016V5.196L49.49 5.35L49.588 6.078L51.016 5.938V6.498C51.016 7.38 51.268 7.59 52.276 7.59H53.802C54.558 7.59 54.81 7.324 54.894 6.246C54.642 6.176 54.278 6.064 54.096 5.938C54.068 6.722 53.998 6.82 53.676 6.82H52.388ZM53.662 11.916C53.522 11.916 53.424 11.888 53.34 11.846C53.27 11.804 53.242 11.706 53.242 11.608V8.192H52.332V11.594C52.332 12.224 52.388 12.434 52.626 12.63C52.822 12.798 53.158 12.854 53.452 12.854H54.236C54.502 12.854 54.824 12.798 54.978 12.714C55.188 12.588 55.342 12.434 55.426 12.182C55.496 11.93 55.552 11.244 55.566 10.586C55.314 10.502 54.964 10.32 54.796 10.166C54.796 10.796 54.782 11.328 54.74 11.552C54.712 11.692 54.628 11.804 54.544 11.846C54.474 11.888 54.306 11.916 54.152 11.916H53.662Z" fill="#0697DB"/>
</svg>
