<svg width="27" height="14" viewBox="0 0 27 14" fill="none" xmlns="http://www.w3.org/2000/svg">
<path d="M5.454 6.498H6.462V3.306H10.928V5.266H11.894V2.55H6.462V1.696H11.082V0.884H0.918V1.696H5.454V2.55H0.12V5.266H1.058V3.306H5.454V6.498ZM7.204 6.134H10.536V5.476H7.204V6.134ZM7.204 4.062V4.706H10.2V4.062H7.204ZM4.74 4.062H1.786V4.706H4.74V4.062ZM1.52 6.134H4.74V5.476H1.52V6.134ZM2.304 10.348V9.396H5.412V10.348H2.304ZM5.412 7.73V8.696H2.304V7.73H5.412ZM9.738 8.696H6.406V7.73H9.738V8.696ZM6.406 10.348V9.396H9.738V10.348H6.406ZM7.456 12.112C6.574 12.112 6.406 12.028 6.406 11.552V11.104H10.746V6.974H1.31V11.832H2.304V11.104H5.412V11.552C5.412 12.672 5.846 12.938 7.414 12.938H10.634C11.95 12.938 12.272 12.518 12.426 10.824C12.132 10.768 11.754 10.628 11.516 10.474C11.446 11.874 11.306 12.112 10.564 12.112H7.456ZM15.926 3.236H17.942C17.928 3.502 17.872 3.754 17.76 3.992H15.66L15.926 3.236ZM18.922 1.752H21.078V2.55H18.922V1.752ZM24.228 1.752V2.55H22.058V1.752H24.228ZM21.078 3.992H18.796C18.852 3.754 18.894 3.502 18.908 3.236H21.078V3.992ZM25.012 4.678C24.956 5.042 24.9 5.238 24.83 5.322C24.746 5.378 24.662 5.392 24.494 5.392C24.354 5.392 23.962 5.378 23.528 5.35C23.584 5.462 23.64 5.616 23.682 5.756H17.466C17.97 5.434 18.306 5.07 18.516 4.678H21.078V5.728H22.058V4.678H25.012ZM23.584 7.296H16.584V6.428H23.584V7.296ZM23.584 8.794H16.584V7.94H23.584V8.794ZM23.584 10.32H16.584V9.452H23.584V10.32ZM15.576 10.992H24.62V6.064H24.956C25.236 6.05 25.46 5.98 25.628 5.812C25.852 5.588 25.936 5.182 26.034 4.328C26.048 4.202 26.062 3.992 26.062 3.992H22.058V3.236H25.166V1.066H22.058V0.296H21.078V1.066H18.922V0.296H17.97V1.066H14.554V1.752H17.97V2.55H15.184C14.946 3.292 14.652 4.174 14.358 4.804L15.324 4.86L15.394 4.678H17.298C16.724 5.252 15.688 5.714 13.84 6.064C14.022 6.246 14.232 6.638 14.33 6.862C14.792 6.764 15.198 6.666 15.576 6.568V10.992ZM17.928 11.132C16.92 11.622 15.24 12.07 13.798 12.336C14.036 12.518 14.386 12.91 14.554 13.106C15.954 12.77 17.718 12.182 18.866 11.552L17.928 11.132ZM21.12 11.678C22.688 12.14 24.214 12.672 25.11 13.078L26.216 12.532C25.18 12.126 23.5 11.552 21.96 11.132L21.12 11.678Z" fill="#666666"/>
</svg>
