<svg width="125" height="125" viewBox="0 0 125 125" fill="none" xmlns="http://www.w3.org/2000/svg">
<path d="M4.31035 0H0V4.31035H4.31035V0Z" fill="white"/>
<path d="M8.62089 0H4.31055V4.31035H8.62089V0Z" fill="white"/>
<path d="M12.9314 0H8.62109V4.31035H12.9314V0Z" fill="white"/>
<path d="M17.241 0H12.9307V4.31035H17.241V0Z" fill="white"/>
<path d="M21.5516 0H17.2412V4.31035H21.5516V0Z" fill="white"/>
<path d="M25.8621 0H21.5518V4.31035H25.8621V0Z" fill="white"/>
<path d="M30.1726 0H25.8623V4.31035H30.1726V0Z" fill="white"/>
<path d="M47.4139 0H43.1035V4.31035H47.4139V0Z" fill="white"/>
<path d="M51.7244 0H47.4141V4.31035H51.7244V0Z" fill="white"/>
<path d="M56.0349 0H51.7246V4.31035H56.0349V0Z" fill="white"/>
<path d="M60.3445 0H56.0342V4.31035H60.3445V0Z" fill="white"/>
<path d="M64.6551 0H60.3447V4.31035H64.6551V0Z" fill="white"/>
<path d="M68.9656 0H64.6553V4.31035H68.9656V0Z" fill="white"/>
<path d="M81.8963 0H77.5859V4.31035H81.8963V0Z" fill="white"/>
<path d="M99.1375 0H94.8271V4.31035H99.1375V0Z" fill="white"/>
<path d="M103.448 0H99.1377V4.31035H103.448V0Z" fill="white"/>
<path d="M107.759 0H103.448V4.31035H107.759V0Z" fill="white"/>
<path d="M112.069 0H107.759V4.31035H112.069V0Z" fill="white"/>
<path d="M116.38 0H112.069V4.31035H116.38V0Z" fill="white"/>
<path d="M120.689 0H116.379V4.31035H120.689V0Z" fill="white"/>
<path d="M125 0H120.689V4.31035H125V0Z" fill="white"/>
<path d="M4.31035 4.31055H0V8.62089H4.31035V4.31055Z" fill="white"/>
<path d="M30.1726 4.31055H25.8623V8.62089H30.1726V4.31055Z" fill="white"/>
<path d="M38.7928 4.31055H34.4824V8.62089H38.7928V4.31055Z" fill="white"/>
<path d="M43.1033 4.31055H38.793V8.62089H43.1033V4.31055Z" fill="white"/>
<path d="M47.4139 4.31055H43.1035V8.62089H47.4139V4.31055Z" fill="white"/>
<path d="M68.9656 4.31055H64.6553V8.62089H68.9656V4.31055Z" fill="white"/>
<path d="M77.5867 4.31055H73.2764V8.62089H77.5867V4.31055Z" fill="white"/>
<path d="M90.5174 4.31055H86.207V8.62089H90.5174V4.31055Z" fill="white"/>
<path d="M99.1375 4.31055H94.8271V8.62089H99.1375V4.31055Z" fill="white"/>
<path d="M125 4.31055H120.689V8.62089H125V4.31055Z" fill="white"/>
<path d="M4.31035 8.62012H0V12.9305H4.31035V8.62012Z" fill="white"/>
<path d="M12.9314 8.62012H8.62109V12.9305H12.9314V8.62012Z" fill="white"/>
<path d="M17.241 8.62012H12.9307V12.9305H17.241V8.62012Z" fill="white"/>
<path d="M21.5516 8.62012H17.2412V12.9305H21.5516V8.62012Z" fill="white"/>
<path d="M30.1726 8.62012H25.8623V12.9305H30.1726V8.62012Z" fill="white"/>
<path d="M38.7928 8.62012H34.4824V12.9305H38.7928V8.62012Z" fill="white"/>
<path d="M43.1033 8.62012H38.793V12.9305H43.1033V8.62012Z" fill="white"/>
<path d="M56.0349 8.62012H51.7246V12.9305H56.0349V8.62012Z" fill="white"/>
<path d="M64.6551 8.62012H60.3447V12.9305H64.6551V8.62012Z" fill="white"/>
<path d="M73.2762 8.62012H68.9658V12.9305H73.2762V8.62012Z" fill="white"/>
<path d="M86.2068 8.62012H81.8965V12.9305H86.2068V8.62012Z" fill="white"/>
<path d="M99.1375 8.62012H94.8271V12.9305H99.1375V8.62012Z" fill="white"/>
<path d="M107.759 8.62012H103.448V12.9305H107.759V8.62012Z" fill="white"/>
<path d="M112.069 8.62012H107.759V12.9305H112.069V8.62012Z" fill="white"/>
<path d="M116.38 8.62012H112.069V12.9305H116.38V8.62012Z" fill="white"/>
<path d="M125 8.62012H120.689V12.9305H125V8.62012Z" fill="white"/>
<path d="M4.31035 12.9307H0V17.241H4.31035V12.9307Z" fill="white"/>
<path d="M12.9314 12.9307H8.62109V17.241H12.9314V12.9307Z" fill="white"/>
<path d="M17.241 12.9307H12.9307V17.241H17.241V12.9307Z" fill="white"/>
<path d="M21.5516 12.9307H17.2412V17.241H21.5516V12.9307Z" fill="white"/>
<path d="M30.1726 12.9307H25.8623V17.241H30.1726V12.9307Z" fill="white"/>
<path d="M38.7928 12.9307H34.4824V17.241H38.7928V12.9307Z" fill="white"/>
<path d="M43.1033 12.9307H38.793V17.241H43.1033V12.9307Z" fill="white"/>
<path d="M47.4139 12.9307H43.1035V17.241H47.4139V12.9307Z" fill="white"/>
<path d="M64.6551 12.9307H60.3447V17.241H64.6551V12.9307Z" fill="white"/>
<path d="M68.9656 12.9307H64.6553V17.241H68.9656V12.9307Z" fill="white"/>
<path d="M77.5867 12.9307H73.2764V17.241H77.5867V12.9307Z" fill="white"/>
<path d="M90.5174 12.9307H86.207V17.241H90.5174V12.9307Z" fill="white"/>
<path d="M99.1375 12.9307H94.8271V17.241H99.1375V12.9307Z" fill="white"/>
<path d="M107.759 12.9307H103.448V17.241H107.759V12.9307Z" fill="white"/>
<path d="M112.069 12.9307H107.759V17.241H112.069V12.9307Z" fill="white"/>
<path d="M116.38 12.9307H112.069V17.241H116.38V12.9307Z" fill="white"/>
<path d="M125 12.9307H120.689V17.241H125V12.9307Z" fill="white"/>
<path d="M4.31035 17.2412H0V21.5516H4.31035V17.2412Z" fill="white"/>
<path d="M12.9314 17.2412H8.62109V21.5516H12.9314V17.2412Z" fill="white"/>
<path d="M17.241 17.2412H12.9307V21.5516H17.241V17.2412Z" fill="white"/>
<path d="M21.5516 17.2412H17.2412V21.5516H21.5516V17.2412Z" fill="white"/>
<path d="M30.1726 17.2412H25.8623V21.5516H30.1726V17.2412Z" fill="white"/>
<path d="M43.1033 17.2412H38.793V21.5516H43.1033V17.2412Z" fill="white"/>
<path d="M56.0349 17.2412H51.7246V21.5516H56.0349V17.2412Z" fill="white"/>
<path d="M60.3445 17.2412H56.0342V21.5516H60.3445V17.2412Z" fill="white"/>
<path d="M64.6551 17.2412H60.3447V21.5516H64.6551V17.2412Z" fill="white"/>
<path d="M68.9656 17.2412H64.6553V21.5516H68.9656V17.2412Z" fill="white"/>
<path d="M77.5867 17.2412H73.2764V21.5516H77.5867V17.2412Z" fill="white"/>
<path d="M81.8963 17.2412H77.5859V21.5516H81.8963V17.2412Z" fill="white"/>
<path d="M86.2068 17.2412H81.8965V21.5516H86.2068V17.2412Z" fill="white"/>
<path d="M90.5174 17.2412H86.207V21.5516H90.5174V17.2412Z" fill="white"/>
<path d="M99.1375 17.2412H94.8271V21.5516H99.1375V17.2412Z" fill="white"/>
<path d="M107.759 17.2412H103.448V21.5516H107.759V17.2412Z" fill="white"/>
<path d="M112.069 17.2412H107.759V21.5516H112.069V17.2412Z" fill="white"/>
<path d="M116.38 17.2412H112.069V21.5516H116.38V17.2412Z" fill="white"/>
<path d="M125 17.2412H120.689V21.5516H125V17.2412Z" fill="white"/>
<path d="M4.31035 21.5518H0V25.8621H4.31035V21.5518Z" fill="white"/>
<path d="M30.1726 21.5518H25.8623V25.8621H30.1726V21.5518Z" fill="white"/>
<path d="M51.7244 21.5518H47.4141V25.8621H51.7244V21.5518Z" fill="white"/>
<path d="M60.3445 21.5518H56.0342V25.8621H60.3445V21.5518Z" fill="white"/>
<path d="M64.6551 21.5518H60.3447V25.8621H64.6551V21.5518Z" fill="white"/>
<path d="M73.2762 21.5518H68.9658V25.8621H73.2762V21.5518Z" fill="white"/>
<path d="M99.1375 21.5518H94.8271V25.8621H99.1375V21.5518Z" fill="white"/>
<path d="M125 21.5518H120.689V25.8621H125V21.5518Z" fill="white"/>
<path d="M4.31035 25.8623H0V30.1726H4.31035V25.8623Z" fill="white"/>
<path d="M8.62089 25.8623H4.31055V30.1726H8.62089V25.8623Z" fill="white"/>
<path d="M12.9314 25.8623H8.62109V30.1726H12.9314V25.8623Z" fill="white"/>
<path d="M17.241 25.8623H12.9307V30.1726H17.241V25.8623Z" fill="white"/>
<path d="M21.5516 25.8623H17.2412V30.1726H21.5516V25.8623Z" fill="white"/>
<path d="M25.8621 25.8623H21.5518V30.1726H25.8621V25.8623Z" fill="white"/>
<path d="M30.1726 25.8623H25.8623V30.1726H30.1726V25.8623Z" fill="white"/>
<path d="M38.7928 25.8623H34.4824V30.1726H38.7928V25.8623Z" fill="white"/>
<path d="M47.4139 25.8623H43.1035V30.1726H47.4139V25.8623Z" fill="white"/>
<path d="M56.0349 25.8623H51.7246V30.1726H56.0349V25.8623Z" fill="white"/>
<path d="M64.6551 25.8623H60.3447V30.1726H64.6551V25.8623Z" fill="white"/>
<path d="M73.2762 25.8623H68.9658V30.1726H73.2762V25.8623Z" fill="white"/>
<path d="M81.8963 25.8623H77.5859V30.1726H81.8963V25.8623Z" fill="white"/>
<path d="M90.5174 25.8623H86.207V30.1726H90.5174V25.8623Z" fill="white"/>
<path d="M99.1375 25.8623H94.8271V30.1726H99.1375V25.8623Z" fill="white"/>
<path d="M103.448 25.8623H99.1377V30.1726H103.448V25.8623Z" fill="white"/>
<path d="M107.759 25.8623H103.448V30.1726H107.759V25.8623Z" fill="white"/>
<path d="M112.069 25.8623H107.759V30.1726H112.069V25.8623Z" fill="white"/>
<path d="M116.38 25.8623H112.069V30.1726H116.38V25.8623Z" fill="white"/>
<path d="M120.689 25.8623H116.379V30.1726H120.689V25.8623Z" fill="white"/>
<path d="M125 25.8623H120.689V30.1726H125V25.8623Z" fill="white"/>
<path d="M38.7928 30.1729H34.4824V34.4832H38.7928V30.1729Z" fill="white"/>
<path d="M43.1033 30.1729H38.793V34.4832H43.1033V30.1729Z" fill="white"/>
<path d="M47.4139 30.1729H43.1035V34.4832H47.4139V30.1729Z" fill="white"/>
<path d="M56.0349 30.1729H51.7246V34.4832H56.0349V30.1729Z" fill="white"/>
<path d="M60.3445 30.1729H56.0342V34.4832H60.3445V30.1729Z" fill="white"/>
<path d="M86.2068 30.1729H81.8965V34.4832H86.2068V30.1729Z" fill="white"/>
<path d="M90.5174 30.1729H86.207V34.4832H90.5174V30.1729Z" fill="white"/>
<path d="M4.31035 34.4824H0V38.7928H4.31035V34.4824Z" fill="white"/>
<path d="M30.1726 34.4824H25.8623V38.7928H30.1726V34.4824Z" fill="white"/>
<path d="M38.7928 34.4824H34.4824V38.7928H38.7928V34.4824Z" fill="white"/>
<path d="M51.7244 34.4824H47.4141V38.7928H51.7244V34.4824Z" fill="white"/>
<path d="M56.0349 34.4824H51.7246V38.7928H56.0349V34.4824Z" fill="white"/>
<path d="M64.6551 34.4824H60.3447V38.7928H64.6551V34.4824Z" fill="white"/>
<path d="M68.9656 34.4824H64.6553V38.7928H68.9656V34.4824Z" fill="white"/>
<path d="M77.5867 34.4824H73.2764V38.7928H77.5867V34.4824Z" fill="white"/>
<path d="M81.8963 34.4824H77.5859V38.7928H81.8963V34.4824Z" fill="white"/>
<path d="M86.2068 34.4824H81.8965V38.7928H86.2068V34.4824Z" fill="white"/>
<path d="M94.8279 34.4824H90.5176V38.7928H94.8279V34.4824Z" fill="white"/>
<path d="M99.1375 34.4824H94.8271V38.7928H99.1375V34.4824Z" fill="white"/>
<path d="M112.069 34.4824H107.759V38.7928H112.069V34.4824Z" fill="white"/>
<path d="M116.38 34.4824H112.069V38.7928H116.38V34.4824Z" fill="white"/>
<path d="M120.689 34.4824H116.379V38.7928H120.689V34.4824Z" fill="white"/>
<path d="M4.31035 38.793H0V43.1033H4.31035V38.793Z" fill="white"/>
<path d="M8.62089 38.793H4.31055V43.1033H8.62089V38.793Z" fill="white"/>
<path d="M21.5516 38.793H17.2412V43.1033H21.5516V38.793Z" fill="white"/>
<path d="M43.1033 38.793H38.793V43.1033H43.1033V38.793Z" fill="white"/>
<path d="M51.7244 38.793H47.4141V43.1033H51.7244V38.793Z" fill="white"/>
<path d="M64.6551 38.793H60.3447V43.1033H64.6551V38.793Z" fill="white"/>
<path d="M77.5867 38.793H73.2764V43.1033H77.5867V38.793Z" fill="white"/>
<path d="M81.8963 38.793H77.5859V43.1033H81.8963V38.793Z" fill="white"/>
<path d="M86.2068 38.793H81.8965V43.1033H86.2068V38.793Z" fill="white"/>
<path d="M90.5174 38.793H86.207V43.1033H90.5174V38.793Z" fill="white"/>
<path d="M94.8279 38.793H90.5176V43.1033H94.8279V38.793Z" fill="white"/>
<path d="M103.448 38.793H99.1377V43.1033H103.448V38.793Z" fill="white"/>
<path d="M107.759 38.793H103.448V43.1033H107.759V38.793Z" fill="white"/>
<path d="M116.38 38.793H112.069V43.1033H116.38V38.793Z" fill="white"/>
<path d="M120.689 38.793H116.379V43.1033H120.689V38.793Z" fill="white"/>
<path d="M4.31035 43.1035H0V47.4139H4.31035V43.1035Z" fill="white"/>
<path d="M8.62089 43.1035H4.31055V47.4139H8.62089V43.1035Z" fill="white"/>
<path d="M21.5516 43.1035H17.2412V47.4139H21.5516V43.1035Z" fill="white"/>
<path d="M25.8621 43.1035H21.5518V47.4139H25.8621V43.1035Z" fill="white"/>
<path d="M30.1726 43.1035H25.8623V47.4139H30.1726V43.1035Z" fill="white"/>
<path d="M38.7928 43.1035H34.4824V47.4139H38.7928V43.1035Z" fill="white"/>
<path d="M43.1033 43.1035H38.793V47.4139H43.1033V43.1035Z" fill="white"/>
<path d="M47.4139 43.1035H43.1035V47.4139H47.4139V43.1035Z" fill="white"/>
<path d="M56.0349 43.1035H51.7246V47.4139H56.0349V43.1035Z" fill="white"/>
<path d="M77.5867 43.1035H73.2764V47.4139H77.5867V43.1035Z" fill="white"/>
<path d="M90.5174 43.1035H86.207V47.4139H90.5174V43.1035Z" fill="white"/>
<path d="M103.448 43.1035H99.1377V47.4139H103.448V43.1035Z" fill="white"/>
<path d="M107.759 43.1035H103.448V47.4139H107.759V43.1035Z" fill="white"/>
<path d="M4.31035 47.4141H0V51.7244H4.31035V47.4141Z" fill="white"/>
<path d="M8.62089 47.4141H4.31055V51.7244H8.62089V47.4141Z" fill="white"/>
<path d="M12.9314 47.4141H8.62109V51.7244H12.9314V47.4141Z" fill="white"/>
<path d="M25.8621 47.4141H21.5518V51.7244H25.8621V47.4141Z" fill="white"/>
<path d="M38.7928 47.4141H34.4824V51.7244H38.7928V47.4141Z" fill="white"/>
<path d="M43.1033 47.4141H38.793V51.7244H43.1033V47.4141Z" fill="white"/>
<path d="M64.6551 47.4141H60.3447V51.7244H64.6551V47.4141Z" fill="white"/>
<path d="M68.9656 47.4141H64.6553V51.7244H68.9656V47.4141Z" fill="white"/>
<path d="M73.2762 47.4141H68.9658V51.7244H73.2762V47.4141Z" fill="white"/>
<path d="M81.8963 47.4141H77.5859V51.7244H81.8963V47.4141Z" fill="white"/>
<path d="M86.2068 47.4141H81.8965V51.7244H86.2068V47.4141Z" fill="white"/>
<path d="M94.8279 47.4141H90.5176V51.7244H94.8279V47.4141Z" fill="white"/>
<path d="M107.759 47.4141H103.448V51.7244H107.759V47.4141Z" fill="white"/>
<path d="M4.31035 51.7236H0V56.034H4.31035V51.7236Z" fill="white"/>
<path d="M8.62089 51.7236H4.31055V56.034H8.62089V51.7236Z" fill="white"/>
<path d="M25.8621 51.7236H21.5518V56.034H25.8621V51.7236Z" fill="white"/>
<path d="M30.1726 51.7236H25.8623V56.034H30.1726V51.7236Z" fill="white"/>
<path d="M38.7928 51.7236H34.4824V56.034H38.7928V51.7236Z" fill="white"/>
<path d="M43.1033 51.7236H38.793V56.034H43.1033V51.7236Z" fill="white"/>
<path d="M47.4139 51.7236H43.1035V56.034H47.4139V51.7236Z" fill="white"/>
<path d="M51.7244 51.7236H47.4141V56.034H51.7244V51.7236Z" fill="white"/>
<path d="M56.0349 51.7236H51.7246V56.034H56.0349V51.7236Z" fill="white"/>
<path d="M60.3445 51.7236H56.0342V56.034H60.3445V51.7236Z" fill="white"/>
<path d="M64.6551 51.7236H60.3447V56.034H64.6551V51.7236Z" fill="white"/>
<path d="M90.5174 51.7236H86.207V56.034H90.5174V51.7236Z" fill="white"/>
<path d="M99.1375 51.7236H94.8271V56.034H99.1375V51.7236Z" fill="white"/>
<path d="M125 51.7236H120.689V56.034H125V51.7236Z" fill="white"/>
<path d="M12.9314 56.0342H8.62109V60.3445H12.9314V56.0342Z" fill="white"/>
<path d="M34.4832 56.0342H30.1729V60.3445H34.4832V56.0342Z" fill="white"/>
<path d="M43.1033 56.0342H38.793V60.3445H43.1033V56.0342Z" fill="white"/>
<path d="M56.0349 56.0342H51.7246V60.3445H56.0349V56.0342Z" fill="white"/>
<path d="M60.3445 56.0342H56.0342V60.3445H60.3445V56.0342Z" fill="white"/>
<path d="M64.6551 56.0342H60.3447V60.3445H64.6551V56.0342Z" fill="white"/>
<path d="M86.2068 56.0342H81.8965V60.3445H86.2068V56.0342Z" fill="white"/>
<path d="M90.5174 56.0342H86.207V60.3445H90.5174V56.0342Z" fill="white"/>
<path d="M99.1375 56.0342H94.8271V60.3445H99.1375V56.0342Z" fill="white"/>
<path d="M103.448 56.0342H99.1377V60.3445H103.448V56.0342Z" fill="white"/>
<path d="M107.759 56.0342H103.448V60.3445H107.759V56.0342Z" fill="white"/>
<path d="M116.38 56.0342H112.069V60.3445H116.38V56.0342Z" fill="white"/>
<path d="M120.689 56.0342H116.379V60.3445H120.689V56.0342Z" fill="white"/>
<path d="M125 56.0342H120.689V60.3445H125V56.0342Z" fill="white"/>
<path d="M4.31035 60.3447H0V64.6551H4.31035V60.3447Z" fill="white"/>
<path d="M12.9314 60.3447H8.62109V64.6551H12.9314V60.3447Z" fill="white"/>
<path d="M21.5516 60.3447H17.2412V64.6551H21.5516V60.3447Z" fill="white"/>
<path d="M25.8621 60.3447H21.5518V64.6551H25.8621V60.3447Z" fill="white"/>
<path d="M30.1726 60.3447H25.8623V64.6551H30.1726V60.3447Z" fill="white"/>
<path d="M34.4832 60.3447H30.1729V64.6551H34.4832V60.3447Z" fill="white"/>
<path d="M38.7928 60.3447H34.4824V64.6551H38.7928V60.3447Z" fill="white"/>
<path d="M51.7244 60.3447H47.4141V64.6551H51.7244V60.3447Z" fill="white"/>
<path d="M56.0349 60.3447H51.7246V64.6551H56.0349V60.3447Z" fill="white"/>
<path d="M60.3445 60.3447H56.0342V64.6551H60.3445V60.3447Z" fill="white"/>
<path d="M64.6551 60.3447H60.3447V64.6551H64.6551V60.3447Z" fill="white"/>
<path d="M68.9656 60.3447H64.6553V64.6551H68.9656V60.3447Z" fill="white"/>
<path d="M73.2762 60.3447H68.9658V64.6551H73.2762V60.3447Z" fill="white"/>
<path d="M94.8279 60.3447H90.5176V64.6551H94.8279V60.3447Z" fill="white"/>
<path d="M99.1375 60.3447H94.8271V64.6551H99.1375V60.3447Z" fill="white"/>
<path d="M116.38 60.3447H112.069V64.6551H116.38V60.3447Z" fill="white"/>
<path d="M12.9314 64.6553H8.62109V68.9656H12.9314V64.6553Z" fill="white"/>
<path d="M38.7928 64.6553H34.4824V68.9656H38.7928V64.6553Z" fill="white"/>
<path d="M43.1033 64.6553H38.793V68.9656H43.1033V64.6553Z" fill="white"/>
<path d="M47.4139 64.6553H43.1035V68.9656H47.4139V64.6553Z" fill="white"/>
<path d="M51.7244 64.6553H47.4141V68.9656H51.7244V64.6553Z" fill="white"/>
<path d="M60.3445 64.6553H56.0342V68.9656H60.3445V64.6553Z" fill="white"/>
<path d="M64.6551 64.6553H60.3447V68.9656H64.6551V64.6553Z" fill="white"/>
<path d="M73.2762 64.6553H68.9658V68.9656H73.2762V64.6553Z" fill="white"/>
<path d="M81.8963 64.6553H77.5859V68.9656H81.8963V64.6553Z" fill="white"/>
<path d="M86.2068 64.6553H81.8965V68.9656H86.2068V64.6553Z" fill="white"/>
<path d="M90.5174 64.6553H86.207V68.9656H90.5174V64.6553Z" fill="white"/>
<path d="M94.8279 64.6553H90.5176V68.9656H94.8279V64.6553Z" fill="white"/>
<path d="M99.1375 64.6553H94.8271V68.9656H99.1375V64.6553Z" fill="white"/>
<path d="M103.448 64.6553H99.1377V68.9656H103.448V64.6553Z" fill="white"/>
<path d="M116.38 64.6553H112.069V68.9656H116.38V64.6553Z" fill="white"/>
<path d="M125 64.6553H120.689V68.9656H125V64.6553Z" fill="white"/>
<path d="M4.31035 68.9658H0V73.2762H4.31035V68.9658Z" fill="white"/>
<path d="M12.9314 68.9658H8.62109V73.2762H12.9314V68.9658Z" fill="white"/>
<path d="M21.5516 68.9658H17.2412V73.2762H21.5516V68.9658Z" fill="white"/>
<path d="M25.8621 68.9658H21.5518V73.2762H25.8621V68.9658Z" fill="white"/>
<path d="M30.1726 68.9658H25.8623V73.2762H30.1726V68.9658Z" fill="white"/>
<path d="M34.4832 68.9658H30.1729V73.2762H34.4832V68.9658Z" fill="white"/>
<path d="M56.0349 68.9658H51.7246V73.2762H56.0349V68.9658Z" fill="white"/>
<path d="M64.6551 68.9658H60.3447V73.2762H64.6551V68.9658Z" fill="white"/>
<path d="M68.9656 68.9658H64.6553V73.2762H68.9656V68.9658Z" fill="white"/>
<path d="M77.5867 68.9658H73.2764V73.2762H77.5867V68.9658Z" fill="white"/>
<path d="M90.5174 68.9658H86.207V73.2762H90.5174V68.9658Z" fill="white"/>
<path d="M116.38 68.9658H112.069V73.2762H116.38V68.9658Z" fill="white"/>
<path d="M21.5516 73.2764H17.2412V77.5867H21.5516V73.2764Z" fill="white"/>
<path d="M34.4832 73.2764H30.1729V77.5867H34.4832V73.2764Z" fill="white"/>
<path d="M43.1033 73.2764H38.793V77.5867H43.1033V73.2764Z" fill="white"/>
<path d="M51.7244 73.2764H47.4141V77.5867H51.7244V73.2764Z" fill="white"/>
<path d="M73.2762 73.2764H68.9658V77.5867H73.2762V73.2764Z" fill="white"/>
<path d="M86.2068 73.2764H81.8965V77.5867H86.2068V73.2764Z" fill="white"/>
<path d="M90.5174 73.2764H86.207V77.5867H90.5174V73.2764Z" fill="white"/>
<path d="M99.1375 73.2764H94.8271V77.5867H99.1375V73.2764Z" fill="white"/>
<path d="M107.759 73.2764H103.448V77.5867H107.759V73.2764Z" fill="white"/>
<path d="M112.069 73.2764H107.759V77.5867H112.069V73.2764Z" fill="white"/>
<path d="M116.38 73.2764H112.069V77.5867H116.38V73.2764Z" fill="white"/>
<path d="M120.689 73.2764H116.379V77.5867H120.689V73.2764Z" fill="white"/>
<path d="M125 73.2764H120.689V77.5867H125V73.2764Z" fill="white"/>
<path d="M17.241 77.5859H12.9307V81.8963H17.241V77.5859Z" fill="white"/>
<path d="M21.5516 77.5859H17.2412V81.8963H21.5516V77.5859Z" fill="white"/>
<path d="M25.8621 77.5859H21.5518V81.8963H25.8621V77.5859Z" fill="white"/>
<path d="M30.1726 77.5859H25.8623V81.8963H30.1726V77.5859Z" fill="white"/>
<path d="M38.7928 77.5859H34.4824V81.8963H38.7928V77.5859Z" fill="white"/>
<path d="M43.1033 77.5859H38.793V81.8963H43.1033V77.5859Z" fill="white"/>
<path d="M60.3445 77.5859H56.0342V81.8963H60.3445V77.5859Z" fill="white"/>
<path d="M64.6551 77.5859H60.3447V81.8963H64.6551V77.5859Z" fill="white"/>
<path d="M73.2762 77.5859H68.9658V81.8963H73.2762V77.5859Z" fill="white"/>
<path d="M86.2068 77.5859H81.8965V81.8963H86.2068V77.5859Z" fill="white"/>
<path d="M94.8279 77.5859H90.5176V81.8963H94.8279V77.5859Z" fill="white"/>
<path d="M99.1375 77.5859H94.8271V81.8963H99.1375V77.5859Z" fill="white"/>
<path d="M125 77.5859H120.689V81.8963H125V77.5859Z" fill="white"/>
<path d="M8.62089 81.8965H4.31055V86.2068H8.62089V81.8965Z" fill="white"/>
<path d="M12.9314 81.8965H8.62109V86.2068H12.9314V81.8965Z" fill="white"/>
<path d="M38.7928 81.8965H34.4824V86.2068H38.7928V81.8965Z" fill="white"/>
<path d="M51.7244 81.8965H47.4141V86.2068H51.7244V81.8965Z" fill="white"/>
<path d="M64.6551 81.8965H60.3447V86.2068H64.6551V81.8965Z" fill="white"/>
<path d="M68.9656 81.8965H64.6553V86.2068H68.9656V81.8965Z" fill="white"/>
<path d="M73.2762 81.8965H68.9658V86.2068H73.2762V81.8965Z" fill="white"/>
<path d="M94.8279 81.8965H90.5176V86.2068H94.8279V81.8965Z" fill="white"/>
<path d="M99.1375 81.8965H94.8271V86.2068H99.1375V81.8965Z" fill="white"/>
<path d="M103.448 81.8965H99.1377V86.2068H103.448V81.8965Z" fill="white"/>
<path d="M107.759 81.8965H103.448V86.2068H107.759V81.8965Z" fill="white"/>
<path d="M8.62089 86.207H4.31055V90.5174H8.62089V86.207Z" fill="white"/>
<path d="M12.9314 86.207H8.62109V90.5174H12.9314V86.207Z" fill="white"/>
<path d="M17.241 86.207H12.9307V90.5174H17.241V86.207Z" fill="white"/>
<path d="M25.8621 86.207H21.5518V90.5174H25.8621V86.207Z" fill="white"/>
<path d="M30.1726 86.207H25.8623V90.5174H30.1726V86.207Z" fill="white"/>
<path d="M43.1033 86.207H38.793V90.5174H43.1033V86.207Z" fill="white"/>
<path d="M56.0349 86.207H51.7246V90.5174H56.0349V86.207Z" fill="white"/>
<path d="M73.2762 86.207H68.9658V90.5174H73.2762V86.207Z" fill="white"/>
<path d="M81.8963 86.207H77.5859V90.5174H81.8963V86.207Z" fill="white"/>
<path d="M90.5174 86.207H86.207V90.5174H90.5174V86.207Z" fill="white"/>
<path d="M94.8279 86.207H90.5176V90.5174H94.8279V86.207Z" fill="white"/>
<path d="M99.1375 86.207H94.8271V90.5174H99.1375V86.207Z" fill="white"/>
<path d="M103.448 86.207H99.1377V90.5174H103.448V86.207Z" fill="white"/>
<path d="M107.759 86.207H103.448V90.5174H107.759V86.207Z" fill="white"/>
<path d="M116.38 86.207H112.069V90.5174H116.38V86.207Z" fill="white"/>
<path d="M120.689 86.207H116.379V90.5174H120.689V86.207Z" fill="white"/>
<path d="M125 86.207H120.689V90.5174H125V86.207Z" fill="white"/>
<path d="M38.7928 90.5176H34.4824V94.8279H38.7928V90.5176Z" fill="white"/>
<path d="M56.0349 90.5176H51.7246V94.8279H56.0349V90.5176Z" fill="white"/>
<path d="M60.3445 90.5176H56.0342V94.8279H60.3445V90.5176Z" fill="white"/>
<path d="M73.2762 90.5176H68.9658V94.8279H73.2762V90.5176Z" fill="white"/>
<path d="M77.5867 90.5176H73.2764V94.8279H77.5867V90.5176Z" fill="white"/>
<path d="M81.8963 90.5176H77.5859V94.8279H81.8963V90.5176Z" fill="white"/>
<path d="M90.5174 90.5176H86.207V94.8279H90.5174V90.5176Z" fill="white"/>
<path d="M107.759 90.5176H103.448V94.8279H107.759V90.5176Z" fill="white"/>
<path d="M112.069 90.5176H107.759V94.8279H112.069V90.5176Z" fill="white"/>
<path d="M4.31035 94.8281H0V99.1385H4.31035V94.8281Z" fill="white"/>
<path d="M8.62089 94.8281H4.31055V99.1385H8.62089V94.8281Z" fill="white"/>
<path d="M12.9314 94.8281H8.62109V99.1385H12.9314V94.8281Z" fill="white"/>
<path d="M17.241 94.8281H12.9307V99.1385H17.241V94.8281Z" fill="white"/>
<path d="M21.5516 94.8281H17.2412V99.1385H21.5516V94.8281Z" fill="white"/>
<path d="M25.8621 94.8281H21.5518V99.1385H25.8621V94.8281Z" fill="white"/>
<path d="M30.1726 94.8281H25.8623V99.1385H30.1726V94.8281Z" fill="white"/>
<path d="M43.1033 94.8281H38.793V99.1385H43.1033V94.8281Z" fill="white"/>
<path d="M47.4139 94.8281H43.1035V99.1385H47.4139V94.8281Z" fill="white"/>
<path d="M56.0349 94.8281H51.7246V99.1385H56.0349V94.8281Z" fill="white"/>
<path d="M60.3445 94.8281H56.0342V99.1385H60.3445V94.8281Z" fill="white"/>
<path d="M64.6551 94.8281H60.3447V99.1385H64.6551V94.8281Z" fill="white"/>
<path d="M68.9656 94.8281H64.6553V99.1385H68.9656V94.8281Z" fill="white"/>
<path d="M73.2762 94.8281H68.9658V99.1385H73.2762V94.8281Z" fill="white"/>
<path d="M77.5867 94.8281H73.2764V99.1385H77.5867V94.8281Z" fill="white"/>
<path d="M86.2068 94.8281H81.8965V99.1385H86.2068V94.8281Z" fill="white"/>
<path d="M90.5174 94.8281H86.207V99.1385H90.5174V94.8281Z" fill="white"/>
<path d="M99.1375 94.8281H94.8271V99.1385H99.1375V94.8281Z" fill="white"/>
<path d="M107.759 94.8281H103.448V99.1385H107.759V94.8281Z" fill="white"/>
<path d="M112.069 94.8281H107.759V99.1385H112.069V94.8281Z" fill="white"/>
<path d="M116.38 94.8281H112.069V99.1385H116.38V94.8281Z" fill="white"/>
<path d="M4.31035 99.1377H0V103.448H4.31035V99.1377Z" fill="white"/>
<path d="M30.1726 99.1377H25.8623V103.448H30.1726V99.1377Z" fill="white"/>
<path d="M43.1033 99.1377H38.793V103.448H43.1033V99.1377Z" fill="white"/>
<path d="M56.0349 99.1377H51.7246V103.448H56.0349V99.1377Z" fill="white"/>
<path d="M60.3445 99.1377H56.0342V103.448H60.3445V99.1377Z" fill="white"/>
<path d="M77.5867 99.1377H73.2764V103.448H77.5867V99.1377Z" fill="white"/>
<path d="M81.8963 99.1377H77.5859V103.448H81.8963V99.1377Z" fill="white"/>
<path d="M86.2068 99.1377H81.8965V103.448H86.2068V99.1377Z" fill="white"/>
<path d="M90.5174 99.1377H86.207V103.448H90.5174V99.1377Z" fill="white"/>
<path d="M107.759 99.1377H103.448V103.448H107.759V99.1377Z" fill="white"/>
<path d="M112.069 99.1377H107.759V103.448H112.069V99.1377Z" fill="white"/>
<path d="M120.689 99.1377H116.379V103.448H120.689V99.1377Z" fill="white"/>
<path d="M125 99.1377H120.689V103.448H125V99.1377Z" fill="white"/>
<path d="M4.31035 103.448H0V107.759H4.31035V103.448Z" fill="white"/>
<path d="M12.9314 103.448H8.62109V107.759H12.9314V103.448Z" fill="white"/>
<path d="M17.241 103.448H12.9307V107.759H17.241V103.448Z" fill="white"/>
<path d="M21.5516 103.448H17.2412V107.759H21.5516V103.448Z" fill="white"/>
<path d="M30.1726 103.448H25.8623V107.759H30.1726V103.448Z" fill="white"/>
<path d="M43.1033 103.448H38.793V107.759H43.1033V103.448Z" fill="white"/>
<path d="M51.7244 103.448H47.4141V107.759H51.7244V103.448Z" fill="white"/>
<path d="M60.3445 103.448H56.0342V107.759H60.3445V103.448Z" fill="white"/>
<path d="M68.9656 103.448H64.6553V107.759H68.9656V103.448Z" fill="white"/>
<path d="M73.2762 103.448H68.9658V107.759H73.2762V103.448Z" fill="white"/>
<path d="M77.5867 103.448H73.2764V107.759H77.5867V103.448Z" fill="white"/>
<path d="M86.2068 103.448H81.8965V107.759H86.2068V103.448Z" fill="white"/>
<path d="M90.5174 103.448H86.207V107.759H90.5174V103.448Z" fill="white"/>
<path d="M94.8279 103.448H90.5176V107.759H94.8279V103.448Z" fill="white"/>
<path d="M99.1375 103.448H94.8271V107.759H99.1375V103.448Z" fill="white"/>
<path d="M103.448 103.448H99.1377V107.759H103.448V103.448Z" fill="white"/>
<path d="M107.759 103.448H103.448V107.759H107.759V103.448Z" fill="white"/>
<path d="M120.689 103.448H116.379V107.759H120.689V103.448Z" fill="white"/>
<path d="M4.31035 107.759H0V112.069H4.31035V107.759Z" fill="white"/>
<path d="M12.9314 107.759H8.62109V112.069H12.9314V107.759Z" fill="white"/>
<path d="M17.241 107.759H12.9307V112.069H17.241V107.759Z" fill="white"/>
<path d="M21.5516 107.759H17.2412V112.069H21.5516V107.759Z" fill="white"/>
<path d="M30.1726 107.759H25.8623V112.069H30.1726V107.759Z" fill="white"/>
<path d="M43.1033 107.759H38.793V112.069H43.1033V107.759Z" fill="white"/>
<path d="M47.4139 107.759H43.1035V112.069H47.4139V107.759Z" fill="white"/>
<path d="M73.2762 107.759H68.9658V112.069H73.2762V107.759Z" fill="white"/>
<path d="M81.8963 107.759H77.5859V112.069H81.8963V107.759Z" fill="white"/>
<path d="M86.2068 107.759H81.8965V112.069H86.2068V107.759Z" fill="white"/>
<path d="M94.8279 107.759H90.5176V112.069H94.8279V107.759Z" fill="white"/>
<path d="M103.448 107.759H99.1377V112.069H103.448V107.759Z" fill="white"/>
<path d="M112.069 107.759H107.759V112.069H112.069V107.759Z" fill="white"/>
<path d="M120.689 107.759H116.379V112.069H120.689V107.759Z" fill="white"/>
<path d="M4.31035 112.069H0V116.38H4.31035V112.069Z" fill="white"/>
<path d="M12.9314 112.069H8.62109V116.38H12.9314V112.069Z" fill="white"/>
<path d="M17.241 112.069H12.9307V116.38H17.241V112.069Z" fill="white"/>
<path d="M21.5516 112.069H17.2412V116.38H21.5516V112.069Z" fill="white"/>
<path d="M30.1726 112.069H25.8623V116.38H30.1726V112.069Z" fill="white"/>
<path d="M43.1033 112.069H38.793V116.38H43.1033V112.069Z" fill="white"/>
<path d="M51.7244 112.069H47.4141V116.38H51.7244V112.069Z" fill="white"/>
<path d="M60.3445 112.069H56.0342V116.38H60.3445V112.069Z" fill="white"/>
<path d="M81.8963 112.069H77.5859V116.38H81.8963V112.069Z" fill="white"/>
<path d="M86.2068 112.069H81.8965V116.38H86.2068V112.069Z" fill="white"/>
<path d="M90.5174 112.069H86.207V116.38H90.5174V112.069Z" fill="white"/>
<path d="M94.8279 112.069H90.5176V116.38H94.8279V112.069Z" fill="white"/>
<path d="M99.1375 112.069H94.8271V116.38H99.1375V112.069Z" fill="white"/>
<path d="M103.448 112.069H99.1377V116.38H103.448V112.069Z" fill="white"/>
<path d="M107.759 112.069H103.448V116.38H107.759V112.069Z" fill="white"/>
<path d="M112.069 112.069H107.759V116.38H112.069V112.069Z" fill="white"/>
<path d="M116.38 112.069H112.069V116.38H116.38V112.069Z" fill="white"/>
<path d="M120.689 112.069H116.379V116.38H120.689V112.069Z" fill="white"/>
<path d="M4.31035 116.379H0V120.689H4.31035V116.379Z" fill="white"/>
<path d="M30.1726 116.379H25.8623V120.689H30.1726V116.379Z" fill="white"/>
<path d="M43.1033 116.379H38.793V120.689H43.1033V116.379Z" fill="white"/>
<path d="M60.3445 116.379H56.0342V120.689H60.3445V116.379Z" fill="white"/>
<path d="M68.9656 116.379H64.6553V120.689H68.9656V116.379Z" fill="white"/>
<path d="M103.448 116.379H99.1377V120.689H103.448V116.379Z" fill="white"/>
<path d="M112.069 116.379H107.759V120.689H112.069V116.379Z" fill="white"/>
<path d="M116.38 116.379H112.069V120.689H116.38V116.379Z" fill="white"/>
<path d="M125 116.379H120.689V120.689H125V116.379Z" fill="white"/>
<path d="M4.31035 120.689H0V125H4.31035V120.689Z" fill="white"/>
<path d="M8.62089 120.689H4.31055V125H8.62089V120.689Z" fill="white"/>
<path d="M12.9314 120.689H8.62109V125H12.9314V120.689Z" fill="white"/>
<path d="M17.241 120.689H12.9307V125H17.241V120.689Z" fill="white"/>
<path d="M21.5516 120.689H17.2412V125H21.5516V120.689Z" fill="white"/>
<path d="M25.8621 120.689H21.5518V125H25.8621V120.689Z" fill="white"/>
<path d="M30.1726 120.689H25.8623V125H30.1726V120.689Z" fill="white"/>
<path d="M38.7928 120.689H34.4824V125H38.7928V120.689Z" fill="white"/>
<path d="M43.1033 120.689H38.793V125H43.1033V120.689Z" fill="white"/>
<path d="M51.7244 120.689H47.4141V125H51.7244V120.689Z" fill="white"/>
<path d="M56.0349 120.689H51.7246V125H56.0349V120.689Z" fill="white"/>
<path d="M73.2762 120.689H68.9658V125H73.2762V120.689Z" fill="white"/>
<path d="M81.8963 120.689H77.5859V125H81.8963V120.689Z" fill="white"/>
<path d="M86.2068 120.689H81.8965V125H86.2068V120.689Z" fill="white"/>
<path d="M99.1375 120.689H94.8271V125H99.1375V120.689Z" fill="white"/>
<path d="M103.448 120.689H99.1377V125H103.448V120.689Z" fill="white"/>
<path d="M107.759 120.689H103.448V125H107.759V120.689Z" fill="white"/>
<path d="M112.069 120.689H107.759V125H112.069V120.689Z" fill="white"/>
<path d="M116.38 120.689H112.069V125H116.38V120.689Z" fill="white"/>
</svg>
