<svg width="55" height="14" viewBox="0 0 55 14" fill="none" xmlns="http://www.w3.org/2000/svg">
<path d="M13.104 2.102H7.49V0.267999H6.454V2.102H0.91V3.11H13.104V2.102ZM8.652 4.118C9.982 5.042 11.578 6.386 12.32 7.296L13.23 6.582C12.432 5.658 10.794 4.37 9.478 3.488L8.652 4.118ZM4.48 3.544C3.626 4.72 2.17 5.882 0.798 6.61C1.064 6.792 1.456 7.212 1.652 7.436C2.996 6.596 4.564 5.28 5.53 3.95L4.48 3.544ZM9.016 5.938C8.554 7.198 7.882 8.234 7.028 9.088C6.174 8.22 5.502 7.198 5.04 6.008L4.046 6.316C4.592 7.674 5.32 8.822 6.23 9.788C4.774 10.922 2.87 11.664 0.602 12.14C0.826 12.378 1.162 12.868 1.26 13.12C3.528 12.546 5.46 11.734 7 10.516C8.484 11.762 10.402 12.616 12.768 13.064C12.908 12.784 13.216 12.308 13.454 12.084C11.144 11.706 9.254 10.936 7.812 9.788C8.778 8.836 9.548 7.674 10.094 6.246L9.016 5.938ZM17.654 4.006H24.528V5.392H17.654V4.006ZM17.654 1.794H24.528V3.18H17.654V1.794ZM18.536 7.45C18.83 7.072 19.138 6.68 19.376 6.274H25.578V0.926H16.632V6.274H18.172C17.29 7.562 15.946 8.71 14.588 9.48C14.84 9.648 15.232 10.012 15.4 10.208C16.17 9.732 16.954 9.102 17.668 8.388H19.614C18.69 9.886 17.262 11.202 15.764 12.042C16.002 12.224 16.394 12.602 16.562 12.784C18.158 11.762 19.74 10.194 20.762 8.388H22.652C21.98 10.054 20.916 11.538 19.628 12.504C19.88 12.644 20.286 12.98 20.468 13.148C21.798 12.042 22.974 10.348 23.716 8.388H25.424C25.2 10.796 24.962 11.79 24.654 12.07C24.528 12.21 24.388 12.224 24.15 12.224C23.898 12.224 23.254 12.224 22.582 12.154C22.736 12.406 22.848 12.784 22.862 13.064C23.562 13.106 24.234 13.106 24.584 13.078C24.99 13.064 25.256 12.966 25.522 12.686C25.942 12.252 26.222 11.048 26.488 7.926C26.516 7.772 26.53 7.45 26.53 7.45H18.536ZM32.76 2.088V4.734H30.142V2.088H32.76ZM30.142 8.472V5.686H32.76V8.472H30.142ZM33.726 9.438V1.15H29.162V10.726H30.142V9.438H33.726ZM35.938 7.66C36.008 7.03 36.022 6.414 36.022 5.84V5.21H39.928V7.66H35.938ZM39.928 1.864V4.258H36.022V1.864H39.928ZM40.936 0.884H35.014V5.84C35.014 8.01 34.776 10.642 32.424 12.448C32.634 12.588 33.026 12.938 33.194 13.162C34.776 11.944 35.49 10.278 35.798 8.612H39.928V11.692C39.928 11.944 39.83 12.028 39.564 12.042C39.34 12.042 38.458 12.056 37.548 12.028C37.716 12.294 37.884 12.756 37.94 13.036C39.13 13.036 39.9 13.008 40.348 12.854C40.796 12.672 40.936 12.35 40.936 11.692V0.884ZM43.344 8.22C43.176 9.438 42.924 10.684 42.476 11.538C42.7 11.608 43.12 11.804 43.288 11.93C43.722 11.034 44.058 9.69 44.24 8.374L43.344 8.22ZM46.368 8.43C46.746 9.284 47.152 10.418 47.278 11.146L48.118 10.866C47.964 10.138 47.572 9.018 47.166 8.164L46.368 8.43ZM46.116 5.056C46.34 5.392 46.55 5.77 46.746 6.148L44.576 6.288C45.542 5.126 46.606 3.572 47.39 2.298L46.522 1.878C46.116 2.648 45.556 3.586 44.954 4.482C44.73 4.188 44.436 3.838 44.1 3.502C44.632 2.718 45.248 1.598 45.738 0.645999L44.8 0.282C44.506 1.066 43.988 2.144 43.512 2.928C43.372 2.802 43.246 2.676 43.106 2.564L42.574 3.25C43.246 3.824 44.002 4.65 44.408 5.266C44.128 5.658 43.848 6.036 43.568 6.358C43.176 6.386 42.812 6.414 42.476 6.428L42.63 7.38L44.94 7.17V13.05H45.878V7.086L47.138 6.96C47.306 7.352 47.446 7.702 47.53 7.996L48.37 7.59C48.132 6.806 47.516 5.616 46.9 4.72L46.116 5.056ZM52.08 11.174V7.17H53.998V11.174H52.08ZM49.336 7.17H51.156V11.174H49.336V7.17ZM51.156 2.368V6.218H49.336V2.368H51.156ZM53.998 6.218H52.08V2.368H53.998V6.218ZM48.398 1.402V12.896H49.336V12.14H53.998V12.784H54.964V1.402H48.398Z" fill="#666666"/>
</svg>
